<svg width="81" height="81" viewBox="0 0 81 81" fill="none" xmlns="http://www.w3.org/2000/svg">
<g filter="url(#filter0_d_278_8562)">
<rect x="10.8535" y="0.978516" width="60" height="60" rx="30" fill="#1B4932" shape-rendering="crispEdges"/>
<rect x="11.3535" y="1.47852" width="59" height="59" rx="29.5" stroke="#1B4932" stroke-opacity="0.1" shape-rendering="crispEdges"/>
<path d="M44.2538 28.8586L39.6638 24.2686C39.4764 24.0823 39.223 23.9778 38.9588 23.9778C38.6946 23.9778 38.4412 24.0823 38.2538 24.2686C38.1601 24.3615 38.0857 24.4721 38.0349 24.594C37.9841 24.7159 37.958 24.8466 37.958 24.9786C37.958 25.1106 37.9841 25.2413 38.0349 25.3632C38.0857 25.485 38.1601 25.5956 38.2538 25.6886L42.8538 30.2686C42.9475 30.3615 43.0219 30.4721 43.0727 30.594C43.1235 30.7159 43.1496 30.8466 43.1496 30.9786C43.1496 31.1106 43.1235 31.2413 43.0727 31.3632C43.0219 31.485 42.9475 31.5956 42.8538 31.6886L38.2538 36.2686C38.0655 36.4556 37.9592 36.7097 37.9583 36.975C37.9573 37.2404 38.0618 37.4953 38.2488 37.6836C38.4358 37.8719 38.6899 37.9782 38.9553 37.9791C39.2206 37.9801 39.4755 37.8756 39.6638 37.6886L44.2538 33.0986C44.8156 32.5361 45.1312 31.7736 45.1312 30.9786C45.1312 30.1836 44.8156 29.4211 44.2538 28.8586Z" fill="white"/>
</g>
<defs>
<filter id="filter0_d_278_8562" x="0.853516" y="0.978516" width="80" height="80" filterUnits="userSpaceOnUse" color-interpolation-filters="sRGB">
<feFlood flood-opacity="0" result="BackgroundImageFix"/>
<feColorMatrix in="SourceAlpha" type="matrix" values="0 0 0 0 0 0 0 0 0 0 0 0 0 0 0 0 0 0 127 0" result="hardAlpha"/>
<feOffset dy="10"/>
<feGaussianBlur stdDeviation="5"/>
<feComposite in2="hardAlpha" operator="out"/>
<feColorMatrix type="matrix" values="0 0 0 0 0.105882 0 0 0 0 0.286275 0 0 0 0 0.196078 0 0 0 0.05 0"/>
<feBlend mode="normal" in2="BackgroundImageFix" result="effect1_dropShadow_278_8562"/>
<feBlend mode="normal" in="SourceGraphic" in2="effect1_dropShadow_278_8562" result="shape"/>
</filter>
</defs>
</svg>
