<svg width="25" height="25" viewBox="0 0 25 25" fill="none" xmlns="http://www.w3.org/2000/svg">
<g id="fi-rr-angle-small-right">
<path id="Vector" d="M16.2538 10.8586L11.6638 6.26858C11.4764 6.08232 11.223 5.97778 10.9588 5.97778C10.6946 5.97778 10.4412 6.08232 10.2538 6.26858C10.1601 6.36154 10.0857 6.47214 10.0349 6.594C9.98415 6.71586 9.95801 6.84656 9.95801 6.97858C9.95801 7.11059 9.98415 7.24129 10.0349 7.36315C10.0857 7.48501 10.1601 7.59561 10.2538 7.68858L14.8538 12.2686C14.9475 12.3615 15.0219 12.4721 15.0727 12.594C15.1235 12.7159 15.1496 12.8466 15.1496 12.9786C15.1496 13.1106 15.1235 13.2413 15.0727 13.3632C15.0219 13.485 14.9475 13.5956 14.8538 13.6886L10.2538 18.2686C10.0655 18.4556 9.95919 18.7097 9.95825 18.975C9.95731 19.2404 10.0618 19.4953 10.2488 19.6836C10.4358 19.8719 10.6899 19.9782 10.9553 19.9791C11.2206 19.9801 11.4755 19.8756 11.6638 19.6886L16.2538 15.0986C16.8156 14.5361 17.1312 13.7736 17.1312 12.9786C17.1312 12.1836 16.8156 11.4211 16.2538 10.8586Z" fill="white"/>
</g>
</svg>
