<svg width="17" height="17" viewBox="0 0 17 17" fill="none" xmlns="http://www.w3.org/2000/svg">
<g id="fi-rr-angle-small-down">
<path id="Vector" d="M12.5478 6.27288C12.4858 6.2104 12.412 6.1608 12.3308 6.12695C12.2496 6.09311 12.1624 6.07568 12.0744 6.07568C11.9864 6.07568 11.8993 6.09311 11.818 6.12695C11.7368 6.1608 11.6631 6.2104 11.6011 6.27288L8.54776 9.32621C8.48578 9.38869 8.41205 9.43829 8.33081 9.47214C8.24957 9.50598 8.16243 9.52341 8.07442 9.52341C7.98641 9.52341 7.89928 9.50598 7.81804 9.47214C7.7368 9.43829 7.66306 9.38869 7.60109 9.32621L4.54776 6.27288C4.48578 6.2104 4.41205 6.1608 4.33081 6.12695C4.24957 6.09311 4.16243 6.07568 4.07442 6.07568C3.98641 6.07568 3.89928 6.09311 3.81804 6.12695C3.7368 6.1608 3.66306 6.2104 3.60109 6.27288C3.47692 6.39779 3.40723 6.56676 3.40723 6.74288C3.40723 6.919 3.47692 7.08797 3.60109 7.21288L6.66109 10.2729C7.03609 10.6474 7.54442 10.8578 8.07442 10.8578C8.60442 10.8578 9.11275 10.6474 9.48775 10.2729L12.5478 7.21288C12.6719 7.08797 12.7416 6.919 12.7416 6.74288C12.7416 6.56676 12.6719 6.39779 12.5478 6.27288Z" fill="auto" fill-opacity="0.6"/>
</g>
</svg>
