<svg width="14" height="8" viewBox="0 0 14 8" fill="none" xmlns="http://www.w3.org/2000/svg">
<path d="M13.7108 0.70986C13.6178 0.616132 13.5072 0.541738 13.3854 0.490969C13.2635 0.4402 13.1328 0.414062 13.0008 0.414062C12.8688 0.414062 12.7381 0.4402 12.6162 0.490969C12.4944 0.541738 12.3838 0.616132 12.2908 0.70986L7.71079 5.28985C7.61783 5.38358 7.50723 5.45797 7.38537 5.50874C7.26351 5.55951 7.13281 5.58565 7.00079 5.58565C6.86878 5.58565 6.73808 5.55951 6.61622 5.50874C6.49436 5.45797 6.38376 5.38358 6.29079 5.28985L1.71079 0.70986C1.61783 0.616132 1.50723 0.541738 1.38537 0.490969C1.26351 0.4402 1.1328 0.414062 1.00079 0.414062C0.868781 0.414062 0.738075 0.4402 0.616216 0.490969C0.494357 0.541738 0.383756 0.616132 0.290792 0.70986C0.104542 0.897222 0 1.15067 0 1.41486C0 1.67904 0.104542 1.9325 0.290792 2.11986L4.88079 6.70985C5.44329 7.27165 6.20579 7.58721 7.00079 7.58721C7.7958 7.58721 8.55829 7.27165 9.12079 6.70985L13.7108 2.11986C13.897 1.9325 14.0016 1.67904 14.0016 1.41486C14.0016 1.15067 13.897 0.897222 13.7108 0.70986Z" fill="white"/>
</svg>
