<svg width="24" height="25" viewBox="0 0 24 25" fill="none" xmlns="http://www.w3.org/2000/svg">
<g clip-path="url(#clip0_278_8785)">
<path d="M23.1197 10.5507L19.2497 6.64073C19.1567 6.547 19.0461 6.4726 18.9243 6.42183C18.8024 6.37107 18.6717 6.34493 18.5397 6.34493C18.4077 6.34493 18.277 6.37107 18.1551 6.42183C18.0333 6.4726 17.9227 6.547 17.8297 6.64073C17.736 6.73369 17.6616 6.84429 17.6108 6.96615C17.56 7.08801 17.5339 7.21871 17.5339 7.35072C17.5339 7.48274 17.56 7.61344 17.6108 7.7353C17.6616 7.85716 17.736 7.96776 17.8297 8.06073L21.3897 11.6407L0.999709 11.6407C0.734493 11.6407 0.480138 11.7461 0.292602 11.9336C0.105066 12.1212 -0.000290491 12.3755 -0.000290467 12.6407C-0.000290444 12.9059 0.105066 13.1603 0.292602 13.3478C0.480138 13.5354 0.734493 13.6407 0.99971 13.6407L21.4497 13.6407L17.8297 17.2607C17.6524 17.4467 17.5535 17.6938 17.5535 17.9507C17.5535 18.2077 17.6524 18.4547 17.8297 18.6407C17.9227 18.7345 18.0333 18.8088 18.1551 18.8596C18.277 18.9104 18.4077 18.9365 18.5397 18.9365C18.6717 18.9365 18.8024 18.9104 18.9243 18.8596C19.0461 18.8088 19.1567 18.7345 19.2497 18.6407L23.1197 14.7907C23.6815 14.2282 23.9971 13.4657 23.9971 12.6707C23.9971 11.8757 23.6815 11.1132 23.1197 10.5507Z" fill="auto"/>
</g>
<defs>
<clipPath id="clip0_278_8785">
<rect width="24" height="24" fill="auto" transform="translate(24 24.6406) rotate(180)"/>
</clipPath>
</defs>
</svg>
