<svg width="62" height="66" viewBox="0 0 62 66" fill="none" xmlns="http://www.w3.org/2000/svg">
<g filter="url(#filter0_b_278_8606)">
<ellipse cx="30.9895" cy="30" rx="30.0422" ry="30" fill="#1B4932" fill-opacity="0.2"/>
<path d="M60.5317 30C60.5317 46.2917 47.3059 59.5 30.9895 59.5C14.6731 59.5 1.44727 46.2917 1.44727 30C1.44727 13.7083 14.6731 0.5 30.9895 0.5C47.3059 0.5 60.5317 13.7083 60.5317 30Z" stroke="#1B4932" stroke-opacity="0.1"/>
</g>
<g filter="url(#filter1_d_278_8606)">
<path d="M39.1417 26.3028L30.373 19.8948C29.6881 19.3949 28.8778 19.0939 28.0317 19.025C27.1856 18.9561 26.337 19.122 25.5797 19.5044C24.8225 19.8867 24.1863 20.4706 23.7416 21.1912C23.297 21.9118 23.0612 22.7411 23.0606 23.5871V36.4095C23.0592 37.2564 23.2937 38.0869 23.738 38.8088C24.1822 39.5307 24.8187 40.1155 25.5767 40.4982C26.3347 40.881 27.1844 41.0466 28.0312 40.9766C28.878 40.9066 29.6887 40.6038 30.373 40.1019L39.1417 33.6939C39.7236 33.2683 40.1967 32.7122 40.5228 32.0706C40.8489 31.429 41.0188 30.7199 41.0188 30.0006C41.0188 29.2814 40.8489 28.5722 40.5228 27.9306C40.1967 27.289 39.7236 26.7329 39.1417 26.3073V26.3028Z" fill="white"/>
</g>
<defs>
<filter id="filter0_b_278_8606" x="-13.0527" y="-14" width="88.084" height="88" filterUnits="userSpaceOnUse" color-interpolation-filters="sRGB">
<feFlood flood-opacity="0" result="BackgroundImageFix"/>
<feGaussianBlur in="BackgroundImageFix" stdDeviation="7"/>
<feComposite in2="SourceAlpha" operator="in" result="effect1_backgroundBlur_278_8606"/>
<feBlend mode="normal" in="SourceGraphic" in2="effect1_backgroundBlur_278_8606" result="shape"/>
</filter>
<filter id="filter1_d_278_8606" x="5.06055" y="8.00977" width="53.958" height="57.9825" filterUnits="userSpaceOnUse" color-interpolation-filters="sRGB">
<feFlood flood-opacity="0" result="BackgroundImageFix"/>
<feColorMatrix in="SourceAlpha" type="matrix" values="0 0 0 0 0 0 0 0 0 0 0 0 0 0 0 0 0 0 127 0" result="hardAlpha"/>
<feOffset dy="7"/>
<feGaussianBlur stdDeviation="9"/>
<feComposite in2="hardAlpha" operator="out"/>
<feColorMatrix type="matrix" values="0 0 0 0 0.605556 0 0 0 0 0.666667 0 0 0 0 0.638148 0 0 0 0.7 0"/>
<feBlend mode="normal" in2="BackgroundImageFix" result="effect1_dropShadow_278_8606"/>
<feBlend mode="normal" in="SourceGraphic" in2="effect1_dropShadow_278_8606" result="shape"/>
</filter>
</defs>
</svg>
