<svg width="32" height="30" viewBox="0 0 32 30" fill="none" xmlns="http://www.w3.org/2000/svg">
<g id="PlusCircle">
<path id="Vector" opacity="0.2" d="M28.0038 15C28.0038 17.225 27.3237 19.4001 26.0495 21.2502C24.7753 23.1002 22.9643 24.5422 20.8453 25.3936C18.7264 26.2451 16.3948 26.4679 14.1454 26.0338C11.896 25.5998 9.82971 24.5283 8.20796 22.955C6.58621 21.3816 5.48179 19.3771 5.03435 17.1948C4.58691 15.0125 4.81655 12.7505 5.69423 10.6948C6.57192 8.63914 8.05823 6.88213 9.9652 5.64597C11.8722 4.4098 14.1142 3.75 16.4077 3.75C19.4832 3.75 22.4327 4.93526 24.6074 7.04505C26.7821 9.15483 28.0038 12.0163 28.0038 15Z" fill="#DA7924"/>
<path id="Vector_2" d="M16.4082 2.8125C13.9236 2.8125 11.4948 3.52728 9.42886 4.86646C7.36296 6.20564 5.7528 8.10907 4.80197 10.336C3.85115 12.563 3.60237 15.0135 4.08709 17.3777C4.57182 19.7418 5.76828 21.9134 7.52518 23.6179C9.28208 25.3223 11.5205 26.4831 13.9574 26.9533C16.3943 27.4236 18.9202 27.1822 21.2157 26.2598C23.5112 25.3373 25.4732 23.7752 26.8535 21.771C28.2339 19.7668 28.9707 17.4105 28.9707 15C28.9672 11.7687 27.6425 8.67076 25.2874 6.3859C22.9322 4.10104 19.7389 2.81591 16.4082 2.8125ZM16.4082 25.3125C14.3058 25.3125 12.2507 24.7077 10.5026 23.5745C8.75454 22.4414 7.39209 20.8308 6.58755 18.9464C5.783 17.0621 5.5725 14.9886 5.98265 12.9881C6.3928 10.9877 7.40519 9.15019 8.8918 7.70796C10.3784 6.26573 12.2725 5.28356 14.3344 4.88565C16.3964 4.48774 18.5337 4.69196 20.4761 5.47249C22.4184 6.25302 24.0786 7.5748 25.2466 9.27068C26.4146 10.9666 27.038 12.9604 27.038 15C27.0348 17.7341 25.9139 20.3553 23.9211 22.2886C21.9283 24.2219 19.2264 25.3094 16.4082 25.3125ZM22.2063 15C22.2063 15.2486 22.1045 15.4871 21.9233 15.6629C21.742 15.8387 21.4962 15.9375 21.2399 15.9375H17.3746V19.6875C17.3746 19.9361 17.2727 20.1746 17.0915 20.3504C16.9103 20.5262 16.6645 20.625 16.4082 20.625C16.1519 20.625 15.9061 20.5262 15.7249 20.3504C15.5437 20.1746 15.4419 19.9361 15.4419 19.6875V15.9375H11.5765C11.3202 15.9375 11.0744 15.8387 10.8932 15.6629C10.7119 15.4871 10.6101 15.2486 10.6101 15C10.6101 14.7514 10.7119 14.5129 10.8932 14.3371C11.0744 14.1613 11.3202 14.0625 11.5765 14.0625H15.4419V10.3125C15.4419 10.0639 15.5437 9.8254 15.7249 9.64959C15.9061 9.47377 16.1519 9.375 16.4082 9.375C16.6645 9.375 16.9103 9.47377 17.0915 9.64959C17.2727 9.8254 17.3746 10.0639 17.3746 10.3125V14.0625H21.2399C21.4962 14.0625 21.742 14.1613 21.9233 14.3371C22.1045 14.5129 22.2063 14.7514 22.2063 15Z" fill="#DA7924"/>
</g>
</svg>
