<svg width="43" height="35" viewBox="0 0 43 35" fill="none" xmlns="http://www.w3.org/2000/svg">
<path d="M12.1673 0.0700068C3.2603 11.4797 0.759528 16.6338 0.831315 22.6615C0.913869 29.5934 4.44084 34.6757 10.1672 34.6075C14.9894 34.5501 18.4105 30.7415 18.3602 26.5221C18.3064 22.0013 14.6449 18.277 10.1241 18.3308C11.274 13.645 13.7801 8.94298 17.7932 4.22302L12.1673 0.0700068Z" fill="auto"/>
<path d="M0.78303 22.6621C0.711243 16.6344 3.21201 11.4803 12.119 0.0705819L17.7449 4.2236C13.7318 8.94355 11.2257 13.6456 10.0758 18.3314C14.5966 18.2776 18.2581 22.0018 18.3119 26.5226C18.3622 30.7421 14.9411 34.5507 10.1189 34.6081C4.39255 34.6763 0.865584 29.594 0.78303 22.6621Z" fill="auto"/>
<path d="M36.1068 0.0700068C27.1998 11.4797 24.699 16.6338 24.7708 22.6615C24.8533 29.5934 28.3803 34.6757 34.1066 34.6075C38.9288 34.5501 42.3499 30.7415 42.2997 26.5221C42.2458 22.0013 38.5843 18.277 34.0635 18.3308C35.2134 13.645 37.7196 8.94298 41.7327 4.22302L36.1068 0.0700068Z" fill="auto"/>
<path d="M24.7225 22.6621C24.6507 16.6344 27.1515 11.4803 36.0585 0.0705819L41.6844 4.2236C37.6713 8.94355 35.1651 13.6456 34.0152 18.3314C38.536 18.2776 42.1975 22.0018 42.2514 26.5226C42.3016 30.7421 38.8806 34.5507 34.0584 34.6081C28.332 34.6763 24.805 29.594 24.7225 22.6621Z" fill="auto"/>
</svg>
