<?xml version="1.0" encoding="utf-8"?>
<!-- Generator: Adobe Illustrator 26.2.1, SVG Export Plug-In . SVG Version: 6.00 Build 0)  -->
<svg version="1.1" id="Layer_1" xmlns="http://www.w3.org/2000/svg" xmlns:xlink="http://www.w3.org/1999/xlink" x="0px" y="0px"
	 viewBox="0 0 186 127" style="enable-background:new 0 0 186 127;" xml:space="preserve">
<style type="text/css">
	.st0{fill:#FFFFFF;stroke:#D9D9D9;stroke-width:2.646;}
	.st1{fill-rule:evenodd;clip-rule:evenodd;}
</style>
<g>
	<path class="st0" d="M16.3,1.3h153.5c8,0,14.6,6.5,14.6,14.6v95.2c0,8-6.5,14.6-14.6,14.6H16.3c-8,0-14.6-6.5-14.6-14.6V15.9
		C1.7,7.8,8.2,1.3,16.3,1.3z"/>
	<path class="st1" d="M44.6,47.3c2.5,0.2,5-1.3,6.5-3.1c1.5-1.9,2.5-4.5,2.3-7.1c-2.2,0.1-4.9,1.5-6.5,3.4
		C45.5,42.1,44.3,44.8,44.6,47.3z M74.2,81.1V40.2h15.2c7.8,0,13.3,5.5,13.3,13.4S97,67.1,89.1,67.1h-8.7v14H74.2z M53.3,47.8
		c-2.2-0.1-4.2,0.7-5.8,1.3c-1,0.4-1.9,0.8-2.6,0.8c-0.8,0-1.7-0.4-2.7-0.8c-1.3-0.5-2.9-1.2-4.5-1.1c-3.7,0.1-7.2,2.2-9,5.6
		c-3.9,6.8-1,16.8,2.7,22.3c1.8,2.7,4,5.7,6.9,5.6c1.3,0,2.2-0.4,3.1-0.9c1.1-0.5,2.2-1,4-1c1.7,0,2.8,0.5,3.8,0.9
		c1,0.4,1.9,0.9,3.4,0.8c3-0.1,4.9-2.7,6.7-5.5c2-2.9,2.9-5.8,3-6.2l0-0.1c0,0,0,0-0.1,0c-0.7-0.3-5.7-2.7-5.8-9c0-5.3,4-8,4.7-8.4
		l0.1-0.1C58.8,48.3,54.7,47.9,53.3,47.8L53.3,47.8z M114.1,81.4c3.9,0,7.6-2,9.2-5.2h0.1v4.9h5.8V60.7c0-5.9-4.7-9.7-11.8-9.7
		c-6.7,0-11.6,3.9-11.8,9.2h5.6c0.5-2.5,2.8-4.2,5.9-4.2c3.8,0,6,1.8,6,5.1v2.3l-7.8,0.5c-7.3,0.4-11.2,3.5-11.2,8.7
		C104.2,77.9,108.2,81.4,114.1,81.4z M115.7,76.5c-3.3,0-5.5-1.6-5.5-4.1c0-2.6,2-4.1,6-4.3l7-0.4V70
		C123.2,73.8,120,76.5,115.7,76.5z M148.5,82.7c-2.5,7.2-5.4,9.5-11.5,9.5c-0.5,0-2-0.1-2.4-0.2v-4.9c0.6,0.1,1.2,0.1,1.8,0.1
		c2.8,0,4.3-1.2,5.3-4.2l0.6-1.8l-10.6-29.8h6.6l7.4,24.2h0.1l7.4-24.2h6.4L148.5,82.7L148.5,82.7z M80.4,45.5h7.2
		c5.4,0,8.6,2.9,8.6,8.1s-3.1,8.1-8.6,8.1h-7.2V45.5z"/>
</g>
</svg>
