<?xml version="1.0" encoding="utf-8"?>
<!-- Generator: Adobe Illustrator 26.2.1, SVG Export Plug-In . SVG Version: 6.00 Build 0)  -->
<svg version="1.1" id="Layer_1" xmlns="http://www.w3.org/2000/svg" xmlns:xlink="http://www.w3.org/1999/xlink" x="0px" y="0px"
	 viewBox="0 0 186 127" style="enable-background:new 0 0 186 127;" xml:space="preserve">
<style type="text/css">
	.st0{fill:#FFFFFF;stroke:#D9D9D9;stroke-width:2.646;}
	.st1{fill-rule:evenodd;clip-rule:evenodd;fill:#3C4043;}
	.st2{fill:#4285F4;}
	.st3{fill:#34A853;}
	.st4{fill:#FBBC04;}
	.st5{fill:#EA4335;}
</style>
<g>
	<path class="st0" d="M16.3,1.3h153.5c8,0,14.6,6.5,14.6,14.6v95.2c0,8-6.5,14.6-14.6,14.6H16.3c-8,0-14.6-6.5-14.6-14.6V15.9
		C1.7,7.8,8.2,1.3,16.3,1.3z"/>
	<path class="st1" d="M87.9,83.4v-16h8.3c3.4,0,6.2-1.1,8.6-3.4l0.6-0.6c4.2-4.6,4-11.8-0.6-16.1c-2.3-2.3-5.4-3.5-8.6-3.4H82.9
		v39.5H87.9z M87.9,62.6V48.8h8.4c1.8,0,3.5,0.7,4.8,2c2.7,2.6,2.8,7.1,0.2,9.8c-1.3,1.4-3.1,2.1-4.9,2H87.9z M128.5,58.5
		c-2.1-2-5.1-3-8.7-3c-4.7,0-8.3,1.8-10.7,5.3l4.4,2.8c1.6-2.4,3.8-3.6,6.6-3.6c1.8,0,3.5,0.7,4.8,1.9c1.3,1.1,2,2.8,2,4.5v1.2
		c-1.9-1.1-4.3-1.6-7.3-1.6c-3.5,0-6.3,0.8-8.3,2.5c-2.1,1.7-3.1,3.9-3.1,6.7c-0.1,2.5,1,5,2.9,6.6c2,1.8,4.4,2.6,7.4,2.6
		c3.4,0,6.2-1.5,8.3-4.6h0.2v3.7h4.8V66.7C131.7,63.2,130.7,60.5,128.5,58.5L128.5,58.5z M115,78.4c-1-0.8-1.7-2-1.6-3.3
		c0-1.5,0.7-2.7,2-3.7c1.4-1,3.1-1.5,5.1-1.5c2.8,0,5,0.6,6.5,1.9c0,2.1-0.8,4-2.5,5.6c-1.5,1.5-3.5,2.4-5.6,2.4
		C117.4,79.8,116.1,79.3,115,78.4z M142.5,95.2l16.7-38.9h-5.4L146,75.8h-0.1L138,56.4h-5.4l10.9,25.3l-6.2,13.6
		C137.3,95.3,142.5,95.3,142.5,95.2z"/>
	<path class="st2" d="M70.6,63.9c0-1.5-0.1-3.1-0.4-4.6H49.2v8.7h12.1c-0.5,2.8-2.1,5.3-4.5,6.9v5.7H64
		C68.2,76.7,70.6,70.9,70.6,63.9L70.6,63.9z"/>
	<path class="st3" d="M49.2,86.1c6,0,11.1-2,14.8-5.5L56.8,75c-2,1.4-4.6,2.2-7.6,2.2c-5.8,0-10.8-4-12.5-9.3h-7.4v5.9
		C33,81.3,40.8,86.1,49.2,86.1L49.2,86.1z"/>
	<path class="st4" d="M36.7,67.8c-0.9-2.8-0.9-5.9,0-8.7v-5.8h-7.4c-3.2,6.4-3.2,13.9,0,20.3L36.7,67.8L36.7,67.8z"/>
	<path class="st5" d="M49.2,49.7c3.2-0.1,6.3,1.2,8.6,3.4l6.4-6.5c-4.1-3.8-9.4-5.9-14.9-5.9c-8.4,0-16.2,4.8-19.9,12.5l7.4,5.9
		C38.4,53.7,43.4,49.7,49.2,49.7L49.2,49.7z"/>
</g>
</svg>
