<?xml version="1.0" encoding="utf-8"?>
<!-- Generator: Adobe Illustrator 26.2.1, SVG Export Plug-In . SVG Version: 6.00 Build 0)  -->
<svg version="1.1" id="Layer_1" xmlns="http://www.w3.org/2000/svg" xmlns:xlink="http://www.w3.org/1999/xlink" x="0px" y="0px"
	 viewBox="0 0 186 127" style="enable-background:new 0 0 186 127;" xml:space="preserve">
<style type="text/css">
	.st0{fill:#FFFFFF;stroke:#D9D9D9;stroke-width:2.6458;}
	.st1{fill-rule:evenodd;clip-rule:evenodd;fill:#ED0006;}
	.st2{fill-rule:evenodd;clip-rule:evenodd;fill:#F9A000;}
	.st3{fill-rule:evenodd;clip-rule:evenodd;fill:#FF5E00;}
</style>
<g>
	<path class="st0" d="M16.3,1.3h153.5c8,0,14.6,6.5,14.6,14.6v95.2c0,8-6.5,14.6-14.6,14.6H16.3c-8,0-14.6-6.5-14.6-14.6V15.9
		C1.7,7.8,8.2,1.3,16.3,1.3z"/>
	<path class="st1" d="M94.3,90.8c-6.3,5.4-14.5,8.7-23.4,8.7C51,99.5,34.8,83.2,34.8,63c0-20.2,16.2-36.5,36.1-36.5
		c8.9,0,17.1,3.3,23.4,8.7c6.3-5.4,14.5-8.7,23.4-8.7c19.9,0,36.1,16.4,36.1,36.5c0,20.2-16.2,36.5-36.1,36.5
		C108.8,99.5,100.6,96.2,94.3,90.8z"/>
	<path class="st2" d="M94.3,90.8C102.1,84.1,107,74.1,107,63c0-11.1-4.9-21.1-12.7-27.8c6.3-5.4,14.5-8.7,23.4-8.7
		c19.9,0,36.1,16.4,36.1,36.5c0,20.2-16.2,36.5-36.1,36.5C108.8,99.5,100.6,96.2,94.3,90.8z"/>
	<path class="st3" d="M94.3,90.8C102.1,84.1,107,74.1,107,63c0-11.1-4.9-21.1-12.7-27.8C86.6,41.9,81.6,51.9,81.6,63
		C81.6,74.1,86.6,84.1,94.3,90.8z"/>
</g>
</svg>
