<?xml version="1.0" encoding="utf-8"?>
<!-- Generator: Adobe Illustrator 26.2.1, SVG Export Plug-In . SVG Version: 6.00 Build 0)  -->
<svg version="1.1" id="Layer_1" xmlns="http://www.w3.org/2000/svg" xmlns:xlink="http://www.w3.org/1999/xlink" x="0px" y="0px"
	 viewBox="0 0 186 127" style="enable-background:new 0 0 186 127;" xml:space="preserve">
<style type="text/css">
	.st0{fill:#FFFFFF;stroke:#D9D9D9;stroke-width:2.646;}
	.st1{fill-rule:evenodd;clip-rule:evenodd;fill:#172B85;}
</style>
<g>
	<path class="st0" d="M16.3,1.3h153.5c8,0,14.6,6.5,14.6,14.6v95.2c0,8-6.5,14.6-14.6,14.6H16.3c-8,0-14.6-6.5-14.6-14.6V15.9
		C1.7,7.8,8.2,1.3,16.3,1.3z"/>
	<path class="st1" d="M56.6,86H45.4L37,53.9c-0.4-1.5-1.2-2.8-2.5-3.4c-3.1-1.5-6.5-2.8-10.3-3.4v-1.2h18.1c2.3,0,4.3,1.7,4.7,4
		l4.4,23.2l11.2-27.2h10.9C73.4,45.9,56.6,86,56.6,86z M79.7,86H69.1l8.7-40.1h10.6L79.7,86z M102.1,57c0.3-2.2,2.2-3.4,4.4-3.4
		c3.4-0.3,7.2,0.3,10.3,1.9l1.9-8.6c-3.1-1.2-6.5-1.9-9.7-1.9c-10.3,0-17.8,5.6-17.8,13.3c0,5.9,5.3,8.9,9,10.8
		c4,1.9,5.6,3.1,5.3,4.9c0,2.8-3.1,4-6.2,4c-3.7,0-7.5-0.9-10.9-2.5l-1.9,8.6c3.7,1.5,7.8,2.2,11.5,2.2c11.5,0.3,18.7-5.2,18.7-13.6
		C116.8,62.3,102.1,61.6,102.1,57L102.1,57z M153.9,86l-8.4-40.1h-9c-1.9,0-3.7,1.2-4.4,3.1l-15.6,37h10.9l2.2-5.9h13.4l1.2,5.9
		H153.9z M138,56.7l3.1,15.1h-8.7L138,56.7z"/>
</g>
</svg>
