<svg width="25" height="14" viewBox="0 0 25 14" fill="none" xmlns="http://www.w3.org/2000/svg">
<path d="M23.2993 4.90965L19.4286 0.999013C19.3356 0.90527 19.225 0.830864 19.1031 0.780087C18.9813 0.72931 18.8505 0.703166 18.7185 0.703166C18.5865 0.703166 18.4557 0.729311 18.3339 0.780087C18.212 0.830864 18.1014 0.90527 18.0084 0.999013C17.9146 1.09199 17.8402 1.20261 17.7895 1.32449C17.7387 1.44637 17.7125 1.5771 17.7125 1.70913C17.7125 1.84116 17.7387 1.97189 17.7895 2.09377C17.8402 2.21565 17.9146 2.32627 18.0084 2.41925L21.569 5.99983L1.17565 5.99983C0.910396 5.99983 0.656 6.1052 0.468433 6.29277C0.280866 6.48034 0.175493 6.73473 0.175493 6.99999C0.175493 7.26525 0.280866 7.51965 0.468433 7.70721C0.656 7.89478 0.910396 8.00016 1.17565 8.00016L21.629 8.00015L18.0084 11.6207C17.8311 11.8067 17.7322 12.0539 17.7322 12.3109C17.7322 12.5678 17.8311 12.815 18.0084 13.001C18.1014 13.0947 18.212 13.1691 18.3339 13.2199C18.4557 13.2707 18.5865 13.2968 18.7185 13.2968C18.8505 13.2968 18.9813 13.2707 19.1031 13.2199C19.225 13.1691 19.3356 13.0947 19.4286 13.001L23.2993 9.15034C23.8611 8.58775 24.1768 7.82513 24.1768 7.02999C24.1768 6.23486 23.8611 5.47224 23.2993 4.90965Z" fill="white"/>
</svg>
