<svg width="25" height="25" viewBox="0 0 25 25" fill="none" xmlns="http://www.w3.org/2000/svg">
<path d="M9.45322 15.0985L14.0432 19.6885C14.2306 19.8747 14.484 19.9792 14.7482 19.9792C15.0124 19.9792 15.2659 19.8747 15.4532 19.6885C15.547 19.5955 15.6213 19.4849 15.6721 19.363C15.7229 19.2412 15.749 19.1105 15.749 18.9785C15.749 18.8464 15.7229 18.7157 15.6721 18.5939C15.6213 18.472 15.547 18.3614 15.4532 18.2685L10.8532 13.6885C10.7595 13.5955 10.6851 13.4849 10.6343 13.363C10.5836 13.2412 10.5574 13.1105 10.5574 12.9785C10.5574 12.8464 10.5836 12.7157 10.6343 12.5939C10.6851 12.472 10.7595 12.3614 10.8532 12.2685L15.4532 7.68845C15.6415 7.50148 15.7478 7.24735 15.7488 6.98199C15.7497 6.71663 15.6452 6.46176 15.4582 6.27345C15.2712 6.08515 15.0171 5.97883 14.7518 5.9779C14.4864 5.97696 14.2315 6.08148 14.0432 6.26845L9.45322 10.8585C8.89142 11.421 8.57586 12.1835 8.57586 12.9785C8.57586 13.7735 8.89142 14.536 9.45322 15.0985Z" fill="white"/>
</svg>
