<svg width="21" height="20" viewBox="0 0 21 20" fill="none" xmlns="http://www.w3.org/2000/svg">
<g id="fi-rr-add" clip-path="url(#clip0_278_8523)">
<path id="Vector" d="M10.1758 0C8.19797 0 6.26457 0.58649 4.62008 1.6853C2.97559 2.78412 1.69387 4.3459 0.93699 6.17317C0.180114 8.00043 -0.0179193 10.0111 0.367933 11.9509C0.753785 13.8907 1.70619 15.6725 3.10472 17.0711C4.50324 18.4696 6.28507 19.422 8.22488 19.8079C10.1647 20.1937 12.1754 19.9957 14.0026 19.2388C15.8299 18.4819 17.3917 17.2002 18.4905 15.5557C19.5893 13.9112 20.1758 11.9778 20.1758 10C20.1729 7.34872 19.1184 4.80684 17.2437 2.9321C15.3689 1.05736 12.8271 0.00286757 10.1758 0ZM10.1758 18.3333C8.52761 18.3333 6.91644 17.8446 5.54603 16.9289C4.17562 16.0132 3.10752 14.7117 2.47679 13.189C1.84606 11.6663 1.68103 9.99076 2.00258 8.37425C2.32412 6.75774 3.11779 5.27288 4.28323 4.10744C5.44867 2.94201 6.93353 2.14833 8.55003 1.82679C10.1665 1.50525 11.8421 1.67027 13.3648 2.301C14.8875 2.93173 16.189 3.99984 17.1047 5.37025C18.0204 6.74066 18.5091 8.35182 18.5091 10C18.5067 12.2094 17.6279 14.3276 16.0657 15.8899C14.5034 17.4522 12.3852 18.3309 10.1758 18.3333Z" fill="auto"/>
<circle id="Ellipse 170" opacity="0.1" cx="10.1758" cy="9.88672" r="8.375" fill="auto"/>
<path id="Vector_2" d="M14.1554 7.11899C13.9991 6.96276 13.7872 6.875 13.5662 6.875C13.3452 6.875 13.1333 6.96276 12.977 7.11899L8.67788 11.4223L7.38538 10.0732C7.30954 9.99425 7.2189 9.93106 7.11864 9.88719C7.01838 9.84331 6.91046 9.81961 6.80104 9.81745C6.69162 9.81528 6.58285 9.83469 6.48093 9.87456C6.37901 9.91443 6.28595 9.97398 6.20704 10.0498C6.12814 10.1257 6.06495 10.2163 6.02107 10.3166C5.9772 10.4168 5.9535 10.5247 5.95134 10.6342C5.94696 10.8551 6.03055 11.0688 6.18371 11.2282L7.52871 12.6273C7.67202 12.7821 7.84524 12.9062 8.03789 12.9922C8.23054 13.0781 8.43862 13.1241 8.64954 13.1273H8.67704C8.88376 13.128 9.08855 13.0876 9.27952 13.0085C9.4705 12.9294 9.64386 12.8131 9.78954 12.6665L14.1554 8.29732C14.3116 8.14105 14.3994 7.92913 14.3994 7.70816C14.3994 7.48719 14.3116 7.27526 14.1554 7.11899Z" fill="auto"/>
</g>
<defs>
<clipPath id="clip0_278_8523">
<rect width="20" height="20" fill="white" transform="translate(0.175781)"/>
</clipPath>
</defs>
</svg>
