<svg width="24" height="24" viewBox="0 0 24 24" fill="none" xmlns="http://www.w3.org/2000/svg">
<g id="fi-rr-angle-small-down">
<path id="Vector" d="M18.7108 8.2101C18.6178 8.11638 18.5072 8.04198 18.3854 7.99121C18.2635 7.94044 18.1328 7.91431 18.0008 7.91431C17.8688 7.91431 17.7381 7.94044 17.6162 7.99121C17.4944 8.04198 17.3838 8.11638 17.2908 8.2101L12.7108 12.7901C12.6178 12.8838 12.5072 12.9582 12.3854 13.009C12.2635 13.0598 12.1328 13.0859 12.0008 13.0859C11.8688 13.0859 11.7381 13.0598 11.6162 13.009C11.4944 12.9582 11.3838 12.8838 11.2908 12.7901L6.71079 8.2101C6.61783 8.11638 6.50723 8.04198 6.38537 7.99121C6.26351 7.94044 6.1328 7.91431 6.00079 7.91431C5.86878 7.91431 5.73808 7.94044 5.61622 7.99121C5.49436 8.04198 5.38376 8.11638 5.29079 8.2101C5.10454 8.39747 5 8.65092 5 8.9151C5 9.17929 5.10454 9.43274 5.29079 9.6201L9.88079 14.2101C10.4433 14.7719 11.2058 15.0875 12.0008 15.0875C12.7958 15.0875 13.5583 14.7719 14.1208 14.2101L18.7108 9.6201C18.897 9.43274 19.0016 9.17929 19.0016 8.9151C19.0016 8.65092 18.897 8.39747 18.7108 8.2101Z" fill="white"/>
</g>
</svg>
