<svg width="344" height="275" viewBox="0 0 344 275" fill="none" xmlns="http://www.w3.org/2000/svg">
<mask id="path-1-inside-1_161_402" fill="white">
<path d="M0.175781 40.7307C0.175781 18.6393 18.0844 0.730713 40.1758 0.730713H303.176C325.267 0.730713 343.176 18.6393 343.176 40.7307V274.731H0.175781V40.7307Z"/>
</mask>
<path d="M0.175781 40.7307C0.175781 18.6393 18.0844 0.730713 40.1758 0.730713H303.176C325.267 0.730713 343.176 18.6393 343.176 40.7307V274.731H0.175781V40.7307Z" fill="white" fill-opacity="0.05"/>
<path d="M-0.824219 40.7307C-0.824219 18.087 17.5321 -0.269287 40.1758 -0.269287H303.176C325.819 -0.269287 344.176 18.087 344.176 40.7307H342.176C342.176 19.1916 324.715 1.73071 303.176 1.73071H40.1758C18.6367 1.73071 1.17578 19.1916 1.17578 40.7307H-0.824219ZM343.176 274.731H0.175781H343.176ZM-0.824219 274.731V40.7307C-0.824219 18.087 17.5321 -0.269287 40.1758 -0.269287V1.73071C18.6367 1.73071 1.17578 19.1916 1.17578 40.7307V274.731H-0.824219ZM303.176 -0.269287C325.819 -0.269287 344.176 18.087 344.176 40.7307V274.731H342.176V40.7307C342.176 19.1916 324.715 1.73071 303.176 1.73071V-0.269287Z" fill="url(#paint0_linear_161_402)" mask="url(#path-1-inside-1_161_402)"/>
<defs>
<linearGradient id="paint0_linear_161_402" x1="198.593" y1="-2.7997" x2="157.437" y2="268.487" gradientUnits="userSpaceOnUse">
<stop offset="0.0669087" stop-color="white" stop-opacity="0"/>
<stop offset="0.496318" stop-color="white"/>
<stop offset="1" stop-color="#999999" stop-opacity="0"/>
</linearGradient>
</defs>
</svg>
