<svg width="30" height="30" viewBox="0 0 30 30" fill="none" xmlns="http://www.w3.org/2000/svg">
<g id="MinusCircle">
<path id="Vector" opacity="0.2" d="M26.25 15C26.25 17.225 25.5902 19.4001 24.354 21.2502C23.1179 23.1002 21.3609 24.5422 19.3052 25.3936C17.2495 26.2451 14.9875 26.4679 12.8052 26.0338C10.623 25.5998 8.61839 24.5283 7.04505 22.955C5.47171 21.3816 4.40025 19.3771 3.96617 17.1948C3.53209 15.0125 3.75487 12.7505 4.60636 10.6948C5.45785 8.63914 6.89979 6.88213 8.74984 5.64597C10.5999 4.4098 12.775 3.75 15 3.75C17.9837 3.75 20.8452 4.93526 22.955 7.04505C25.0647 9.15483 26.25 12.0163 26.25 15Z" fill="#1B4932"/>
<path id="Vector_2" d="M20.625 15C20.625 15.2486 20.5262 15.4871 20.3504 15.6629C20.1746 15.8387 19.9361 15.9375 19.6875 15.9375H10.3125C10.0639 15.9375 9.82541 15.8387 9.64959 15.6629C9.47378 15.4871 9.37501 15.2486 9.37501 15C9.37501 14.7514 9.47378 14.5129 9.64959 14.3371C9.82541 14.1613 10.0639 14.0625 10.3125 14.0625H19.6875C19.9361 14.0625 20.1746 14.1613 20.3504 14.3371C20.5262 14.5129 20.625 14.7514 20.625 15ZM27.1875 15C27.1875 17.4105 26.4727 19.7668 25.1335 21.771C23.7944 23.7752 21.8909 25.3373 19.664 26.2598C17.437 27.1822 14.9865 27.4236 12.6223 26.9533C10.2582 26.4831 8.08659 25.3223 6.38214 23.6179C4.67769 21.9134 3.51694 19.7418 3.04668 17.3777C2.57643 15.0135 2.81778 12.563 3.74022 10.336C4.66267 8.10907 6.22477 6.20564 8.22899 4.86646C10.2332 3.52728 12.5895 2.8125 15 2.8125C18.2313 2.81591 21.3292 4.10104 23.6141 6.3859C25.899 8.67076 27.1841 11.7687 27.1875 15ZM25.3125 15C25.3125 12.9604 24.7077 10.9666 23.5745 9.27068C22.4414 7.5748 20.8308 6.25302 18.9464 5.47249C17.0621 4.69196 14.9886 4.48774 12.9881 4.88565C10.9877 5.28356 9.1502 6.26573 7.70797 7.70796C6.26574 9.15019 5.28357 10.9877 4.88566 12.9881C4.48775 14.9886 4.69197 17.0621 5.4725 18.9464C6.25303 20.8308 7.57481 22.4414 9.27069 23.5745C10.9666 24.7077 12.9604 25.3125 15 25.3125C17.7341 25.3094 20.3553 24.2219 22.2886 22.2886C24.2219 20.3553 25.3094 17.7341 25.3125 15Z" fill="#1B4932"/>
</g>
</svg>
