<svg width="31" height="30" viewBox="0 0 31 30" fill="none" xmlns="http://www.w3.org/2000/svg">
<g id="PlusCircle">
<path id="Vector" opacity="0.2" d="M27.1337 15C27.1337 17.225 26.4536 19.4001 25.1794 21.2502C23.9052 23.1002 22.0941 24.5422 19.9752 25.3936C17.8563 26.2451 15.5247 26.4679 13.2753 26.0338C11.0258 25.5998 8.9596 24.5283 7.33785 22.955C5.71609 21.3816 4.61167 19.3771 4.16423 17.1948C3.71679 15.0125 3.94643 12.7505 4.82412 10.6948C5.7018 8.63914 7.18811 6.88213 9.09509 5.64597C11.0021 4.4098 13.2441 3.75 15.5376 3.75C18.6131 3.75 21.5626 4.93526 23.7373 7.04505C25.912 9.15483 27.1337 12.0163 27.1337 15Z" fill="#1B4932"/>
<path id="Vector_2" d="M15.5371 2.8125C13.0525 2.8125 10.6237 3.52728 8.55776 4.86646C6.49187 6.20564 4.8817 8.10907 3.93088 10.336C2.98005 12.563 2.73127 15.0135 3.216 17.3777C3.70073 19.7418 4.89719 21.9134 6.65409 23.6179C8.41098 25.3223 10.6494 26.4831 13.0863 26.9533C15.5232 27.4236 18.0491 27.1822 20.3446 26.2598C22.6401 25.3373 24.6021 23.7752 25.9825 21.771C27.3628 19.7668 28.0996 17.4105 28.0996 15C28.0961 11.7687 26.7714 8.67076 24.4163 6.3859C22.0611 4.10104 18.8678 2.81591 15.5371 2.8125ZM15.5371 25.3125C13.4347 25.3125 11.3796 24.7077 9.63151 23.5745C7.88345 22.4414 6.521 20.8308 5.71645 18.9464C4.91191 17.0621 4.7014 14.9886 5.11156 12.9881C5.52171 10.9877 6.5341 9.15019 8.02071 7.70796C9.50731 6.26573 11.4014 5.28356 13.4633 4.88565C15.5253 4.48774 17.6626 4.69196 19.605 5.47249C21.5473 6.25302 23.2075 7.5748 24.3755 9.27068C25.5435 10.9666 26.1669 12.9604 26.1669 15C26.1637 17.7341 25.0428 20.3553 23.05 22.2886C21.0572 24.2219 18.3553 25.3094 15.5371 25.3125ZM21.3352 15C21.3352 15.2486 21.2334 15.4871 21.0522 15.6629C20.8709 15.8387 20.6251 15.9375 20.3688 15.9375H16.5035V19.6875C16.5035 19.9361 16.4017 20.1746 16.2204 20.3504C16.0392 20.5262 15.7934 20.625 15.5371 20.625C15.2808 20.625 15.035 20.5262 14.8538 20.3504C14.6726 20.1746 14.5708 19.9361 14.5708 19.6875V15.9375H10.7054C10.4491 15.9375 10.2033 15.8387 10.0221 15.6629C9.84085 15.4871 9.73904 15.2486 9.73904 15C9.73904 14.7514 9.84085 14.5129 10.0221 14.3371C10.2033 14.1613 10.4491 14.0625 10.7054 14.0625H14.5708V10.3125C14.5708 10.0639 14.6726 9.8254 14.8538 9.64959C15.035 9.47377 15.2808 9.375 15.5371 9.375C15.7934 9.375 16.0392 9.47377 16.2204 9.64959C16.4017 9.8254 16.5035 10.0639 16.5035 10.3125V14.0625H20.3688C20.6251 14.0625 20.8709 14.1613 21.0522 14.3371C21.2334 14.5129 21.3352 14.7514 21.3352 15Z" fill="#1B4932"/>
</g>
</svg>
