<svg width="801" height="134" viewBox="0 0 801 134" fill="none" xmlns="http://www.w3.org/2000/svg">
<g clip-path="url(#clip0_1477_3563)">
<path d="M40.5413 66.8272C37.6206 65.6589 34.9904 64.7811 31.1918 63.4659C24.3257 61.2762 17.6064 58.7928 17.6064 53.095C17.6064 47.3971 21.9891 44.4764 28.7084 44.4764C35.2951 44.5971 41.5783 47.2678 46.236 51.9267L52.0806 43.3081C47.6979 38.6349 40.685 34.2523 28.4179 34.2523C16.1509 34.2523 5.0457 41.2748 5.0457 54.1164C5.01174 57.6663 6.03552 61.1458 7.98658 64.1117C9.93763 67.0775 12.7276 69.3952 16.0008 70.7694C19.0377 72.2953 22.2174 73.5184 25.494 74.4211C30.1672 76.0171 41.1351 78.3633 41.1351 85.9604C41.1351 93.5574 34.269 95.894 27.8434 95.894C23.9355 95.7313 20.103 94.7653 16.5849 93.0562C13.0668 91.3472 9.93853 88.9317 7.39506 85.9604L0.675781 94.1384C3.90633 98.1648 8.03047 101.383 12.7212 103.539C17.412 105.694 22.5403 106.727 27.6997 106.555C34.6476 106.839 41.4734 104.667 46.9797 100.42C49.2901 98.5085 51.1344 96.0954 52.3728 93.3642C53.6112 90.633 54.211 87.6556 54.1267 84.658C54.1581 82.2454 53.6798 79.8534 52.7233 77.6383C51.7668 75.4232 50.3534 73.435 48.5757 71.8036C46.2175 69.6767 43.4961 67.9911 40.5413 66.8272ZM91.9717 94.5789C90.5664 94.7553 89.1401 94.5169 87.8686 93.893C86.597 93.2692 85.5356 92.2871 84.8151 91.0676C83.2289 87.0314 82.6281 82.675 83.0627 78.3601V46.9598H99.7157V35.7142H83.0595V14.9722H69.0368V35.7206H58.8222V46.9694H69.0368V78.6665C69.0368 89.6216 69.621 95.0258 72.5481 99.4149C74.1537 101.807 76.3655 103.73 78.9575 104.988C81.5495 106.246 84.429 106.794 87.3018 106.575C91.6456 106.587 95.9542 105.795 100.009 104.238L99.1315 92.9893C96.8899 94.0363 94.4458 94.5789 91.9717 94.5789ZM122.938 46.2288H122.501L122.647 35.5674H108.625V104.95H122.647V70.3321C122.276 64.1975 123.751 58.0924 126.883 52.8045C128.21 51.0246 129.927 49.5724 131.903 48.5592C133.878 47.5461 136.059 46.999 138.279 46.9598C140.886 46.9024 143.476 47.4008 145.876 48.4218H146.46L147.335 35.4206C144.997 34.569 142.518 34.1724 140.031 34.2523C136.295 34.2414 132.646 35.3866 129.586 37.5308C126.526 39.6749 124.204 42.7131 122.938 46.2288ZM179.657 34.2523C170.534 34.3343 161.583 36.7519 153.658 41.2748L157.894 50.6211C164.223 46.8538 171.419 44.7907 178.783 44.6328C188.863 44.6328 196.02 49.8901 196.02 60.4111V63.185L177.468 63.9096C161.402 64.6406 150.297 71.5067 150.297 85.0889C150.297 98.5275 161.399 106.562 174.237 106.562C178.451 106.564 182.612 105.635 186.425 103.842C190.238 102.049 193.608 99.4367 196.294 96.1909L196.441 104.956H210.027V64.6342C210.027 52.8045 207.253 46.9598 202.576 42.1398C197.916 37.4667 191.194 34.2523 179.657 34.2523ZM196.164 86.5445C194.26 89.5358 191.655 92.0173 188.575 93.7735C185.495 95.5296 182.033 96.5074 178.489 96.6218C169.286 96.6218 164.173 91.2177 164.173 84.6452C164.173 78.0728 168.702 73.2528 179.951 72.6686L196.164 71.6472V86.5445ZM225.103 35.5706H239.125V104.953H225.103V35.5706ZM232.109 4.16076C230.426 4.24629 228.805 4.82351 227.446 5.821C226.087 6.8185 225.051 8.19247 224.465 9.7729C223.88 11.3533 223.77 13.0708 224.15 14.7128C224.531 16.3549 225.384 17.8493 226.605 19.0113C227.826 20.1733 229.361 20.9518 231.02 21.2504C232.678 21.549 234.388 21.3547 235.938 20.6915C237.487 20.0283 238.808 18.9253 239.738 17.519C240.667 16.1127 241.163 14.4648 241.165 12.7793C241.167 11.6097 240.93 10.4521 240.47 9.3769C240.01 8.30169 239.335 7.33139 238.488 6.5251C237.641 5.7188 236.639 5.09337 235.542 4.6869C234.445 4.28043 233.277 4.10142 232.109 4.16076ZM308.83 46.5225H308.393C305.743 42.5663 302.119 39.3591 297.87 37.21C293.621 35.0609 288.89 34.0422 284.133 34.2523C266.312 34.2523 250.684 47.1067 250.684 69.1638C250.684 91.2209 266.325 104.075 284.133 104.075C288.903 104.26 293.639 103.215 297.888 101.04C302.136 98.8659 305.754 95.6349 308.393 91.6582H308.684V95.1694C308.684 104.663 306.2 111.235 303.426 114.596C300.652 118.108 294.808 122.193 284.437 122.193C275.458 121.88 266.792 118.822 259.606 113.431L253.033 123.218C262.015 129.83 272.844 133.457 283.996 133.589C301.233 133.589 309.852 126.566 314.959 120.297C320.066 114.162 322.556 105.69 322.556 90.3526V35.5674H308.68L308.83 46.5225ZM287.067 92.6796C272.897 92.6796 265.01 82.3086 265.01 69.1606C265.01 56.0125 272.897 45.4979 287.067 45.4979C301.383 45.4979 309.124 56.0157 309.124 69.1606C309.124 82.3055 301.383 92.6796 287.067 92.6796ZM374.443 34.2555C370.105 34.1497 365.822 35.2383 362.061 37.4023C358.3 39.5662 355.206 42.7223 353.117 46.5257H352.826V4.16395H338.951V104.953H352.826V70.6257C352.826 56.7499 358.231 45.7947 370.938 45.7947C383.646 45.7947 385.254 55.7284 385.254 65.6589V104.953H399.277V63.6128C399.274 47.1099 394.454 34.2555 374.443 34.2555ZM439.826 94.5789C438.421 94.7553 436.994 94.5169 435.723 93.893C434.451 93.2692 433.39 92.2871 432.669 91.0676C431.073 88.1469 430.917 84.2015 430.917 78.3601V46.9598H447.57V35.7142H430.917V14.9722H416.894V35.7206H406.68V46.9694H416.894V78.6665C416.894 89.6216 417.478 95.0258 420.405 99.4149C422.011 101.807 424.223 103.73 426.815 104.988C429.407 106.246 432.286 106.794 435.159 106.575C439.503 106.587 443.811 105.795 447.867 104.238L446.989 92.9893C444.746 94.0368 442.301 94.5794 439.826 94.5789ZM483.879 55.4252C484.843 53.9214 486.144 52.6625 487.678 51.7479C489.352 50.8191 491.246 50.3613 493.159 50.4232C494.645 50.3876 496.126 50.5968 497.545 51.0425C498.712 51.4319 499.838 51.9366 500.906 52.5491C501.741 53.0336 502.513 53.6178 503.207 54.2888C503.986 55.0645 504.692 55.7156 505.276 56.204C506.326 57.0943 507.462 57.879 508.666 58.547C510.451 59.5069 512.459 59.9782 514.485 59.9132C515.781 59.8912 517.064 59.6561 518.283 59.2173C519.637 58.7397 520.899 58.0336 522.015 57.1297C523.245 56.1348 524.233 54.8744 524.907 53.4429C525.658 51.7716 526.024 49.9533 525.979 48.1217C525.983 46.6059 525.752 45.0985 525.296 43.6529C524.686 41.9322 523.794 40.325 522.656 38.8967C519.277 34.3032 514.595 30.8312 509.218 28.9311C504.003 27.1417 498.525 26.2386 493.012 26.2594C487.796 26.2182 482.628 27.2515 477.829 29.295C473.031 31.3385 468.704 34.3483 465.12 38.137C461.588 41.9054 458.799 46.3067 456.9 51.1095C454.885 56.2042 453.87 61.6391 453.909 67.1177C453.868 72.6159 454.772 78.0804 456.581 83.2726C458.275 88.1125 460.924 92.5629 464.37 96.3601C467.837 100.11 472.04 103.106 476.716 105.161C481.861 107.379 487.416 108.484 493.018 108.404C496.335 108.436 499.645 108.101 502.888 107.405C505.537 106.822 508.118 105.966 510.59 104.851C512.64 103.92 514.58 102.763 516.375 101.404C517.802 100.315 519.159 99.1382 520.438 97.8795C521.906 96.4425 523.065 94.7208 523.845 92.8201C524.624 90.9193 525.007 88.8794 524.971 86.8254C524.99 85.1715 524.636 83.5346 523.935 82.0364C523.234 80.5382 522.205 79.2172 520.923 78.1717C518.74 76.4912 516.08 75.5458 513.326 75.4713C512.08 75.5162 510.848 75.7442 509.668 76.148C507.958 76.7242 506.384 77.6443 505.043 78.8516C503.198 80.4251 501.189 81.796 499.051 82.9407C497.225 83.8391 495.21 84.2878 493.175 84.2494C491.267 84.3107 489.38 83.8351 487.729 82.8768C486.2 81.925 484.894 80.6557 483.899 79.1549C482.821 77.501 482.024 75.6804 481.54 73.7667C481 71.6915 480.728 69.5556 480.732 67.4113C480.731 65.2374 481.004 63.0719 481.546 60.9666C482.017 59.0049 482.806 57.1332 483.879 55.4252ZM477.636 74.7754C478.229 77.1199 479.209 79.3489 480.537 81.3702C481.851 83.3483 483.577 85.0187 485.597 86.2668C487.878 87.6321 490.501 88.3217 493.159 88.2554C495.83 88.294 498.472 87.6932 500.864 86.503C503.267 85.2207 505.527 83.6874 507.606 81.9288C508.543 81.0755 509.643 80.4208 510.839 80.004C511.637 79.719 512.471 79.5512 513.317 79.506C514.197 79.5267 515.069 79.6883 515.899 79.9848C516.814 80.2858 517.67 80.7426 518.43 81.3351C519.185 81.9589 519.798 82.7357 520.23 83.6142C520.736 84.6165 520.985 85.7287 520.955 86.8509C520.992 88.3791 520.713 89.8984 520.136 91.3139C519.559 92.7293 518.695 94.0104 517.6 95.0769C516.439 96.2141 515.21 97.2801 513.92 98.2689C512.361 99.4447 510.675 100.444 508.896 101.247C506.679 102.246 504.364 103.01 501.988 103.526C499.039 104.155 496.03 104.455 493.015 104.42C487.978 104.503 482.98 103.517 478.351 101.528C474.174 99.6981 470.418 97.0272 467.319 93.6819C464.234 90.2735 461.864 86.2814 460.348 81.9416C458.695 77.1801 457.871 72.1704 457.912 67.1304C457.874 62.1616 458.792 57.2318 460.616 52.6098C462.329 48.2735 464.845 44.2992 468.031 40.8949C471.241 37.502 475.117 34.8075 479.416 32.9797C483.715 31.1519 488.344 30.2301 493.015 30.2718C498.084 30.2493 503.12 31.0769 507.916 32.7201C512.54 34.3641 516.565 37.3588 519.468 41.3163C520.326 42.3899 521.01 43.5921 521.495 44.8786C521.822 45.9348 521.986 47.0351 521.98 48.1409C522.023 49.3722 521.792 50.5977 521.303 51.7288C520.894 52.6209 520.285 53.4064 519.522 54.0238C518.759 54.6431 517.895 55.1259 516.968 55.4507C515.947 55.8164 514.863 55.9738 513.781 55.9135C512.698 55.8532 511.638 55.5764 510.664 55.0996C509.677 54.5502 508.744 53.9089 507.877 53.1843C507.239 52.6445 506.626 52.0746 506.042 51.4766C505.109 50.5667 504.067 49.7764 502.939 49.124C501.641 48.3728 500.271 47.7536 498.85 47.2758C497.012 46.6848 495.089 46.4001 493.159 46.4331C490.524 46.3682 487.922 47.0226 485.632 48.326C483.567 49.551 481.818 51.2421 480.525 53.2641C479.206 55.3342 478.236 57.6061 477.652 59.9898C477.024 62.4194 476.702 64.9179 476.694 67.4273C476.695 69.9077 477.012 72.3748 477.636 74.7754ZM588.94 27.7213C587.231 27.6848 585.533 27.9861 583.942 28.6079C582.35 29.2296 580.898 30.1595 579.667 31.3443C578.419 32.5214 577.433 33.9481 576.773 35.5314C576.113 37.1148 575.794 38.8194 575.836 40.5342V72.0845C576.025 75.3198 575.211 78.5345 573.506 81.2904C572.718 82.3134 571.685 83.1207 570.502 83.6375C569.319 84.1542 568.024 84.3636 566.739 84.2462C565.439 84.3594 564.132 84.1467 562.935 83.6272C561.738 83.1077 560.69 82.298 559.885 81.2712C558.138 78.5368 557.299 75.3206 557.488 72.0813V40.5342C557.53 38.8194 557.211 37.115 556.551 35.5317C555.891 33.9484 554.905 32.5217 553.658 31.3443C551.132 29.0146 547.821 27.7212 544.385 27.7212C540.948 27.7212 537.638 29.0146 535.112 31.3443C533.864 32.5214 532.878 33.9481 532.218 35.5314C531.558 37.1148 531.239 38.8194 531.281 40.5342V71.4972C531.229 76.5534 532.061 81.5798 533.739 86.3498C535.287 90.7106 537.723 94.7029 540.893 98.0742C544.071 101.385 547.914 103.984 552.17 105.7C561.523 109.307 571.884 109.307 581.237 105.7C585.461 103.969 589.274 101.371 592.432 98.0742C595.602 94.7038 598.038 90.7113 599.585 86.3498C601.263 81.5798 602.095 76.5534 602.043 71.4972V40.5342C602.085 38.8194 601.766 37.1148 601.106 35.5314C600.446 33.9481 599.46 32.5214 598.212 31.3443C596.982 30.1593 595.529 29.2291 593.938 28.6074C592.346 27.9856 590.648 27.6845 588.94 27.7213ZM598.04 71.5035C598.087 76.0938 597.331 80.657 595.806 84.9868C594.45 88.8286 592.309 92.3463 589.52 95.3163C586.745 98.2131 583.394 100.497 579.682 102.02C575.564 103.67 571.159 104.486 566.723 104.42C562.259 104.482 557.827 103.664 553.68 102.013C549.945 100.512 546.572 98.2334 543.785 95.329C540.996 92.3587 538.854 88.8412 537.496 84.9995C535.972 80.6696 535.216 76.1066 535.262 71.5163V40.5534C535.223 39.3806 535.435 38.2131 535.882 37.1283C536.33 36.0435 537.003 35.0664 537.857 34.2618C539.637 32.643 541.956 31.746 544.362 31.746C546.768 31.746 549.088 32.643 550.868 34.2618C551.723 35.0669 552.397 36.045 552.844 37.131C553.292 38.217 553.503 39.3859 553.463 40.5598V72.11C553.262 76.1987 554.369 80.2451 556.623 83.6621C557.794 85.2037 559.328 86.4318 561.088 87.2371C562.849 88.0424 564.781 88.3999 566.713 88.2778C568.638 88.4064 570.565 88.0498 572.317 87.2406C574.069 86.4314 575.589 85.1954 576.739 83.6461C578.938 80.215 580.013 76.1836 579.813 72.1132V40.5342C579.774 39.3617 579.985 38.1942 580.432 37.1094C580.879 36.0247 581.552 35.0474 582.405 34.2427C584.186 32.6219 586.508 31.7236 588.916 31.7236C591.323 31.7236 593.645 32.6219 595.426 34.2427C596.279 35.0474 596.952 36.0247 597.399 37.1094C597.846 38.1942 598.057 39.3617 598.018 40.5342L598.04 71.5035ZM720.219 40.8247C720.322 38.9837 720.002 37.1436 719.282 35.4459C718.563 33.7482 717.464 32.238 716.069 31.0315C713.198 28.7577 709.61 27.5828 705.951 27.7181C704.666 27.6657 703.384 27.869 702.178 28.3161C700.973 28.7633 699.868 29.4454 698.928 30.3228C697.317 31.883 696.04 33.7556 695.177 35.8259L681.994 67.9444L669.07 35.9536C667.304 31.804 663.448 26.2594 650.431 26.2594C645.693 26.2432 641.077 27.7618 637.274 30.5878C635.248 32.0544 633.415 33.7703 631.818 35.6951C630.503 30.5176 626.392 27.7149 619.906 27.7149C618.3 27.5982 616.688 27.8187 615.173 28.3622C613.658 28.9057 612.274 29.7602 611.109 30.8707C609.944 31.9813 609.024 33.3233 608.409 34.8106C607.794 36.2978 607.497 37.8974 607.536 39.5064V94.1416C607.464 95.8907 607.773 97.6346 608.441 99.2527C609.109 100.871 610.12 102.325 611.405 103.513C613.953 105.729 617.217 106.949 620.593 106.949C623.97 106.949 627.234 105.729 629.782 103.513C631.092 102.337 632.126 100.886 632.811 99.2635C633.495 97.6414 633.814 95.8882 633.743 94.1288V69.6011C633.658 66.5792 634.201 63.5725 635.339 60.7719C636.264 58.5815 637.658 56.6203 639.422 55.0261C641.076 53.575 643.002 52.4671 645.088 51.7671C645.82 51.5213 646.566 51.3178 647.322 51.1574L668.795 97.9178C669.917 100.441 671.571 102.692 673.644 104.516C675.917 106.224 678.717 107.082 681.557 106.942C684.385 107.073 687.176 106.259 689.489 104.627C691.614 102.891 693.315 100.693 694.466 98.2019L718.878 46.7396C719.737 44.8845 720.194 42.8688 720.219 40.8247ZM715.239 45.0797L690.862 96.4718C689.982 98.4024 688.68 100.112 687.054 101.474C685.431 102.558 683.498 103.082 681.551 102.964C679.637 103.09 677.739 102.554 676.175 101.445C674.565 99.9968 673.282 98.2219 672.412 96.2388L649.684 46.7619L648.206 46.9726C646.716 47.1869 645.247 47.533 643.817 48.0068C641.226 48.8748 638.833 50.2496 636.779 52.0512C634.576 54.0243 632.833 56.4563 631.672 59.1758C630.315 62.49 629.663 66.05 629.756 69.6298V94.1703C629.821 95.362 629.62 96.5532 629.167 97.6574C628.714 98.7616 628.021 99.7512 627.139 100.554C625.327 102.111 623.019 102.969 620.63 102.972C618.241 102.975 615.93 102.123 614.115 100.57C613.247 99.754 612.569 98.7573 612.128 97.6505C611.686 96.5436 611.493 95.3535 611.562 94.1639V39.5096C611.521 38.426 611.715 37.3464 612.129 36.3444C612.543 35.3423 613.169 34.4413 613.963 33.7028C614.757 32.9643 615.701 32.4056 616.73 32.0647C617.759 31.7238 618.85 31.6087 619.928 31.7273C625.718 31.7273 628.301 34.1693 628.301 39.6564V41.6993L632.093 42.5931C633.872 39.1027 636.468 36.0943 639.661 33.8245C642.772 31.4858 646.565 30.2352 650.457 30.2654C660.92 30.2654 663.889 33.9299 665.402 37.4826L682.001 78.5644L698.919 37.3677C699.573 35.8072 700.538 34.3956 701.753 33.218C702.325 32.7034 702.993 32.3075 703.719 32.0533C704.445 31.799 705.215 31.6915 705.983 31.7369C708.708 31.5975 711.392 32.4439 713.544 34.1214C714.481 34.9552 715.213 35.9937 715.683 37.1563C716.153 38.3189 716.349 39.5742 716.255 40.8247C716.216 42.299 715.868 43.7487 715.233 45.0797H715.239ZM791.613 70.8779C793.014 67.8776 793.689 64.5892 793.582 61.2794C793.552 52.2266 790.026 43.5353 783.741 37.0198C780.496 33.7018 776.636 31.0467 772.377 29.2024C767.508 27.1968 762.283 26.1966 757.017 26.2619C751.75 26.3272 746.552 27.4566 741.734 29.5823C737.052 31.7313 732.826 34.7577 729.285 38.4977C725.696 42.3248 722.878 46.8072 720.985 51.7C718.992 56.7974 717.979 62.2254 718.001 67.6986C717.945 73.2596 718.934 78.7816 720.915 83.9781C722.758 88.7809 725.531 93.1729 729.074 96.9027C732.607 100.576 736.868 103.471 741.583 105.403C746.606 107.437 751.982 108.456 757.4 108.4C762.91 108.519 768.4 107.693 773.632 105.959C777.658 104.59 781.455 102.624 784.896 100.127C786.357 98.9876 787.607 97.6015 788.59 96.0313C789.767 94.2064 790.386 92.0774 790.371 89.9057C790.366 86.8698 789.221 83.9464 787.163 81.7149C786.122 80.5051 784.825 79.5416 783.366 78.8941C781.907 78.2466 780.322 77.9312 778.726 77.9706C776.779 78.0629 774.876 78.5839 773.153 79.4964C772.744 79.7007 772.055 80.0838 771.072 80.652C770.045 81.2337 768.988 81.7601 767.905 82.2288C766.579 82.813 765.21 83.2942 763.81 83.6685C762.29 84.0665 760.724 84.2629 759.153 84.2526C755.838 84.3409 752.581 83.3691 749.857 81.4787C747.774 79.9617 746.202 77.8463 745.35 75.4138H782.525C784.317 75.6258 786.132 75.3094 787.746 74.5035C789.361 73.6977 790.705 72.4374 791.613 70.8779ZM740.706 73.8752C741.569 78.2212 744.01 82.0939 747.559 84.7474C750.96 87.1063 755.017 88.3348 759.156 88.2586C761.082 88.2722 763.001 88.0285 764.863 87.534C766.459 87.108 768.02 86.5617 769.533 85.8997C770.745 85.3679 771.928 84.7744 773.08 84.1217C773.961 83.6142 774.58 83.2694 774.909 83.1003C776.091 82.4584 777.397 82.0764 778.739 81.9799C779.765 81.946 780.785 82.143 781.724 82.5562C782.663 82.9695 783.498 83.5885 784.165 84.3675C785.577 85.869 786.365 87.8513 786.368 89.9121C786.386 91.314 785.99 92.69 785.228 93.8671C784.502 95.0419 783.575 96.0801 782.49 96.9346C779.368 99.1906 775.925 100.963 772.275 102.192C767.48 103.779 762.45 104.534 757.4 104.426C752.509 104.479 747.655 103.564 743.119 101.732C738.914 100.013 735.116 97.4339 731.966 94.1607C728.779 90.8086 726.285 86.8614 724.624 82.5449C722.827 77.8115 721.933 72.7835 721.987 67.721C721.968 62.7498 722.888 57.8198 724.701 53.1907C726.406 48.7726 728.945 44.7239 732.18 41.2652C735.371 37.8969 739.179 35.1717 743.397 33.2372C747.698 31.3478 752.335 30.3431 757.032 30.2828C761.73 30.2224 766.391 31.1078 770.74 32.8861C774.526 34.5232 777.959 36.8788 780.849 39.8224C783.625 42.6848 785.814 46.0627 787.294 49.7656C788.785 53.4247 789.555 57.3377 789.56 61.289C789.662 63.9649 789.137 66.6276 788.028 69.0648C787.731 69.6426 786.831 71.4078 782.509 71.4078H740.099L740.706 73.8752Z" fill="white"/>
<path d="M768.327 51.0458C767.043 49.6121 765.468 48.4684 763.708 47.6909C761.673 46.8113 759.473 46.376 757.256 46.4141C753.321 46.2711 749.466 47.5555 746.403 50.0307C743.416 52.7037 741.408 56.2993 740.699 60.2453L740.169 62.6808H771.972V60.6762C771.965 58.9444 771.652 57.2274 771.049 55.604C770.43 53.9298 769.507 52.3844 768.327 51.0458ZM745.289 58.6875C745.997 56.5269 747.27 54.5949 748.976 53.0919C751.32 51.2255 754.264 50.2779 757.256 50.4265C758.899 50.3859 760.532 50.6972 762.045 51.3394C763.29 51.8767 764.405 52.6758 765.313 53.6824C766.167 54.6588 766.834 55.7842 767.28 57.0021C767.479 57.5528 767.639 58.1172 767.758 58.6907L745.289 58.6875Z" fill="white"/>
</g>
<path d="M789.828 0.166527C783.899 0.166527 778.992 5.09856 779.053 10.9776C779.004 16.8813 783.912 21.7765 789.852 21.7765C795.78 21.7765 800.651 16.9182 800.663 10.9776C800.663 5.03706 795.744 0.154228 789.84 0.166527H789.828ZM789.791 20.2513C784.748 20.2513 780.578 16.0573 780.554 10.9899C780.529 5.91032 784.76 1.69165 789.803 1.69165C794.944 1.69165 799.114 5.84882 799.114 10.9653C799.114 16.1065 794.944 20.2513 789.791 20.2513Z" fill="white"/>
<path d="M792.361 11.8511C792.226 11.5559 792.251 11.4083 792.57 11.273C793.419 10.9041 794.022 10.2891 794.132 9.34204C794.182 8.91156 794.194 8.45649 794.157 8.02601C794.034 6.80837 793.481 5.84903 792.288 5.44315C791.66 5.23406 790.971 5.09877 790.307 5.07417C788.93 5.01267 787.552 5.06187 786.162 5.04957C785.88 5.04957 785.793 5.12337 785.793 5.40625C785.806 7.11586 785.793 8.83776 785.793 10.5474C785.793 12.38 785.793 14.2126 785.793 16.0452C785.793 16.3281 785.88 16.4265 786.162 16.4019C786.544 16.3773 786.913 16.4019 787.294 16.4019C787.614 16.4019 787.774 16.2379 787.774 15.9099C787.774 14.6799 787.774 13.45 787.774 12.2201C787.774 11.765 787.774 11.765 788.216 11.765C788.782 11.765 789.336 11.7773 789.901 11.765C790.197 11.765 790.344 11.8511 790.455 12.134C790.971 13.4869 791.5 14.8275 792.029 16.1682C792.066 16.2666 792.214 16.4019 792.3 16.4142C792.939 16.4388 793.591 16.4142 794.292 16.4142C794.243 16.2666 794.206 16.1559 794.169 16.0698C793.567 14.6799 792.976 13.2778 792.374 11.888L792.361 11.8511ZM792.066 8.88696C791.906 9.53883 791.427 9.89551 790.812 9.9447C789.877 10.0308 788.942 9.9939 788.007 10.0062C787.811 10.0062 787.761 9.88321 787.761 9.69872C787.761 9.28054 787.761 8.86236 787.761 8.43189C787.761 8.02601 787.761 7.60783 787.761 7.20195C787.761 6.98057 787.835 6.88217 788.057 6.88217C788.93 6.90677 789.803 6.88217 790.676 6.94367C791.734 7.02976 792.312 7.86612 792.066 8.87466V8.88696Z" fill="white"/>
<defs>
<clipPath id="clip0_1477_3563">
<rect width="792.919" height="129.422" fill="white" transform="translate(0.663086 4.16089)"/>
</clipPath>
</defs>
</svg>
