<svg xmlns="http://www.w3.org/2000/svg" width="127.405" height="133.253"
                                viewBox="0 0 127.405 133.253">
                                <defs>
                                    <clipPath id="a">
                                        <path d="M0 97.348h127.4V-35.905H0z" transform="translate(0 35.905)"
                                            fill="#1b4932"></path>
                                    </clipPath>
                                </defs>
                                <g clip-path="url(#a)">
                                    <path
                                        d="M.843 83.397a2.432 2.432 0 01-.787-1.4 3.109 3.109 0 01.394-2.152l1.077.431a2.331 2.331 0 00-.371 1.6c.093.419.36.694.727.612s.427-.527.46-.787.084-.709.126-.913a2.215 2.215 0 01.252-.75 1.387 1.387 0 01.961-.672 1.569 1.569 0 011.326.308 2.3 2.3 0 01.76 1.363 2.812 2.812 0 01-.286 1.911l-1.02-.353a1.958 1.958 0 00.282-1.362c-.093-.415-.317-.686-.653-.609s-.39.416-.431.687-.093.705-.126.9a2.269 2.269 0 01-.275.868 1.464 1.464 0 01-.961.672 1.69 1.69 0 01-1.455-.354"
                                        fill="#1b4932"></path>
                                </g>
                                <path
                                    d="M5.401 84.27l.442 1.4-4.361 1.402.4 1.269 4.362-1.404.442 1.4.995-.323-1.285-4.063z"
                                    fill="#1b4932"></path>
                                <g clip-path="url(#a)">
                                    <path
                                        d="M4.783 95.773l-.6-1.421 1.513-1.948-.163-.386-1.978.85-.516-1.225 5.17-2.227.79 1.874a2.493 2.493 0 01.21 1.539 1.568 1.568 0 01-.939 1.084 1.564 1.564 0 01-1.913-.384zm3.337-3.566a1.133 1.133 0 00-.13-.687l-.208-.482-1.325.571.2.482a1.106 1.106 0 00.408.568.62.62 0 00.638.037.642.642 0 00.412-.49M9.975 100.506a2.38 2.38 0 01-1.8.393 2.373 2.373 0 01-1.478-1.273 2.445 2.445 0 01-.3-1.937 2.454 2.454 0 011.288-1.336l2.858-1.611.645 1.173-2.857 1.607a1.431 1.431 0 00-.713.657 1.027 1.027 0 00.085.883 1 1 0 00.7.538 1.416 1.416 0 00.924-.267l2.863-1.607.646 1.169zM12.523 107.265a2.66 2.66 0 01-1.8-1.225 2.832 2.832 0 01.665-4.122 2.775 2.775 0 014.071.735 2.805 2.805 0 01.6 1.963l-1.125.3a2.209 2.209 0 00-.366-1.536 1.608 1.608 0 00-2.386-.379 1.654 1.654 0 00-.434 2.4 2.062 2.062 0 001.358.9z"
                                        fill="#1b4932"></path>
                                </g>
                                <path
                                    d="M19.204 109.119l-.946-1.11-3.467 3.022-.861-1.009L17.393 107l-.942-1.106.791-.69 2.752 3.229z"
                                    fill="#1b4932"></path>
                                <g clip-path="url(#a)">
                                    <path
                                        d="M22.131 115.16a2.4 2.4 0 01-1.607.92 2.382 2.382 0 01-1.776-.772 2.442 2.442 0 01-.861-1.759 2.489 2.489 0 01.831-1.663l2.256-2.4.961.92-2.252 2.405a1.441 1.441 0 00-.486.839 1.029 1.029 0 00.341.816 1.015 1.015 0 00.828.3 1.422 1.422 0 00.805-.534l2.253-2.394.961.924zM25.949 121.233l-1.214-.943.375-2.449-.33-.256-1.307 1.722-1.05-.813 3.426-4.5 1.6 1.243a2.457 2.457 0 01.934 1.234 1.582 1.582 0 01-.3 1.41 1.56 1.56 0 01-1.852.616zm1.18-4.762a1.1 1.1 0 00-.449-.531l-.412-.322-.88 1.154.416.323a1.054 1.054 0 00.627.289.627.627 0 00.575-.278.658.658 0 00.123-.635"
                                        fill="#1b4932"></path>
                                </g>
                                <path
                                    d="M31.864 125.018l-1.221-.761.256-1.184-1.707-1.061-.935.761-1.162-.724 4.754-3.717 1.162.724zm-.684-2.986l.461-2.11-1.655 1.366zM33.605 125.915l2.924 1.451.476-.991-1.745-.865 2-4.1-1.18-.583zM41.047 129.218l1.243.449 1.886-5.348-1.244-.449z"
                                    fill="#1b4932"></path>
                                <g clip-path="url(#a)">
                                    <path
                                        d="M49.55 131.771l-1.31-.341-1.428-4.354s-.149.665-.297 1.247l-.639 2.487-1.243-.33 1.41-5.493 1.362.356 1.385 4.309s.137-.627.286-1.21l.641-2.494 1.241.327z"
                                        fill="#1b4932"></path>
                                </g>
                                <path
                                    d="M52.243 127.595l1.433.219-.683 4.572 1.3.2.687-4.569 1.434.216.153-1.043-4.168-.638zM57.724 132.999l3.708.223.063-1.073-2.4-.148.078-1.314 2.193.134.066-1.062-2.194-.13.071-1.158 2.323.141.063-1.061-3.633-.219z"
                                    fill="#1b4932"></path>
                                <g clip-path="url(#a)">
                                    <path
                                        d="M68.798 132.173a3.3 3.3 0 01-2.456 1.077 2.791 2.791 0 01-3.043-2.8 2.793 2.793 0 012.813-3.04 2.829 2.829 0 012.353.887l-.839.8a1.847 1.847 0 00-1.466-.59 1.632 1.632 0 00-1.529 1.882 1.641 1.641 0 001.7 1.748c.913-.041 1.158-.412 1.158-.412l-.03-.836-1.181.052-.044-1.013 2.464-.1zM75.656 132.111l-1.514.235-1.489-1.975-.408.063.319 2.149-1.3.2-.841-5.615 2-.3a2.421 2.421 0 011.522.178 1.556 1.556 0 01.8 1.191 1.585 1.585 0 01-.846 1.774zm-2.579-4.156a1.088 1.088 0 00-.69-.045l-.517.078.215 1.44.517-.082a1.117 1.117 0 00.645-.252.652.652 0 00.2-.612.652.652 0 00-.367-.527"
                                        fill="#1b4932"></path>
                                </g>
                                <path
                                    d="M76.195 126.159l1.266 5.53 1.288-.3-1.27-5.531zM78.971 125.508l.308 1.006 1.384-.434 1.359 4.416 1.258-.393-1.355-4.417 1.384-.434-.311-1.006zM88.656 121.926l-.513 3.882.876 2.118-1.217.516-.871-2.122-3.1-2.357 1.355-.571 1.922 1.64.2-2.535z"
                                    fill="#1b4932"></path>
                                <g clip-path="url(#a)">
                                    <path
                                        d="M99.063 121.451a3.333 3.333 0 01-1.629 2.146 2.764 2.764 0 01-4.008-.95 2.826 2.826 0 01.991-4.043 2.83 2.83 0 012.48-.378l-.342 1.109a1.85 1.85 0 00-1.567.212 1.641 1.641 0 00-.423 2.4 1.62 1.62 0 002.332.684c.776-.482.809-.928.809-.928l-.435-.716-1.006.623-.523-.861 2.1-1.306zM103.755 115.994a2.453 2.453 0 01.668 1.741 2.419 2.419 0 01-1.02 1.666 2.377 2.377 0 01-1.848.6 2.443 2.443 0 01-1.507-1.072l-2.019-2.6 1.043-.829 2.019 2.6a1.4 1.4 0 00.75.609.978.978 0 00.85-.223 1.021 1.021 0 00.419-.783 1.419 1.419 0 00-.4-.88l-2.02-2.603 1.047-.826z"
                                        fill="#1b4932"></path>
                                </g>
                                <path
                                    d="M110.559 112.777l-1.028 1.008-1.076-.54-1.436 1.41.5 1.1-.983.961-2.397-5.568.983-.963zm-3.035-.063l-1.908-.972.906 1.956z"
                                    fill="#1b4932"></path>
                                <g clip-path="url(#a)">
                                    <path
                                        d="M114.73 107.84l-.984 1.184-2.4-.479-.272.323 1.648 1.4-.85 1.021-4.305-3.653 1.299-1.568a2.438 2.438 0 011.258-.885 1.54 1.54 0 011.381.356 1.594 1.594 0 01.531 1.9zm-4.658-1.391a1.1 1.1 0 00-.549.427l-.334.4 1.108.939.334-.4a1.107 1.107 0 00.315-.623.649.649 0 00-.254-.595.636.636 0 00-.62-.148"
                                        fill="#1b4932"></path>
                                </g>
                                <path
                                    d="M118.721 102.03l-.8 1.2-1.162-.3-1.126 1.67.716.972-.768 1.149-3.477-4.958.768-1.143zm-2.984.564l-2.067-.556 1.284 1.729z"
                                    fill="#1b4932"></path>
                                <g clip-path="url(#a)">
                                    <path
                                        d="M122.093 95.723l-.627 1.209-4.52.431s.612.293 1.139.572l2.251 1.187-.592 1.151-4.984-2.624.653-1.262 4.465-.393s-.575-.275-1.1-.553l-2.263-1.192.6-1.154z"
                                        fill="#1b4932"></path>
                                </g>
                                <path
                                    d="M120.224 88.161l-.535 1.362 4.257 1.7-.486 1.243-4.257-1.703-.534 1.362-.969-.39 1.555-3.956zM126.158 84.349l-1.047 3.6-5.392-1.6 1.032-3.529 1.007.297-.654 2.256 1.1.33.618-2.133 1.009.3-.62 2.13 1.247.372.68-2.327zM121.177 81.02l5.515 1.088.713-3.682-1.05-.2-.457 2.375-1.281-.252.42-2.179-1.032-.2-.419 2.178-1.125-.222.442-2.309-1.026-.204zM50.116 79.629h-10.57V40.004h-8.469v-7.6h19.039z"
                                    fill="#1b4932"></path>
                                <g clip-path="url(#a)">
                                    <path
                                        d="M75.93 80.386c-9.349 0-15.042-4.312-17.209-7.734l5.014-6.5a14.758 14.758 0 0011.449 5.68c4 0 8.811-2.331 8.811-8.009 0-5.615-4.609-7.942-8.811-7.942a15.712 15.712 0 00-8.536 2.464l-4.743-2.873 3.589-23.069h27.374v8.488H73.421l-1.354 8.487a14.958 14.958 0 016.235-1.024c7.115 0 16.33 4.517 16.33 15.469 0 11.019-9.419 16.563-18.7 16.563"
                                        fill="#1b4932"></path>
                                </g>
                                <path
                                    d="M45.601 89.952l-5.878 10.173v6.907h-3.971v-6.907l-5.879-10.173h4.409l3.455 6.806 3.455-6.806zM59.519 107.03H48.344V89.953H59.3v3.19h-7.011v3.492h6.617v3.192h-6.617v3.96h7.23zM78.656 107.034h-4.315l-1.2-3.444h-6.027l-1.2 3.44h-4.115l6.369-17.105h4.115zm-6.421-6.562l-2.108-6.138-2.1 6.138z"
                                    fill="#1b4932"></path>
                                <g clip-path="url(#a)">
                                    <path
                                        d="M94.95 107.03h-4.606l-3.551-6.535h-1.251v6.536h-3.971V89.953h6.079a7.293 7.293 0 014.457 1.212 4.751 4.751 0 011.863 3.911 4.77 4.77 0 01-3.307 4.9zm-5.83-13.538a3.243 3.243 0 00-2.034-.446h-1.57v4.379h1.57a3.212 3.212 0 002.034-.472 1.913 1.913 0 00.856-1.728 1.95 1.95 0 00-.857-1.733M11.679 38.391a5.528 5.528 0 01-.319 4.424 4.544 4.544 0 01-6.343 2.332 4.621 4.621 0 01-2.234-6.443 4.69 4.69 0 013.062-2.776l.516 1.841a3.049 3.049 0 00-1.96 1.7 2.686 2.686 0 001.548 3.677 2.658 2.658 0 003.808-1.169c.638-1.369.286-2.012.286-2.012l-1.233-.586-.824 1.77-1.484-.708 1.722-3.697z"
                                        fill="#1b4932"></path>
                                </g>
                                <path
                                    d="M19.42 29.682L18.036 31.6l-1.886-.571-1.936 2.683 1.116 1.637-1.316 1.833-5.416-8.324 1.321-1.83zm-4.917.75L11.148 29.4l2 2.906zM24.85 24.224l-3.785 3.8-6.495-6.594 1.525-1.533 5.233 5.318 2.26-2.271zM26.551 11.099l2.839 9.5-1.637 1.255-8.287-5.329 1.83-1.4 5.552 3.783-2.116-6.417zM40.933 13.8l-2.086 1.095-1.436-1.362-2.913 1.529.274 1.967-1.989 1.043-1.169-9.883 1.989-1.043zm-4.732-1.544l-2.546-2.434.508 3.5z"
                                    fill="#1b4932"></path>
                                <g clip-path="url(#a)">
                                    <path
                                        d="M51.019 10.604l-2.127.635-5.649-4.9s.354 1.069.633 2.012l1.179 4.035-2.023.6-2.612-8.918 2.216-.664 5.54 4.869s-.33-.994-.6-1.941l-1.188-4.046 2.019-.6z"
                                        fill="#1b4932"></path>
                                </g>
                                <path d="M52.935.927l1.284 9.211 2.141-.308L55.076.619z" fill="#1b4932"></path>
                                <g clip-path="url(#a)">
                                    <path
                                        d="M64.755 8.774a3.873 3.873 0 01-2.483.809 4.95 4.95 0 01-3.292-1.347l1.039-1.611a3.788 3.788 0 002.424 1.139c.694-.011 1.221-.356 1.214-.98s-.7-.865-1.1-1.006-1.1-.371-1.41-.5a3.561 3.561 0 01-1.106-.661 2.3 2.3 0 01-.749-1.781A2.627 2.627 0 0160.22.783 3.747 3.747 0 0162.636 0a4.527 4.527 0 012.943 1.1l-.9 1.54a3.162 3.162 0 00-2.069-.91c-.694.011-1.195.289-1.188.853s.534.776.95.928 1.087.39 1.384.5a3.677 3.677 0 011.3.735 2.448 2.448 0 01.75 1.781 2.834 2.834 0 01-1.051 2.247"
                                        fill="#1b4932"></path>
                                </g>
                                <path
                                    d="M68.513 9.565l6.027.835.241-1.752-3.9-.538.289-2.138 3.57.494.238-1.726-3.574-.493.256-1.882 3.786.523.23-1.726-5.912-.816z"
                                    fill="#1b4932"></path>
                                <g clip-path="url(#a)">
                                    <path
                                        d="M84.008 11.968a5.377 5.377 0 01-3.715-.037l-2.973-.956 2.8-8.863 2.972.956a5.333 5.333 0 013.043 2.158 4.354 4.354 0 01.364 3.822 4.363 4.363 0 01-2.491 2.92m.286-5.923a2.779 2.779 0 00-1.633-1.216l-1.041-.338-1.7 5.385 1.043.334a2.682 2.682 0 002.032-.052 2.714 2.714 0 001.418-1.781 2.9 2.9 0 00-.119-2.331M96.107 18.854a3.9 3.9 0 01-2.524-.676 5.049 5.049 0 01-2.045-2.936l1.737-.783a3.85 3.85 0 001.429 2.279c.59.367 1.221.367 1.544-.16s-.119-1.109-.379-1.447-.727-.917-.917-1.2a3.629 3.629 0 01-.583-1.149 2.312 2.312 0 01.324-1.908 2.6 2.6 0 011.881-1.221 3.74 3.74 0 012.45.661 4.559 4.559 0 011.885 2.535l-1.577.805a3.2 3.2 0 00-1.254-1.9c-.59-.371-1.162-.412-1.459.071s.037.943.3 1.3.705.92.894 1.18a3.77 3.77 0 01.694 1.325 2.475 2.475 0 01-.318 1.91 2.794 2.794 0 01-2.082 1.314"
                                        fill="#1b4932"></path>
                                </g>
                                <path
                                    d="M108.271 19.739l-1.811-1.555-4.854 5.778-1.652-1.414 4.858-5.774-1.811-1.555 1.106-1.318 5.27 4.52zM109.112 31.91l-4-4.635 6.95-6.117 3.916 4.55-1.3 1.143-2.504-2.909-1.418 1.25 2.364 2.743-1.299 1.143-2.364-2.746-1.611 1.418 2.583 3zM114.044 39.448l-3.244-5.203 7.794-4.958 3.177 5.1-1.455.928-2.034-3.263-1.592 1.013 1.919 3.08-1.455.928-1.923-3.08-1.807 1.147 2.1 3.366zM117.501 46.986l-2.16-4.933 8.425-3.763.868 1.986-6.788 3.032 1.292 2.946z"
                                    fill="#1b4932"></path>
                                <g clip-path="url(#a)">
                                    <path
                                        d="M2.937 63.032a1.443 1.443 0 00-1.438-1.451 1.443 1.443 0 00-1.436 1.451 1.443 1.443 0 001.436 1.451 1.443 1.443 0 001.438-1.451M126.788 63.032a1.443 1.443 0 00-1.438-1.451 1.443 1.443 0 00-1.436 1.451 1.443 1.443 0 001.436 1.451 1.443 1.443 0 001.438-1.451"
                                        fill="#1b4932"></path>
                                </g>
                            </svg>