<svg xmlns="http://www.w3.org/2000/svg" width="129.943" height="131.565"
                                viewBox="0 0 129.943 131.565">
                                <g fill="#1b4932">
                                    <path
                                        d="M3.653 82.289a2.546 2.546 0 01-.8-1.373 3.112 3.112 0 01.385-2.115l1.071.412a2.2 2.2 0 00-.357 1.593c.082.412.357.687.714.6.385-.082.412-.522.467-.769.027-.247.082-.714.11-.906a2.526 2.526 0 01.247-.742 1.383 1.383 0 01.961-.659 1.628 1.628 0 011.318.3 2.427 2.427 0 01.769 1.346 2.91 2.91 0 01-.275 1.9l-1.016-.357a1.835 1.835 0 00.275-1.346c-.082-.412-.33-.687-.659-.6s-.385.412-.439.687c-.055.247-.082.687-.137.879a2.3 2.3 0 01-.275.851 1.449 1.449 0 01-.961.659 1.644 1.644 0 01-1.398-.36zM9.476 87.178l-.439-1.373-4.34 1.4-.412-1.267 4.34-1.4-.44-1.37.989-.33 1.291 4.01zM7.581 94.51l-.6-1.4 1.511-1.923-.165-.384-1.978.851-.526-1.206 5.164-2.2.8 1.84a2.373 2.373 0 01.22 1.511 1.561 1.561 0 01-.934 1.071 1.6 1.6 0 01-1.923-.385zm3.323-3.516a.966.966 0 00-.137-.687l-.192-.467-1.318.577.192.467a.891.891 0 00.412.549.576.576 0 00.632.027.518.518 0 00.411-.465zM12.772 99.207a2.422 2.422 0 01-1.813.384 2.36 2.36 0 01-1.456-1.263 2.4 2.4 0 01-.3-1.923 2.49 2.49 0 011.291-1.318l2.856-1.593.632 1.154-2.856 1.593a1.41 1.41 0 00-.714.659 1.02 1.02 0 00.082.879.919.919 0 00.687.522 1.455 1.455 0 00.934-.275l2.856-1.593.632 1.154zM15.299 105.882a2.6 2.6 0 01-1.785-1.209 2.889 2.889 0 114.724-3.323 2.9 2.9 0 01.6 1.95l-1.126.3a2.05 2.05 0 00-.357-1.511 1.726 1.726 0 00-2.829 1.978 2.021 2.021 0 001.346.879zM21.973 107.695l-.934-1.1-3.461 2.994-.851-.989 3.461-2.994-.934-1.1.8-.687 2.747 3.186zM24.885 113.679a2.351 2.351 0 01-1.593.906 2.4 2.4 0 01-1.785-.769 2.366 2.366 0 01-.851-1.73 2.491 2.491 0 01.824-1.648l2.252-2.362.961.906-2.252 2.362a1.478 1.478 0 00-.494.824.983.983 0 00.33.8 1.007 1.007 0 00.824.3 1.394 1.394 0 00.8-.522l2.252-2.362.961.906zM28.703 119.669l-1.209-.934.385-2.417-.33-.247-1.318 1.7-1.044-.8 3.406-4.443 1.593 1.236a2.5 2.5 0 01.934 1.208 1.5 1.5 0 01-.3 1.4 1.531 1.531 0 01-1.84.6zm1.181-4.7a1.238 1.238 0 00-.439-.522l-.412-.33-.879 1.154.412.33a1.209 1.209 0 00.632.3.683.683 0 00.577-.275.759.759 0 00.112-.654zM34.608 123.405l-1.209-.742.247-1.181-1.7-1.044-.934.742-1.154-.714 4.752-3.68 1.154.714zm-.687-2.939l.467-2.087-1.648 1.346zM39.249 125.74l-2.911-1.428 2.472-5.026 1.181.577-2.005 4.065 1.73.852zM45.017 127.992l-1.236-.439 1.9-5.273 1.236.439zM52.268 130.079l-1.316-.329-1.428-4.312s-.137.659-.3 1.236l-.632 2.444-1.236-.33 1.4-5.438 1.373.357 1.373 4.257s.137-.632.275-1.181l.632-2.472 1.236.33zM59.107 126.591l-1.428-.22-.687 4.5-1.291-.192.687-4.5-1.428-.22.165-1.016 4.175.632zM64.106 131.508l-3.708-.22.33-5.6 3.626.22-.055 1.044-2.307-.137-.082 1.154 2.2.137-.055 1.044-2.2-.137-.082 1.291 2.39.137zM71.468 130.491a3.308 3.308 0 01-2.444 1.071 2.806 2.806 0 01-3.049-2.774 2.751 2.751 0 012.8-2.994 2.791 2.791 0 012.335.879l-.824.8a1.9 1.9 0 00-1.456-.577 1.588 1.588 0 00-1.511 1.868 1.648 1.648 0 001.7 1.73c.906-.027 1.154-.412 1.154-.412l-.027-.824-1.181.055-.055-.989 2.472-.11zM78.306 130.409l-1.511.22-1.483-1.95-.412.055.33 2.115-1.291.192-.824-5.553 2.005-.3a2.6 2.6 0 011.511.165 1.561 1.561 0 01.8 1.181 1.584 1.584 0 01-.851 1.758zm-2.582-4.092a1.1 1.1 0 00-.687-.055l-.522.082.22 1.428.522-.082a1.127 1.127 0 00.632-.247.634.634 0 00.192-.6.557.557 0 00-.357-.527zM81.382 129.695l-1.291.3-1.263-5.466 1.291-.3zM85.942 123.652l-1.373.44 1.346 4.367-1.263.384-1.346-4.367-1.373.439-.3-.989 4.007-1.235zM91.271 120.356l-.522 3.845.879 2.087-1.209.494-.879-2.087-3.076-2.335 1.346-.577 1.923 1.62.192-2.5zM101.653 119.89a3.256 3.256 0 01-1.62 2.115 2.779 2.779 0 01-4.01-.934 2.742 2.742 0 01.989-3.983 2.96 2.96 0 012.472-.385l-.357 1.1a1.8 1.8 0 00-1.566.22 1.6 1.6 0 00-.412 2.362 1.649 1.649 0 002.335.687c.8-.467.824-.906.824-.906l-.439-.714-1.016.6-.522-.851 2.087-1.291zM106.349 114.506a2.347 2.347 0 01.659 1.73 2.422 2.422 0 01-1.016 1.648 2.1 2.1 0 01-3.351-.467l-2.005-2.582 1.044-.824 2 2.582a1.484 1.484 0 00.742.6 1.037 1.037 0 00.851-.22.993.993 0 00.412-.769 1.506 1.506 0 00-.412-.879l-2.005-2.582 1.044-.824zM113.134 111.32l-1.016.989-1.071-.522-1.428 1.4.494 1.1-.989.961-2.39-5.493.989-.961zm-3.021-.055l-1.9-.961.906 1.923zM117.309 106.429l-.989 1.181-2.39-.467-.275.33 1.648 1.373-.851 1.016-4.312-3.624 1.291-1.538a2.6 2.6 0 011.263-.879 1.69 1.69 0 011.9 2.225zm-4.669-1.373a1.2 1.2 0 00-.549.412l-.33.412 1.1.934.33-.412a.969.969 0 00.3-.6.593.593 0 00-.247-.577.577.577 0 00-.604-.168zM121.291 100.69l-.8 1.181-1.154-.3-1.126 1.648.714.961-.769 1.126-3.488-4.862.769-1.126zm-2.994.577l-2.06-.549 1.291 1.7zM124.641 94.483l-.632 1.208-4.5.412s.6.3 1.126.577l2.252 1.181-.6 1.126-4.971-2.582.659-1.236 4.449-.384s-.577-.275-1.1-.549l-2.252-1.181.6-1.126zM122.775 87.012l-.522 1.346 4.257 1.675-.494 1.236-4.257-1.675-.522 1.346-.961-.384 1.538-3.928zM128.707 83.25l-1.044 3.543-5.383-1.593 1.016-3.488 1.016.3-.659 2.225 1.1.33.632-2.115 1.016.3-.632 2.115 1.236.357.687-2.307zM129.942 77.399l-.714 3.626-5.493-1.071.687-3.571 1.016.192-.439 2.28 1.126.22.412-2.142 1.016.192-.385 2.17 1.263.247.467-2.362z">
                                    </path>
                                </g>
                                <g fill="#1b4932">
                                    <path
                                        d="M52.818 78.582H42.271V39.444h-8.46v-7.5h19.007zM79.515 79.378c-13.651 0-19.336-11.756-19.336-24.06s5.74-24.06 19.336-24.06 19.336 11.756 19.336 24.06-5.74 24.06-19.336 24.06zm0-39c-6.015 0-8.6 6.345-8.6 14.749s2.582 14.887 8.6 14.887 8.6-6.482 8.6-14.887-2.585-14.751-8.6-14.751z">
                                    </path>
                                </g>
                                <g fill="#1b4932">
                                    <path
                                        d="M48.313 88.77l-5.878 10.053v6.812H38.48v-6.812L32.602 88.77h4.395l3.461 6.729 3.461-6.729zM62.21 105.634H51.059V88.77h10.932v3.159h-7v3.461h6.592v3.131h-6.592v3.9h7.224zM81.299 105.635h-4.312l-1.209-3.406h-6.015l-1.209 3.406h-4.119l6.345-16.892h4.12zm-6.4-6.482l-2.115-6.07-2.115 6.07zM97.56 105.634h-4.587l-3.543-6.455h-1.263v6.455h-3.956V88.77h6.07a7.192 7.192 0 014.45 1.208 5.092 5.092 0 01-1.428 8.707zm-5.823-13.376a3.343 3.343 0 00-2.032-.439h-1.566v4.34h1.566a3.334 3.334 0 002.032-.467 1.845 1.845 0 00.852-1.7 1.956 1.956 0 00-.852-1.734z">
                                    </path>
                                </g>
                                <g fill="#1b4932">
                                    <path
                                        d="M7.883 33.371l7.279 6.207-.906 1.978-6.456-.985 5.026 4.175-.906 1.978-9.448-1.353.934-2.06 6.317 1.1-4.971-4.065.879-1.978 6.317 1.044-5-3.983zM21.259 30.487l-3.571 4.916-7.443-5.382 3.516-4.834 1.4 1.016-2.252 3.076 1.511 1.1 2.115-2.912 1.4 1.016-2.115 2.911 1.73 1.263 2.307-3.186zM28.977 22.522l-1.676 1.653-1.758-.879-2.335 2.307.824 1.785-1.593 1.566-3.982-9.013 1.593-1.566zm-4.944-.082l-3.159-1.538 1.511 3.159zM30.46 12.222l-1.923 1.4 4.422 6.043-1.73 1.263-4.422-6.043-1.923 1.4-1.016-1.371 5.576-4.065zM44.056 13.431l-1.923.961-1.7-3.433-3.3 1.648 1.7 3.433-1.923.961-4.092-8.24 1.923-.961 1.597 3.191 3.3-1.648-1.593-3.186 1.923-.961zM52.872 10.657l-5.823 1.7-2.609-8.814 5.713-1.675.494 1.648-3.653 1.071.522 1.813 3.461-1.016.494 1.648-3.461 1.016.6 2.032 3.763-1.1zM62.87 9.146l-2.472.3-2.362-3.214-.687.082.444 3.486-2.142.275L54.493.961l3.269-.412a4.019 4.019 0 012.5.33 2.552 2.552 0 011.263 1.95 2.521 2.521 0 01-1.456 2.829zm-4.065-6.812a1.821 1.821 0 00-1.126-.11l-.851.11.3 2.335.851-.11a1.831 1.831 0 001.071-.385 1.036 1.036 0 00.357-.989 1.086 1.086 0 00-.602-.851zM67.32 9.229L65.15 9.2l.137-9.2 2.17.027zM78.801 10.465l-2.2-.33-3.076-6.757s-.137 1.1-.275 2.06l-.6 4.12-2.087-.3L71.907.165l2.28.33 2.993 6.67s.11-1.044.247-2.005l.6-4.12 2.087.3zM90.198 12.744a5.409 5.409 0 01-4.395.082 4.558 4.558 0 01-2.884-6.1 4.532 4.532 0 016.125-2.8 4.692 4.692 0 013.021 2.8l-1.758.687a3.044 3.044 0 00-1.868-1.785 2.628 2.628 0 00-3.461 1.868 2.679 2.679 0 001.511 3.68c1.4.494 2.005.11 2.005.11l.467-1.291-1.813-.659.549-1.538 3.79 1.373zM100.719 19.972a4.045 4.045 0 01-2.5-.769 4.907 4.907 0 01-1.923-2.994l1.758-.687a3.753 3.753 0 001.318 2.307c.577.385 1.208.412 1.538-.082.357-.522-.082-1.1-.33-1.456s-.687-.934-.851-1.209a3.516 3.516 0 01-.522-1.154 2.294 2.294 0 01.412-1.868 2.6 2.6 0 011.923-1.126 3.664 3.664 0 012.417.769 4.549 4.549 0 011.785 2.582l-1.621.714a3.127 3.127 0 00-1.181-1.923c-.577-.385-1.154-.467-1.456 0s0 .934.247 1.291.659.934.852 1.209a3.613 3.613 0 01.632 1.346 2.363 2.363 0 01-.412 1.868 2.688 2.688 0 01-2.086 1.182zM112.799 21.341l-1.73-1.621-5.081 5.493-1.589-1.455 5.081-5.493-1.73-1.621 1.149-1.263 5.081 4.669zM113.16 33.399l-3.79-4.752 7.169-5.74 3.708 4.642-1.346 1.071-2.39-2.966-1.456 1.181 2.252 2.8-1.345 1.072-2.252-2.8-1.675 1.318 2.444 3.076zM117.747 41.035l-3.021-5.274 7.965-4.559 2.966 5.164-1.483.851-1.9-3.3-1.62.934 1.785 3.131-1.483.851-1.78-3.131-1.84 1.071 1.95 3.406zM120.879 48.615l-1.95-4.971 8.569-3.351.769 2.005-6.894 2.692 1.154 2.966z">
                                    </path>
                                </g>
                                <circle cx="1.428" cy="1.428" r="1.428" transform="translate(0 60.755)" fill="#1b4932">
                                </circle>
                                <circle cx="1.428" cy="1.428" r="1.428" transform="translate(123.598 60.755)"
                                    fill="#1b4932"></circle>
                            </svg>