<svg xmlns="http://www.w3.org/2000/svg" width="124.996" height="143.14" viewBox="0 0 124.996 143.14"><g id="Group_644" data-name="Group 644" transform="translate(-132 -73.995)"><path id="Path_361" data-name="Path 361" d="M203.353,225.991a11.073,11.073,0,0,1-10.691-8.318,1.009,1.009,0,0,0-.976-.755h-3.454a2.018,2.018,0,0,1-2.016-2.016V196.758c0-6.73-4.323-10.625-9.8-15.557-7.73-6.966-17.344-15.628-17.421-35.845v-.009s0-.056,0-.1a44.247,44.247,0,0,1,39.405-43.962c.092-.011.182-.025.272-.04.054-.009.108-.019.163-.025,1.517-.151,3.035-.228,4.509-.228s2.991.077,4.51.228c.05.005.1.015.155.024.087.015.174.029.262.039A44.24,44.24,0,0,1,247.7,145.251c0,.022,0,.081,0,.114-.079,20.211-9.691,28.872-17.414,35.83-5.48,4.938-9.8,8.833-9.8,15.563V214.9a2.018,2.018,0,0,1-2.016,2.016H215.02a1.009,1.009,0,0,0-.976.755A11.073,11.073,0,0,1,203.353,225.991Zm-5.207-9.072a1.008,1.008,0,0,0-.87,1.516,7,7,0,0,0,12.154,0,1.008,1.008,0,0,0-.87-1.516Zm-6.89-9.072a1.008,1.008,0,0,0-1.008,1.008v3.024a1.008,1.008,0,0,0,1.008,1.008H215.45a1.008,1.008,0,0,0,1.008-1.008v-3.024a1.008,1.008,0,0,0-1.008-1.008Zm0-9.072a1.008,1.008,0,0,0-1.008,1.008v3.024a1.008,1.008,0,0,0,1.008,1.008H215.45a1.008,1.008,0,0,0,1.008-1.008v-3.024a1.008,1.008,0,0,0-1.008-1.008Zm12.1-93.747a40.778,40.778,0,0,0-4.1.208c-.08.008-.157.02-.235.034l-.1.015a40.251,40.251,0,0,0-35.891,40.06c.072,18.433,8.578,26.1,16.081,32.854,5.071,4.569,9.861,8.884,10.91,15.69a1.007,1.007,0,0,0,1,.854h24.669a1.007,1.007,0,0,0,1-.854c1.048-6.806,5.839-11.121,10.91-15.69,7.5-6.759,16.01-14.422,16.081-32.85a40.25,40.25,0,0,0-35.9-40.066l-.093-.014c-.075-.013-.151-.025-.227-.032A40.753,40.753,0,0,0,203.353,105.027Z" transform="translate(-8.855 -8.855)" fill="#d97924"></path><path id="Path_362" data-name="Path 362" d="M224.016,84.075A2.018,2.018,0,0,1,222,82.059V76.011a2.016,2.016,0,1,1,4.032,0v6.048A2.018,2.018,0,0,1,224.016,84.075Z" transform="translate(-29.518 0)" fill="#d97924"></path><path id="Path_363" data-name="Path 363" d="M134.016,168.027a2.016,2.016,0,0,1,0-4.032h6.048a2.016,2.016,0,0,1,0,4.032Z" transform="translate(0 -29.518)" fill="#d97924"></path><path id="Path_364" data-name="Path 364" d="M305.016,168.027a2.016,2.016,0,1,1,0-4.032h6.048a2.016,2.016,0,0,1,0,4.032Z" transform="translate(-56.085 -29.518)" fill="#d97924"></path><path id="Path_365" data-name="Path 365" d="M167.064,106.575a2,2,0,0,1-1.425-.591l-6.048-6.048a2.016,2.016,0,1,1,2.851-2.85l6.048,6.048a2.016,2.016,0,0,1-1.425,3.441Z" transform="translate(-8.855 -7.379)" fill="#d97924"></path><path id="Path_366" data-name="Path 366" d="M288.564,228.075a2,2,0,0,1-1.425-.591l-6.048-6.048a2.016,2.016,0,1,1,2.851-2.85l6.048,6.048a2.016,2.016,0,0,1-1.425,3.441Z" transform="translate(-48.705 -47.229)" fill="#d97924"></path><path id="Path_367" data-name="Path 367" d="M278.016,106.575a2.015,2.015,0,0,1-1.425-3.441l6.048-6.048a2.016,2.016,0,1,1,2.851,2.85l-6.048,6.048A2,2,0,0,1,278.016,106.575Z" transform="translate(-47.229 -7.379)" fill="#d97924"></path><path id="Path_368" data-name="Path 368" d="M156.516,228.075a2.015,2.015,0,0,1-1.425-3.441l6.048-6.048a2.016,2.016,0,1,1,2.851,2.85l-6.048,6.048A2,2,0,0,1,156.516,228.075Z" transform="translate(-7.379 -47.229)" fill="#d97924"></path><path id="Path_369" data-name="Path 369" d="M209.919,183.524c-.2,0-.4,0-.6-.013a33.657,33.657,0,0,1-3.89-.231,2.012,2.012,0,0,1-1.7-1.417l-1.245-4.111a1.01,1.01,0,0,0-.694-.679c-.592-.165-1.2-.356-1.8-.57a1.018,1.018,0,0,0-.337-.057,1.006,1.006,0,0,0-.609.2l-3.5,2.654a2.011,2.011,0,0,1-2.183.167,33.072,33.072,0,0,1-6.352-4.509,2.008,2.008,0,0,1-.543-2.175l1.446-4.029a1.009,1.009,0,0,0-.162-.971c-.359-.448-.718-.93-1.068-1.433a1.008,1.008,0,0,0-.827-.433l-4.457.134a2.054,2.054,0,0,1-1.88-1.149,31.776,31.776,0,0,1-2.45-7.329,2,2,0,0,1,.845-2.07l3.608-2.441a1.008,1.008,0,0,0,.442-.871c-.011-.288-.015-.579-.017-.869s0-.585.011-.876a1.006,1.006,0,0,0-.448-.866l-3.618-2.416a2.012,2.012,0,0,1-.858-2.069,32.1,32.1,0,0,1,2.41-7.342,2.035,2.035,0,0,1,1.9-1.161l4.425.109a1.006,1.006,0,0,0,.831-.439c.341-.5.7-.982,1.061-1.443a1.008,1.008,0,0,0,.154-.97l-1.468-4.013a2.009,2.009,0,0,1,.532-2.179,32.875,32.875,0,0,1,6.324-4.544,2.017,2.017,0,0,1,.977-.255,1.993,1.993,0,0,1,1.209.405l3.513,2.637a1.008,1.008,0,0,0,.944.144c.61-.217,1.214-.411,1.8-.576a1.011,1.011,0,0,0,.691-.683l1.222-4.117a2.014,2.014,0,0,1,1.687-1.427,36.563,36.563,0,0,1,4.007-.249,33.441,33.441,0,0,1,3.837.226,2.014,2.014,0,0,1,1.695,1.419l1.248,4.11a1.009,1.009,0,0,0,.694.679c.582.162,1.187.353,1.8.567a1.009,1.009,0,0,0,.944-.148l3.5-2.656a1.992,1.992,0,0,1,1.22-.413,2.029,2.029,0,0,1,.967.247,33.257,33.257,0,0,1,6.351,4.515,2,2,0,0,1,.544,2.174l-1.445,4.027a1.007,1.007,0,0,0,.16.967c.371.467.731.952,1.071,1.44a1.007,1.007,0,0,0,.828.432l4.458-.133A2.056,2.056,0,0,1,239,137.6a31.576,31.576,0,0,1,2.444,7.33A2.015,2.015,0,0,1,240.6,147l-3.6,2.439a1.01,1.01,0,0,0-.442.874c.011.288.017.576.017.867s0,.581-.013.868a1.007,1.007,0,0,0,.447.873l3.616,2.421a2.014,2.014,0,0,1,.856,2.062,31.622,31.622,0,0,1-2.405,7.346,2.031,2.031,0,0,1-1.838,1.161l-4.488-.11a1.008,1.008,0,0,0-.832.439c-.33.482-.677.953-1.06,1.441a1.008,1.008,0,0,0-.154.968l1.466,4.019a2.012,2.012,0,0,1-.533,2.178,32.932,32.932,0,0,1-6.33,4.545,2.054,2.054,0,0,1-.976.248,1.986,1.986,0,0,1-1.2-.4L219.61,176.6a1.006,1.006,0,0,0-.605-.2,1.017,1.017,0,0,0-.341.06c-.6.216-1.2.411-1.792.579a1.007,1.007,0,0,0-.689.681l-1.226,4.119a2.019,2.019,0,0,1-1.695,1.427A28.54,28.54,0,0,1,209.919,183.524ZM199.172,172a2.02,2.02,0,0,1,.794.162,23.432,23.432,0,0,0,4.364,1.379,2.017,2.017,0,0,1,1.515,1.388l1.149,3.795a1.008,1.008,0,0,0,.913.714l.158.008c.319.017.634.033.949.033.122,0,.244,0,.366-.008h.039c.415,0,.874-.015,1.341-.039a1.008,1.008,0,0,0,.915-.72l1.131-3.8a2.015,2.015,0,0,1,1.507-1.4,23.793,23.793,0,0,0,4.356-1.4,2.028,2.028,0,0,1,2.011.239l3.238,2.435a1.01,1.01,0,0,0,1.154.04c.782-.505,1.542-1.051,2.262-1.621a1.008,1.008,0,0,0,.321-1.135l-1.347-3.692a2.013,2.013,0,0,1,.4-2.042,22.922,22.922,0,0,0,2.674-3.627,2.092,2.092,0,0,1,1.808-.99l4.079.1a1.008,1.008,0,0,0,.941-.646c.318-.827.6-1.684.839-2.548a1.008,1.008,0,0,0-.411-1.106l-3.321-2.224a2.018,2.018,0,0,1-.885-1.866c.075-.79.11-1.524.107-2.245,0-.738-.041-1.476-.12-2.253a2.016,2.016,0,0,1,.876-1.867l3.307-2.238a1.008,1.008,0,0,0,.406-1.107c-.237-.845-.523-1.7-.85-2.544a1.009,1.009,0,0,0-.939-.643l-4.111.124a2.107,2.107,0,0,1-1.788-.977,23.156,23.156,0,0,0-2.7-3.626,2.016,2.016,0,0,1-.4-2.036l1.326-3.692a1.006,1.006,0,0,0-.325-1.132,27.858,27.858,0,0,0-2.28-1.616,1.007,1.007,0,0,0-1.149.049l-3.225,2.448a2,2,0,0,1-1.221.41,2.048,2.048,0,0,1-.794-.16,23.534,23.534,0,0,0-4.361-1.376,2.02,2.02,0,0,1-1.51-1.388l-1.152-3.792a1.007,1.007,0,0,0-.92-.715c-.241-.01-.48-.013-.72-.016-.219,0-.437-.006-.657-.016h-.048c-.5,0-.959.015-1.421.039a1.008,1.008,0,0,0-.915.72l-1.128,3.8a2.021,2.021,0,0,1-1.5,1.4,23.915,23.915,0,0,0-4.361,1.4,2,2,0,0,1-.8.165,2.039,2.039,0,0,1-1.215-.4l-3.239-2.432a1.008,1.008,0,0,0-1.152-.042c-.775.5-1.536,1.047-2.263,1.624a1.01,1.01,0,0,0-.32,1.136l1.347,3.682a2,2,0,0,1-.392,2.038,23.27,23.27,0,0,0-2.68,3.639,2.135,2.135,0,0,1-1.813.989l-4.071-.1a1.009,1.009,0,0,0-.941.646c-.316.821-.6,1.677-.841,2.546a1.006,1.006,0,0,0,.411,1.108l3.32,2.218a2.017,2.017,0,0,1,.887,1.882,21.792,21.792,0,0,0-.107,2.238c0,.763.044,1.512.12,2.23a2.01,2.01,0,0,1-.874,1.886l-3.312,2.238a1.009,1.009,0,0,0-.406,1.11c.241.854.529,1.71.853,2.544a1.008,1.008,0,0,0,.939.642l4.111-.125a2.1,2.1,0,0,1,1.786.977,22.746,22.746,0,0,0,2.7,3.615,2.009,2.009,0,0,1,.41,2.041l-1.328,3.7a1.008,1.008,0,0,0,.327,1.134c.738.579,1.5,1.12,2.272,1.61a1.007,1.007,0,0,0,1.151-.048l3.228-2.452A1.987,1.987,0,0,1,199.172,172Z" transform="translate(-14.759 -14.759)" fill="#d97924"></path><path id="Path_370" data-name="Path 370" d="M218.112,174.22a14.112,14.112,0,1,1,7.062-26.332,2.017,2.017,0,0,1-1.013,3.762,1.992,1.992,0,0,1-1-.272,10.082,10.082,0,1,0,5.035,8.73,2.016,2.016,0,0,1,4.032,0A14.128,14.128,0,0,1,218.112,174.22Z" transform="translate(-23.615 -23.615)" fill="#d97924"></path></g></svg>