<?xml version="1.0" encoding="UTF-8"?><!DOCTYPE svg PUBLIC "-//W3C//DTD SVG 1.1//EN" "http://www.w3.org/Graphics/SVG/1.1/DTD/svg11.dtd"><svg xmlns="http://www.w3.org/2000/svg" xmlns:xlink="http://www.w3.org/1999/xlink"><symbol id="10-perc-pro" viewBox="0 0 125 131"><path fill="#FFF" d="M81.7 85.7c-2.9 0-5.1-1.8-5.1-5 0-3.1 2.3-5.1 5.1-5.1 2.9 0 5.1 1.8 5.1 5.1.2 3-2.1 5-5.1 5zm0-8.3c-1.6 0-2.9 1.1-2.9 3 0 1.8 1.3 3 2.9 3 1.6 0 2.9-1.1 2.9-3 0-1.7-1.2-3-2.9-3zM91.4 77.6V80H95v1.8h-3.6v3.7h-2.3v-9.8h6.1v1.8l-3.8.1zM99.7 77.6V80h3.6v1.8h-3.6v3.7h-2.3v-9.8h6.1v1.8l-3.8.1zM76 50.6c0-3.4 2.4-5.7 5.6-5.7 3.1 0 5.6 2.3 5.6 5.7 0 3.4-2.4 5.7-5.6 5.7-3.2 0-5.6-2.3-5.6-5.7zm8.4 0c0-1.8-1-3.1-2.7-3.1-1.7 0-2.7 1.3-2.7 3.1s1 3.1 2.7 3.1c1.7 0 2.7-1.2 2.7-3.1zm10.1-5.9l2 1.1-14.2 22.7-2-1.1c4.7-7.6 9.4-15.2 14.2-22.7zm-5.1 17.8c0-3.4 2.4-5.7 5.6-5.7 3.3 0 5.6 2.3 5.6 5.7 0 3.4-2.3 5.7-5.6 5.7-3.1-.1-5.6-2.3-5.6-5.7zm8.5 0c0-1.8-1-3.1-2.7-3.1-1.7 0-2.7 1.3-2.7 3.1s1 3.1 2.7 3.1c1.7 0 2.7-1.2 2.7-3.1z"/><path fill="#D97924" d="M13.1 42.1c-.4 1-1.3 1.6-2.1 1.8l-.7-1.3c.7-.3 1.4-.9 1.6-1.3.3-.4.1-1-.3-1.1-.4-.1-.9.1-1.1.4l-.9.9c-.1.1-.4.4-.9.6-.4.1-.9.1-1.6-.1-.6-.3-1-.9-1.1-1.4-.1-.6 0-1.3.3-2 .4-.7 1.1-1.4 1.9-1.7l.7 1.1c-.6.1-1.1.7-1.4 1.1-.3.4-.1 1 .1 1.1.7.1 1.1-.1 1.3-.3.3-.3.7-.6.9-.9.7-.7 1.6-1 2.4-.6 1.3.9 1.5 2.4.9 3.7zM13.5 29.6l4.9 3.4-1 1.4-4.9-3.4-1.1 1.6-1.1-.7 3.1-4.4 1.1.7-1 1.4zM25.1 25.5l-3-.9-.4.4 2 2-1.3 1.1-5.1-5.2 1.9-1.8c1-1 2.3-1.4 3.4-.3 1 1 .7 2 .4 2.4l3.4.9-1.3 1.4zM20 22.3l-.4.4 1.3 1.3.4-.4c.4-.4.7-1 .3-1.6-.6-.6-1.2-.2-1.6.3zM34 18.7l-1.1-1-2.1 1.4.4 1.6-1.4 1-1.8-7.5 1.4-1 6.3 4.5-1.7 1zm-4.5-3.5l.7 2.7 1.6-1-2.3-1.7zM39.7 15.7l-3-6.7 1.6-.7 3 6.7-1.6.7zM49.6 12.5c-2 .4-4-.4-4.6-2.7-.6-2.3.9-4 2.9-4.5 1.8-.5 2.8.2 3.1.5l-.9 1.1c-.4-.3-1-.6-2-.4-1.1.3-1.8 1.3-1.4 2.7.3 1.4 1.4 2 2.6 1.7 1.1-.3 1.4-.9 1.4-.9l-.4-.9-1.4.4-.3-1.3 3-.7.7 3c-.2.4-.9 1.5-2.7 2zM62.1 10.8v-3l-2.9.1.1 3h-1.7l-.4-7.2H59l.1 2.8 2.9-.1-.1-2.8h1.7l.3 7.2h-1.8zM73 5.8l-1 5.8-1.7-.3 1-5.8-1.9-.3.3-1.3 5.5.9-.3 1.3-1.9-.3zM81.2 14.2c-2-.7-3.1-2.6-2.4-4.7.7-2.3 2.9-3 4.9-2.3 1.4.4 2 1.3 2.1 1.6l-1 1.1c0-.3-.6-1-1.6-1.3-1.1-.4-2.3 0-2.9 1.4-.4 1.3.1 2.4 1.3 2.8.9.3 1.6.1 2.1-.1l.1 1.4c-.4.4-1.2.6-2.6.1zM92.9 19c-.7.1-1.6.1-2.4-.4-.9-.6-1.4-1.3-1.6-2-.1-.7 0-1.4.6-2.3l2.1-3.5 1.4.9-2.1 3.5c-.3.4-.4.9-.4 1.1 0 .2.3.7.7.9.4.3.9.3 1.1.1.4-.1.6-.4.9-.9l2.1-3.5 1.4.9-2.1 3.5c-.6 1-1 1.6-1.7 1.7zM100 25.7l.7-3.1-.4-.4-1.9 2-1.3-1.1 4.9-5.4 2 1.7c1 1 1.6 2.3.6 3.4-.9 1-2 .9-2.4.6l-.7 3.4-1.5-1.1zm2.9-5.3l-.6-.4-1.3 1.4.6.4c.4.4 1 .7 1.6.1.5-.6.3-1.1-.3-1.5zM106.5 33l-1-1.3 4.1-6.5 1.1 1.4-3 4.4 5-1.7 1.1 1.4-7.3 2.3zM110.3 39l6.6-3.3L119 40l-1.3.6-1.3-2.7-1.3.7 1.3 2.6-1.3.7-1.3-2.6-1.6.7 1.4 2.8-1.3.6-2-4.4zM8.5 92.9l-.4-.9-2.3 1.4-.8-1.5 6.4-3.4 1.1 2.3c.7 1.3.6 2.7-.9 3.4-1.2.8-2.4.1-3.1-1.3zm2.9-1.7l-.3-.6-1.7.9.3.6c.3.6.7 1 1.4.6.6-.4.6-.9.3-1.5zM14.4 106.2l1.1-3-.3-.4-2.1 1.7-1.1-1.3 5.6-4.7 1.7 2c.9 1.1 1.3 2.4 0 3.4-1 .9-2 .6-2.6.3l-1.1 3.3-1.2-1.3zm3.7-4.9l-.4-.6-1.4 1.1.4.6c.4.4 1 .9 1.6.3.5-.3.2-.9-.2-1.4zM24.1 115.3c-1.7-1.3-2.3-3.4-.9-5.2 1.4-1.8 3.6-2 5.3-.7 1.7 1.3 2.3 3.4.9 5.2-1.3 2-3.6 2-5.3.7zm3.7-4.8c-1-.7-2.3-.6-3 .6-.7 1.1-.6 2.4.3 3.1 1 .7 2.3.6 3-.6.9-1.1.7-2.3-.3-3.1zM47.6 126.2l-.1-1.6-2.6-.7-.9 1.3-1.7-.4 4.6-6.2 1.7.4.7 7.7-1.7-.5zm-.3-5.6l-1.6 2.3 1.7.4-.1-2.7zM60.6 128.1c-2.1-.1-3.7-1.6-3.7-3.8.1-2.3 1.9-3.7 4-3.5 1.4 0 2.3.7 2.4.9l-.6 1.4c-.1-.1-.9-.9-1.9-.9-1.3 0-2.1.7-2.3 2.1 0 1.4.9 2.3 2.1 2.3.9 0 1.6-.3 2-.7l.6 1.3c-.3.3-1.2.9-2.6.9zM74.4 126.9c-2.1.4-4-.7-4.4-3-.4-2.3 1-4 3.1-4.4 1.4-.3 2.4.1 2.6.4l-.3 1.4c-.1-.1-1-.6-2-.4-1.1.3-2 1.1-1.7 2.6.3 1.4 1.4 2 2.6 1.8.9-.1 1.4-.6 1.9-1.1l.9 1.1c-.7.6-1.2 1.4-2.7 1.6zM87.7 122.8c-2 .9-4.1.3-5-1.8-1-2.1 0-4.1 2-5 2-.9 4.1-.3 5 1.8 1 2.2 0 4.2-2 5zm-2.4-5.5c-1.1.4-1.6 1.7-1 3 .6 1.3 1.7 1.7 2.9 1.3 1.1-.4 1.6-1.7 1-3-.5-1.3-1.8-1.7-2.9-1.3zM102.3 113c0 .7-.6 1.4-1.3 2.1-.9.7-1.7.9-2.4.7-.7-.1-1.3-.6-2-1.4L94 111l1.4-1 2.6 3.4c.3.4.6.7 1 .9.3.1.7 0 1.1-.3.4-.3.6-.6.6-1s-.1-.7-.6-1.1l-2.6-3.4 1.4-1 2.6 3.4c.7.7 1 1.3.8 2.1zM112.7 103.4l-5.9-.6s.7.6 1.3 1l2.6 2.1-1.1 1.1-5.7-4.5 1.1-1.4 5.7.7s-.7-.4-1.3-1l-2.6-2.1 1-1.3 5.7 4.5-.8 1.5zM114.3 89.5l5.3 2.6-.7 1.6-5.3-2.6-.9 1.7-1.1-.7 2.4-4.8 1.1.6-.8 1.6zM120.6 66.4c.8 0 1.4-.6 1.4-1.4 0-.8-.6-1.4-1.4-1.4-.8 0-1.4.6-1.4 1.4 0 .7.6 1.4 1.4 1.4zM4.4 66.4c.8 0 1.4-.6 1.4-1.4 0-.8-.6-1.4-1.4-1.4S3 64.2 3 65c0 .7.6 1.4 1.4 1.4z"/><path fill="#FFF" d="M28.7 86h4.4V45.3H20.6v3.4h8.1V86zm27.9.7c10.7 0 15.2-10.4 15.2-21s-4.5-21-15.2-21c-10.6 0-15.2 10.4-15.2 21 0 10.5 4.5 21 15.2 21zm0-4c-7 0-10.6-7.1-10.6-17.1s3.6-17 10.6-17 10.6 7 10.6 17-3.7 17.1-10.6 17.1z"/></symbol><symbol id="15-perc-pro" viewBox="0 0 125 130"><path fill="#FFF" d="M31.8 85.4V47.8h-8.3v-2.7H35v40.3h-3.2zM57 86.1c-7.3 0-11.2-4.5-12.3-6.8l2.3-1.7c1.4 3 5 5.7 10.3 5.7 5.3 0 10.6-3.4 10.6-10.4s-5.3-10.4-10.6-10.4c-2.7 0-5.6.7-7 2.1l-2-1.1 3.9-18.4h18.3V48h-16l-2.9 12.9c1.7-.9 4-1.1 6-1.1 6.7 0 13.6 4.7 13.6 13.2S64.4 86.1 57 86.1zM81.7 84.9c-2.9 0-5.1-1.8-5.1-5 0-3.1 2.3-5.1 5.1-5.1 2.9 0 5.1 1.8 5.1 5.1.2 3-2.1 5-5.1 5zm0-8.3c-1.6 0-2.9 1.1-2.9 3 0 1.8 1.3 3 2.9 3 1.6 0 2.9-1.1 2.9-3 0-1.7-1.2-3-2.9-3zM91.4 76.8v2.4H95V81h-3.6v3.7h-2.3v-9.8h6.1v1.8h-3.8zM99.7 76.8v2.4h3.6V81h-3.6v3.7h-2.3v-9.8h6.1v1.8h-3.8zM76 49.8c0-3.4 2.4-5.7 5.6-5.7 3.1 0 5.6 2.3 5.6 5.7 0 3.4-2.4 5.7-5.6 5.7-3.2 0-5.6-2.3-5.6-5.7zm8.4 0c0-1.8-1-3.1-2.7-3.1S79 48 79 49.8s1 3.1 2.7 3.1 2.7-1.2 2.7-3.1zm10.1-5.9l2 1.1-14.2 22.7-2-1.1C85 59 89.7 51.4 94.5 43.9zm-5.1 17.8c0-3.4 2.4-5.7 5.6-5.7 3.3 0 5.6 2.3 5.6 5.7 0 3.4-2.3 5.7-5.6 5.7-3.1-.1-5.6-2.3-5.6-5.7zm8.5 0c0-1.8-1-3.1-2.7-3.1s-2.7 1.3-2.7 3.1 1 3.1 2.7 3.1 2.7-1.2 2.7-3.1z"/><path fill="#D97924" d="M13.1 41.3c-.4 1-1.3 1.6-2.1 1.8l-.7-1.3c.7-.3 1.4-.9 1.6-1.3.3-.4.1-1-.3-1.1-.4-.1-.9.1-1.1.4l-.9.9c-.1.1-.4.4-.9.6-.4.1-.9.1-1.6-.1-.6-.3-1-.9-1.1-1.4-.1-.6 0-1.3.3-2 .4-.7 1.1-1.4 1.9-1.7l.7 1.1c-.6.1-1.1.7-1.4 1.1-.3.4-.1 1 .1 1.1.7.1 1.1-.1 1.3-.3.3-.3.7-.6.9-.9.7-.7 1.6-1 2.4-.6 1.3.9 1.5 2.4.9 3.7zM13.5 28.8l4.9 3.4-1 1.4-4.9-3.4-1.1 1.6-1.1-.7 3.1-4.4 1.1.7-1 1.4zM25.1 24.7l-3-.9-.4.4 2 2-1.3 1.1-5.1-5.2 1.9-1.8c1-1 2.3-1.4 3.4-.3 1 1 .7 2 .4 2.4l3.4.9-1.3 1.4zM20 21.5l-.4.4 1.3 1.3.4-.4c.4-.4.7-1 .3-1.6-.6-.6-1.2-.2-1.6.3zM34 17.9l-1.1-1-2.1 1.4.4 1.6-1.4 1-1.8-7.5 1.4-1 6.3 4.5-1.7 1zm-4.5-3.5l.7 2.7 1.6-1-2.3-1.7zM39.7 14.9l-3-6.7 1.6-.7 3 6.7-1.6.7zM49.6 11.7c-2 .4-4-.4-4.6-2.7-.6-2.3.9-4 2.9-4.5 1.8-.5 2.8.2 3.1.5l-.9 1.1c-.4-.3-1-.6-2-.4C47 6 46.3 7 46.7 8.4c.3 1.4 1.4 2 2.6 1.7 1.1-.3 1.4-.9 1.4-.9l-.4-.9-1.4.4-.3-1.3 3-.7.7 3c-.2.4-.9 1.5-2.7 2zM62.1 10V7l-2.9.1.1 3h-1.7l-.4-7.2H59l.1 2.8 2.9-.1-.1-2.8h1.7l.3 7.2h-1.8zM73 5l-1 5.8-1.7-.3 1-5.8-1.9-.3.3-1.3 5.5.9-.3 1.3L73 5zM81.2 13.4c-2-.7-3.1-2.6-2.4-4.7.7-2.3 2.9-3 4.9-2.3 1.4.4 2 1.3 2.1 1.6l-1 1.1c0-.3-.6-1-1.6-1.3-1.1-.4-2.3 0-2.9 1.4-.4 1.3.1 2.4 1.3 2.8.9.3 1.6.1 2.1-.1l.1 1.4c-.4.4-1.2.6-2.6.1zM92.9 18.2c-.7.1-1.6.1-2.4-.4-.9-.6-1.4-1.3-1.6-2-.1-.7 0-1.4.6-2.3l2.1-3.5 1.4.9-2.1 3.5c-.3.4-.4.9-.4 1.1s.3.7.7.9c.4.3.9.3 1.1.1.4-.1.6-.4.9-.9l2.1-3.5 1.4.9-2.1 3.5c-.6 1-1 1.6-1.7 1.7zM100 24.9l.7-3.1-.4-.4-1.9 2-1.3-1.1 4.9-5.4 2 1.7c1 1 1.6 2.3.6 3.4-.9 1-2 .9-2.4.6l-.7 3.4-1.5-1.1zm2.9-5.3l-.6-.4-1.3 1.4.6.4c.4.4 1 .7 1.6.1.5-.6.3-1.1-.3-1.5zM106.5 32.2l-1-1.3 4.1-6.5 1.1 1.4-3 4.4 5-1.7 1.1 1.4-7.3 2.3zM110.3 38.2l6.6-3.3 2.1 4.3-1.3.6-1.3-2.7-1.3.7 1.3 2.6-1.3.7-1.3-2.6-1.6.7 1.4 2.8-1.3.6-2-4.4zM8.5 92.1l-.4-.9-2.3 1.4-.8-1.5 6.4-3.4 1.1 2.3c.7 1.3.6 2.7-.9 3.4-1.2.8-2.4.1-3.1-1.3zm2.9-1.7l-.3-.6-1.7.9.3.6c.3.6.7 1 1.4.6.6-.4.6-.9.3-1.5zM14.4 105.4l1.1-3-.3-.4-2.1 1.7-1.1-1.3 5.6-4.7 1.7 2c.9 1.1 1.3 2.4 0 3.4-1 .9-2 .6-2.6.3l-1.1 3.3-1.2-1.3zm3.7-4.9l-.4-.6-1.4 1.1.4.6c.4.4 1 .9 1.6.3.5-.3.2-.9-.2-1.4zM24.1 114.5c-1.7-1.3-2.3-3.4-.9-5.2 1.4-1.8 3.6-2 5.3-.7 1.7 1.3 2.3 3.4.9 5.2-1.3 2-3.6 2-5.3.7zm3.7-4.8c-1-.7-2.3-.6-3 .6-.7 1.1-.6 2.4.3 3.1 1 .7 2.3.6 3-.6.9-1.1.7-2.3-.3-3.1zM47.6 125.4l-.1-1.6-2.6-.7-.9 1.3-1.7-.4 4.6-6.2 1.7.4.7 7.7-1.7-.5zm-.3-5.6l-1.6 2.3 1.7.4-.1-2.7zM60.6 127.3c-2.1-.1-3.7-1.6-3.7-3.8.1-2.3 1.9-3.7 4-3.5 1.4 0 2.3.7 2.4.9l-.6 1.4c-.1-.1-.9-.9-1.9-.9-1.3 0-2.1.7-2.3 2.1 0 1.4.9 2.3 2.1 2.3.9 0 1.6-.3 2-.7l.6 1.3c-.3.3-1.2.9-2.6.9zM74.4 126.1c-2.1.4-4-.7-4.4-3-.4-2.3 1-4 3.1-4.4 1.4-.3 2.4.1 2.6.4l-.3 1.4c-.1-.1-1-.6-2-.4-1.1.3-2 1.1-1.7 2.6.3 1.4 1.4 2 2.6 1.8.9-.1 1.4-.6 1.9-1.1l.9 1.1c-.7.6-1.2 1.4-2.7 1.6zM87.7 122c-2 .9-4.1.3-5-1.8-1-2.1 0-4.1 2-5 2-.9 4.1-.3 5 1.8 1 2.2 0 4.2-2 5zm-2.4-5.5c-1.1.4-1.6 1.7-1 3 .6 1.3 1.7 1.7 2.9 1.3 1.1-.4 1.6-1.7 1-3-.5-1.3-1.8-1.7-2.9-1.3zM102.3 112.2c0 .7-.6 1.4-1.3 2.1-.9.7-1.7.9-2.4.7-.7-.1-1.3-.6-2-1.4l-2.6-3.4 1.4-1 2.6 3.4c.3.4.6.7 1 .9.3.1.7 0 1.1-.3.4-.3.6-.6.6-1s-.1-.7-.6-1.1l-2.6-3.4 1.4-1 2.6 3.4c.7.7 1 1.3.8 2.1zM112.7 102.6l-5.9-.6s.7.6 1.3 1l2.6 2.1-1.1 1.1-5.7-4.5 1.1-1.4 5.7.7s-.7-.4-1.3-1l-2.6-2.1 1-1.3 5.7 4.5-.8 1.5zM114.3 88.7l5.3 2.6-.7 1.6-5.3-2.6-.9 1.7-1.1-.7 2.4-4.8 1.1.6-.8 1.6zM120.6 65.6c.8 0 1.4-.6 1.4-1.4 0-.8-.6-1.4-1.4-1.4-.8 0-1.4.6-1.4 1.4 0 .7.6 1.4 1.4 1.4zM4.4 65.6c.8 0 1.4-.6 1.4-1.4 0-.8-.6-1.4-1.4-1.4-.8 0-1.4.6-1.4 1.4 0 .7.6 1.4 1.4 1.4z"/></symbol><symbol id="8-perc-pro"><path d="M13.1 41.3c-.4 1-1.3 1.6-2.1 1.8l-.7-1.3c.7-.3 1.4-.9 1.6-1.3.3-.4.1-1-.3-1.1-.4-.1-.9.1-1.1.4l-.9.9c-.1.1-.4.4-.9.6-.4.1-.9.1-1.6-.1-.6-.3-1-.9-1.1-1.4-.1-.6 0-1.3.3-2 .4-.7 1.1-1.4 1.9-1.7l.7 1.1c-.6.1-1.1.7-1.4 1.1-.3.4-.1 1 .1 1.1.7.1 1.1-.1 1.3-.3.3-.3.7-.6.9-.9.7-.7 1.6-1 2.4-.6 1.3.9 1.5 2.4.9 3.7zM13.5 28.8l4.9 3.4-1 1.4-4.9-3.4-1.1 1.6-1.1-.7 3.1-4.4 1.1.7-1 1.4zM25.1 24.7l-3-.9-.4.4 2 2-1.3 1.1-5.1-5.2 1.9-1.8c1-1 2.3-1.4 3.4-.3 1 1 .7 2 .4 2.4l3.4.9-1.3 1.4zM20 21.5l-.4.4 1.3 1.3.4-.4c.4-.4.7-1 .3-1.6-.6-.6-1.2-.2-1.6.3zM34 17.9l-1.1-1-2.1 1.4.4 1.6-1.4 1-1.8-7.5 1.4-1 6.3 4.5-1.7 1zm-4.5-3.5l.7 2.7 1.6-1-2.3-1.7zM39.7 14.9l-3-6.7 1.6-.7 3 6.7-1.6.7zM49.6 11.7c-2 .4-4-.4-4.6-2.7-.6-2.3.9-4 2.9-4.5 1.8-.5 2.8.2 3.1.5l-.9 1.1c-.4-.3-1-.6-2-.4C47 6 46.3 7 46.7 8.4c.3 1.4 1.4 2 2.6 1.7 1.1-.3 1.4-.9 1.4-.9l-.4-.9-1.4.4-.3-1.3 3-.7.7 3c-.2.4-.9 1.5-2.7 2zM62.1 10V7l-2.9.1.1 3h-1.7l-.4-7.2H59l.1 2.8 2.9-.1-.1-2.8h1.7l.3 7.2h-1.8zM73 5l-1 5.8-1.7-.3 1-5.8-1.9-.3.3-1.3 5.5.9-.3 1.3L73 5zM81.2 13.4c-2-.7-3.1-2.6-2.4-4.7.7-2.3 2.9-3 4.9-2.3 1.4.4 2 1.3 2.1 1.6l-1 1.1c0-.3-.6-1-1.6-1.3-1.1-.4-2.3 0-2.9 1.4-.4 1.3.1 2.4 1.3 2.8.9.3 1.6.1 2.1-.1l.1 1.4c-.4.4-1.2.6-2.6.1zM92.9 18.2c-.7.1-1.6.1-2.4-.4-.9-.6-1.4-1.3-1.6-2-.1-.7 0-1.4.6-2.3l2.1-3.5 1.4.9-2.1 3.5c-.3.4-.4.9-.4 1.1 0 .2.3.7.7.9.4.3.9.3 1.1.1.4-.1.6-.4.9-.9l2.1-3.5 1.4.9-2.1 3.5c-.6 1-1 1.6-1.7 1.7zM100 24.9l.7-3.1-.4-.4-1.9 2-1.3-1.1 4.9-5.4 2 1.7c1 1 1.6 2.3.6 3.4-.9 1-2 .9-2.4.6l-.7 3.4-1.5-1.1zm2.9-5.3l-.6-.4-1.3 1.4.6.4c.4.4 1 .7 1.6.1.5-.6.3-1.1-.3-1.5zM106.5 32.2l-1-1.3 4.1-6.5 1.1 1.4-3 4.4 5-1.7 1.1 1.4-7.3 2.3zM110.3 38.2l6.6-3.3 2.1 4.3-1.3.6-1.3-2.7-1.3.7 1.3 2.6-1.3.7-1.3-2.6-1.6.7 1.4 2.8-1.3.6-2-4.4zM8.5 92.1l-.4-.9-2.3 1.4-.8-1.5 6.4-3.4 1.1 2.3c.7 1.3.6 2.7-.9 3.4-1.2.8-2.4.1-3.1-1.3zm2.9-1.7l-.3-.6-1.7.9.3.6c.3.6.7 1 1.4.6.6-.4.6-.9.3-1.5zM14.4 105.4l1.1-3-.3-.4-2.1 1.7-1.1-1.3 5.6-4.7 1.7 2c.9 1.1 1.3 2.4 0 3.4-1 .9-2 .6-2.6.3l-1.1 3.3-1.2-1.3zm3.7-4.9l-.4-.6-1.4 1.1.4.6c.4.4 1 .9 1.6.3.5-.3.2-.9-.2-1.4zM24.1 114.5c-1.7-1.3-2.3-3.4-.9-5.2 1.4-1.8 3.6-2 5.3-.7 1.7 1.3 2.3 3.4.9 5.2-1.3 2-3.6 2-5.3.7zm3.7-4.8c-1-.7-2.3-.6-3 .6-.7 1.1-.6 2.4.3 3.1 1 .7 2.3.6 3-.6.9-1.1.7-2.3-.3-3.1zM47.6 125.4l-.1-1.6-2.6-.7-.9 1.3-1.7-.4 4.6-6.2 1.7.4.7 7.7-1.7-.5zm-.3-5.6l-1.6 2.3 1.7.4-.1-2.7zM60.6 127.3c-2.1-.1-3.7-1.6-3.7-3.8.1-2.3 1.9-3.7 4-3.5 1.4 0 2.3.7 2.4.9l-.6 1.4c-.1-.1-.9-.9-1.9-.9-1.3 0-2.1.7-2.3 2.1 0 1.4.9 2.3 2.1 2.3.9 0 1.6-.3 2-.7l.6 1.3c-.3.3-1.2.9-2.6.9zM74.4 126.1c-2.1.4-4-.7-4.4-3-.4-2.3 1-4 3.1-4.4 1.4-.3 2.4.1 2.6.4l-.3 1.4c-.1-.1-1-.6-2-.4-1.1.3-2 1.1-1.7 2.6.3 1.4 1.4 2 2.6 1.8.9-.1 1.4-.6 1.9-1.1l.9 1.1c-.7.6-1.2 1.4-2.7 1.6zM87.7 122c-2 .9-4.1.3-5-1.8-1-2.1 0-4.1 2-5 2-.9 4.1-.3 5 1.8 1 2.2 0 4.2-2 5zm-2.4-5.5c-1.1.4-1.6 1.7-1 3 .6 1.3 1.7 1.7 2.9 1.3 1.1-.4 1.6-1.7 1-3-.5-1.3-1.8-1.7-2.9-1.3zM102.3 112.2c0 .7-.6 1.4-1.3 2.1-.9.7-1.7.9-2.4.7-.7-.1-1.3-.6-2-1.4l-2.6-3.4 1.4-1 2.6 3.4c.3.4.6.7 1 .9.3.1.7 0 1.1-.3.4-.3.6-.6.6-1s-.1-.7-.6-1.1l-2.6-3.4 1.4-1 2.6 3.4c.7.7 1 1.3.8 2.1zM112.7 102.6l-5.9-.6s.7.6 1.3 1l2.6 2.1-1.1 1.1-5.7-4.5 1.1-1.4 5.7.7s-.7-.4-1.3-1l-2.6-2.1 1-1.3 5.7 4.5-.8 1.5zM114.3 88.7l5.3 2.6-.7 1.6-5.3-2.6-.9 1.7-1.1-.7 2.4-4.8 1.1.6-.8 1.6zM120.6 65.6c.8 0 1.4-.6 1.4-1.4 0-.8-.6-1.4-1.4-1.4-.8 0-1.4.6-1.4 1.4 0 .7.6 1.4 1.4 1.4zM4.4 65.6c.8 0 1.4-.6 1.4-1.4 0-.8-.6-1.4-1.4-1.4-.8 0-1.4.6-1.4 1.4 0 .7.6 1.4 1.4 1.4z" fill="#D97924"/><path d="M72.082 82.756c-2.9 0-5.1-1.8-5.1-5 0-3.1 2.3-5.1 5.1-5.1 2.9 0 5.1 1.8 5.1 5.1.2 3-2.1 5-5.1 5zm0-8.3c-1.6 0-2.9 1.1-2.9 3 0 1.8 1.3 3 2.9 3 1.6 0 2.9-1.1 2.9-3 0-1.7-1.2-3-2.9-3zM81.782 74.656v2.4h3.6v1.8h-3.6v3.7h-2.3v-9.8h6.1v1.8h-3.8v.1zM90.082 74.656v2.4h3.6v1.8h-3.6v3.7h-2.3v-9.8h6.1v1.8h-3.8v.1zM66.382 47.656c0-3.4 2.4-5.7 5.6-5.7 3.1 0 5.6 2.3 5.6 5.7 0 3.4-2.4 5.7-5.6 5.7-3.2 0-5.6-2.3-5.6-5.7zm8.4 0c0-1.8-1-3.1-2.7-3.1-1.7 0-2.7 1.3-2.7 3.1s1 3.1 2.7 3.1c1.7 0 2.7-1.2 2.7-3.1zm10.1-5.9l2 1.1-14.2 22.7-2-1.1c4.7-7.6 9.4-15.2 14.2-22.7zm-5.1 17.8c0-3.4 2.4-5.7 5.6-5.7 3.3 0 5.6 2.3 5.6 5.7 0 3.4-2.3 5.7-5.6 5.7-3.1-.1-5.6-2.3-5.6-5.7zm8.5 0c0-1.8-1-3.1-2.7-3.1-1.7 0-2.7 1.3-2.7 3.1s1 3.1 2.7 3.1c1.7 0 2.7-1.2 2.7-3.1zM60.634 71.505c0-5.313-3.246-9.032-7.851-10.508v-.118c2.538-1.063 6.494-3.129 6.494-9.445 0-6.376-5.431-10.213-11.63-10.213-6.199 0-11.689 3.837-11.689 10.213 0 6.316 4.015 8.382 6.494 9.445v.118c-4.546 1.476-7.792 5.195-7.792 10.508 0 7.38 5.313 11.689 12.987 11.689s12.987-4.31 12.987-11.689zM56.03 51.788c0 5.018-3.66 7.733-8.383 7.733-4.723 0-8.442-2.715-8.442-7.733s3.72-7.734 8.442-7.734c4.723 0 8.383 2.716 8.383 7.734zm1.358 19.54c0 5.608-4.428 9.091-9.741 9.091s-9.74-3.483-9.74-9.091c0-5.608 4.132-8.973 9.74-8.973 5.608 0 9.74 3.365 9.74 8.973z" fill="#fff"/></symbol><symbol id="arrow-down" viewBox="0 0 32 20"><path fill="currentColor" d="M15.2 19.2L.4 4.5C-.1 4-.1 3.3.4 2.8l2-2C2.9.3 3.6.3 4.1.8l12 11.8L28 .8c.5-.5 1.2-.5 1.7 0l2 2c.5.5.5 1.2 0 1.7L16.8 19.2c-.4.4-1.2.4-1.6 0z"/></symbol><symbol id="arrow-right" viewBox="0 0 35 23"><path fill="currentColor" d="M23.2.5L21.7 2c-.4.4-.4 1 0 1.3L28 9.4H.9c-.5.1-.9.5-.9 1v2.2c0 .5.4.9.9.9h27l-6.3 6.1c-.4.4-.4 1 0 1.3l1.5 1.5c.4.4 1 .4 1.3 0l10.3-10.3c.4-.4.4-1 0-1.3L24.5.5c-.3-.3-.9-.3-1.3 0z"/></symbol><symbol id="au-owned" viewBox="0 0 88 89"><g fill="currentColor"><path class="st0" d="M55 69.1c1.4.7 3 .9 4.6.7 0 0-.6 4.5-3.2 4.3-2-.1-1.4-5-1.4-5zM42.9 17.7c-1.5 2.1-3.3 4-5.4 5.6-1.6-.6-3.1-1.3-4.6-2.1 0 0-6.4 11.6-18.1 14.4 0 0-3.2 4.9-.3 12.6 2.9 7.7 1.7 10.1 1.7 10.1s5.6 1.5 13.2-2.7c7.5-4.2 13.2-2.5 15.1 2 1.3-.7 2.3-1.8 3.1-3.1 2 3 3.3 6.3 3.8 9.9.3 1.9 8.2 3.5 11.3.8 0 0 1-2.7 6.4-11 5.3-8.3 0-16.1-1.9-18.5-1.9-2.4-4.3-5.7-3.8-9.4-.8-1-1.6-1.9-2.5-2.8 0 0 0-5-1-5.3-1 1.1-1.8 2.3-2.4 3.7-.9 3.5-.6 6.2-2.7 7.3 0 0-6-3.5-6.9-5.3.5-1.4 1.3-2.7 2.3-3.9-.3-.1-5.5-.5-7.3-2.3M10.9 21.5l.8-1.2-2-.5 1.2 1.7zm-2-1.8l.5-.7 4.8 1.3-.4.6-1.4-.4-1.1 1.5.8 1.2-.4.6-2.8-4.1zM14.6 17l-2-2 .5-.5 2 2c.6.6 1.2.7 1.8.1.6-.6.5-1.1-.1-1.8l-2-2 .5-.5 2 2c.2.2.4.4.5.6.1.2.2.5.2.7 0 .3-.1.5-.2.8-.1.2-.3.4-.5.6-.2.2-.4.4-.6.5-.2.1-.5.2-.8.2s-.5-.1-.8-.2c-.2-.1-.4-.2-.5-.5zm5.2-4.4l.6-.5.3.3c.1.1.3.1.4.1.1 0 .3 0 .4-.1.1-.1.3-.1.4-.2.5-.4.7-.8.4-1.2-.3-.4-.8-.2-1.4.1-.7.3-1.5.6-2.1-.1-.1-.2-.2-.4-.2-.6v-.6c.1-.2.1-.4.3-.5.1-.2.3-.3.5-.4.2-.2.4-.3.6-.3.2-.1.4-.1.7-.1.2 0 .4.1.7.2.2.1.4.3.5.4l-.6.4-.3-.3c-.1-.1-.3-.1-.4-.1-.1 0-.3 0-.4.1-.1 0-.2.1-.3.2-.5.3-.6.8-.3 1.2.3.4.8.1 1.5-.2.7-.3 1.5-.6 2 .2.1.2.2.4.2.6v.6l-.3.6c-.1.2-.3.3-.5.4-.3 0-.5.2-.7.2s-.5.1-.7.1c-.2 0-.5-.1-.7-.2-.2 0-.4-.2-.6-.3M27.5 5l-1.3.7 1.7 3.7-.6.3L25.5 6l-1.3.7-.3-.6 3.3-1.7.3.6zm4.4 0l.9-.3c.8-.3 1-.8.9-1.3-.1-.5-.5-.6-1.3-.4l-.9.3.4 1.7zm.4-2.5c1.2-.4 1.9-.1 2.1.7.1.3.1.6-.1.9-.1.3-.4.5-.7.7.8 0 1.3.5 1.7 1.5l.1.2-.7.2v-.1c-.4-.9-.9-1.5-1.9-1.2l-.6.2.5 1.7-.7.2L30.6 3l1.7-.5zm7.3-.8l.9 1.8-1.4.2.5-2zm-.4-.8l-1.3 4.9.7-.1.4-1.4 1.8-.2.6 1.3.7-.1L40 .8l-.8.1zM45 5.2l2.9.1v-.6l-2.2-.1.3-4.1h-.7L45 5.2zm5.9.5l.7.1.9-4.7-.7-.1-.9 4.7zm5.5-.8l1.3.4V3.2l-1.3 1.7zm1.1-2.5l.8.2.1 5-.7-.2V5.9L56 5.4l-.9 1.2-.7-.2 3.1-4zm6.8 6.7L66 6l.6.3-2.3 4.2-.6-.3-.4-4.4-1.8 3.3-.5-.4 2.3-4.2.7.4.3 4.2zm6.5 5.5l.6.6c.1.2.3.3.5.4.2.1.4.1.7.1.2 0 .5-.1.7-.2.2-.1.4-.3.5-.5.8-.9.8-1.6.1-2.4l-.6-.6-2.5 2.6zm2.3-3.5l1.1 1.1c.3.2.5.5.6.7.1.3.2.6.2.9 0 .3-.1.6-.2.9-.1.3-.3.5-.6.8-.2.3-.4.5-.7.6-.3.1-.6.2-.9.2-.3 0-.6-.1-.9-.2-.3-.1-.5-.3-.7-.6l-1.1-1.1 3.2-3.3zm4.5 9.1l-1-1.4-1.2.9 1.6 2.2-.5.4-2-2.7 3.8-2.9 1.9 2.6-.5.4-1.5-2.1-1.1.8 1 1.4-.5.4zm1.5 3.5l.3.7-.3.3c0 .2-.1.3-.1.4v.4c0 .1.1.3.2.4.3.6.7.8 1.1.5.4-.2.3-.8.1-1.4-.2-.8-.3-1.6.5-2.1.2-.1.4-.1.6-.1.2 0 .4 0 .6.1.2.1.4.2.5.3.1.1.2.3.3.5.1.2.2.4.2.6v.7c-.1.2-.1.4-.3.6-.1.2-.3.3-.5.5l-.3-.5.3-.3c.1-.1.1-.2.2-.4v-.4c0-.1-.1-.3-.2-.4-.3-.5-.7-.7-1.1-.5-.4.2-.3.8-.1 1.5.2.8.3 1.6-.5 2-.2.1-.4.2-.6.2-.2 0-.4 0-.6-.1-.2-.1-.4-.2-.5-.4-.1-.2-.3-.3-.3-.5-.3-.4-.4-.9-.3-1.4.2-.5.4-.9.8-1.2zm1.6 7.5l-.2-.7 4.4-1.7.2.7-4.4 1.7zm2.3 6.3c-.3-.1-.5-.2-.7-.5-.2-.2-.3-.5-.3-.8-.1-.3-.1-.6 0-.9.1-.3.2-.6.4-.8.2-.2.4-.5.7-.6.3-.2.6-.2.9-.3.3-.1.6-.1.9-.1.3 0 .6.1.9.3.3.2.5.4.7.6.2.3.3.5.4.9.1.5.1 1-.2 1.4-.2.4-.6.8-1.1.9l-.1-.7c.3-.1.5-.3.7-.6.1-.3.2-.6.1-.9-.2-.9-.9-1.3-2-1.1h-.1c-.2 0-.4.1-.6.2-.2.1-.4.2-.5.4l-.3.6c-.1.2-.1.4 0 .6 0 .2.1.3.1.4.1.1.2.3.3.3.1.1.3.2.4.2h.5l-.4-1 .6-.1.3 1.9-2.2.5-.1-.6.7-.2zm-.3 3.9v.7l3.7-.1-3.7 2.6v.7l4.7-.1v-.7l-3.5.1 3.5-2.5v-.8l-4.7.1zm-.8 10.4l.6.1.4-2.7 1.5.2-.3 1.7.6.1.3-1.7 1.3.2-.4 2.6.6.1.5-3.4-4.6-.7-.5 3.5zm-.4 3.7l-.3.8c-.1.3-.2.5-.2.7 0 .2 0 .5.2.7.1.2.3.4.4.5l.6.3c.2.1.4.2.7.2.2 0 .5 0 .7-.1.2-.1.4-.2.5-.4l.3-.6.3-.9-3.2-1.2zm4.1.6l-.6 1.6c-.1.3-.2.6-.4.9-.2.3-.4.5-.7.6-.3.1-.6.2-.9.2-.3 0-.6-.1-.9-.2-.3-.1-.6-.2-.9-.4-.3-.2-.5-.5-.6-.8-.1-.3-.2-.6-.2-.9 0-.3.1-.6.2-.9l.5-1.5 4.5 1.4zm-8.7 10.3l.8-1.3 1.2.8-.8 1.3-1.2-.8zm-4.7 7.2l-1 1 1.8.9-.8-1.9zm1.5 2.1l-.6.6-4.4-2.2.5-.5 1.3.6 1.3-1.3-.5-1.3.5-.5 1.9 4.6zM67.7 77.3l1.5 2.4-.6.4-1.5-2.4c-.5-.7-1-.9-1.7-.4s-.7 1-.3 1.7l1.5 2.4-.6.4-1.5-2.4c-.2-.2-.3-.4-.4-.7s-.1-.5 0-.8c0-.3.2-.5.3-.7.2-.2.3-.4.6-.5.2-.2.4-.3.7-.4.3-.1.5-.1.8 0 .3.1.5.2.7.3.3.2.4.4.5.7zm-6 3.4l-.6.3-.3-.3c-.1-.1-.2-.2-.4-.2H60c-.1 0-.3.1-.4.2-.6.3-.8.7-.6 1.2.2.4.7.3 1.4.1.8-.2 1.6-.3 2 .5.1.2.1.4.1.6 0 .2-.1.4-.1.6-.1.2-.2.4-.4.5-.2.1-.3.2-.5.3-.2.1-.4.2-.6.2h-.7l-.6-.3c-.2-.1-.3-.3-.4-.5l.7-.3c.1.1.1.2.3.3.1.1.2.2.4.2h.4c.1 0 .3-.1.4-.2.5-.2.7-.7.6-1.1-.2-.5-.8-.3-1.5-.1-.8.2-1.6.3-1.9-.5-.1-.2-.1-.4-.1-.6 0-.2.1-.4.1-.6.1-.2.2-.4.4-.5.2-.1.3-.2.6-.3.2-.1.4-.2.7-.3h.7l.6.3c-.1.1 0 .3.1.5M53.3 82.4l1 3.9-1.4.4.2.6 3.6-1-.2-.6-1.5.5-1-3.9-.7.1zm-4.8 3.5l-.8.1c-.9.1-1.1.6-1.1 1.1 0 .5.4.7 1.1.6l1-.1-.2-1.7zm-.8 2.4c-1.2.1-1.8-.3-1.9-1.1 0-.3 0-.6.2-.9.2-.3.5-.4.8-.5-.8-.1-1.2-.7-1.4-1.8v-.2l.7-.1v.1c.2 1 .6 1.6 1.6 1.5l.6-.1-.2-1.8.7-.1.4 4.7-1.5.3zm-7.8-2.6l1.4.1-.9 1.9-.5-2zm0 2.7l.8.1 2.2-4.6h-.7l-.6 1.3-1.8-.1-.4-1.4-.7-.1 1.2 4.8zm-7.1-5.3l2.1.5-1 4 .7.2 1.1-4.6-2.7-.7-.2.6zm-3.3-1.8l.7.2-1.8 4.5-.7-.2 1.8-4.5zm-4.9 0l-1.2-.7-.3 2.1 1.5-1.4zM23 83.6l-.7-.4.8-5 .6.3-.2 1.5 1.6.9 1.1-1 .6.3-3.8 3.4zm-5.3-8l-2.2 2.8-.6-.4 3-3.7.5.4-.4 4.4 2.3-2.9.5.4-3 3.7-.6-.5.5-4.2zm-8.4-8c-.3.1-.4.3-.6.4l-.3.6c-.1.2-.1.4 0 .7 0 .2.1.4.2.6.1.2.3.3.5.5.2.1.4.2.6.2.2 0 .4 0 .7-.1.2-.1.4-.2.6-.4.2-.1.4-.2.5-.4l.3-.6c.1-.2.1-.4 0-.7 0-.2-.1-.4-.2-.6-.1-.2-.3-.3-.5-.5-.2-.1-.4-.2-.6-.2-.2 0-.4 0-.7.1-.2.1-.4.2-.5.4zm2.1 3.2c-.2.2-.5.4-.8.5-.3.1-.6.1-.9.1-.3 0-.6-.2-.9-.3-.3-.2-.5-.4-.7-.7-.2-.3-.3-.6-.4-.9-.1-.3-.1-.6 0-.9.1-.3.2-.6.4-.9.2-.3.4-.5.7-.6.2-.2.5-.4.8-.5.3-.1.6-.1.9-.1.3 0 .6.2.9.3.3.2.5.4.7.7.2.3.3.6.4.9s.1.6 0 .9c-.1.3-.2.6-.4.9-.2.2-.4.4-.7.6zm-6.1-5.3l-.3-.7 3-2.3-3.8.5-.3-.7 2.9-2.5-3.7.7-.3-.7 4.8-.7.4.7-3 2.5 3.8-.6.3.6-3.8 3.2zm-.6-13.1l-3.4.8-.1-.7 4.6-1 .1.7-3.1 3.2 3.6-.8.1.7-4.6 1-.2-.8 3-3.1zM3.2 46v1.7l1.5-.1-.1-2.7h.6l.1 3.4-4.7.2-.1-3.3h.6l.1 2.6 1.3-.1V46h.7zM5 41.1l.1-.9c.1-.2.1-.5 0-.7 0-.2-.1-.4-.3-.6-.1-.2-.3-.3-.5-.4-.2-.1-.4-.1-.7-.1-.2-.1-.5-.1-.7 0-.2 0-.4.1-.6.3-.2.1-.3.3-.4.5-.1.2-.2.4-.2.7l-.1.9 3.4.3zm-4.1.3l.2-1.6c0-.3.1-.6.2-.9.1-.3.3-.5.6-.7.3-.2.5-.3.9-.4.3-.1.6-.1 1 0 .3 0 .6.1.9.2.3.1.5.4.7.6.2.3.3.6.4.9.1.3 0 .6-.1 1l-.2 1.6-4.6-.7zm7-13l-.6 1.4-1.3-.6.6-1.4 1.3.6z"/></g></symbol><symbol id="authorised-dealer" viewBox="0 0 167 129"><path fill="#D97924" d="M127.5 108.7C115.7 120.5 100 127 83.3 127c-16.7 0-32.4-6.5-44.2-18.3-7.2-7.2-12.4-15.7-15.3-25.1h-2.1c.6 2 1.4 4 2.2 6 3.2 7.7 7.9 14.6 13.8 20.5s12.8 10.6 20.5 13.8c8 3.4 16.4 5.1 25.1 5.1 8.7 0 17.2-1.7 25.1-5.1 7.7-3.2 14.6-7.9 20.5-13.8s10.6-12.8 13.8-20.5c.8-2 1.6-4 2.2-6h-2.1c-3 9.4-8.2 18-15.3 25.1z"/><path fill="#D97924" d="M112.6 93.9c-7.8 7.8-18.3 12.2-29.4 12.2-11.1 0-21.5-4.3-29.4-12.2-3.1-3.1-5.6-6.5-7.5-10.3h-2.2c2.1 4.3 4.9 8.2 8.4 11.7 8.2 8.2 19.2 12.7 30.8 12.7s22.6-4.5 30.8-12.7c3.5-3.5 6.3-7.4 8.4-11.7h-2.2c-2.1 3.7-4.6 7.2-7.7 10.3zM39.1 20.3C50.9 8.5 66.6 2 83.3 2c16.7 0 32.4 6.5 44.2 18.3 7.4 7.4 12.6 16.2 15.6 25.9h2.1c-.7-2.3-1.5-4.6-2.4-6.8-3.2-7.7-7.9-14.6-13.8-20.5-6-5.9-12.9-10.6-20.6-13.8C100.4 1.7 92 0 83.3 0c-8.7 0-17.2 1.7-25.1 5.1-7.7 3.2-14.6 7.9-20.5 13.8S27.1 31.7 23.9 39.4c-.9 2.2-1.7 4.5-2.4 6.8h2.1c2.8-9.7 8.1-18.5 15.5-25.9z"/><path fill="#D97924" d="M53.9 35.1C61.8 27.3 72.2 23 83.3 23c11.1 0 21.5 4.3 29.4 12.2 3.3 3.3 5.9 7 7.9 11.1h2.2c-2.1-4.6-5.1-8.8-8.7-12.5C105.8 25.5 94.9 21 83.3 21s-22.6 4.5-30.8 12.7c-3.7 3.7-6.6 7.9-8.7 12.5H46c1.9-4 4.6-7.8 7.9-11.1zM34.4 37.2l4.6 5.6.8-1.4-.9-1.1 1.2-2.1 1.4.3.9-1.5-7.2-1.2-.8 1.4zm4.5.7l-.9 1.5-1.7-1.9 2.6.4zM44.4 29.9l-3.1-2.5-1 1.3 3.1 2.5c.4.3.6.6.7.9.1.3 0 .7-.3 1-.3.3-.6.5-.9.5-.4 0-.7-.2-1.1-.5l-3.1-2.5-1 1.3 3.1 2.5c.7.6 1.4.9 2.1.8.7-.1 1.4-.4 2-1.2.6-.8.8-1.5.7-2.2 0-.8-.4-1.3-1.2-1.9zM47.5 23.1l-.9-.9-3.7 3.5.9.9 1.3-1.2 3.8 4 1.2-1.1-3.8-4 1.2-1.2zM51.9 18.2l1.5 2.1-2.2 1.6-1.5-2.1-1.3.9 4 5.5 1.3-.9L52 23l2.2-1.6 1.6 2.3 1.3-.9-4-5.5-1.2.9zM58.7 14.1c-1.8.9-2.7 2.8-1.7 4.7s2.9 2.5 4.8 1.6c1.8-.9 2.7-2.7 1.7-4.7-1-2-3-2.4-4.8-1.6zm2.5 5.1c-1 .5-2.1.1-2.7-1-.6-1.2-.2-2.3.9-2.8s2.1-.1 2.7 1c.5 1.2.1 2.3-.9 2.8zM69.9 12.2c-.4-1.4-1.8-1.6-3-1.2l-2.3.7 2 6.5 1.5-.5-.8-2.5.5-.1 2.1 2.1 1.8-.5-2.5-2.2c.4-.3 1.1-1 .7-2.3zm-2.4 1.7l-.6.2-.5-1.7.6-.2c.6-.2 1.1-.2 1.4.5.2.7-.3 1.1-.9 1.2zM73.3 9.5l-1.6.3 1.3 6.7 1.6-.3-1.3-6.7zM79.3 11.6c-.2-.1-.7-.2-1-.3-.3-.1-.7-.2-.7-.6 0-.4.3-.6.8-.7.5-.1 1.1.2 1.6.5l.6-1.2c-.6-.3-1.6-.6-2.4-.6-.8.1-1.4.3-1.7.7-.4.4-.6.9-.6 1.5.1.6.3 1 .7 1.3.3.3.7.3.9.4.2.1.8.2 1.1.3.3.1.8.2.9.7s-.3.7-.8.8c-.5.1-1.3-.2-1.8-.7l-.9 1.2c.6.5 1.5.9 2.5.8 1.3-.1 2.5-1 2.4-2.4 0-1-.7-1.5-1.6-1.7zM82.8 15.3l4.5.1.1-1.3-2.9-.1.1-1.6 2.7.1v-1.3l-2.7-.1.1-1.4 2.8.1.1-1.3-4.6.1-.2 6.7zM92.4 9.3l-2.3-.4-1.1 6.7 2.3.4c2.1.4 3.9-.5 4.2-2.7.4-2.2-1-3.6-3.1-4zm1.5 3.7c-.2 1.2-1.1 1.9-2.3 1.7l-.8-.1.7-4.1.8.1c1.2.3 1.8 1.2 1.6 2.4zM103.9 12.5l-2.1-.9-2.6 6.3 2.1.9c2 .8 3.9.4 4.7-1.7.9-2.1-.2-3.8-2.1-4.6zm.6 3.9c-.5 1.2-1.5 1.6-2.6 1.1l-.7-.3 1.5-3.8.7.3c1.2.6 1.6 1.6 1.1 2.7zM109 19.3l2.3 1.3.6-1.1-2.3-1.3.7-1.2 2.4 1.4.6-1.1-3.8-2.2-3.4 5.9 3.9 2.3.7-1.1-2.5-1.5.8-1.4zM117.2 20l-6.2 3.8 1.3 1 1.2-.8 1.9 1.5-.5 1.4 1.4 1.1 2.2-6.9-1.3-1.1zm-1.3 4.4l-1.3-1.1 2.2-1.4-.9 2.5zM123.2 25.4l-1.1-1.1-4.8 4.8 2.7 2.8.9-.9-1.6-1.7 3.9-3.9zM121 32.9l2.7 3.6 1-.8-1.8-2.3 1.2-1 1.6 2.1 1-.8-1.6-2.1 1.1-.8 1.7 2.2 1-.8-2.7-3.5-5.2 4.2zM125.5 39.3l2.2-1.3.3.4-1.5 2.5.9 1.6 1.6-2.9c.4.4 1.2.8 2.3.2 1.3-.7 1.1-2.1.5-3.2l-1.2-2.1-5.9 3.4.8 1.4zm4.8-2.8l.3.5c.3.5.4 1.1-.2 1.4-.6.3-1-.1-1.3-.6l-.3-.5 1.5-.8zM40.4 91.1l-7.1 1.5.9 1.4 1.4-.3 1.3 2-.9 1.1.9 1.5 4.3-5.8-.8-1.4zm-2.6 3.7l-.9-1.4 2.5-.6-1.6 2zM46 98.6l-3 2.6c-.4.3-.7.5-1 .5-.3 0-.7-.1-1-.5-.3-.3-.4-.7-.3-1 .1-.3.3-.6.7-.9l3-2.6-1.1-1.2-3 2.6c-.7.6-1.1 1.2-1.2 1.9-.1.7.2 1.4.8 2.2.6.7 1.3 1.1 2.1 1.1.7 0 1.3-.3 2-.9l3-2.6-1-1.2zM51 105l.8-.9-3.8-3.4-.8.9 1.3 1.1-3.7 4.2L46 108l3.7-4.2L51 105zM56.4 107.2l-1.5 2.2-2.3-1.5 1.5-2.2-1.3-.9-3.8 5.6 1.3.9L52 109l2.3 1.5-1.6 2.3 1.3.9 3.8-5.6-1.4-.9zM62.3 110.3c-1.8-.8-3.8-.3-4.7 1.7-.9 2 0 3.8 1.8 4.7 1.8.8 3.8.3 4.7-1.7.9-2 .1-3.9-1.8-4.7zm.4 4c-.5 1.2-1.7 1.6-2.7 1.1-1-.5-1.5-1.6-.9-2.7.5-1.2 1.7-1.6 2.7-1.1 1 .4 1.4 1.5.9 2.7zM69.3 113l-2.3-.7-1.9 6.5 1.5.4.7-2.5.5.1.7 2.9 1.8.5-.9-3.2c.5 0 1.5-.3 1.8-1.5.4-1.3-.6-2.1-1.9-2.5zm.4 2.3c-.2.7-.8.7-1.4.5l-.6-.2.5-1.7.6.2c.5.2 1.1.5.9 1.2zM73.4 114l-1.2 6.7 1.6.3 1.2-6.7-1.6-.3zM79.1 116c.5 0 1.1.4 1.5.8l.8-1.1c-.4-.5-1.3-.9-2.1-1s-1.4.1-1.8.4c-.4.3-.8.8-.8 1.4-.1.6.1 1.1.4 1.3.3.3.6.5.8.6.2.1.7.3 1 .5.3.1.8.3.7.8 0 .5-.5.7-1 .6-.5 0-1.2-.5-1.7-1l-.9 1.1c.5.5 1.3 1.1 2.3 1.2 1.3.1 2.7-.5 2.8-1.9.1-1-.5-1.6-1.3-2-.2-.1-.7-.3-1-.5-.3-.1-.7-.3-.6-.7 0-.4.4-.6.9-.5zM84.8 120.4l-.1-1.6 2.6-.1v-1.3l-2.7.1-.1-1.4 2.8-.1-.1-1.3-4.2.3.2 6.8 4.5-.2v-1.3l-2.9.1zM91.4 114.3l-2.3.4 1.1 6.7 2.3-.4c2.1-.4 3.5-1.7 3.1-4-.4-2.2-2.1-3.1-4.2-2.7zm1 5.3l-.8.1-.7-4.1.8-.1c1.3-.2 2.1.4 2.3 1.7.2 1.3-.4 2.2-1.6 2.4zM101.3 111.6l-2.1.8 2.5 6.3 2.1-.8c2-.8 3-2.4 2.2-4.5-.8-2.1-2.7-2.6-4.7-1.8zm2.1 5.1l-.7.3-1.5-3.8.7-.3c1.2-.5 2.2 0 2.6 1.2.5 1.1.1 2.1-1.1 2.6zM110.2 113.6l-.8-1.4 2.3-1.3-.6-1.1-2.3 1.3-.7-1.2 2.4-1.4-.6-1.1-3.8 2.1 3.3 5.9 3.9-2.2-.6-1.1-2.5 1.5zM112.9 105.3l2 7 1.3-1-.4-1.4 1.9-1.5 1.2.8 1.4-1-6.1-3.9-1.3 1zm3.8 2.4l-1.3 1-.8-2.5 2.1 1.5zM122.1 104.7l-3.8-3.9-1.1 1.1 4.7 4.9 2.8-2.7-.9-.9-1.7 1.5zM123.7 94.7l-2.8 3.4 5.2 4.3L129 99l-1-.8-1.8 2.2-1.2-1 1.7-2.1-1-.8-1.7 2-1.1-.9 1.8-2.2-1-.7zM131.3 95.6l-2.2-1.4.3-.4 2.9.2 1-1.6H130c.1-.5.1-1.5-.9-2.2-1.3-.8-2.4 0-3.1 1.1l-1.3 2.1 5.7 3.6.9-1.4zm-2.9-2.6l-.3.5-1.5-.9.3-.5c.3-.5.7-.9 1.3-.5.7.3.6.9.2 1.4z"/><path fill="#FFF" d="M10.1 66.4c-.4-.4-1.1-.8-1.6-1-.6-.2-1.1-.4-1.9-.7-1.4-.5-2.8-.9-2.8-2.1 0-1.2.9-1.7 2.3-1.7s2.7.7 3.6 1.5l1.2-1.7c-.9-.9-2.3-1.8-4.8-1.8s-4.8 1.4-4.8 4c0 2 1.3 2.9 2.2 3.4.7.4 1 .4 1.9.7.9.3 3.2.8 3.2 2.3s-1.4 2-2.7 2-3.1-.7-4.2-2L.4 71c1.2 1.5 3.1 2.5 5.5 2.5 1.6 0 2.9-.5 3.9-1.3.9-.8 1.5-1.8 1.5-3.2-.1-1.2-.6-2.1-1.2-2.6zM19.1 71.1H19c-.8 0-1.2-.3-1.5-.7-.3-.6-.4-1.4-.4-2.6v-6.4h3.4v-2.3h-3.3v-4.2h-2.9v4.2h-2.1v2.3h2.1v6.5c0 2.2.1 3.3.7 4.2.6.9 1.5 1.5 3 1.5.5 0 1-.1 1.4-.1.7-.1 1.2-.3 1.2-.3l-.2-2.3c0-.2-.5.1-1.3.2zM25.3 61.2l-.1-2.2h-2.9v14.1h2.9v-7c0-2.1.6-3.2.9-3.6.3-.4 1.1-1.2 2.3-1.2.8 0 1.3.2 1.5.3h.1l.2-2.6s-.5-.2-1.5-.2c-1.5 0-2.7.8-3.4 2.4zM41.5 60.4c-.4-.4-.9-.7-1.5-1-.8-.4-1.9-.6-3.2-.6-2.3 0-4.3.8-5.3 1.4l.9 1.9c.5-.3 2.2-1.2 4.3-1.2 1.4 0 2.6.5 3.1 1.6.2.5.4 1 .4 1.6v.6h-.4l-3.4.1c-3.3.1-5.5 1.5-5.5 4.3 0 2.7 2.3 4.4 4.9 4.4 2.6 0 3.9-1.5 4.5-2.1v1.8H43V65c0-2.1-.4-3.2-1.1-4.1-.1-.2-.3-.4-.4-.5zm-4.9 11.1c-1.9 0-2.9-1.1-2.9-2.4 0-1.3.9-2.3 3.2-2.4l2.9-.2h.4v3c0 .1-.1.1-.1.2-.7.7-1.8 1.8-3.5 1.8zM48.9 59H46v14.1h2.9V59zM47.5 52.6c-1.1 0-1.9.7-1.9 1.7s.8 1.7 1.9 1.7c1.1 0 1.8-.7 1.8-1.7s-.7-1.7-1.8-1.7zM63.1 61.3c-.9-1.3-2.6-2.5-5-2.5-3.6 0-6.8 2.6-6.8 7.1s3.2 7.1 6.8 7.1c2.4 0 4-1.1 4.9-2.5h.1v.7c0 1.9-.5 3.3-1.1 4-.6.7-1.7 1.5-3.9 1.5s-4.3-1.1-5.1-1.8l-1.3 2c.4.3 2.8 2.1 6.3 2.1s5.3-1.4 6.3-2.7c1-1.3 1.5-3 1.5-6.1V59.1H63l.1 2.2zm-4.4 9.4c-2.9 0-4.5-2.1-4.5-4.8s1.6-4.8 4.5-4.8 4.5 2.1 4.5 4.8-1.6 4.8-4.5 4.8zM76.5 58.8c-2.1 0-3.6 1.1-4.4 2.5H72v-8.6h-2.8v20.5H72v-7c0-2.8 1.1-5.1 3.7-5.1s2.9 2 2.9 4v8h2.9v-8.4c.1-3.3-.9-5.9-5-5.9zM89.8 71.1c-.8 0-1.2-.3-1.5-.7-.3-.6-.3-1.4-.3-2.6v-6.4h3.4v-2.3H88v-4.2h-2.9v4.2H83v2.3h2.1v6.5c0 2.2.1 3.3.7 4.2.6.9 1.5 1.5 3 1.5s2.6-.5 2.6-.5l-.2-2.3c.1-.1-.5.3-1.4.3zM98.8 63.1c.2-.3.5-.6.8-.7.3-.2.7-.3 1.1-.3.3 0 .7 0 .9.1.3.1.5.2.7.3.2.1.3.2.5.3l.4.4c.2.2.4.3.7.5.3.2.7.3 1.2.3.2 0 .5-.1.8-.1.3-.1.5-.2.8-.4.2-.2.4-.5.6-.7.1-.3.2-.7.2-1.1 0-.3-.1-.6-.1-.9-.1-.3-.3-.6-.5-1-.7-1-1.7-1.7-2.7-2-1-.4-2.1-.5-3.3-.5-1.1 0-2.2.2-3.2.6-1 .4-1.8 1-2.5 1.8-.7.7-1.3 1.6-1.7 2.6-.4 1-.6 2.1-.6 3.3 0 1.2.2 2.3.5 3.3.4 1 .9 1.9 1.6 2.7.7.7 1.5 1.3 2.5 1.8s2.1.7 3.3.7c.7 0 1.4-.1 2-.2.6-.1 1.1-.3 1.6-.5s.9-.5 1.2-.7c.3-.3.6-.5.8-.7.6-.6.9-1.4.9-2.3 0-.4-.1-.7-.2-1-.1-.3-.3-.5-.6-.7-.2-.2-.5-.3-.8-.4-.3-.1-.5-.1-.8-.1-.2 0-.4 0-.7.1-.3.1-.6.3-.9.5-.4.4-.8.6-1.2.8-.3.2-.7.3-1.2.3-.4 0-.8-.1-1.1-.3-.3-.2-.6-.5-.8-.8-.2-.3-.4-.7-.5-1.1-.1-.4-.2-.9-.2-1.3s.1-.9.2-1.3c-.1-.6.1-1 .3-1.3zM97.5 67c.1.5.3.9.6 1.3s.6.7 1 1c.4.3.9.4 1.5.4s1.1-.1 1.6-.4c.4-.2.9-.5 1.4-.9.2-.2.5-.3.7-.4.3-.1.4-.1.5-.1.1 0 .3 0 .5.1s.4.2.5.3c.1.1.3.3.4.5.1.2.1.4.1.7 0 .7-.2 1.2-.7 1.7-.2.2-.5.4-.7.7-.3.2-.6.4-1 .6-.4.2-.9.3-1.4.5-.5.1-1.1.2-1.8.2-1.1 0-2.1-.2-3-.6-.9-.4-1.6-.9-2.2-1.6-.6-.7-1.1-1.5-1.4-2.4-.3-.9-.5-1.9-.5-3s.2-2.1.5-2.9c.4-.9.9-1.7 1.5-2.4s1.4-1.2 2.3-1.6c.9-.4 1.8-.6 2.8-.6 1.1 0 2.1.2 3 .5.9.3 1.7.9 2.3 1.7.2.3.3.5.4.7.1.2.1.4.1.7 0 .3-.1.5-.1.7-.1.2-.2.3-.4.5-.2.1-.3.2-.5.3-.2.1-.3.1-.5.1-.3 0-.6-.1-.8-.2-.2-.1-.4-.3-.6-.4-.1-.1-.2-.2-.4-.3-.2-.2-.4-.3-.6-.5-.2-.1-.5-.3-.8-.4-.3-.1-.7-.2-1.2-.2-.6 0-1.1.1-1.5.4-.4.3-.8.6-1 1-.3.4-.5.9-.6 1.4-.1.5-.2 1-.2 1.5 0 .4.1.9.2 1.4zM120.2 57.4c-.7 0-1.4.3-1.9.7-.5.5-.8 1.1-.8 1.9v6.4c0 .8-.2 1.4-.5 1.9-.3.4-.7.6-1.4.6-.6 0-1.1-.2-1.4-.6-.3-.4-.5-1.1-.5-1.9V60c0-.7-.3-1.4-.8-1.9s-1.1-.7-1.9-.7c-.7 0-1.4.3-1.9.7s-.8 1.1-.8 1.9v6.3c0 1.1.2 2.1.5 3 .3.9.8 1.7 1.5 2.4.6.7 1.4 1.2 2.3 1.5.9.4 1.9.5 3 .5s2.1-.2 2.9-.5c.9-.4 1.7-.9 2.3-1.5.6-.7 1.1-1.5 1.5-2.4.3-.9.5-1.9.5-3V60c0-.7-.3-1.4-.8-1.9-.4-.4-1.1-.7-1.8-.7zm1.9 9c0 1-.1 1.9-.5 2.7-.3.8-.7 1.5-1.3 2.1-.5.6-1.2 1-2 1.4-.8.3-1.7.5-2.6.5-1 0-1.9-.2-2.7-.5-.8-.3-1.5-.8-2-1.4-.5-.6-1-1.3-1.3-2.1-.3-.8-.5-1.7-.5-2.7V60c0-.5.2-.9.5-1.3.4-.3.8-.5 1.3-.5s1 .2 1.3.5c.4.3.5.8.5 1.3v6.4c0 1 .2 1.8.6 2.3.5.6 1.1.9 2.1.9.9 0 1.6-.3 2-.9.4-.6.6-1.4.6-2.3V60c0-.5.2-.9.5-1.3.4-.3.8-.5 1.3-.5s1 .2 1.3.5c.3.3.5.8.5 1.3v6.4zM146.9 60.1c0-.9-.3-1.5-.8-2-.2-.2-.4-.3-.7-.4-.4-.2-.9-.3-1.4-.3-.6 0-1.1.2-1.4.5-.3.3-.6.7-.8 1.1l-2.7 6.5-2.6-6.5c-.4-.9-1.1-2-3.8-2-1 0-1.9.3-2.7.9-.4.3-.8.7-1.1 1-.3-1.1-1.1-1.6-2.4-1.6h-.3c-.7.1-1.2.3-1.6.7l-.3.3c-.3.4-.4.8-.4 1.3V71c0 .3.1.7.1.9.1.4.3.7.6 1 .3.3.7.5 1.1.6.3.1.5.1.8.1.7 0 1.3-.2 1.9-.7.5-.5.8-1.1.8-1.9v-5c0-.7.1-1.3.3-1.8.2-.5.5-.9.8-1.2.3-.3.7-.5 1.1-.7.1-.1.3-.1.5-.1l4.4 9.5c.3.6.6 1 1 1.3.4.3.9.5 1.6.5.7 0 1.2-.2 1.6-.5.4-.3.7-.7 1-1.3l4.1-8.6.9-1.9c.4-.3.4-.7.4-1.1zm-1 .9l-.2.5-4.7 10c-.2.5-.5.8-.8 1-.3.2-.6.3-1.1.3-.5 0-.8-.1-1.1-.3-.3-.2-.5-.6-.8-1.1l-4.6-10.1h-.3c-.3 0-.6.1-.9.2-.5.2-1 .5-1.4.8-.4.4-.8.9-1 1.5-.3.6-.4 1.3-.4 2.1v5c0 .6-.2 1-.5 1.3-.4.3-.8.5-1.3.5-.2 0-.4 0-.6-.1-.3-.1-.5-.2-.7-.4-.3-.3-.5-.7-.5-1.3v-11c0-.4.1-.8.4-1.1.3-.3.6-.4 1.1-.5h.2c1.2 0 1.7.5 1.7 1.6v.4l.8.2c.3-.7.9-1.3 1.5-1.8.7-.5 1.4-.7 2.2-.7 2.1 0 2.7.7 3 1.5l3.4 8.4 3.4-8.4c.1-.3.3-.6.6-.9.2-.2.5-.3.9-.3.6 0 1.1.1 1.5.4 0 0 .1 0 .1.1.4.3.5.8.5 1.4-.2.2-.2.5-.4.8zM159.9 59.3c-.6-.7-1.4-1.2-2.3-1.6-.9-.4-1.9-.6-3.1-.6-1.1 0-2.2.2-3.2.7-1 .5-1.8 1.1-2.5 1.8-.4.5-.8.9-1.1 1.5l-.6 1.2c-.4 1-.6 2.1-.6 3.3 0 1.2.2 2.3.6 3.3.1.3.3.7.5 1 .3.6.7 1.2 1.2 1.7.7.7 1.6 1.3 2.5 1.7 1 .4 2.1.6 3.2.6 1.3 0 2.4-.2 3.3-.5.9-.3 1.7-.7 2.3-1.2.3-.2.5-.5.7-.8.2-.4.4-.8.4-1.3 0-.6-.2-1.2-.7-1.7-.4-.5-1-.8-1.7-.8-.3 0-.7.1-1.1.3-.1 0-.2.1-.4.2l-.6.3c-.3.1-.5.2-.8.3-.3.1-.6.1-.9.1-.7 0-1.3-.2-1.9-.6-.4-.3-.7-.7-.9-1.2h7.6c.9 0 1.5-.3 1.9-.9.3-.5.4-1.2.4-1.9 0-.9-.2-1.8-.5-2.7-.6-.7-1.1-1.5-1.7-2.2zm.9 6.6c-.1.1-.2.5-1.1.5H151l.1.5c.2 1 .7 1.7 1.4 2.2.7.5 1.5.7 2.4.7.4 0 .8-.1 1.2-.1.3-.1.7-.2.9-.3.3-.1.5-.3.7-.4.2-.1.3-.2.4-.2.4-.2.6-.2.8-.2.5 0 .8.2 1.1.5.3.3.5.7.5 1.1 0 .3-.1.6-.2.8-.2.3-.4.5-.6.6-.5.4-1.2.8-2.1 1.1-.8.3-1.9.5-3 .5s-2-.2-2.9-.5c-.9-.4-1.6-.9-2.3-1.5-.6-.7-1.1-1.5-1.5-2.4-.1-.2-.1-.3-.2-.5-.2-.8-.3-1.6-.3-2.5 0-.9.1-1.8.4-2.6 0-.1.1-.2.1-.3.4-.9.9-1.7 1.5-2.4s1.4-1.2 2.3-1.6c.9-.4 1.8-.6 2.9-.6 1 0 1.9.2 2.7.5.8.3 1.5.8 2.1 1.4.6.6 1 1.3 1.3 2 .3.8.5 1.5.5 2.3-.1.4-.2 1-.4 1.4z"/><path fill="#FFF" d="M156.8 62.2c-.3-.3-.6-.5-.9-.7-.4-.2-.8-.3-1.3-.3-.9 0-1.6.3-2.2.7-.6.5-1 1.2-1.2 2.1l-.1.5h6.5v-.4c0-.3-.1-.7-.2-1l-.6-.9zm-4.7 1.6c.2-.5.4-.9.7-1.1.4-.4 1-.5 1.7-.5.4 0 .7.1 1 .2.3.1.5.3.7.5.2.2.3.4.4.7 0 .1.1.2.1.3l-4.6-.1zM163.6 54c-1.7 0-3.1 1.3-3.1 3.1 0 1.7 1.3 3.1 3.1 3.1 1.7 0 3.1-1.3 3.1-3.1-.1-1.7-1.4-3.1-3.1-3.1zm0 5.6c-1.4 0-2.5-1.1-2.5-2.5s1.1-2.5 2.5-2.5 2.5 1.1 2.5 2.5c0 1.3-1.1 2.5-2.5 2.5z"/><path fill="#FFF" d="M164.7 56.4c0-.6-.5-.9-1-.9h-1.1v3.3h.5v-1.4h.4l.8 1.4h.6l-.9-1.4c.3-.2.7-.4.7-1zm-1.6.5v-1.1h.4c.3 0 .7.1.7.5s-.3.5-.7.5h-.4z"/></symbol><symbol id="cookie" viewBox="0 0 53 53"><g fill="currentColor"><path class="st1" d="M19.4 18.6c0-2.9-2.4-5.3-5.3-5.3s-5.3 2.4-5.3 5.3 2.4 5.3 5.3 5.3 5.3-2.4 5.3-5.3zm-8.8 0c0-2 1.6-3.5 3.5-3.5s3.5 1.6 3.5 3.5-1.6 3.5-3.5 3.5-3.5-1.6-3.5-3.5z"/><path class="st1" d="M50.4 15.7c-.3-.1-.6 0-.8.2-2.2 2-5.5 1.8-7.5-.4-.8-.8-1.2-1.9-1.3-3 0-.5-.5-.8-1-.8-.1 0-.2 0-.3.1-.7.4-1.5.5-2.4.5-2.9 0-5.3-2.4-5.3-5.3 0-1.8.9-3.4 2.4-4.4.3-.2.4-.5.4-.9-.1-.3-.3-.6-.6-.7C19.9-3 5.2 5 1.1 19.1-3 33.1 5 47.9 19.1 52c14 4.1 28.8-3.9 32.9-18 1.7-5.8 1.4-12.1-1-17.7-.2-.3-.4-.5-.6-.6zM26.5 51.2c-13.7 0-24.7-11-24.8-24.7 0-13.7 11-24.7 24.7-24.8 1.8 0 3.6.2 5.4.6-2.6 2.9-2.4 7.4.5 10 1.3 1.2 3 1.8 4.8 1.8.7 0 1.3-.1 2-.3 1 3.8 4.9 6 8.7 5 .7-.2 1.3-.5 1.9-.9 4.7 12.8-1.9 27-14.7 31.7-2.7 1.1-5.6 1.6-8.5 1.6z"/><path class="st1" d="M38 32.7c-2.9 0-5.3 2.4-5.3 5.3s2.4 5.3 5.3 5.3 5.3-2.4 5.3-5.3-2.4-5.3-5.3-5.3zm0 8.8c-2 0-3.5-1.6-3.5-3.5s1.6-3.5 3.5-3.5c2 0 3.5 1.6 3.5 3.5s-1.6 3.5-3.5 3.5zM23.9 38c0-1.5-1.2-2.6-2.6-2.6h-7.1c-1.5 0-2.6 1.2-2.6 2.6 0 1.5 1.2 2.6 2.6 2.6h7.1c1.4 0 2.6-1.2 2.6-2.6zm-2.7.9h-7.1c-.5 0-.9-.4-.9-.9s.4-.9.9-.9h7.1c.5 0 .9.4.9.9s-.4.9-.9.9zM38.7 22.6c1.1-1.1 1.1-2.8 0-3.8-1.1-1.1-2.8-1.1-3.8 0L30 23.7c-1.1 1.1-1.1 2.8 0 3.8 1.1 1.1 2.8 1.1 3.8 0l4.9-4.9zm-7.5 3.6c-.4-.4-.4-1 0-1.3l4.9-4.9c.4-.4 1-.4 1.3 0 .4.4.4 1 0 1.3l-4.9 4.9c-.3.4-.9.4-1.3 0zM23 31.8c1.5 0 2.6-1.2 2.6-2.6 0-1.5-1.2-2.6-2.6-2.6s-2.6 1.2-2.6 2.6c-.1 1.4 1.1 2.6 2.6 2.6zm0-3.5c.5 0 .9.4.9.9s-.4.9-.9.9-.9-.4-.9-.9.4-.9.9-.9zM43.9 25.9c-.3-.3-.9-.3-1.3 0-.3.3-.3.9 0 1.3l3.5 3.5c.3.3.9.3 1.2 0 .3-.3.3-.9 0-1.2l-3.4-3.6zM27.8 44.3l-4.4 2.6c-.4.2-.6.8-.3 1.2.2.3.4.4.8.4.2 0 .3 0 .5-.1l4.4-2.6c.4-.2.6-.7.4-1.2-.2-.4-.8-.6-1.2-.4-.1 0-.1.1-.2.1zM25.7 15.5c.2.3.4.4.8.4.2 0 .3 0 .5-.1.4-.2.6-.8.3-1.2l-2.6-4.4c-.2-.4-.7-.6-1.2-.4-.4.2-.6.7-.4 1.2 0 .1.1.1.1.2l2.5 4.3z"/></g></symbol><symbol id="guarantee-gs-nl" viewBox="0 0 87 89"><g fill="currentColor"><path class="st0" d="M27.3 53.3V26.7h-5.7v-5.1h12.9v31.7h-7.2zM51.9 53.8c-6.3 0-10.2-2.9-11.7-5.2l3.4-4.4c1.7 2.4 5.1 3.8 7.8 3.8s6-1.6 6-5.4c0-3.8-3.1-5.3-6-5.3-2.1 0-4.4.6-5.8 1.7l-3.2-2 2.4-15.5h18.6v5.7H50.2l-.9 5.7c1-.4 2.2-.7 4.2-.7 4.8 0 11.1 3 11.1 10.4 0 7.5-6.4 11.2-12.7 11.2zM7.6 28.9l-.5 1.2-6.2-.4.6-1.3 4.2.4-3.1-2.9.6-1.3 4.4 4.3zM10 24.4l-4.8-3.3L7.3 18l.9.6-1.4 2 1 .7 1.3-1.9.9.6-1.3 1.9 1.1.8 1.4-2 .9.6-2.1 3.1zM16.4 16.6l-2.4-.7-.3.3 1.6 1.6-1 1-4.1-4.1 1.5-1.5c.8-.8 1.9-1.2 2.8-.3.8.8.6 1.6.4 2l2.7.7-1.2 1zM12.3 14l-.4.4 1.1 1.1.4-.4c.4-.4.6-.8.2-1.2-.5-.5-1-.2-1.3.1zM19.6 13.9l-.6-.8.3-4.7L17 9.9l-.6-.9 3.8-2.5.5.8-.3 4.7 2.5-1.7.6.9-3.9 2.7zM26.3 9.8l-2.4-5.3 1.2-.5 2.4 5.3-1.2.5zM34.5 6.9L31 3.7s.2.7.4 1.3l.7 2.5-1.3.3-1.5-5.6 1.4-.4L34.2 5s-.2-.6-.3-1.2l-.7-2.5 1.3-.3L36 6.6l-1.5.3zM42.6 5.9L41 3.5l-.4.5.1 2-1.4.1L39 .3l1.4-.1.1 2.1L42.2.1l1.6-.1-1.9 2.4 2.4 3.4-1.7.1zM50 1.7l-.6 4.7-1.4-.2.6-4.7-1.5-.2.1-1.1 4.3.6-.1 1.1-1.4-.2zM59.3 9.4c-.8-.3-1.3-1-1.5-1.6l1-.6c.2.6.7 1.1 1.1 1.3.4.2.8.1 1-.2.2-.4-.2-.7-.4-.9l-.7-.7c-.1-.1-.3-.3-.5-.7-.1-.3-.2-.7 0-1.2s.7-.8 1.1-.9c.4-.1 1-.1 1.6.2.6.3 1.2.9 1.4 1.4l-.9.6c-.1-.5-.5-.9-.9-1.1-.4-.2-.8-.2-.9.2-.2.3.1.5.3.8l.7.7c.6.5.8 1.2.5 2-.6 1-1.9 1.1-2.9.7zM68.7 9.1L66.1 13l-1.1-.8 2.7-3.9-1.2-.8.6-.9L70.7 9l-.7.9-1.3-.8zM71.9 18l.5-1.1-1.5-1.4-1.1.5-1-1 5.6-2.7 1 1-2.5 5.7-1-1zm1.9-4.1l-2 1 1 1 1-2zM76.9 24.4l.7-1-1.2-1.7-1.2.3-.8-1.2 6.1-1.5.8 1.2-3.6 5.1-.8-1.2zm2.7-3.6l-2.1.6.8 1.2 1.3-1.8zM79 28.3l5.3-2.3.5 1.3-4.3 1.9.8 1.9-1 .5-1.3-3.3zM.8 54.9c-.1-.5 0-1 .2-1.3l.7.3c-.2.3-.3.7-.2 1 .1.3.2.4.5.4.2-.1.3-.3.3-.5s.1-.4.1-.6c0-.1 0-.3.2-.5.1-.2.3-.3.6-.4.3-.1.6 0 .8.2.2.2.4.4.5.8.1.4 0 .9-.2 1.2l-.6-.2c.2-.2.2-.6.2-.8-.1-.3-.2-.4-.4-.4-.2.1-.2.3-.3.4-.2.2-.2.4-.2.6-.1.5-.3.8-.8.9-.8.2-1.3-.4-1.4-1.1zM4.7 58.2L2 59l-.3-.8 2.7-.9-.3-.9.6-.2.8 2.5-.5.3-.3-.8zM3.5 62.9l.9-1.2-.1-.2-1.2.5-.3-.8L6 59.9l.5 1.1c.3.6.3 1.3-.5 1.6-.6.3-1 0-1.2-.2l-1 1.4-.3-.9zm2.3-1.7l-.1-.3-.8.3.1.3c.1.3.3.5.7.4.3-.2.3-.5.1-.7zM6 67.1c-.3-.1-.7-.3-.9-.8-.3-.4-.3-.8-.2-1.2.1-.3.4-.6.8-.8l1.8-1 .4.7-1.8 1c-.2.1-.4.2-.4.4-.1.2-.1.3.1.5.1.2.3.3.4.3.2 0 .4 0 .6-.2l1.8-1 .4.7-1.8 1c-.5.4-.8.5-1.2.4zM7.7 70.4c-.6-.8-.5-1.9.4-2.5.9-.6 1.9-.4 2.5.5.4.6.4 1.1.4 1.2l-.7.2c0-.1 0-.6-.2-.9-.3-.5-.9-.6-1.5-.2-.6.3-.6.9-.3 1.4.3.4.6.5.8.6l-.4.6c-.2-.1-.6-.3-1-.9zM12.5 71.9l-2.2 1.8-.5-.6 2.2-1.8-.6-.7.5-.4 1.7 2-.5.4-.6-.7zM13.9 77c-.4 0-.7-.1-1.1-.5-.4-.4-.5-.7-.5-1.1 0-.4.2-.7.5-1l1.4-1.5.6.6-1.4 1.5c-.2.2-.3.3-.3.5s0 .3.2.5.3.2.5.2.3-.1.5-.3l1.4-1.5.6.6-1.4 1.5c-.3.3-.6.5-1 .5zM16.7 79.8l.3-1.5-.2-.2-.8 1-.6-.5 2.2-2.7 1 .8c.5.4.8 1 .4 1.6-.4.5-.9.5-1.2.4l-.2 1.7-.9-.6zm1.2-2.6l-.3-.2-.6.7.3.2c.2.2.5.3.8 0 .2-.3.1-.6-.2-.7zM18.6 81.2l1.9-2.9 1.9 1.3-.4.5-1.2-.8-.4.6 1.1.8-.4.5-1.1-.8-.4.7 1.3.8-.4.6-1.9-1.3zM21.9 83.3l1.7-3.1.7.4-1.3 2.5 1.1.6-.3.6-1.9-1zM24.9 84.9l1.4-3.2 2.1.9-.3.6-1.3-.6-.3.7 1.3.5-.3.6-1.3-.5-.3.7 1.4.6-.3.6-2.1-.9zM30.3 87l1-3.3.8.2-1 3.3-.8-.2zM35 88.2l-1-2.6-.2.8-.3 1.5-.8-.2.7-3.4.9.2 1 2.6s.1-.4.1-.8l.3-1.5.8.2-.7 3.4-.8-.2zM39.4 85.9l-.4 2.9-.8-.1.3-2.8-.9-.1.1-.6 2.6.3-.1.5-.8-.1zM41.4 88.9l.1-3.5 2.3.1v.7h-1.4v.7h1.4v.7h-1.4v.8h1.5v.7l-2.5-.2zM46.9 88.9c-1 .1-1.9-.5-1.9-1.7-.1-1.2.7-1.9 1.7-1.9.9-.1 1.4.4 1.5.5l-.5.5c-.2-.2-.4-.4-.9-.3-.6 0-1 .5-.9 1.2.1.7.5 1.1 1.1 1 .6 0 .7-.3.7-.3v-.5l-.7.1v-.6l1.5-.1.1 1.4c-.3.1-.7.6-1.7.7zM51.9 88.1l-1-1.2h-.3l.2 1.3-.8.2-.5-3.4 1.2-.2c.7-.1 1.3 0 1.5.8.1.7-.3 1-.5 1.1l1.1 1.3-.9.1zm-1.2-2.6l-.3.1.2.9.3-.1c.3-.1.6-.2.5-.6-.1-.4-.4-.4-.7-.3zM54.1 87.6l-.9-3.4.8-.2.9 3.4-.8.2zM57 83.8l.9 2.7-.8.3-.9-2.7-.9.3-.2-.6 2.5-.8.2.6-.8.2zM60.1 85.7l-1.4-3.2 2.1-.9.3.6-1.3.6.3.7 1.3-.6.3.6-1.5.5.3.7 1.4-.6.3.6-2.1 1zM63.6 84.1L61.9 81l.7-.4 1.6 3.1-.6.4zM65.5 79.7l1.5 2.4-.7.4-1.5-2.4-.8.5-.3-.5 2.2-1.4.3.5-.7.5zM71.8 78.6c-.7.6-1.8.7-2.5-.2-.8-.9-.5-1.9.2-2.5.7-.6 1.3-.5 1.5-.5l-.1.7c-.2 0-.6 0-.9.3-.4.4-.5 1 0 1.5s1.1.6 1.5.2c.4-.4.4-.6.4-.6l-.5-.5-.6.5-.3-.5 1.2-1 .9 1.1c-.1.3-.1.9-.8 1.5zM75.6 74.8l-.7-.3-.9.9.3.7-.6.6-1.6-3.4.6-.6 3.4 1.5-.5.6zm-2.4-1.2l.6 1.2.6-.6-1.2-.6zM78.3 71.6l-1.5-.2-.2.2 1.1.8-.5.6-2.8-2.1.8-1c.4-.5 1-.9 1.6-.4.5.4.5.9.4 1.2l1.7.2-.6.7zm-2.7-1.2l-.2.3.7.5.2-.3c.2-.2.3-.5 0-.8-.3-.1-.5.1-.7.3zM80.9 67.8l-.7-.2-.7 1.1.5.6-.5.7-2.3-3 .5-.7 3.7.7-.5.8zm-2.7-.7l.8 1 .5-.7-1.3-.3zM83.1 63.7l-2.8.3s.4.2.7.3l1.4.7-.3.7-3.1-1.5.4-.8 2.8-.3s-.4-.2-.7-.3l-1.4-.7.3-.7 3.1 1.5-.4.8zM81.9 58.9l2.7 1-.3.8-2.7-1-.3.8-.6-.2.9-2.5.6.2-.3.9zM85.3 57.8l-3.4-1 .2-.8 3.4 1-.2.8zM86 55.4l-3.4-.7.5-2.2.6.1-.4 1.4.7.1.3-1.3.6.1-.3 1.3.8.2.3-1.5.7.1-.4 2.4zM85.5 43.2c.6 0 1-.5 1-1 0-.6-.5-1-1-1-.6 0-1 .5-1 1 0 .6.4 1 1 1zM1.5 43.2c.6 0 1-.5 1-1 0-.6-.5-1-1-1-.6 0-1 .5-1 1 0 .6.5 1 1 1zM24.2 75.3c-.8 0-1.6-.2-1.7-.3l.1-2c.2.1.5.2.9.2.7 0 .8-.5.8-1.3V60.6H27v11.3c0 1.9-.7 3.4-2.8 3.4zM37.5 72.1l-.8-2.3h-4.1l-.8 2.3H29l4.3-11.6h2.8l4.3 11.6h-2.9zm-2.9-8.6l-1.4 4.1h2.9l-1.5-4.1zM49.9 72.1l-.8-2.3H45l-.8 2.3h-2.8l4.3-11.6h2.8l4.3 11.6h-2.9zM47 63.5l-1.4 4.1h2.9L47 63.5zM60.8 72.1l-2.4-4.4h-.8v4.4h-2.7V60.6H59c2.2 0 4.3.9 4.3 3.5 0 2.2-1.4 3-2.3 3.3l2.9 4.8-3.1-.1zm-2.2-9.4h-1.1v3h1.1c1 0 2-.3 2-1.5 0-1.3-1-1.5-2-1.5z"/></g></symbol><symbol id="guarantee-gs-no" viewBox="0 0 87 89"><g fill="currentColor"><path class="st0" d="M27.6 52.5v-26H22v-5h12.6v31h-7zM51.7 53c-6.2 0-10-2.8-11.4-5.1l3.3-4.3c1.7 2.4 4.9 3.7 7.6 3.7 2.6 0 5.8-1.5 5.8-5.3 0-3.7-3.1-5.2-5.8-5.2-2 0-4.3.6-5.7 1.6l-3.1-1.9 2.4-15.1h18.1V27H50.1l-.9 5.6c.9-.4 2.1-.7 4.1-.7 4.7 0 10.8 3 10.8 10.1 0 7.3-6.2 11-12.4 11zM84.5 44.9c.5 0 1-.4 1-1 0-.5-.4-1-1-1-.5 0-1 .4-1 1s.4 1 1 1zM2.5 44.9c.5 0 1-.4 1-1 0-.5-.4-1-1-1s-1 .4-1 1 .5 1 1 1zM40.5 70.8l-.8-2.3h-4l-.8 2.3h-2.7l4.2-11.3h2.7l4.2 11.3h-2.8zm-2.7-11.6c-1 0-1.9-.6-1.9-1.7s.9-1.7 1.9-1.7c1 0 1.9.6 1.9 1.7s-.9 1.7-1.9 1.7zm-.1 3.3l-1.4 4h2.8l-1.4-4zm.1-5.7c-.5 0-.8.3-.8.8s.3.8.8.8.8-.3.8-.8-.3-.8-.8-.8zM51.2 70.8l-2.4-4.3H48v4.3h-2.6V59.6h4.1c2.2 0 4.2.9 4.2 3.4 0 2.1-1.4 3-2.2 3.2l2.9 4.7-3.2-.1zM49 61.6h-1v2.9h1c1 0 1.9-.3 1.9-1.5 0-1.1-.9-1.4-1.9-1.4zM8.1 29.7C7.5 31.2 6 32 4.3 31.3c-1.7-.7-2.2-2.4-1.5-3.9.6-1.4 1.6-1.7 1.8-1.8l.4 1.1c-.3.1-.9.4-1.2 1.1-.4.8 0 1.8 1.1 2.2 1.1.4 2 0 2.3-.8.3-.8 0-1.2 0-1.2l-.8-.3-.4 1.1-.9-.4 1-2.3 2.1.9c.1.4.5 1.3-.1 2.7zM12.2 22.3L11 22l-1.1 1.7.7 1-.8 1.1-3.6-4.9.8-1.1 5.9 1.4-.7 1.1zm-4.3-1.2l1.3 1.7.8-1.2-2.1-.5zM14.3 19.5l-4.2-3.9.9-1 3.4 3.1 1.3-1.4.8.8-2.2 2.4zM20.1 14.1l-1 .8-5.2-3.1 1.1-.9 3.5 2.2-1.4-3.9 1.1-.9 1.9 5.8zM26.4 10.2l-.9-.8-1.8 1 .2 1.2-1.2.7-.8-6 1.2-.7 4.6 4-1.3.6zm-3.2-3.1l.4 2.1 1.2-.7-1.6-1.4zM33.2 7.6l-3.5-2.9.4 1.2.8 2.5-1.2.4L28 3.4l1.4-.4 3.5 2.9-.4-1.2-.8-2.5 1.2-.4 1.7 5.4-1.4.4zM37.1 6.8l-.8-5.6 1.3-.2.8 5.6-1.3.2zM42.7 6.4c-.8 0-1.6-.4-2-.8l.6-1c.4.4 1.1.7 1.5.7.4 0 .8-.2.8-.6 0-.4-.4-.5-.7-.6-.2-.1-.7-.2-.9-.3-.1-.1-.4-.2-.7-.4-.3-.2-.5-.6-.5-1.1 0-.5.2-1 .6-1.3.3-.3.8-.5 1.5-.5s1.4.3 1.8.7l-.6.9c-.3-.3-.9-.6-1.3-.6s-.7.2-.7.5c0 .4.3.5.6.6.2.1.7.2.9.3.7.3 1.2.7 1.3 1.5 0 1.3-1.1 1.9-2.2 2zM47.1 6.4L48 .7l3.6.5-.1 1.1-2.4-.3-.1 1.1 2.2.3-.2 1.1-2.2-.3-.2 1.3 2.4.3-.1 1.1-3.8-.5zM56 8.3l-.5-2.4-.4-.1-.7 2.1-1.3-.4L54.9 2l1.9.6c1 .3 1.9 1.1 1.5 2.3-.3 1-1.1 1.2-1.6 1.2l.7 2.7-1.4-.5zm.4-4.7l-.5-.2-.4 1.4.4.2c.5.1 1 .1 1.1-.4.3-.6-.2-.9-.6-1zM63.5 6.6l-2.1 4.1-1.2-.6L62.3 6 61 5.3l.5-.9 3.8 1.9-.5.9-1.3-.6zM68.4 15.6c-.6-.5-.9-1.3-1-2l1.1-.3c0 .6.3 1.2.7 1.5.3.3.7.3 1 .1.3-.3 0-.7-.1-.9-.1-.2-.4-.6-.4-.8-.1-.1-.2-.4-.2-.8 0-.3 0-.7.4-1.1.4-.4.8-.6 1.3-.6.4 0 .9.2 1.4.6.5.4.9 1.2.9 1.7l-1 .3c0-.5-.3-1-.6-1.3-.3-.3-.7-.4-.9-.1-.2.3-.1.6.1.8l.4.8c.4.7.5 1.4-.1 2-1 1-2.2.8-3 .1zM76.7 17.3l-3.5 3-.9-1 3.5-3-.9-1.1.8-.7 2.8 3.3-.8.7-1-1.2zM77 25.8l.8-.9-1.1-1.7-1.2.3-.7-1.2 6-1.2.7 1.2-3.8 4.7-.7-1.2zm2.8-3.4l-2.1.5.7 1.2 1.4-1.7zm1.4-.9c-.3-.4-.2-1 .2-1.2.5-.3.9-.1 1.2.4.3.4.2 1-.2 1.3-.4.2-.9 0-1.2-.5zm1.1-.6c-.1-.2-.4-.3-.6-.1-.2.1-.2.4-.1.6.1.2.4.3.6.1.2-.2.2-.4.1-.6zM78.5 28.9l5.3-2.1.5 1.2-4.3 1.7.7 1.8-1 .4-1.2-3zM3.7 58.9l-.2-.5L2 59l-.3-1 4.1-1.5.5 1.5c.3.9.2 1.6-.8 2-.9.3-1.5-.2-1.8-1.1zm1.8-.8l-.1-.4-1.1.4.1.4c.1.4.4.6.8.5.4-.1.4-.5.3-.9zM5.9 67.4l1-1.6-.2-.3-1.5.9-.5-.9 3.8-2.2.8 1.4c.4.7.5 1.6-.3 2.1-.7.4-1.3.1-1.5-.1l-1 1.9-.6-1.2zm2.7-2.6l-.2-.4-1 .6.2.4c.2.3.5.6.9.4.4-.3.3-.7.1-1zM10.6 73.9c-.9-1-.9-2.3.1-3.3 1.1-.9 2.4-.7 3.3.2.9 1 .9 2.3-.1 3.3-1.1 1-2.4.8-3.3-.2zm2.8-2.4c-.5-.6-1.3-.6-1.9-.1-.6.6-.7 1.3-.2 1.9.5.6 1.3.6 1.9.1.6-.6.7-1.4.2-1.9zM17.2 79.8l-1.2-.9 2.6-3.5 1.2.9c1.1.8 1.5 2 .6 3.2-.9 1.1-2.1 1.1-3.2.3zm2.1-2.8l-.4-.3-1.6 2.1.4.3c.7.5 1.3.4 1.8-.3.6-.6.5-1.3-.2-1.8zM26.5 84.7c-.4.2-.9.1-1.5-.1-.6-.3-.9-.6-1.1-1.1-.1-.4-.1-.9.2-1.4l1.1-2.3.9.4-1.1 2.3c0 .3-.1.5 0 .7.1.2.2.4.5.5.3.1.5.1.7 0 .2-.1.3-.3.5-.6l1.1-2.3.9.4-1.1 2.3c-.4.7-.6 1-1.1 1.2zM34 87.5l-.6-2-.4.3-.3 1.4-1-.2 1-4.3 1 .2-.4 1.6 1.7-1.2 1.2.3-1.9 1.3 1 3-1.3-.4zM41.8 84.9l-.2 3.6-1-.1.2-3.6-1.1-.1v-.8l3.3.2v.8h-1.2zM49.3 88.2c-1.2.2-2.4-.5-2.6-2-.2-1.5.8-2.4 2-2.5 1.2-.1 1.7.4 1.9.5l-.6.7c-.2-.2-.6-.4-1.2-.4-.7.1-1.2.7-1.1 1.6.1.9.7 1.3 1.4 1.2.8 0 .9-.3.9-.3v-.7l-1 .1-.1-.8 1.9-.3.2 1.8c-.1.3-.5 1-1.7 1.1zM58.7 85.8l-.6-.7-1.5.5v.9l-1 .4.1-4.7 1-.4 3 3.6-1 .4zm-2.1-2.7v1.7l1-.4-1-1.3zM66.1 82.2l-1.6-1-.3.2.8 1.5-.9.5-2.2-3.8 1.4-.8c.7-.4 1.6-.5 2.1.3.4.7.1 1.3-.1 1.5l1.9 1-1.1.6zm-2.6-2.6l-.4.2.6 1 .4-.2c.3-.2.6-.5.4-.9-.3-.4-.6-.3-1-.1zM73.1 77l-.8-.5-1.2 1 .4.9-.8.7-1.7-4.4.8-.7 4.2 2.2-.9.8zm-3-1.7l.6 1.6.8-.7-1.4-.9zM78.9 70.4l-3.5-.3.8.6 1.6 1.2-.6.8-3.5-2.7.7-.9 3.5.3-.8-.6-1.6-1.2.6-.8 3.5 2.7-.7.9zM79.8 62l3.2 1.6-.5.9-3.2-1.6-.5 1-.7-.4 1.5-3 .7.4-.5 1.1zM85.2 58.2L81 56.9l.3-1 4.2 1.3-.3 1z"/></g></symbol><symbol id="guarantee-gs" viewBox="0 0 87 89"><g fill="currentColor"><path class="st0" d="M2 55.6c-.3-.2-.5-.6-.5-.9-.1-.5 0-1 .3-1.4l.7.3c-.2.3-.3.7-.2 1.1 0 .1.1.3.4.3.2-.1.3-.4.3-.6 0-.1 0-.4.1-.6 0-.2.1-.3.2-.5s.4-.4.6-.5c.3-.1.7 0 .9.2.3.2.4.5.5.9.1.4 0 .9-.2 1.3l-.7-.2c.2-.3.2-.6.2-.9 0-.3-.2-.5-.4-.4-.2 0-.3.3-.3.5s-.1.5-.1.6c0 .2-.1.4-.2.6-.1.2-.4.4-.6.5-.3 0-.7-.1-1-.3m3.9 3.2l-.3-.9-2.9.9-.2-.8 2.9-.9-.3-.9.7-.2.8 2.7-.7.1zM6.8 61.4c0-.2 0-.3-.1-.5l-.1-.3-.9.4.1.3c0 .2.1.3.3.4.1.1.3.1.4 0 .2-.1.3-.2.3-.3m-2.2 2.3l-.4-.9 1-1.3-.1-.3-1.3.6-.4-.8 3.4-1.5.5 1.2c.2.3.2.7.1 1-.2.6-.8.9-1.4.8-.2-.1-.4-.2-.5-.3l-.9 1.5zM8 66.8c-.6.5-1.5.4-2-.2-.1-.1-.2-.2-.2-.3-.5-.6-.3-1.5.3-2 .1-.1.2-.1.3-.2l2-1.1.4.8-1.9 1.1c-.2.1-.4.2-.5.4-.1.2 0 .4.1.6.1.2.3.3.5.4.2 0 .4 0 .6-.2l1.9-1 .4.8-1.9.9zm1.7 4.5c-.5-.1-.9-.4-1.2-.8-.6-.8-.5-2 .3-2.6l.2-.1c.9-.6 2.2-.3 2.8.6.2.4.3.8.3 1.2l-.7.2c0-.4 0-.7-.2-1-.3-.5-1-.6-1.5-.3l-.1.1c-.5.3-.7 1-.3 1.5v.1c.2.3.5.5.9.6l-.5.5zM14.1 72.5l-.6-.7-2.3 2-.6-.7 2.3-2-.6-.7.5-.5 1.8 2.1-.5.5zM16.1 76.5c-.3.3-.6.6-1.1.6-.4 0-.9-.2-1.2-.5-.3-.3-.6-.7-.6-1.2 0-.4.2-.8.5-1.1l1.5-1.6.6.6-1.4 1.7c-.2.1-.3.3-.3.5s.1.4.2.5c.1.2.3.2.5.2.2-.1.4-.2.5-.3l1.5-1.6.7.6-1.4 1.6zm3.2.9c-.1-.1-.2-.3-.3-.3l-.3-.2-.6.8.3.2c.1.1.3.2.4.2.1 0 .3-.1.4-.2.2-.2.2-.3.1-.5m-.7 3.2l-.8-.6.3-1.6-.2-.2-.9 1.2-.7-.5 2.3-3 1 .8c.3.2.5.5.6.8.1.3 0 .7-.2.9-.3.4-.7.5-1.2.4l-.2 1.8zM22 81.1l.3-1.4-1.1.9.8.5zm.5 1.9l-.8-.5.2-.8-1.2-.7-.6.5-.8-.5 3.1-2.5.8.5-.7 4zm3 1.6l-1.9-1 1.6-3.4.8.4-1.3 2.7 1.2.6-.4.7zm3.9 1.5l-.8-.3 1.2-3.5.8.3-1.2 3.5zm4.8 1.4l-.9-.2-.9-2.9-.2.8-.4 1.6-.8-.3.9-3.6.9.2.9 2.9.2-.8.4-1.6.8.2-.9 3.7zm1.7-2.8l1 .2-.5 3 .9.1.5-3 .9.2.1-.7-2.8-.4-.1.6zm3.6 3.6l2.4.2v-.7l-1.6-.1v-.9l1.5.1v-.7l-1.4-.1v-.8l1.5.1v-.7l-2.4-.1v3.7zM46.9 87.8c-.4.5-1 .7-1.6.7-1.1.1-2-.6-2.1-1.7s.6-2 1.7-2.1h.2c.6-.1 1.2.2 1.6.6l-.7.4c-.5-.4-1.2-.4-1.6.1-.4.5-.4 1.2.1 1.6.2.2.5.3.7.3.6 0 .8-.3.8-.3V87h-.8v-.7l1.6-.1.1 1.6zm2.8-2.8h-.5l-.3.1.1.9h.3c.2 0 .3-.1.4-.2.1-.1.2-.3.1-.4.1-.1 0-.3-.1-.4m1.6 2.8l-1 .2-.9-1.3h-.3l.2 1.4-.9.1-.5-3.7 1.3-.2c.3-.1.7 0 1 .1.3.2.5.4.5.8.1.5-.1.9-.6 1.2l1.2 1.4zM51.7 83.8l.8 3.7.8-.2-.8-3.7-.8.2zm4.7-.6l-.9.3.9 2.9-.8.3-.9-2.9-1 .2-.2-.7 2.7-.8.2.7zm3.5-2.2l-.3 2.6.6 1.4-.8.3-.6-1.4-2-1.6.9-.4L59 83l.1-1.7.8-.3zM66.8 80.7c-.1.6-.5 1.1-1.1 1.4-.8.6-2 .4-2.5-.5l-.1-.2c-.5-1-.2-2.2.8-2.7.5-.3 1-.3 1.5-.2l-.2.7c-.3-.1-.7-.1-1 .1-.5.3-.7 1-.3 1.5v.1c.2.5.9.8 1.4.5h.1c.5-.3.5-.6.5-.6l-.3-.5-.7.4-.3-.6 1.4-.9.8 1.5zm3.2-3.6c.3.3.5.7.4 1.2-.2.9-1 1.5-1.9 1.5-.4-.1-.8-.4-1-.7l-1.4-1.7.7-.5 1.3 1.7c.1.2.3.3.5.4.2 0 .4 0 .6-.1.2-.1.3-.3.3-.5s-.1-.4-.3-.6l-1.3-1.7.7-.5 1.4 1.5zM72.4 75l-1.3-.7.6 1.3.7-.6zm2 0l-.7.7-.7-.4-1 .9.3.7-.7.6-1.6-3.7.7-.6 3.7 1.8zm-.3-4.2c-.1.1-.3.1-.4.3l-.2.3.7.6.2-.3c.1-.1.2-.3.2-.4 0-.3-.2-.5-.4-.5h-.1m3.1.9l-.7.8-1.6-.3-.2.2 1.1.9-.5.7-2.8-2.4.8-1c.2-.3.5-.5.8-.6.3-.1.7 0 .9.2.4.3.6.8.4 1.3l1.8.2zm.7-3.5l-1.4-.4.8 1.2.6-.8zm1.9-.4l-.5.8-.8-.2-.7 1.2.5.6-.5.8-2.3-3.3.5-.8 3.8.9zm2.2-4.1l-.4.8-3 .3.8.4 1.5.8-.4.8-3.3-1.8.4-.8 3-.3s-.4-.2-.7-.4l-1.5-.8.4-.8 3.2 1.8zm-1.2-5l-.3.9 2.8 1.2-.3.8-2.8-1.2-.3.9-.7-.3 1-2.6.6.3zm3.9-2.5l-.7 2.3-3.6-1 .7-2.3.7.2-.4 1.5.7.2.4-1.4.7.2-.4 1.4.8.2.4-1.5.7.2zm.9-3.9l-.5 2.5-3.6-.8.5-2.3.7.1-.3 1.5.7.1.3-1.4.7.1-.3 1.4.8.2.3-1.6.7.2zm-51.1.8h-7V26.9H22v-5h12.6l-.1 31.2zm17.1.5c-6.2 0-9.9-2.9-11.4-5.1l3.3-4.3c1.8 2.3 4.6 3.7 7.6 3.7 2.6 0 5.8-1.5 5.8-5.3 0-3.7-3-5.2-5.8-5.2-2 0-3.9.6-5.6 1.6l-3.1-1.9 2.3-15.2h18.1v5.6H50l-1 5.6c1.3-.5 2.7-.8 4.1-.7 4.7 0 10.8 3 10.8 10.2s-6.2 11-12.3 11m-20 6.2l-3.9 6.7v4.6H25v-4.5l-3.9-6.8H24l2.3 4.5 2.3-4.5h3zm9.2 11.3h-7.4V59.8h7.2V62h-4.7v2.3h4.4v2.1H36V69h4.8v2.1zm8.3-4.3l-1.4-4.1-1.4 4.1h2.8zm4.3 4.4h-2.9l-.8-2.3h-4l-.7 2.3h-2.7l4.2-11.3h2.7l4.2 11.3zM60.3 62.2c-.4-.2-.9-.3-1.3-.3h-1v2.9h1c.5.1.9 0 1.3-.3s.6-.7.6-1.2c0-.4-.2-.9-.6-1.1m3.8 9H61l-2.3-4.3h-.8v4.3h-2.7V59.8h4c1-.1 2.1.2 2.9.8 1.4 1.2 1.6 3.4.4 4.8-.4.4-.9.8-1.4 1l3 4.8zM9.2 25.8c.3 1 .3 2-.2 2.9-.6 1.5-2.4 2.3-3.9 1.7l-.2-.1c-1.5-.7-2.3-2.5-1.6-4 0-.1.1-.2.1-.2.4-.9 1.1-1.6 2-1.8l.3 1.2c-.6.2-1.1.6-1.3 1.2-.4 1 .2 2.1 1.2 2.5.9.3 1.9 0 2.3-.8.4-.9.2-1.3.2-1.3l-.8-.4-.5 1.2-1-.5L7 25l2.2.8zM11 20.6l-2.2-.7 1.3 1.9.9-1.2zm3.3-.5l-.9 1.3-1.3-.4-1.3 1.8.7 1.1-.8 1.1-3.6-5.4.9-1.2 6.3 1.7zm3.5-3.6L15.4 19l-4.3-4.4 1-1 3.5 3.5 1.5-1.5.7.9zM19 7.8l1.9 6.3-1.1.8-5.5-3.5 1.2-.9 3.7 2.5-1.4-4.2 1.2-1zm6.3.8L23.7 7l.3 2.3 1.3-.7zm3.2 1.1l-1.4.7-.9-.9-1.9 1 .2 1.3-1.3.7-.9-6.5 1.3-.7 4.9 4.4zm6.6-2.2l-1.4.4L30 4.7s.2.7.4 1.3l.8 2.6-1.3.4-1.7-5.9 1.5-.4L33.3 6s-.2-.7-.4-1.3L32.1 2l1.3-.3 1.7 5.8zm1.3-6.4l.8 6.1 1.5-.2-.8-6.1-1.5.2zm7.8 5.2c-.5.4-1 .5-1.6.5-.8 0-1.6-.3-2.2-.9l.7-1.1c.4.4 1 .7 1.6.7.5 0 .8-.2.8-.6s-.5-.5-.8-.6l-.9-.3c-.3-.1-.5-.2-.7-.4-.3-.3-.5-.7-.5-1.2s.2-1 .6-1.4c.5-.4 1-.5 1.6-.5.7 0 1.4.3 1.9.7l-.6 1c-.4-.4-.9-.6-1.4-.6-.5 0-.8.2-.8.6s.3.5.6.6l.9.3c.3.1.6.3.8.5.3.3.5.7.5 1.2.2.6-.1 1.2-.5 1.5m2.5.5l4 .5.2-1.2-2.6-.3.2-1.4 2.3.3.2-1.2-2.3-.3.1-1.2 2.5.3.2-1.2-3.9-.5-.9 6.2zM57.1 4.5c-.2-.4-.6-.7-1.1-.8l-.7-.2L54.2 7l.7.2c.8.4 1.8 0 2.2-.8 0-.1.1-.2.1-.3.2-.5.1-1.1-.1-1.6m-.2 3.9c-.8.3-1.7.3-2.5 0l-1.9-.7 1.9-5.8 2 .6c.8.2 1.5.7 2 1.4.5.8.6 1.7.2 2.5-.2 1-.9 1.7-1.7 2m8 4.6c-.6 0-1.2-.1-1.7-.5-.7-.5-1.2-1.1-1.3-1.9l1.2-.5c.1.6.5 1.1 1 1.5.4.2.8.2 1-.1.2-.3-.1-.7-.3-1l-.6-.8c-.2-.2-.3-.5-.4-.8-.1-.4 0-.9.2-1.3.3-.4.7-.7 1.2-.8.6 0 1.1.1 1.6.4.6.4 1 1 1.2 1.7l-1 .5c-.1-.5-.4-1-.8-1.3-.4-.2-.8-.3-1 0-.2.3 0 .6.2.9l.6.9c.2.3.4.6.5.9.1.5 0 1-.2 1.4-.3.4-.8.7-1.4.8M72.9 13.5l-1.2-1-3.2 3.8-1.1-.9 3.2-3.8-1.2-1 .7-.9 3.5 3-.7.8zm.6 8.1l-2.6-3.1 4.6-4 2.6 3-.9.7-1.7-1.9-.9.8 1.6 1.8-.9.8-1.6-1.8-1.1.9 1.7 2-.8.8zm3.2 4.9l-2.1-3.4 5.1-3.3 2.1 3.4-1 .6-1.3-2.2-1 .7 1.3 2-1 .6-1.3-2-1.2.8 1.4 2.2-1 .6zm2.3 5l-1.4-3.3 5.6-2.5.6 1.3-4.5 2 .8 1.9-1.1.6zM3.4 42.1c0-.5-.4-.9-.9-.9s-.9.4-.9.9.4.9.9.9c.5.1.9-.3.9-.9M85.2 42.1c0-.5-.4-.9-1-.9-.5 0-.9.4-.9.9s.4.9.9.9c.5.1 1-.4 1-.9"/></g></symbol><symbol id="guarantee-ws-nl" viewBox="0 0 87 89"><g fill="currentColor"><path class="st0" d="M1 54.2c-.3-.2-.4-.5-.5-.9-.1-.5.1-1.1.3-1.4l.7.3c-.2.3-.3.8-.3 1.1.1.3.2.5.5.4.3 0 .3-.3.3-.5s.1-.5.1-.6c0-.1.1-.3.2-.5s.3-.4.7-.4c.4-.1.7.1.9.2.2.2.4.5.5.9s0 1-.2 1.3l-.7-.3c.2-.3.3-.6.2-.9-.1-.3-.2-.5-.4-.4-.3-.1-.3.2-.3.3 0 .2-.1.5-.1.6 0 .1-.1.4-.2.6-.1.2-.3.4-.7.4-.4.1-.7 0-1-.2zM4.8 57.6l-.3-.9-3 .8-.2-.9 3-.8-.3-.9.7-.2.8 2.7-.7.2zM3.4 62.5l-.4-1 1.1-1.3L4 60l-1.3.5-.3-.8 3.5-1.4.5 1.3c.2.4.2.7.1 1-.1.3-.3.6-.7.7-.7.3-1.1-.1-1.3-.3l-1.1 1.5zm2.3-2.3c0-.1 0-.3-.1-.5l-.1-.3-.9.3.1.3c.1.2.1.3.3.4.1.1.2.1.4 0 .2 0 .3-.1.3-.2zM6.7 65.7c-.4.3-.8.4-1.2.3-.4-.1-.7-.4-1-.9-.3-.5-.3-.9-.2-1.3.1-.4.4-.6.9-.9l2-1 .4.8-2 1c-.2.1-.4.2-.5.4-.1.2-.1.4 0 .6.1.2.3.3.5.4.2 0 .4 0 .6-.2l2-1 .4.8-1.9 1zM8.3 70.3c-.3-.1-.8-.2-1.2-.9-.6-.9-.5-2.1.5-2.7 1-.7 2.1-.3 2.7.6.4.6.4 1.2.4 1.3l-.7.2c0-.1.1-.6-.2-1-.4-.5-1-.7-1.6-.3-.6.4-.7 1.1-.3 1.6.3.4.6.6.9.6l-.5.6zM12.7 71.7l-.6-.8-2.4 1.9-.6-.7 2.4-1.9-.5-.7.5-.4 1.8 2.2-.6.4zM14.6 75.8c-.4.4-.7.6-1.1.6-.4 0-.8-.2-1.2-.6-.4-.4-.6-.8-.5-1.2 0-.4.2-.7.6-1.1L14 72l.6.6-1.6 1.5c-.2.2-.3.3-.3.5s0 .4.2.6c.2.2.4.2.5.2.2 0 .4-.1.6-.3l1.6-1.5.6.6-1.6 1.6zM17 79.9l-.8-.7.3-1.6-.2-.2-.9 1.1-.7-.5 2.4-2.9 1 .9c.3.3.5.5.6.8.1.3 0 .6-.2.9-.5.6-1 .5-1.3.4l-.2 1.8zm.9-3.2c0-.1-.1-.2-.3-.4l-.3-.2-.6.7.3.2c.2.1.3.2.4.2.1 0 .3 0 .4-.2.1 0 .1-.1.1-.3zM20.1 82L18 80.6l2.1-3.1 2 1.4-.4.6-1.3-.9-.4.6 1.2.8-.4.6-1.2-.8-.5.7 1.3.9-.3.6zM23.3 83.9l-1.9-1.1 1.8-3.3.8.4-1.5 2.7 1.1.6-.3.7zM26.8 85.5l-2.3-1 1.5-3.4 2.2 1-.2.6-1.4-.7-.3.7 1.3.6-.3.7-1.3-.6-.4.8 1.5.7-.3.6zM30.9 86.9l-.9-.2 1.1-3.6.8.3-1 3.5zM35.8 88.1l-.9-.2-1.1-2.9-.2.8-.4 1.7-.8-.2.8-3.7.9.2 1 2.8.2-.8.4-1.7.8.2-.7 3.8zM40.3 85.6l-1-.1-.3 3-.9-.1.3-3.1-1-.1.1-.7 2.8.3v.8zM43.8 88.8h-2.5l.1-3.8h2.4v.7h-1.6v.8h1.5v.7h-1.5v.9h1.6v.7zM48.7 87.9c-.2.2-.6.7-1.6.8-1 .1-2-.5-2.1-1.8-.1-1.3.8-2 1.8-2.1 1-.1 1.5.4 1.6.5l-.5.6c-.2-.2-.5-.4-1-.4-.6.1-1 .5-1 1.3.1.8.6 1.2 1.2 1.1.6-.1.8-.3.8-.3V87l-.9.1-.1-.7 1.7-.1.1 1.6zM53.3 87.6l-1 .2-1.1-1.3-.2.1.3 1.4-.9.2-.7-3.7 1.3-.3c.4-.1.8-.1 1 .1.3.1.5.4.6.8.1.7-.3 1.1-.5 1.2l1.2 1.3zm-1.8-2.7c-.1-.1-.3 0-.5 0l-.3.1.2.9.3-.1c.2 0 .3-.1.4-.2.1-.1.2-.2.1-.4 0-.1-.1-.2-.2-.3zM55.4 87.1l-.9.2-1-3.6.9-.2 1 3.6zM58.2 82.9l-.9.3 1 2.9-.8.3-1-2.9-.9.3-.2-.7 2.7-1 .1.8zM62.8 84.2l-2.3 1-1.6-3.4 2.2-1 .3.6-1.4.7.3.7 1.3-.6.3.6-1.3.6.4.8 1.5-.7.3.7zM64.9 83.1l-.8.4-1.8-3.3.8-.4 1.8 3.3zM66.7 78.3l-.8.5 1.7 2.6-.7.5-1.7-2.6-.8.5-.4-.6 2.4-1.6.3.7zM73.2 76.1c0 .3 0 .9-.8 1.6-.8.7-1.9.8-2.8-.1-.8-.9-.6-2.1.2-2.8.7-.7 1.4-.6 1.6-.5l-.1.7c-.2 0-.6 0-1 .3-.5.4-.5 1 0 1.6.5.6 1.2.6 1.6.2s.4-.7.4-.7L72 76l-.6.5-.4-.5 1.2-1.1 1 1.2zM77 72.9l-.6.7-.7-.3-.9 1 .4.7-.6.7-1.9-3.6.6-.7 3.7 1.5zm-2 .1l-1.3-.6.7 1.3.6-.7zM79.6 69.4l-.6.8-1.7-.2-.2.2 1.2.8-.5.7-3.1-2.2.8-1.1c.2-.3.5-.6.8-.6.3-.1.6-.1.9.2.6.4.5 1 .4 1.2l2 .2zm-3.2-.7c-.1 0-.2.1-.3.3l-.2.3.8.6.2-.3c.1-.2.2-.3.2-.4 0-.1 0-.3-.2-.4-.2-.2-.4-.2-.5-.1zM82 65.4l-.5.8-.8-.2-.7 1.2.5.6-.5.8-2.6-3.1.5-.8 4.1.7zm-2 .5l-1.4-.3.9 1.1.5-.8zM83.9 61l-.4.8-3 .5s.4.2.8.3l1.6.7-.3.8-3.5-1.5.4-.9 3-.5s-.4-.2-.8-.3l-1.6-.7.3-.8 3.5 1.6zM82.3 56.1l-.3.9 2.9.9-.3.8-2.9-.9-.3.9-.7-.2.9-2.7.7.3zM85.8 54.9l-.2.9-3.7-.9.2-.9 3.7.9zM86.5 50.8l-.4 2.5-3.7-.6.4-2.4.7.1-.2 1.5.8.1.2-1.5.7.1-.2 1.5.9.1.3-1.6.5.2zM34.4 53.1h-7.1V26.8h-5.7v-5h12.8v31.3zM52.4 53.7c-9.2 0-13-7.9-13-16.2s3.9-16.2 13-16.2 13 7.9 13 16.2-3.9 16.2-13 16.2zm0-26.3c-4 0-5.8 4.3-5.8 9.9s1.7 10 5.8 10 5.8-4.4 5.8-10-1.8-9.9-5.8-9.9zM28.4 71.1c0 1.2-.2 2-.7 2.6-.4.5-1.1.8-2.1.8-.8 0-1.5-.2-1.7-.2l.1-2c.2.1.5.1.9.1.6 0 .8-.5.8-1.3V60h2.6v11.1zM41.7 71.3h-2.9l-.8-2.2h-4l-.8 2.3h-2.8L34.6 60h2.8l4.3 11.3zM37.4 67L36 62.9 34.5 67h2.9zM53.8 71.3h-2.9l-.8-2.3h-4l-.8 2.3h-2.8L46.8 60h2.8l4.2 11.3zM49.5 67l-1.4-4.1-1.4 4.1h2.8zM64.8 71.3h-3.1L59.3 67h-.8v4.3h-2.7V60h4.1c1.3 0 2.3.3 3 .8.8.6 1.2 1.5 1.2 2.6 0 2.2-1.4 3-2.2 3.3l2.9 4.6zm-4-9c-.3-.2-.8-.3-1.4-.3h-1.1v3h1.1c.6 0 1-.1 1.4-.3.3-.2.6-.6.6-1.2s-.2-.9-.6-1.2zM5.9 20l4.6 4.5-.7 1.3-4.3-1 3.2 3-.7 1.3-6.3-1.4.7-1.3 4.2 1-3.1-3 .7-1.3 4.2 1-3.2-2.9.7-1.2zM15.4 18.3l-2.7 3.1-4.7-4 2.6-3 .9.8L9.9 17l1 .8 1.6-1.8.9.8-1.6 1.8 1.1.9 1.7-2 .8.8zM20.3 14l-3.1 2.6-3.9-4.8 3.1-2.6.7.9-2 1.6.8 1 1.9-1.5.7.9-1.9 1.5.9 1.1 2-1.7.8 1zM26.5 10.2l-1.4.8-2.3-1.4-.4.2 1.2 2.1-1.3.7-3.1-5.4 1.9-1.1c.6-.3 1.1-.5 1.6-.4.5.1 1 .4 1.3.9.6 1 .2 1.8-.2 2.1l2.7 1.5zM22.3 7c-.2 0-.4.1-.7.2l-.6.3.8 1.4.5-.3c.3-.2.5-.3.6-.5.1-.2.1-.4 0-.7-.2-.3-.4-.4-.6-.4zM31.2 1.8l-.1 6.6-1.3.5-4.2-5.1 1.5-.5 2.8 3.5-.1-4.5 1.4-.5zM40.4 6.5l-1.6.2-.6-1.2-2.2.4-.2 1.3-1.5.2L35.7.9l1.5-.2 3.2 5.8zm-2.7-2l-1.1-2.1-.4 2.3 1.5-.2zM45.7 6.1c-.4.3-1 .5-1.7.5-.9 0-1.7-.5-2.2-1l.7-1c.4.5 1.1.8 1.6.8s.8-.2.8-.6c0-.4-.4-.6-.7-.7-.3-.1-.7-.3-.9-.4-.2-.1-.5-.2-.7-.5-.2-.2-.4-.6-.4-1.2s.3-1.1.7-1.3c.4-.3.9-.5 1.6-.5.7 0 1.5.4 1.9.8l-.6 1c-.4-.4-.9-.6-1.4-.7-.5 0-.8.2-.8.5 0 .4.3.5.6.6.3.1.7.3.9.4.3.2.7.4.9.7.3.3.5.6.5 1.2 0 .5-.3 1.1-.8 1.4zM53.6 2.6L52 2.3l-.9 5-1.4-.3.9-5-1.6-.3.2-1.1 4.6.8-.2 1.2zM61.3 10.4c-.5.1-1.1 0-1.7-.2-.8-.4-1.4-1.2-1.6-1.8l1.1-.7c.2.6.7 1.2 1.1 1.4.4.2.8.1 1-.2.2-.4-.2-.7-.4-.9-.2-.2-.6-.5-.7-.7-.1-.1-.3-.4-.5-.7-.1-.3-.2-.8.1-1.3.3-.5.7-.8 1.2-1 .4-.1 1-.1 1.7.2.6.3 1.3 1 1.5 1.5l-1 .7c-.2-.5-.6-1-1-1.2-.4-.2-.8-.2-1 .2-.2.3.1.6.3.8.2.2.5.6.7.7.1.1.4.4.6.8.1.3.2.8-.1 1.3-.3.6-.7 1-1.3 1.1zM70 10.4l-1.3-.9-2.8 4.2-1.2-.8 2.8-4.2-1.3-.9.6-.9 3.8 2.6-.6.9zM72.2 19.2l-1.1-1.1.5-1.2-1.6-1.5-1.2.6-1.1-1 5.9-2.9 1.1 1-2.5 6.1zm-.1-3.3l1-2.1-2.1 1 1.1 1.1zM76.7 25.3l-.9-1.3.8-1.1-1.3-1.8-1.3.4-.9-1.2 6.4-1.7.9 1.2-3.7 5.5zm.6-3.3l1.4-1.9-2.3.7.9 1.2zM79.2 30.4l-1.5-3.2 5.6-2.7.6 1.3-4.5 2.1.9 1.9-1.1.6zM1.8 43.1c.5 0 1-.4 1-1s-.4-1-1-1c-.5 0-1 .4-1 1s.5 1 1 1zM84.9 43.1c.5 0 1-.4 1-1s-.4-1-1-1-1 .4-1 1 .5 1 1 1z"/></g></symbol><symbol id="guarantee-ws-no" viewBox="0 0 87 89"><g fill="currentColor"><path class="st0" d="M40.5 70.8l-.8-2.3h-4l-.8 2.3h-2.7l4.2-11.3h2.7l4.2 11.3h-2.8zm-2.7-11.6c-1 0-1.9-.6-1.9-1.7s.9-1.7 1.9-1.7c1 0 1.9.6 1.9 1.7s-.9 1.7-1.9 1.7zm-.1 3.2l-1.4 4.1h2.8l-1.4-4.1zm.1-5.7c-.5 0-.8.3-.8.8s.3.8.8.8.8-.3.8-.8-.3-.8-.8-.8zM51.2 70.8l-2.4-4.3H48v4.3h-2.7V59.5h4.1c2.2 0 4.2.9 4.2 3.4 0 2.1-1.4 3-2.2 3.2l2.9 4.7h-3.1zM49 61.6h-1v2.9h1c1 0 1.9-.3 1.9-1.5s-.9-1.4-1.9-1.4zM27.6 52.4v-26H22v-5h12.6v31h-7zM52.4 53c-9.1 0-12.8-7.8-12.8-16s3.8-16 12.8-16 12.8 7.8 12.8 16c0 8.1-3.8 16-12.8 16zm0-26c-4 0-5.7 4.2-5.7 9.8s1.7 9.9 5.7 9.9 5.7-4.3 5.7-9.9c0-5.6-1.7-9.8-5.7-9.8zM8.5 28.6c-.7 1.5-2.2 2.3-3.9 1.5s-2.1-2.4-1.5-3.9c.5-1.1 1.2-1.5 1.4-1.5l.8.8c-.2 0-.8.4-1.1 1.1-.4.9-.1 1.8.9 2.3 1 .4 1.9 0 2.3-.9.3-.6.2-1.2.1-1.6h1.1c.2.3.4 1.1-.1 2.2zM13.9 20.1c-1.1 1.3-2.8 1.6-4.2.4-1.4-1.2-1.4-2.9-.3-4.2 1.1-1.3 2.8-1.6 4.2-.4 1.4 1.2 1.4 2.9.3 4.2zm-3.7-3c-.6.7-.5 1.7.3 2.4s1.8.6 2.4-.1c.6-.7.5-1.7-.3-2.4s-1.8-.6-2.4.1zM22.4 12.4l-2.2-1.1-.4.2 1.2 1.8-1 .7-3.2-4.7 1.7-1.2c.9-.6 2-.8 2.7.2.6.9.3 1.6 0 2l2.5 1.1-1.3 1zm-3.6-3.2l-.4.3.8 1.2.4-.3c.4-.3.7-.7.4-1.2-.3-.5-.7-.3-1.2 0zM29 3.9l1.6 4.3-1.3.5-1.6-4.3-1.4.5-.4-1 4-1.5.4 1-1.3.5zM37.4 6.6L36.8.9l3.7-.4.1 1.1-2.3.3V3l2.2-.2.1 1.1-2.2.1.1 1.3 2.5-.2.1 1.1-3.7.4zM50.6 6.8l-1.9-4.2s-.1.7-.2 1.3l-.4 2.5-1.3-.2.9-5.6 1.4.2L51 4.9l.2-1.2.4-2.6 1.3.2-1 5.7-1.3-.2zM59 9.5c-.8-.3-1.2-1-1.5-1.6l1-.6c.2.6.7 1.1 1.1 1.3.4.2.8.1.9-.2.2-.4-.2-.7-.4-.8-.1-.3-.4-.6-.6-.7-.1-.1-.3-.3-.4-.6-.1-.3-.2-.7 0-1.2s.6-.8 1.1-.9c.4-.1 1-.1 1.6.2.6.3 1.2.9 1.4 1.4l-.9.6c-.2-.4-.5-.9-.9-1-.4-.2-.7-.1-.9.2-.1.3.1.6.3.8l.6.6c.6.5.8 1.2.5 1.9-.6 1-1.9 1.1-2.9.6zM70.5 11l-2.9 3.7-1.1-.8 2.9-3.7-1.2-.9.6-.8 3.4 2.6-.6.8-1.1-.9zM74.5 21.9l.6-1-1.3-1.6-1.1.4-.9-1.1 5.8-1.8.9 1.1-3.1 5.1-.9-1.1zm2.5-3.7l-2 .7.9 1.1 1.1-1.8zm1.3-1c-.3-.4-.4-.9.1-1.3.4-.3.9-.2 1.3.2.3.4.4.9-.1 1.3s-1 .2-1.3-.2zm1-.8c-.1-.2-.4-.2-.6-.1-.2.1-.2.4-.1.6.1.2.4.2.6.1.2-.2.2-.4.1-.6zM78.1 27.8l5.2-2.3.5 1.2-4.2 1.9.8 1.8-1 .4-1.3-3zM3.6 58.9l-.2-.5-1.5.5-.3-1 4.2-1.5.5 1.6c.3.9.2 1.6-.8 2-.9.3-1.6-.2-1.9-1.1zm1.9-.8l-.1-.4-1.1.4.1.4c.1.4.4.6.8.5.4-.2.4-.5.3-.9zM5.9 67.3l1-1.6-.2-.3-1.5.9-.5-.9 3.8-2.2.8 1.4c.4.7.5 1.6-.3 2.1-.7.4-1.3.1-1.5-.1l-1 1.9-.6-1.2zm2.6-2.5l-.2-.4-1 .6.2.4c.2.3.5.6.9.4.4-.3.3-.7.1-1zM10.6 73.9c-.9-1-.9-2.3.1-3.3 1.1-.9 2.4-.7 3.3.2.9 1 .9 2.3-.1 3.3-1.1.9-2.4.7-3.3-.2zm2.7-2.5c-.5-.6-1.3-.6-1.9-.1-.6.6-.7 1.3-.2 1.9.5.6 1.3.6 1.9.1.7-.6.7-1.3.2-1.9zM17.1 79.8l-1.2-.9 2.6-3.5 1.2.9c1.1.8 1.5 2 .6 3.2-.8 1.1-2 1.1-3.2.3zm2.2-2.8l-.4-.3-1.6 2.1.4.3c.7.5 1.4.4 1.8-.3.5-.7.5-1.3-.2-1.8zM26.5 84.7c-.4.2-.9.1-1.5-.1-.6-.3-.9-.6-1.1-1.1-.1-.4-.1-.9.2-1.4l1.1-2.3.9.4-1.1 2.3c-.1.3-.2.5-.1.7.1.2.2.4.5.5.3.1.5.1.7 0 .2-.1.3-.3.5-.6l1.1-2.3.9.4-1.1 2.3c-.3.7-.6 1-1 1.2zM34 87.5l-.6-2-.4.3-.3 1.4-1-.2 1-4.3 1 .2-.4 1.6 1.7-1.2 1.2.3-1.9 1.3 1 3-1.3-.4zM41.8 84.9l-.2 3.6-1-.1.2-3.6-1.1-.1v-.8l3.3.2v.8h-1.2zM49.3 88.2c-1.2.2-2.4-.5-2.6-2-.2-1.5.8-2.4 2-2.5 1.2-.1 1.7.4 1.9.5l-.6.7c-.2-.2-.6-.4-1.2-.4-.7.1-1.2.7-1.1 1.6.1.9.7 1.3 1.4 1.2.7-.1.9-.4.9-.4v-.6l-.9.1-.1-.8 1.9-.3.2 1.8c-.2.3-.6 1-1.8 1.1zM58.8 85.8l-.6-.7-1.5.5v.9l-1 .4.1-4.7 1-.4 3 3.6-1 .4zm-2.1-2.7v1.7l1-.4-1-1.3zM66.1 82.2l-1.6-1-.3.2.8 1.5-.9.5-2.2-3.8 1.4-.8c.7-.4 1.6-.5 2.1.3.4.7.1 1.3-.1 1.5l1.9 1-1.1.6zm-2.5-2.7l-.4.2.6 1 .4-.2c.3-.2.6-.5.4-.9-.3-.3-.7-.2-1-.1zM73.1 77l-.8-.5-1.2 1 .4.9-.8.7-1.7-4.4.8-.7 4.2 2.2-.9.8zm-3-1.8l.6 1.6.8-.7-1.4-.9zM79 70.4l-3.5-.3.8.6 1.6 1.2-.6.8-3.5-2.7.7-.9 3.5.3-.8-.6-1.6-1.2.6-.8 3.5 2.7-.7.9zM79.9 61.9l3.2 1.6-.5.9-3.2-1.6-.5 1-.7-.4 1.5-3 .7.4-.5 1.1zM85.2 58.1L81 56.8l.3-1 4.2 1.3-.3 1zM84.5 45c.5 0 1-.4 1-1s-.4-1-1-1c-.5 0-1 .4-1 1s.5 1 1 1zM2.5 45c.5 0 1-.4 1-1s-.4-1-1-1-1 .4-1 1 .4 1 1 1z"/></g></symbol><symbol id="guarantee-ws" viewBox="0 0 87 89"><g fill="currentColor"><path class="st0" d="M2.5 55.5c-.3-.2-.5-.5-.5-.9-.1-.5 0-1 .3-1.4l.7.3c-.2.3-.3.7-.2 1.1-.1.2.1.4.4.4s.3-.4.3-.5 0-.5.1-.6c0-.2.1-.3.2-.5s.4-.4.6-.4c.3-.1.6 0 .9.2.3.2.4.5.5.9.1.4 0 .9-.2 1.2l-.7-.3c.2-.3.2-.6.2-.9-.1-.3-.2-.5-.4-.4-.2 0-.3.3-.3.5s-.1.5-.1.6c0 .2-.1.4-.2.6-.1.2-.4.4-.6.4-.4 0-.8-.1-1-.3M6.4 58.8l-.3-.9-2.9.9-.3-.8 3-.9-.3-.9.7-.2.7 2.6-.6.2zM7.3 61.4c0-.2 0-.3-.1-.5l-.1-.3-.9.4.1.3c.1.2.1.3.3.4.1.1.3.1.4 0 .2-.1.3-.2.3-.3m-2.2 2.3l-.4-.9 1-1.3-.1-.2-1.3.6-.4-.9 3.5-1.5.5 1.2c.2.3.2.7.1 1-.2.6-.8.9-1.4.8-.2-.1-.4-.2-.5-.3l-1 1.5zm3.5 3.1c-.3.2-.8.3-1.2.3-.9-.3-1.3-1.2-1.2-2.1.1-.4.4-.7.8-.8l1.9-1.1.4.8L7.4 65c-.1 0-.3.1-.4.3-.1.4.1.8.5.9.3.1.5 0 .7-.2l1.9-1.1.4.7-1.9 1.2zm1.7 4.5c-.5-.1-.9-.4-1.2-.8-.8-.7-.9-1.9-.2-2.7.7-.8 1.9-.9 2.7-.2.2.1.3.3.4.5l.1.2c.3.4.4.8.4 1.3l-.7.2c.1-.4 0-.7-.2-1-.5-.5-1.2-.5-1.7 0-.4.4-.4.9-.2 1.3.2.3.5.5.9.6l-.3.6zM14.7 72.6l-.6-.7-2.3 2-.6-.7 2.3-2-.7-.7.5-.5 1.8 2.1-.4.5zM16.7 76.5c-.3.3-.6.6-1.1.6-.9-.1-1.7-.8-1.8-1.7 0-.4.2-.8.6-1.1l1.5-1.6.6.6-1.5 1.6c-.2.1-.3.3-.3.5 0 .4.3.7.7.7.2-.1.4-.2.5-.4l1.5-1.5.6.6-1.3 1.7zm3.3.9c-.1-.1-.2-.3-.3-.4l-.3-.2-.6.8.3.2c.1.1.3.2.4.2.2 0 .3-.1.4-.2.1-.1.2-.2.1-.4m-.8 3.2l-.8-.6.3-1.6-.2-.2-.9 1.2-.7-.5 2.3-3 1.1.8c.3.2.5.5.6.8.1.6-.2 1.2-.9 1.4h-.6l-.2 1.7zM22.7 81.1l.3-1.3-1.1.9.8.4zm.5 2l-.8-.5.2-.8-1.2-.7-.6.5-.8-.5 3.2-2.5.8.5-.8 4zm3.1 1.5l-1.9-1 1.7-3.4.8.4-1.3 2.7 1.2.6-.5.7zm3 1.2l1.3-3.5.8.3-1.3 3.5-.8-.3zm5.7 1.7l-.9-.2-1-2.9-.1.8-.4 1.6-.8-.2 1-3.6.9.2.9 2.8.2-.8.4-1.7.8.2-1 3.8zm1.8-2.7l1 .2-.5 3 .9.1.5-3 1 .2.1-.7-2.8-.4-.2.6zm3.7 3.5l2.5.2v-.7l-1.6-.1.1-.9 1.5.1v-.7l-1.5-.1v-.8l1.6.1v-.7l-2.4-.2-.2 3.8zM47.9 87.8c-.4.5-1 .7-1.6.7-1.1 0-1.9-.9-1.9-2 0-1 .8-1.8 1.7-1.9.6-.1 1.2.2 1.6.6l-.6.5c-.3-.3-.6-.4-1-.4-.7 0-1.2.6-1.1 1.3 0 .7.6 1.2 1.3 1.1.6 0 .8-.3.8-.3v-.5h-.8v-.7l1.6-.1v1.7zm2.8-2.8h-.9l.1.9h.4c.2 0 .3-.1.4-.2.2-.2.2-.5 0-.7m1.8 2.8l-1.1.2-1-1.3h-.3l.2 1.4-.9.1-.6-3.7 1.3-.2c.3-.1.7 0 1 .1.3.2.5.4.5.8.1.5-.1 1-.6 1.2l1.5 1.4zM52.8 83.8l.9-.2.8 3.7-.9.2-.8-3.7zm4.7-.6l-.9.3.9 2.9-.8.3-.9-2.9-.9.3-.2-.7 2.7-.8.1.6zm3.6-2.1l-.4 2.5.6 1.4-.8.3-.6-1.4-2.1-1.6.9-.4L60 83l.1-1.7 1-.2zM73.7 74.9l-1.3-.6.6 1.3.7-.7zm2 0l-.7.7-.7-.4-1 .9.3.7-.6.7-1.6-3.6.7-.6 3.6 1.6zm-.3-4.2c-.2.1-.3.2-.4.3l-.2.3.7.6.2-.3c.1-.1.2-.3.2-.4 0-.3-.2-.5-.4-.5h-.1m3.1.9l-.7.8-1.6-.3-.2.2 1.1.9-.6.7-2.9-2.3.9-1c.2-.3.5-.5.8-.6.6-.1 1.2.4 1.3 1v.5l1.9.1zm.7-3.5l-1.4-.4.9 1.2.5-.8zm2-.3l-.5.8-.8-.2-.7 1.2.5.6-.5.8-2.3-3.3.5-.8 3.8.9zm2.2-4.2l-.4.8-3 .3.8.4 1.5.8-.4.8-3.3-1.7.4-1 3-.3-.7-.4-1.5-.8.4-.8 3.2 1.9zm-1.2-4.9l-.4.9 2.8 1.2-.3.8-2.8-1.2-.4.9-.6-.3 1-2.6.7.3zm3.9-2.5l-.7 2.3-3.6-1.1.7-2.3.7.2-.4 1.5.7.2.4-1.4.7.2-.4 1.4.8.2.5-1.5.6.3zm.9-3.9l-.5 2.4-3.7-.7.5-2.3.7.1-.3 1.5.8.1.3-1.4.7.1-.3 1.4.9.2.3-1.6.6.2zm-51.6.8h-7.1V26.9h-5.6v-5h12.7v31.2zm17.8-25.6c-4 0-5.7 4.3-5.7 9.9s1.7 10 5.7 10S59 43 59 37.4s-1.8-9.9-5.8-9.9m0 26.1c-9.1 0-12.9-7.9-12.9-16.1s3.8-16.1 12.9-16.1 12.9 7.9 12.9 16.1-3.8 16.1-12.9 16.1m-20.9 6.3l-3.9 6.7v4.6h-2.6v-4.6l-3.9-6.7h2.9l2.3 4.5 2.3-4.5h2.9zm9.4 11.3h-7.5V59.9h7.3V62h-4.7v2.3h4.4v2.1h-4.4V69h4.8l.1 2.2zm8.5-4.3l-1.4-4.1-1.4 4.1h2.8zm4.3 4.3h-2.9l-.8-2.3h-4l-.8 2.3h-2.7l4.2-11.3h2.8l4.2 11.3zm7-9c-.4-.2-.9-.3-1.4-.3H59v2.9h1.1c.4 0 .9 0 1.3-.3.6-.5.8-1.3.4-2-.1 0-.3-.2-.3-.3m3.8 9h-3.1l-2.3-4.3h-.8v4.3h-2.7V59.9h4.1c1.1-.1 2.1.2 3 .8.8.6 1.3 1.6 1.2 2.6.1 1.5-.8 2.8-2.2 3.2l2.8 4.7zm-60.6-47L8 26.9l-4.2-.7-.6 1.3 3.3 2.7-4.2-.7-.6 1.4 6.3.8.6-1.3-3.4-2.8 4.3.7.6-1.3-4.9-4.2-.5 1.4zm9.6-3.3L12 24.2l-5-3.6 2.3-3.2.9.7-1.5 2.1 1 .7 1.4-1.9.9.7-1.4 1.9 1.2.8 1.5-2.1 1 .6zm1.8-5.4l-2.1-1 1 2.1 1.1-1.1zm3.3 0l-1.1 1.1-1.2-.6-1.6 1.5.6 1.2-1.1 1.1-2.7-6 1.1-1.1 6 2.8zm1-6.8l-1.3.9 3 4-1.2.9-2.9-4-1.3.9-.7-.9 3.7-2.7.7.9zm9.1.8l-1.3.6L27 7.8l-2.2 1.1 1.2 2.3-1.3.6L22 6.3l1.3-.6 1.1 2.1 2.2-1.1-1.1-2.1 1.3-.6 2.7 5.5zm5.8-1.9l-3.8 1.2-1.8-5.9 3.8-1.2.3 1.2-2.5.7.4 1.2 2.4-.8.3 1.1-2.3.7.4 1.4 2.5-.7.3 1.1zm4-5.6c-.2-.1-.5-.1-.7-.1L38 2l.2 1.6.6-.1c.3 0 .5-.1.7-.3.2-.2.3-.4.2-.7 0-.1-.2-.4-.4-.5M42 6.6l-1.7.2-1.5-2.2-.4.1.3 2.3-1.4.2-.8-6.1 2.2-.3c.6-.1 1.1 0 1.7.2.5.3.8.8.9 1.3.2.8-.2 1.6-1 1.9L42 6.6zm1.6 0l.1-6.1h1.4L45 6.6h-1.4zM52.7 7.5l-1.5-.2-2.1-4.6-.2 1.4-.4 2.8-1.4-.2.9-6 1.5.2 2 4.5s.1-.7.2-1.3l.4-2.8 1.4.2-.8 6zM60.4 9c-.9.4-2 .5-2.9.1-1.6-.5-2.5-2.2-2-3.8 0-.1 0-.2.1-.3.5-1.6 2.2-2.5 3.8-2l.3.1c.9.3 1.7 1 2 1.9l-1.2.5c-.2-.6-.7-1-1.2-1.2-.9-.3-1.9.1-2.3 1v.2c-.4.9-.1 2 .8 2.4l.2.1c.9.3 1.3.1 1.3.1l.3-.9-1.2-.4.4-1 2.5.9-.9 2.3zm7 4.8c-.6 0-1.2-.2-1.7-.5-.7-.5-1.1-1.2-1.3-2l1.2-.5c.1.6.5 1.2 1 1.6.4.3.8.3 1-.1.2-.3 0-.7-.2-1s-.5-.6-.6-.8c-.2-.2-.3-.5-.4-.8-.1-.4 0-.9.2-1.2.4-.4.9-.7 1.4-.7.6 0 1.2.2 1.6.5.6.4 1 1 1.2 1.7l-1.1.5c-.1-.5-.4-1-.8-1.3-.4-.3-.8-.3-1 0-.2.3 0 .6.2.9l.6.8c.2.3.3.6.4.9.1.4 0 .9-.2 1.2-.3.5-.9.8-1.5.8M75.5 14.8l-1.2-1.1-3.4 3.7-1.1-1 3.4-3.7-1.2-1.1.8-.8 3.4 3.1-.7.9zm.2 8l-2.5-3.2 4.8-3.8 2.5 3.1-.9.7-1.6-2-1 .8 1.5 1.9-.9.7-1.5-1.9-1.2.9 1.6 2.1-.8.7zm3.1 5.2l-2-3.5 5.3-3.1 1.9 3.5-1 .6-1.3-2.2-1.1.6 1.2 2.1-1 .6-1.2-2.1-1.2.7 1.3 2.3-.9.5zm2.1 5.1l-1.3-3.3 5.7-2.2.5 1.3-4.7 1.8.8 2-1 .4zM2 42.1c0-.5-.4-1-1-1s-1 .4-1 1 .4 1 1 1c.5 0 .9-.5 1-1m85 0c0-.5-.4-1-.9-1s-1 .4-1 1c0 .5.4 1 1 1 .5 0 .9-.5.9-1M68.3 81.1c-.1.6-.5 1.1-1.1 1.4-.8.6-2 .4-2.6-.4 0 0-.1-.1-.1-.2-.5-1-.2-2.2.8-2.7.5-.3 1-.3 1.5-.2l-.2.7c-.3-.1-.7-.1-1 .1-.5.3-.7 1-.4 1.5l.1.1c.2.5.9.8 1.4.5 0 0 .1 0 .1-.1.5-.3.5-.6.5-.6l-.3-.5-.7.4-.4-.6 1.4-.9 1 1.5zm3.1-3.6c.3.3.5.7.4 1.2-.2.9-1 1.5-1.9 1.5-.4-.1-.8-.4-1-.7l-1.3-1.7.7-.5 1.3 1.7c.1.2.3.3.5.4.4.1.8-.2.8-.6 0-.2-.1-.4-.3-.6l-1.3-1.7.7-.5 1.4 1.5z"/></g></symbol><symbol id="heart-solid" viewBox="0 0 512 512"><path fill="currentColor" d="M462.3 62.6C407.5 15.9 326 24.3 275.7 76.2L256 96.5l-19.7-20.3C186.1 24.3 104.5 15.9 49.7 62.6c-62.8 53.6-66.1 149.8-9.9 207.9l193.5 199.8c12.5 12.9 32.8 12.9 45.3 0l193.5-199.8c56.3-58.1 53-154.3-9.8-207.9z"/></symbol><symbol id="heart" viewBox="0 0 512 512"><path fill="currentColor" d="M458.4 64.3C400.6 15.7 311.3 23 256 79.3 200.7 23 111.4 15.6 53.6 64.3-21.6 127.6-10.6 230.8 43 285.5l175.4 178.7c10 10.2 23.4 15.9 37.6 15.9 14.3 0 27.6-5.6 37.6-15.8L469 285.6c53.5-54.7 64.7-157.9-10.6-221.3zm-23.6 187.5L259.4 430.5c-2.4 2.4-4.4 2.4-6.8 0L77.2 251.8c-36.5-37.2-43.9-107.6 7.3-150.7 38.9-32.7 98.9-27.8 136.5 10.5l35 35.7 35-35.7c37.8-38.5 97.8-43.2 136.5-10.6 51.1 43.1 43.5 113.9 7.3 150.8z"/></symbol><symbol id="logo" viewBox="0 0 225 35"><g fill="currentColor"><path d="M11.1 16.9c-.8-.3-1.5-.6-2.6-.9-1.9-.6-3.8-1.3-3.8-2.8s1.2-2.3 3.1-2.3c1.8 0 3.6.8 4.9 2l1.6-2.3C13 9.3 11.1 8.1 7.7 8.1S1.2 10 1.2 13.5c0 2 1.2 3.8 3 4.5.8.4 1.7.7 2.6 1 1.3.4 4.3 1.1 4.3 3.1 0 2.1-1.9 2.7-3.7 2.7-2.2-.1-4.2-1.1-5.7-2.7L0 24.4c1.8 2.2 4.6 3.5 7.5 3.4 1.9.1 3.8-.5 5.3-1.7 1.3-1.1 2-2.6 2-4.3 0-1.3-.5-2.6-1.5-3.5-.8-.6-1.4-1-2.2-1.4zM25.2 24.5c-.8.1-1.6-.3-2-1-.4-1.1-.6-2.3-.5-3.5v-8.5h4.6v-3h-4.6V2.9h-3.8v5.7h-2.8v3h2.8v8.6c0 3 .2 4.5 1 5.6.9 1.3 2.5 2.1 4.1 1.9 1.2 0 2.4-.2 3.5-.6l-.2-3.1c-.7.3-1.4.5-2.1.5zM33.8 11.3l-.1-2.9h-3.9v18.8h3.9v-9.3c-.1-1.7.3-3.3 1.2-4.8.7-1 1.9-1.6 3.2-1.6.7 0 1.4.1 2.1.4h.2l.2-3.5c-.6-.2-1.3-.3-2-.3-2.2.1-4.1 1.3-4.8 3.2zM49.4 8.2c-2.5 0-5 .7-7.2 1.9l1.2 2.5c1.8-1 3.8-1.6 5.8-1.6 2.8 0 4.8 1.4 4.8 4.3v.7l-5.2.1c-4.5.2-7.5 2.1-7.5 5.8s3.1 5.8 6.6 5.8c2.4 0 4.6-1 6.1-2.8v2.4h3.8v-11c0-3.2-.8-4.8-2.1-6.1-1.2-1.2-3.1-2-6.3-2zM54 22.3C52.9 24 51.1 25 49.1 25c-2.5 0-4-1.5-4-3.3s1.3-3.1 4.4-3.3l4.5-.3v4.2zM65.8 8.5H62v18.8h3.9V8.5zM63.9 0c-1.3.1-2.3 1.2-2.3 2.5.1 1.3 1.2 2.3 2.5 2.2 1.3-.1 2.3-1.1 2.3-2.4S65.3 0 63.9 0c.1 0 0 0 0 0zM85.2 11.4c-1.6-2.2-4.1-3.5-6.8-3.3-4.9 0-9.3 3.5-9.3 9.4s4.3 9.4 9.3 9.4c2.7.1 5.2-1.2 6.7-3.4h.1v1c0 2.6-.7 4.4-1.5 5.3-.8 1-2.4 2.1-5.3 2.1-2.5-.1-4.9-.9-6.9-2.4l-1.8 2.6c2.5 1.8 5.5 2.8 8.6 2.8 4.8 0 7.2-1.9 8.6-3.6 1.4-1.7 2.1-4 2.1-8.1V8.5h-3.9l.1 2.9zM79.1 24c-3.9 0-6.1-2.8-6.1-6.4s2.2-6.4 6.1-6.4c4 0 6.1 2.9 6.1 6.4S83.1 24 79.1 24zM103.3 8.2c-2.5-.1-4.7 1.2-5.9 3.3h-.1V0h-3.9v27.2h3.9V18c0-3.8 1.5-6.8 5-6.8s4 2.7 4 5.4v10.6h3.9V16.1c-.1-4.5-1.4-7.9-6.9-7.9zM121.3 24.5c-.8.1-1.6-.3-2-1-.4-.8-.5-1.9-.5-3.5v-8.5h4.6v-3h-4.6V2.9h-3.9v5.7h-2.8v3h2.8v8.6c0 3 .2 4.5 1 5.6.9 1.3 2.5 2.1 4.1 1.9 1.2 0 2.4-.2 3.5-.6l-.2-3.1c-.6.3-1.3.5-2 .5zM133.5 13.8c.3-.4.6-.8 1.1-1 .5-.3 1-.4 1.5-.4.4 0 .8 0 1.2.2.3.1.6.2.9.4.2.1.4.3.6.5.2.2.4.4.6.5.3.2.6.5.9.6.5.3 1.1.4 1.6.4.4 0 .7-.1 1.1-.2.4-.1.7-.3 1-.6.3-.3.6-.6.8-1 .2-.5.3-.9.3-1.5 0-.4-.1-.8-.2-1.2-.2-.5-.4-.9-.7-1.3-.9-1.3-2.2-2.2-3.7-2.7-1.4-.5-3-.7-4.5-.7-2.9 0-5.7 1.1-7.7 3.2-1 1-1.8 2.2-2.3 3.5-.6 1.4-.8 2.9-.8 4.4 0 1.5.2 3 .7 4.4.5 1.3 1.2 2.5 2.2 3.6 1 1 2.1 1.8 3.4 2.4 1.4.6 3 .9 4.5.9.9 0 1.8-.1 2.7-.3.7-.2 1.5-.4 2.1-.7.6-.3 1.1-.6 1.6-.9.4-.3.8-.6 1.1-1 .8-.8 1.3-1.9 1.3-3 0-.9-.4-1.8-1.1-2.4-.6-.5-1.3-.7-2.1-.7-.3 0-.7.1-1 .2-.5.2-.9.4-1.3.7-.5.4-1.1.8-1.7 1.1-.5.2-1.1.4-1.6.4s-1.1-.1-1.5-.4c-.4-.3-.8-.6-1.1-1-.3-.5-.5-.9-.7-1.5-.2-.6-.2-1.1-.2-1.7s.1-1.2.2-1.8c.3-.4.5-.9.8-1.4zm-1.7 5.3c.2.6.4 1.2.8 1.8.4.5.8 1 1.4 1.3.6.4 1.4.6 2.1.5.7 0 1.5-.2 2.1-.5.7-.3 1.3-.8 1.9-1.2.3-.2.6-.4.9-.5.2-.1.5-.1.7-.1s.5.1.7.1c.3.1.5.2.7.4.2.2.4.4.5.6.1.3.2.6.2.9 0 .8-.3 1.7-.9 2.2-.3.3-.7.6-1 .9-.4.3-.9.6-1.4.8-.6.3-1.3.5-1.9.6-.8.2-1.7.3-2.5.2-1.4 0-2.8-.2-4.1-.8-1.2-.5-2.2-1.2-3.1-2.1-.9-.9-1.5-2-1.9-3.2-.5-1.3-.7-2.7-.7-4 0-1.4.2-2.7.8-4 .5-1.2 1.2-2.3 2.1-3.2C131 8 133.5 7 136.1 7c1.4 0 2.8.2 4.1.7 1.3.5 2.4 1.3 3.2 2.3.2.3.4.6.6 1 .1.3.1.6.1.9 0 .3-.1.7-.2 1-.1.2-.3.5-.5.6-.2.2-.5.3-.7.4-.6.2-1.2.2-1.8-.1-.3-.1-.5-.3-.8-.5-.2-.1-.3-.3-.5-.5-.3-.3-.5-.5-.9-.6-.4-.2-.7-.4-1.1-.5-.5-.2-1-.2-1.6-.2-.7 0-1.5.2-2.1.5-.6.3-1.1.8-1.4 1.3-.4.6-.6 1.2-.8 1.8-.2.7-.3 1.3-.3 2 .1.7.2 1.3.4 2zM162.5 6.4c-1 0-1.9.3-2.6 1-.7.7-1.1 1.6-1.1 2.5v8.6c.1.9-.2 1.8-.6 2.5-.4.6-1.2.9-1.9.8-.7.1-1.4-.2-1.9-.8-.5-.7-.7-1.6-.7-2.5V9.8c0-.9-.4-1.9-1.1-2.5-1.5-1.3-3.7-1.3-5.1 0-.7.7-1.1 1.6-1.1 2.5v8.4c0 1.4.2 2.7.7 4 .4 1.2 1.1 2.3 2 3.2.9.9 1.9 1.6 3.1 2.1 2.6 1 5.5 1 8.1 0 1.2-.5 2.2-1.2 3.1-2.1.9-.9 1.6-2 2-3.2.5-1.3.7-2.7.7-4V9.8c0-.9-.4-1.9-1.1-2.5-.7-.6-1.6-.9-2.5-.9zm2.5 11.8c0 1.3-.2 2.5-.6 3.7-.4 1-1 2-1.7 2.8-.8.8-1.7 1.4-2.7 1.8-1.1.5-2.4.7-3.6.7s-2.5-.2-3.6-.7c-1-.4-2-1-2.7-1.8-.8-.8-1.4-1.8-1.7-2.8-.4-1.2-.6-2.4-.6-3.7V9.8c0-.6.2-1.3.7-1.7 1-.9 2.6-.9 3.6 0 .5.4.7 1.1.7 1.7v8.6c-.1 1.1.2 2.2.9 3.1.7.9 1.7 1.3 2.8 1.3 1.1.1 2.1-.4 2.8-1.3.6-.9.9-2 .9-3.1V9.8c0-.6.2-1.3.7-1.7 1-.9 2.6-.9 3.6 0 .5.4.7 1.1.7 1.7l-.2 8.4zM198.8 9.9c.1-1-.4-2-1.1-2.7-.8-.6-1.8-.9-2.8-.9-.7 0-1.4.2-1.9.7-.4.4-.8.9-1 1.5l-3.7 8.7-3.7-8.7c-.5-1.1-1.6-2.6-5.2-2.6-1.3 0-2.6.4-3.6 1.2-.6.4-1.1.8-1.6 1.4-.4-1.4-1.5-2.2-3.3-2.2-1.8-.1-3.3 1.2-3.4 2.9V24.3c0 1 .4 1.9 1.1 2.6 1.5 1.3 3.6 1.3 5.1 0 .7-.7 1.1-1.6 1.1-2.6v-6.7c0-.8.1-1.6.4-2.4.3-.6.6-1.1 1.1-1.6.5-.4 1-.7 1.6-.9.2-.1.4-.1.6-.2l6 12.6c.3.7.8 1.3 1.3 1.8.6.5 1.4.7 2.2.7s1.6-.2 2.2-.6c.6-.5 1.1-1.1 1.4-1.7l6.8-13.9c.2-.4.3-1 .4-1.5zm-1.4 1.1l-6.8 14c-.2.5-.6 1-1.1 1.4-.5.3-1 .4-1.5.4s-1.1-.1-1.5-.4c-.4-.4-.8-.9-1-1.4l-6.3-13.4-.4.1-1.2.3c-.7.2-1.4.6-1.9 1.1-.6.5-1.1 1.2-1.4 1.9-.4.9-.6 1.9-.5 2.8v6.7c0 .7-.2 1.3-.7 1.7-1 .9-2.6.9-3.6 0-.5-.5-.7-1.1-.7-1.7v-15c0-1.1.9-2.1 2-2.1h.3c1.6 0 2.3.7 2.3 2.2v.6l1.1.2c.5-.9 1.2-1.8 2.1-2.4.9-.6 1.9-1 3-1 2.9 0 3.7 1 4.1 2l4.6 11.1L193 9c.2-.4.5-.8.8-1.1.3-.3.7-.4 1.2-.4.8 0 1.5.2 2.1.7.5.5.8 1.1.8 1.8-.3.3-.4.7-.5 1zM218.5 18c.4-.8.6-1.7.5-2.6 0-2.5-1-4.8-2.7-6.6-.9-.9-2-1.6-3.2-2.1-2.7-1.1-5.8-1.1-8.5.1-1.3.6-2.5 1.4-3.5 2.4s-1.8 2.3-2.3 3.6c-.5 1.4-.8 2.9-.8 4.4s.3 3 .8 4.4c.5 1.3 1.3 2.5 2.3 3.5s2.2 1.8 3.5 2.3c1.4.6 2.9.8 4.4.8 1.5 0 3.1-.2 4.5-.7 1.1-.4 2.2-.9 3.1-1.6.4-.3.8-.7 1-1.1.3-.5.5-1.1.5-1.7 0-.8-.3-1.6-.9-2.2-.6-.7-1.4-1-2.3-1-.5 0-1.1.2-1.5.4-.1.1-.3.2-.6.3-.3.2-.6.3-.9.4-.4.2-.7.3-1.1.4s-.9.2-1.3.2c-.9 0-1.8-.2-2.6-.8-.6-.4-1-1-1.2-1.7H216c.9.3 1.9-.2 2.5-1.1zm-14.1.9c.2 1.2.9 2.2 1.9 3 .9.6 2.1 1 3.2 1 .5 0 1.1-.1 1.6-.2.4-.1.9-.3 1.3-.4.3-.1.7-.3 1-.5.2-.1.4-.2.5-.3.3-.2.7-.3 1.1-.3.6 0 1.1.2 1.5.7.4.4.6.9.6 1.5 0 .4-.1.8-.3 1.1s-.5.6-.8.8c-.9.6-1.8 1.1-2.8 1.4-1.3.4-2.7.6-4.1.6s-2.7-.2-4-.7c-1.2-.5-2.2-1.2-3.1-2.1-.9-.9-1.6-2-2-3.2-.5-1.3-.7-2.7-.7-4 0-1.4.2-2.7.8-4 .5-1.2 1.2-2.3 2.1-3.2.9-.9 1.9-1.7 3.1-2.2 2.4-1 5.1-1.1 7.6-.1 1.1.4 2 1.1 2.8 1.9.8.8 1.4 1.7 1.8 2.7s.6 2.1.6 3.1c0 .7-.1 1.5-.4 2.1-.1.2-.3.6-1.5.6h-11.8v.7zM225 5.6c0-2.2-1.7-3.9-3.9-3.9s-3.9 1.7-3.9 3.9 1.7 3.9 3.9 3.9c2.2-.2 3.9-1.8 3.9-3.9zm-.5 0c0 1.9-1.5 3.4-3.4 3.4s-3.4-1.5-3.4-3.4 1.5-3.4 3.4-3.4 3.4 1.5 3.4 3.4zm-2.4 2.2h.8l-1.2-1.9c.4-.1 1-.4 1-1.2 0-1-.7-1.3-1.6-1.3h-1.3v4.5h.6v-2h.6l1.1 1.9zM221 5.4h-.6V3.9h.6c.5 0 1 .1 1 .8s-.5.7-1 .7z"/><path d="M212.1 12.6c-.4-.4-.8-.7-1.3-.9-.6-.2-1.2-.4-1.8-.3-1.1 0-2.2.3-3 1-.8.7-1.4 1.7-1.6 2.8l-.2.7h8.8v-.5c0-.5-.1-.9-.3-1.4-.1-.6-.3-1-.6-1.4zm-6.4 2.1c.2-.6.5-1.1 1-1.5.6-.5 1.5-.8 2.3-.7.5 0 .9.1 1.3.3.3.1.7.4.9.6.2.3.4.6.5.9.1.1.1.3.1.5l-6.1-.1z"/></g></symbol><symbol id="pause" viewBox="0 0 448 512"><path fill="currentColor" d="M192 80v352c0 26.5-21.5 48-48 48H48c-26.5 0-48-21.5-48-48V80c0-26.5 21.5-48 48-48h96c26.5 0 48 21.5 48 48zm-48 346V86c0-3.3-2.7-6-6-6H54c-3.3 0-6 2.7-6 6v340c0 3.3 2.7 6 6 6h84c3.3 0 6-2.7 6-6zM448 80v352c0 26.5-21.5 48-48 48h-96c-26.5 0-48-21.5-48-48V80c0-26.5 21.5-48 48-48h96c26.5 0 48 21.5 48 48zm-48 346V86c0-3.3-2.7-6-6-6h-84c-3.3 0-6 2.7-6 6v340c0 3.3 2.7 6 6 6h84c3.3 0 6-2.7 6-6z"/></symbol><symbol id="play" viewBox="0 0 448 512"><path fill="currentColor" d="M424.4 214.7L72.4 6.6C43.8-10.3 0 6.1 0 47.9V464c0 37.5 40.7 60.1 72.4 41.3l352-208c31.4-18.5 31.5-64.1 0-82.6zM48 453.5v-395c0-4.6 5.1-7.5 9.1-5.2l334.2 197.5c3.9 2.3 3.9 8 0 10.3L57.1 458.7c-4 2.3-9.1-.6-9.1-5.2z"/></symbol><symbol id="trade-rates" viewBox="0 0 125 130"><path fill="#F1F1F2" d="M28.9 50v13.8h-4V50h-4.4v-3h12.9v3h-4.5zM45.8 63.8l-3.6-6.5h-1.3v6.5h-4V47h6.2c3.3 0 6.4 1.4 6.4 5 0 3.2-2 4.5-3.3 4.8l4.4 7h-4.8zm-3.3-14h-1.6v4.3h1.6c1.5 0 2.9-.4 2.9-2.2 0-1.5-1.4-2.1-2.9-2.1zM64.9 63.8l-1.3-3.4h-6.2l-1.1 3.4h-4.2L58.7 47h4.2l6.5 16.9h-4.5zm-4.2-12.7l-2.2 6.1h4.2l-2-6.1zM78.5 63.8h-5.8V47h5.8c5.5 0 9.4 2.9 9.4 8.4 0 5.6-4 8.4-9.4 8.4zm.4-13.6h-2v10.2h2c3.1 0 5.1-2 5.1-5-.1-3.2-1.9-5.2-5.1-5.2zM92.1 63.8V47h11.1v3.2h-7.1v3.4h6.7v3.2h-6.7v3.9h7.3V64H92.1v-.2zM37.2 85.4l-3.8-6.1h-1.6v6.1h-2V71H34c2.5 0 4.9 1.3 4.9 3.9 0 2.5-1.8 3.6-3.3 3.9l4.2 6.3h-2.5v.3zM36 73.2c-.7-.5-1.5-.5-2.4-.5h-1.5v4.8h1.5c1.1 0 1.8 0 2.4-.5.7-.5.9-1.1.9-2 0-.8-.4-1.5-.9-1.8zM54.1 85.4l-1.5-3.8h-6.2l-1.5 3.8h-2.2l6-14.4h1.8l6 14.3h-2.4zm-4.7-11.9L46.9 80H52l-2.6-6.5zM64 72.6v12.6h-2V72.6h-4.2V71H68v1.6h-4zM72.7 85.4V71h8.5v1.6h-6.4v4.3h6v1.6h-6v5h6.5v1.6h-8.7v.3zM90.7 85.5c-2.5 0-4-1.6-4.7-2.3l1.3-1.4c.7.9 2.2 2 3.6 2s2.9-.9 2.9-2.3-1.6-2.2-2.4-2.3c-.7-.4-1.8-.7-2.4-.9-1.5-.7-2.4-1.8-2.4-3.6 0-2.5 2.4-3.8 4.7-3.8s3.8 1.4 4.2 1.8l-1.1 1.4c-.7-.7-1.8-1.6-3.3-1.6s-2.5.7-2.5 2 .9 1.8 1.8 2.2l2.7 1.1c1.5.7 2.5 1.8 2.5 3.6 0 2.7-2.4 4.1-4.9 4.1z"/><path fill="#D97924" d="M10.7 40.2c-.5 1.1-1.5 1.6-2.2 2l-.7-1.3c.5-.4 1.3-.9 1.6-1.4.2-.5.2-1.1-.4-1.3-.5-.2-.8.2-1 .4l-.9.9c-.2.2-.4.4-.9.5-.4.2-.9.2-1.6 0-.7-.4-1.1-.9-1.1-1.4-.2-.5 0-1.3.4-2s1.3-1.4 1.8-1.8l.7 1.2c-.5.2-1.3.7-1.5 1.3-.2.5-.2.9.2 1.3.4.2.7-.2 1.1-.4l.9-.9c.7-.7 1.6-1.1 2.5-.5 1.7.5 1.7 2.1 1.1 3.4zM11.1 27.3l5.1 3.6-1.1 1.4-5.1-3.6-1.1 1.6-1.1-.9 3.3-4.7 1.1.9-1.1 1.7zM23.3 22.8l-3.3-.9-.4.4 2 2-1.3 1.3-5.3-5.4 2-2c1.1-1.1 2.5-1.6 3.6-.4 1.1 1.1.7 2.2.5 2.5l3.6.9-1.4 1.6zm-5.5-3.4l-.5.5 1.5 1.4.5-.5c.5-.5.7-1.1.2-1.6-.6-.6-1.1-.2-1.7.2zM32.5 15.8l-1.3-.9-2.2 1.4.4 1.6-1.6 1.1-1.8-7.9 1.6-1.1 6.5 4.8-1.6 1zM28 12.2l.7 2.9 1.6-1.1-2.3-1.8zM38.5 12.7l-3.1-7 1.7-.7 3.1 7-1.7.7zM48.9 9.3c-2 .5-4.2-.4-4.7-2.9s.9-4.1 2.9-4.7c2-.5 3.1.4 3.5.5l-1.1 1.3c-.4-.2-1.1-.5-2.2-.4-1.3.4-1.8 1.4-1.5 2.9.4 1.4 1.5 2.2 2.7 1.8C49.8 7.5 50 7 50 7l-.2-1.1-1.6.4-.4-1.3 3.3-.7.7 2.9c-.2.5-.9 1.6-2.9 2.1zM62.1 7.5L62 4.3l-3.1.2.1 3.2h-1.8L57 .2h1.8V3l3.2-.1V0h1.8l.2 7.5h-1.9zM73.4 2.3l-.9 6.1-1.8-.4.9-6-1.8-.2.2-1.4 5.6.9-.2 1.4-2-.4zM82.1 11.1c-2.2-.7-3.3-2.7-2.5-5 .9-2.3 2.9-3 5.1-2.3 1.5.5 2 1.4 2.2 1.6l-1.1 1.3c0-.2-.7-1.1-1.6-1.4-1.3-.4-2.4 0-2.9 1.4s.2 2.5 1.5 2.9c.9.4 1.6.2 2.2 0l.2 1.4c-.7.3-1.6.7-3.1.1zM94.3 16.1c-.7.2-1.6 0-2.5-.5-.9-.5-1.5-1.3-1.6-2-.2-.7 0-1.4.5-2.3L93 7.5l1.5.9-2.4 3.8c-.4.5-.5.9-.4 1.3 0 .4.2.7.7.9.4.2.9.4 1.3.2s.5-.5.9-.9L97 9.9l1.5.9-2.4 3.8c-.5.8-1.1 1.4-1.8 1.5zM101.7 23.1l.7-3.2-.4-.4-2 2.2-1.3-1.3 5.1-5.6 2 1.8c1.1.9 1.6 2.3.5 3.6-.9 1.1-2 .9-2.5.5l-.7 3.6-1.4-1.2zm3.3-5.5l-.5-.5-1.3 1.4.5.5c.5.4 1.1.7 1.6.2.4-.7.1-1.3-.3-1.6zM108.6 30.8l-1.1-1.4 4.4-6.8L113 24l-2.9 4.7 5.3-1.8 1.1 1.4-7.9 2.5zM112.6 37.1l6.9-3.4 2.2 4.3-1.3.5-1.5-2.7-1.5.7 1.3 2.7-1.3.5-1.3-2.7-1.6.7 1.5 2.9-1.3.7-2.1-4.2zM5.8 93.1l-.4-.7-2.5 1.3L2 92l6.7-3.4 1.3 2.3c.7 1.4.7 2.7-.9 3.6-1.7.9-2.6 0-3.3-1.4zm2.9-1.8l-.4-.5-1.8.9.4.5c.4.7.7 1.1 1.5.7.7-.4.7-.9.3-1.6zM11.8 106.9l1.3-3-.4-.4-2.2 1.8-1.2-1.3 5.8-4.8 1.8 2.2c.9 1.1 1.3 2.5 0 3.6-1.1.9-2.2.5-2.7.2l-1.3 3.4-1.1-1.7zm4-5.1l-.4-.5-1.5 1.3.4.5c.4.5.9.9 1.6.4.6-.6.3-1.1-.1-1.7zM22.2 116.6c-1.8-1.4-2.4-3.6-.9-5.6 1.5-2 3.8-2 5.6-.7 1.8 1.3 2.4 3.6.9 5.6-1.5 1.9-3.8 2.1-5.6.7zm3.8-5.1c-1.1-.7-2.4-.5-3.3.5-.9 1.1-.7 2.5.4 3.2 1.1.7 2.4.5 3.3-.5.9-1 .7-2.3-.4-3.2zM46.7 128l-.2-1.6-2.5-.7-.9 1.3-1.8-.5 4.7-6.6 1.8.5.7 8.1-1.8-.5zm-.4-5.9l-1.6 2.3 1.8.5-.2-2.8zM60.5 130c-2.2 0-4-1.6-3.8-4.1.2-2.5 2-3.8 4.2-3.8 1.6 0 2.4.7 2.5.9l-.5 1.4c-.2 0-1.1-.7-2-.7-1.3 0-2.4.7-2.4 2.2 0 1.4.9 2.3 2.2 2.3.9 0 1.6-.4 2-.7l.5 1.4c-.3.6-1.2 1.1-2.7 1.1zM75 128.7c-2.2.4-4.2-.7-4.7-3-.4-2.3 1.1-4.1 3.3-4.5 1.6-.4 2.5.2 2.7.4l-.4 1.6c-.2-.2-1.1-.5-2-.4-1.3.2-2.2 1.3-1.8 2.7.2 1.4 1.5 2.2 2.7 1.8.9-.2 1.6-.7 1.8-1.1l.9 1.3c-.3.2-1 1.1-2.5 1.2zM89.2 124.4c-2 .9-4.4.4-5.3-2-.9-2.2 0-4.3 2.2-5.2 2-.9 4.4-.2 5.3 2 .9 2.4-.2 4.3-2.2 5.2zm-2.5-5.7c-1.1.5-1.6 1.8-1.1 3 .5 1.3 1.8 1.8 3.1 1.3 1.1-.5 1.6-1.8 1.1-3-.8-1.3-2-1.8-3.1-1.3zM104.5 114c0 .7-.5 1.6-1.5 2.2-.9.7-1.8.9-2.5.7-.7-.2-1.5-.5-2-1.4l-2.7-3.4 1.5-1.1 2.7 3.4c.4.4.5.7 1.1.9.4 0 .7 0 1.1-.4.4-.4.5-.7.5-1.1 0-.4-.2-.7-.5-1.3l-2.7-3.2 1.5-1.1 2.7 3.4c.6 1 .8 1.7.8 2.4zM115.4 104l-6.2-.7s.7.5 1.5 1.1l2.7 2.2-1.1 1.4-6-4.7 1.3-1.4 6 .7s-.7-.5-1.3-1.1l-2.7-2.2 1.1-1.3 6 4.7-1.3 1.3zM117 89.5l5.6 2.7-.7 1.6-5.6-2.7-.9 1.8-1.3-.5 2.5-5 1.3.5-.9 1.6zM123.5 65.4c.8 0 1.5-.6 1.5-1.4 0-.8-.7-1.4-1.5-1.4s-1.5.6-1.5 1.4c.1.8.7 1.4 1.5 1.4zM1.5 65.4c.8 0 1.5-.6 1.5-1.4 0-.8-.7-1.4-1.5-1.4S0 63.2 0 64c0 .8.7 1.4 1.5 1.4z"/></symbol><symbol id="uk-warehouse" viewBox="0 0 70 72"><g fill="currentColor"><path class="st0" d="M68.1 36.5v-1.3h1.2v1.3h-1.2zM.7 36.5v-1.3h1.2v1.3H.7zM30 38.9l.2-.1h.1l.1.1v.1-.1h.1v-.1l.2-.1v-.1l.1-.1.1-.1.1-.1v-.5h-.1v-.2l.1-.2v-.1h-.4l-.2.1-.1.1-.1.2.3.1v.2l-.1.1-.1.1h-.1v.6l-.2.1zm-4.2-18.6l.2.1h.2V19.8l.1-.2v-.1.1h-.1v.1H26v.5l-.2.1zm-.3-1.6l-.2-.2-.1-.1-.1-.1v-.1.2l-.1.1v.5l.1.1.1.1v.2l-.2-.3v.1l-.4.2.1-.2h-.1V19l-.2-.1v-.1h-.1v-.1h-.1v.4h.1l.1.1.1.1v.1h-.2l.1.1v.1h-.1v-.1l-.2-.3v.5h-.2v.1l.1.1V20.2l.1.1.1.1.3.1h.1v-.4V20.4l.1-.1v.1h.2v.1l.2.2v.1H25l-.1-.1-.1-.1-.1-.1h-.2l-.1.1v.1l.2.2h.2v.1l.1.1h.4l-.1.1.5-.1h.1V21.4v-.5.1l.1.1h.5l-.3.2-.1.1v.2l-.1.1v.2H26.2l.1-.1.2-.3h.1l.1-.1v-.2h.1l.1-.1.1-.1v-.2l.1-.1h-.2l-.1-.1h-.2v.2h-.1v-.2h-.1l-.1-.1H26h.1v-.1h-.4l.1-.1v-.5h-.2v-.1l.1-.1V19l-.2-.3zm.6.5v-.3V19.2zm-.1 1.2v.2h.2v-.1l-.2-.1zm-.2 4l-.2-.1h-.1l-.1.1v.1H25.1v.1l.1.1v.1l-.2.1h.2l.3.1h.1v.1l.1.1h.1l.2-.1v.2l-.2.1h-.1V25.7l.1.1H26.1l.2-.1h.1l-.1.1-.1.1H26l-.1.1h-.4v-.2l-.1-.1H25.1V26l.1.1.1.1h.4l.1-.1.1-.1.3-.1h.2v.1l.1.1h.1l.3-.2.1-.1v-.1h-.4l.1-.1v-.2.1h.1v-.2h.1v-.4h-.1l-.1-.1h-.4l-.1-.3-.4-.1zM24.2 22h.2-.2l-.2.1.2-.1zm-.4 2.7l.2.1.2-.1.1-.2V24.2h-.2l-.1.1h-.1l-.1.1v.3zm1.8 5.5l.2-.1.1-.1V29.7h-.1v-1l-.1.1h-.6l-.1.1-.1.1v.1V28.8l-.2.1-.1.1V29.3l.1.1-.1.2v.4h.1l-.1-.2.1-.1v-.1l.1-.2.1-.1H25.2l-.1.1-.1.1v.1l.1.1.1.2-.2.1-.1.1v.2h.2l.1-.1v-.1l.4.1zM34.3 11l.2.1v.1l.1.2h.5l.1-.1h-.1l-.2.1h-.1v-.1l.1-.1h.2v-.1l-.2-.3h-.2l-.1-.1-.1.1-.2.2zm-8.9 16.5l-.1.2v.2h-.1.4v-.2l.1-.2v-.1h-.1l-.2.1zm1.9-1.2l-.1.2h.2l-.1-.2zm-1.9 5.9l.1-.2h-.2H25.6l-.2.2zm1.7-5.4l.1.2-.1-.2.1-.2v-.1l-.1.3zm-1.9-4.6L25 22h-.1l-.1.1-.2.2h.1l.1.1.1.1h.2l.1-.1v-.2zM36.7 9l.2-.2.1-.2h.1v.1l.1-.2h.1v.1l.1-.1v-.1H37.7v-.2.1H37.4l-.1.1h-.1l.1-.1h-.1l-.1.1H37v.2l-.1.1-.2.3zm-.5.1l.1.2h.2-.1V9l.1-.1v-.2h-.1V9l-.2.1zm.7.4l.1.2h.2l.1-.1-.1-.1v-.1h-.1v-.2h-.2l.1.1-.1.2-.2.1.2-.1zm-1 1.9l-.2-.1h-.2.2l.2.1-.1.2.2.2h.1V11.5l-.2-.1zm-.5-3.3l.1.2-.1-.2h.2l.1.1.2.2v.1l.1-.1h.1l-.1-.2-.3-.1h.1V8h-.1l-.1.1h-.2zm-9.3 21.1l.1-.3h.1l.1-.1.1-.2.3-.5.1-.3.1-.1v-.1l.1-.1V27.2H27l-.1.1-.2.2-.2.2h-.1l-.2.1-.1.1-.1.1v.2H26.3l-.1.1h-.3l-.1.1-.1.1h-.1v.5l.1.1.1.1h.3zm8.5-18.8l.2-.1v-.2l-.1.1-.1.2.2.2H35.1v-.1h.1v-.1h.1l.1-.1v-.1l.1.3v.1l.2.1h.2l.1-.1h.2v-.2h-.1l-.1.1h-.1v.1h-.2V10.3l.1-.1v-.1h-.5V10h-.1v-.1h-.1l-.1-.1h-.1l.6.4h-.2.1l.1-.1.1-.1v-.1l.2-.1-.3-.2-.1-.1-.1-.1-.1-.1h-.5l-.1.1-.1.2v.5l.1.3zm.8-1.1l.2.1h.2v-.2l.1-.1H35.6l-.2.2zm-7.3 20.6l-.1.2V30.4l.1.1.1.1v.2l.1.1.1.1.1.1h.4v-.4l.1-.1-.1-.1v-.2l-.1-.1v-.1l-.1-.3v-.1l-.1-.1v.2l-.2-.1h-.2l-.1.2zM27 27l-.2.1v.1h.2V27zm21.2 26l-.4-.2V53.1l.1.1h.6V53h-.3zm2.7-5.8v-.7l-.1-.2-.1-.3-.1-.1-.1-.1-.8-.6-.4-.2-1-.2-.1.1H48v-.1h-1.2l-.2.1-.1.1v.1l-.1.1V45.5l-.1.1-.1.1v.1h.2-.4l-.1-.1-.2-.3-.1-.1-.1-.1H45.2V45h.2l.1-.1.3-.4h.1l.3-.3h.2l.1-.3v-.4l-.3-.7v-.2l-.1-.1H46l-.1-.1v-.1l-.1-.1H45.5l-.3-.3v-.3H45l-.1-.1-.1-.1-.2-.4-.2-.2h-.1l-.6.1-.1.1h-.1l-.1-.2H43.1v.1l.2-.1H43.6l.1.1h.4l.4-.1h.1l.1.1.3.4h.5l.1-.1h.2l.1.1h.2v.1l-.4.2.1-.1v-.2l-.1-.2-.6-.9-.3-.5v-.1l-.1-.4-.1-.2.1-.2.1-.1.3-.2H45l-.4-.2-.1-.1V38h-.2l-.1-.1V37.6l-.1-.1v-.1l-.1-.1v-.2l-.5-.4-.7-.5-.7-.2-.2-.1H41.6v-.2.2h.2l-.2-.1-.1-.2-.1-.2-.2-.7v-.4l-.1-.1v-.4l-.1-.1v-.2l-.6-.7v-.4l-.1-.1V32l-.1-.3V30.9l-.2-.1-.2-.2h-.2.1v-.1h-.1v-.2l-.4-.6v-.1l-.2-.4-.5-.4h-.1v-.1l-.4-.1-.1-.1-.2-.2h-.1l-.1-.1v-.1h-.1V28h-.1l-.4-.2h-.7l-.1.1-.1.1v.1h-.1l-.1.1-.1.1-.1.1-.2.1h-.2l-.1-.1h-1l-.6-.2h-.4L33 28l-.2-.1h.1l.1.1.1.1.1.1h.4l.5.2h.2l.1-.1.1-.1H34.8v-.4h.2l.2-.2.2-.1v-.1H35.7l.2.1h.2l.2-.1H36.6l.1-.1.2-.2-.1-.1-.1-.1h-.4v-.1h-.1l.1-.1v-.4h-.1l-.1-.1H35.8v.1l-.6.3h-.1l-.1.1H34.7v-.1h.1l.1-.1.3-.3.1-.1.1-.1 1-.1.1-.2.1-.1h.1l.1-.1.3-.2.1-.1v-.1l.1-.1V24.2l.1-.1h.1l.2-.1.1-.1.1-.1.1-.1.1-.1v-.2l.1-.1v-.4l.1-.2.3-.5.1-.1V22h-.1v-.1l.1-.3.2-.6.1-.1.3-.3v-.1l.1-.1.1-.2.1-.1V20l-.1-.1v-1.2l-.3-.3v-.1h-.1v-.2h-.5l-.2.1h-.2l-.1-.1h-.2l-.1.1-.2-.1h-.1l-.1-.1h-.1l-.3-.1-.1.1v-.1h-.6l-.2.1h-.2l-.4-.1-.2-.2h-.4l-.1.1V18.1l-.1.1H34.4l.1.2v-.1h-.2l-.5.4H33l.1.1v.1h-.2l-.1.1h-.1l-.1.1H32.3V19l.1-.1h-.1H32.6v-.1l.1-.1H33l.1-.2.1-.1.1-.1.1-.1v-.1l-.1.1h-.4v-.1l-.1.1-1.3.3-.1.1V18.9h-.1v-.2l.2-.2v-.2h.2l.2-.1h.1l.3-.2h.1l.1.1v.2h.2l.1-.1.1-.1.4-.6V17.2v.1l-.1.1-.1.1-.1.1h-.1v-.1l-.1-.1h-.1l-.2.1h-.1l-.2-.1v.1h-.1l-.1-.1-.1-.1-.1-.1h-.4l-.1-.1-.2-.3h.1l.1.1.1.1.1.1.3-.1h.1l.2.1h.1l.1-.1h.2v-.2l.1-.1-.1-.1h-.1v-.1l.1.1h.2v-.2l.2-.1h.2v-.2l.1-.1.2-.1.7-.6.1-.2.1-.1v-.2l.2-.2.1-.1.3-.1.1-.1.1-.1.2-.3.1-.3v-.4h-.1V13l.1-.1v-.4l.1-.1v-.1h-.4l-.2-.1h-.1l-.2.1h-.1v-.2h-.1l-.1.1v.1l.1.1h.2v.1h-.1l-.2-.1-.2.1H34l-.1-.1h-.4l-.1.1-.2.2-.1.1h-.7l-.1-.1v.1h-.2v.1h-.2l-.4.1h-.2l-.1.1-.1.1-.1.1-.1.1h-.1l.1-.1v-.2l.1-.1v-.1l-.2-.1-.1-.1h-.2V13l-.1.1h-.2v.1l-.2.2v-.1l.1-.1.1-.2.1-.1V12.6l-.1-.1h-.1l-.1-.1h-.1v.5h-.1v-.4l-.1-.1-.1-.1-.4-.1-.1.1v.5l-.2.1v.2l.4.3-.1-.1h-.1l-.2.1v.1l.1.1h-.1l-.2-.1v.4h-.1v.1l.1.1.1.1.1.1v-.1H29.2h-.1l.1.1v.1l-.2-.3h-.2l-.1-.1h-.1v.7h-.2l-.1.1h-.2l-.1-.1h-.2v.1l.2.2v.1h.2-.1.1V15.4l.1.5h-.2l-.1-.2h-.1l-.1.1.1.2h.2v.1h.1l.1.2h.2v.2h-.1.1l.3.3v.2h-.1l-.1-.2-.1-.1.1.2-.1-.1h-.2l-.1-.1h-.1v.1l.2.1.1.1h.1v.1l-.2-.1-.1-.1-.1-.1-.2.1v.4h-.1l-.1-.1-.1-.1v-.2h-.1v-.1l-.3.1V17.2l.1.1v.4h-.1v.1H27v-.5l-.1-.1H26.6v.9l.3.1v.1l-.1-.1h-.1l-.1.1v.1-.1.2h.1l.1.1v.1l.1.1h.1v.1l.1.1.1-.1h.2l.1.1h-.4l-.1-.1-.1-.1h-.1l-.1.1H26.4v.1h-.1v.6h.1v.1l.1.2h.4l.2-.3h.1v.2l-.1.1H27.4l.1-.1.1-.2.1-.1h.1v.2l-.2.4-.4.2H27l-.1.2v.1H27.2l.1.1h.2l.1-.1h.1v-.1h.2-.1l-.1.1v.2h.1-.1v.1l-.1-.1-.1-.1h-.1l-.1.1-.1.1.1.1v.1l-.1.2v.2l.3.1.1.1h.5-.6l-.1-.1H27.1v.1l-.4.2v.1l.1.1h.1l.1.1v.2H27.3l.1-.1h.2l-.2.1H27l-.1-.1H26.6l-.1.1V22.7l-.1.1.1.1h-.2.2l.3-.1h.1l-.1.1v.1h.2l.1-.1h.2l-.1.1h-.4v.1l.1.1.2.1H26.8v.1h.1v.2l-.2-.1h-.1l-.1.1-.5.1-.7.1v.1H25.6l.1-.1h.1l.2.1h.2l.1.1h.1l.4-.2h.1l.2.1h.4-.5l-.2-.1h-.1l-.3.2v.1l.1.1-.1-.1-.1-.1H26v.1l.5.4h.2l.1-.2v.2H27.1v.1l.2-.2.2-.3.1-.2v-.1h.2l.1-.1v-.1h.1v-.1h.1V23.2l.2-.2-.1.1-.1.1.4.6v.1l.3.1.5-.1h-.1l-.3.1-.1.1H28.5l-.1.1h-.1l-.1.1h.1v.1l-.1.1-.1.2.1.1.1-.1h.2l.1-.1v.1h-.1l-.2.1H28l-.1-.1v.1l-.1.3.1-.1v-.1l.1.2h.1l.1-.1.3.1h.1l.1-.1.1-.1V24.6h.1l-.1.1-.1.2-.2.3.1.3h-.1l-.3-.1h-.3l-.1.1-.1.1-.1.2H27.9l-.3.3h-.2l-.1.1v.6h.1-.2v.2l-.1.1-.1.1v.2l.1-.1.1-.1.1-.1h.1v.2l-.1.2v.1l-.2.4-.1.2v.2l.1-.1v-.1l.1-.2v-.1h.1v.1l-.4.6v.2l.1-.1h.1l.1-.1h.1v.1l-.1.1v.2l-.1.2v.4h.1v.1l.1-.1.3-.4-.1.2.1-.1-.1.1h-.1l-.1.1V29.8l-.2.2v.2l-.1.2-.1.2v.7l-.1.1-.1.1v.5h.2l.1-.1H27.3l.1-.1.1-.1.1-.2v-.1l-.1-.1h.1l.1-.1.1-.2v-.2l.1-.1v-.1h.1V30.3l.1-.1v-.4l.1-.2h.1v-.2l-.1-.1-.2-.2V28.5v.1H28.3V28.3h.1l.3-.4.4-.3.1-.2v-.1H29.5l.1-.1h.1l-.1.2-.1.1-.3-.7-.1.1-.1.1-.1.3-.1.1h-.2l-.4.6-.1.1v.6h.1l.1.1h.3v-.2l-.1-.2.1-.1V28v.2l.2.2h.1v-.2l-.1-.3-.1-.1h.1v.1l.1.2v.4l.1.1h.1V27.7h.2V26.6v.4h.1v-.1l.2-.4v-.1.1l-.2.4-.1.3v.4H29.6v-.1l.2.3v-.2V27.9l.1.1.1.1.1.1.2.2.1.1.5.1-.1.1-.5-.1h-.2l-.2-.1h-.2l-.1.1V29.8h-.1l.1.1.1.1.2.1v.1h.1l.2.1.1.1.1.1v.1l-.1.1h.1l.1.1V31.1l-.1.1-.2.1-.1.1V31.7l-.2.1-.1.1V32.2l-.1.2v.1l-.2.3-.1.1-.1.1V33.3l-.1.1v.5l.1.2-.1.1h-.1l-.1-.1V33.3v.1h-.1v.5l.1.2.1.2.3.4h.1V35h.1V35.3h.1l.1.1h.1V35.1l-.3.3-.1-.1v-.5l.1-.1.1-.1H30l.1.2h.2l.4.2.1.1.2.3.1.1h.2V34.7h-.1v-.5h.1v.2l.2.1h.1l.1-.1v.2l.1.2.2.1h.1V34.6 34.9H32.4l.3-.2.2-.1-.1-.1v-.1h.1v-.1.1h.2l.1-.1h.5v-.7l.1.1h.4l1 .1.3-.1h.1H35.3h.2-.1l-.3.1h-.2l-.2.1-.1.1.2.1-.1.1h-.2l-.1.1-.1.2-.1.3v.2l-.1.1v.1H34v.1l-.1.3-.1.4-.1.2v.1h.1l.3.4.1.1.1.2h.1v.4l.1.1.1.2.1.1H35V37.5h.1v.5H35V38.3h.1l.1.2V38.2h.1v-.1l.1-.1.1-.1v-.4.5h.2v-.2h.1l.1-.1.1-.1v-.2.1l-.1.1-.1.1h-.1v.1l.1.2.1.1-.1.1v.1h-.1v.1l-.1.1.1.1H36v.1l-.1.1v.1h-.1l-.2.8h-.1V40.6l.1.1.1.1h.3v.1l-.1.1-.2.2-.2.4V41.9l.4.8.1.1.1.1.1.1.1.1h.2V43h.2v.1l-.1.1H36.3l-.1-.1-.1-.1-.2-.5-.4-.2h-.1l-.1.1H35V42.7l.1.2.1.2.1.1v.2-.2l-.4-.3v-.1l-.1-.1-.1-.1h-.1l-.6.3h-.6l-.1-.1-.1-.1H33v-.1H32.7v.1l.1.1v.1h-.1l-.2.4-.1.1H32l-.1.1-.1.1-.1.1v.1h-.1l-.1.2v.6l-.2.1-.1.1-.3.2H30.6l-.6.6v.1-.1H30.3l.1.1h.1v.1V45.5h.1l.1-.1.1-.1h.5l.2-.1H31.8l.1-.1v.1l-.2.1V45.6h-.1l.1.1.2.3H32.2v.1l-.1.1v.1H32l-.1.1-.1.1v.2l.1.2h.2l.2-.1h.1l-.2.1H32V47.7l-.1.2-.2.3-.4.3H31l-.1.1-.1.1H30.2l-.1.1v.2l-.1-.1V49.7h-.2v.2H29.5v.1h-.2l-.2-.1h-.2v.1h-.1l-.1.1h-.1l-.1.1h-.2v.1h.5l.1.1v.5l-.1.1h-.2v.1h-.1.1l.2.1v.1-.1h.1l.5.1h.1l.3-.1V50.9h-.1H30h-.1l-.3.3v.1l.1.1-.1.1H29l.1.1h.2v.2l.1.1.2.1v-.1h.5l.1-.1.1-.1v-.1l.1-.1h.5l.1-.1v-.2.1H31.3h-.2v.1l.1.1.1.1h.4l.2.1h.1l-.1.1h-.5v.1h-.1V52.2h-.1.1l.2.1v-.2h1V52h.4l.1.1h.1v.5l.1.1h.2l.2.2.2.2h.1l.8.1.2-.1h.1l.1-.1V52.7l.1-.1h.1l.2-.1.1-.1h.4l.2-.1H36.5l.1-.1.2-.3v-.1l.2-.1V51.4H37.3l.1-.1v-.1.2H37.1l.2.1-.2.2-.5.8h-.5l-.2.3-.1.1h-.1l-.1.1v.2h-.1v.5l-.1.1v-.1l.1.3h-.4l-.2.1h-.5l-.1-.1-.4-.1h-.3l-.4-.1h-.1l-.1.1h-.5l-.6.1-.2.1v.2h-.1l.1.1v.1l-.2.2H31.2l-.1-.1h-.3v1l-.3.7-.1.1-.1.1v.2l-.2.2v.2l-.1.1v.2h-.4v.1h.2v.1H29.5V57.3h-.1l-.2.2v.6l-.2.1V58.5h-.4l-.4.4-.1.1H28v.1h-.2l-.1-.1h-.1l-.1.1h-.1l-.2.1h-.1l-.1.2v.4h.5V59.5l.1-.1H27.9l.1.1h.1l.2.1h.1l.1.1.1.2v.1l.1.1V60l.1-.1h.1l.1-.1v-.2h.1V59.3h.1V59.6l.1-.2h.2l.1-.1H29.9v-.2h.2v.1h.6l.2-.1h.1l.3.1h.1v.2h.1-.2.1l-.1-.1H31l.5-1.2h.2v-.2h.1v.5h.1v.2l.1.1H32.3l.2.2.2.2.1.1V59h.5v-.4h.2v-.1h.2v-.2h-.2v-.2H33.8l-.1-.1v-.4l.1-.1.1-.1V57.1v.2h.2l.2-.1V56.9h.5l.1-.1h.2l.1-.1.2-.1h.1l.6.2.7.5.1.1v.2V57.3h-.1V57h.2l.1.1.6.1.2.1h.5v-.1l.1-.1V57h-.2l-.1-.1.1-.2v.1h.2v.1-.1H39.2l.1-.1h.6l.1-.2h.5v-.2l-.3-.3-.1-.1H40l.4.2.1.1h.1l.1.1.1.1h.2v-.2l-.1-.1H41.2v.1l-.1.1v.1l.1.1h.1V56.2h.4v.1l.1.1h-.1v.1l.3.2h.2v-.2l.5-.2h.6l.4-.1H44l.7.2h.2l.1.1h.1l.1.1h.2l.1-.2.1-.1v-.1l.1-.1.7-.2.1-.1.3-.3h.1l.5.2h.1v-.4l.2-.2.1-.1h.6l.1-.1.2-.1.1-.1.1-.2v-.4l-.2-.1v-.2h.1v-.2h-.1l-1 .1-.4.1-.7-.1V53.4h-.1v.2h-.4.2l.1-.1H46.7v-.2l-.5-.1-.2.1h-.2V53l.2-.1h.1l.1.1.1-.1h.5l.2-.1.2-.2.1-.1h-.1V52.2l-.1-.1H47v.1H46.7l1.1-.7v-.1H47.5h.1l.2-.1H48.1v-.2l.1-.1.1-.1v-.2.1l.1.1.1.1h.4l.2-.1.2-.2v-.2.1H49l.3-.3v-.1h-.7.1l.2-.1h.1l.1.1h.2v-.1h-.2L49 50h.1l.2.1h.1l.2.3v-.1l.2-.3.1-.1v-.1l.1-.1.3-.1V49.3l.1-.2v-.5l.1-.2.1-.4.1-.3v-.1l.2-.4zm-9.1 9.4l-.2-.1-.5-.2H41l-.1.1-.1.1h-.1l-.3.1-.1.1-.1.1H40.5l.1.1.4.3h.1l.4-.1v-.2l.1-.1h.2v-.2zM27.1 38l.2-.2.1-.1v-.4l-.1-.1h-.1l-.2.1h-.1v-.1l.1-.1V37l.1-.3v-.2l-.1-.1h.2-.1v-.2h.1l.1.1.2.2.1.1v.4l-.1.1v.5-.5l.1-.1v-.1l-.1-.2V36.4h-.1v-.1l-.1-.2v-.2l-.4.1h-.4l.1-.3h-.1l-.1.1v-.1l.1-.2.1-.1.1-.1h.1l.2-.1h.1l.1-.1v-.5l-.1-.1-.1-.1h-.1l-.1.1.2.2.1.1-.1-.1h-.1l-.3.1v-.5h-.1v-.1l-.1-.1-.1-.1h-.2l.1-.2v-.2H26V33l-.1-.1H25.6l-.1.1h-.2l-.3-.2h-.1l-.3-.4h-.1l-.1-.1h-.2l-.1.1v.1H23.8l-.3.2H23l-.1-.1h-.1V33.4l-.2.1h-.2l-.1-.1H22v-.1h-.2l-.4.4v.2h-.1v.4l-.1.1-.2.3v.2H20.7l-.1.1-.1.1h-.1l-.1-.1-.1-.1-.1.1-.2.1h.1v.2h.2v.1h.1l.1.1H20.7v.1h-.1l-.3.3h-.2l-.2-.1-.1.1-.1.1v.1h-.1l-.5.6H19l.1.1.1.2.1.1h.2l.1.2v.1l.1.1h.2v.4h.6l.2.2.3.1h.1l.1-.1h.1l.2.1h.1l-.1-.2.1-.1v.2-.2h.1v-.1H22v-.2l-.1-.1v-.1l.3.3v-.2h.1l.1-.1.2-.3.1-.1h.1l.1.1.2.2v.1l.1.2v.2H23l.1.1v.2l.1.1.1.1.1.1h.1l.1.1.1.1v.2l.1-.1v.2l-.1.1.1.1V39l.3-.1H24.4v-.1H24.7v.1l.2.1h-.1H25.1l.1-.1.1-.1.1-.1.1-.1V37.9h.2l.1-.1h.1l1.2.2zm15.1 18.2H42h.2zm-11.6-13V43h-.1l-.1.1.2.1.2.2v-.1l-.2-.1zm-3.1-17.4l.1-.2h-.1v.2zm4 16.8l-.1-.2H31.1l-.4.1-.2.1v.7l.1.1.1.2.1.1.1.1.1-.1v.2h.1l.2-.1.1-.1.1-.1.1-.1.1-.1H32l.1-.2.1-.1h-.1v.1H32v-.1l-.1-.1-.4-.4zm-2.3-13.1v-.6l-.1-.1-.1-.1-.4-.1V28.9l.1.1v.4l.2.2v.1l.3-.2zm-6.8-13.9l.1.3.1-.1h.1v.1h.1l.3-.1-.2.1H22.6v.1h-.1l.2.1v.1H23l.1.1h.2H23l-.1.6.2.1H22.8v.1l-.3.3v-.2h-.1l.2.2.2.2.1-.1.2-.1.1-.1.1-.1v-.1l.2.1H23.8l-.1-.1h-.1l.1.1.3.1v-.2l-.4-.8v-.1h.1l.1-.1.1-.1v-.1h.3-.2l-.1.1v.4l.1.2v.1l.1.1v-.2.2h.5l.1-.1v-.1h-.1l-.1-.1h-.1.1l.3.1h.1l.1-.1v-.1l.1-.1V16l-.1.1-.4.1h-.1H24.8l.1-.1.1-.1H25.3v-.1l-.1-.2h.1l.1.1H25.7l.1.1h.1v-.1h.1v-.1h-.1l-.7-.8H24.9l-.1-.1h.1v-.1h.1v-.2l.1-.1.1-.1h.1l.1-.3h.1v-.1l-.1-.1v-.2l-.1-.1-.1-.1h-.1l-.1.2-.2.2-.5.2h-.1l-.2.1h-.2l-.2.2-.3.2V14.8l.1.1.2.4v-.1l-.1-.1H23.2v.4-.4l-.1-.1v-.1h.1-.3l-.1-.1-.2.1v.2h.1H22.4v.5zm.1 1.4l.1-.2.1.1v-.1h-.2v.2zm-1.2 1.9h.2l.2.1h.1-.1v.1h.5l.1-.1h-.2l-.2.1h-.2l.1-.1v.1h.2l.1-.1.1-.1H22v-.2h-.1.1l.1.1.1-.1v-.1H22l-.1.1h-.1.1V18.4h-.1l-.2.1h-.2l-.2-.1v-.1l-.1.1h.5l-.1.1-.1-.1h.1H21.2l-.1.1v.1l-.1.1v.1l.3.1zm.9-.9l-.2.1.2-.1zm3.1 7.4h.2v-.1l-.1-.1v-.1.1l-.1.2zm-2.1-.1l.1-.2h.2v-.2h-.1l-.2.1h-.1l-.1.1h-.4V25.4l.2.1h.1v-.1l.3-.1zm0-10.4l.3.1v-.1l-.1-.1-.2.1zm-1.9 7.8l.2-.1-.1-.1v-.1l-.1.3-.2.1v.2H21v.1h.1l.2-.4zm.5-1.8l.1-.2v-.2H21.6v-.1h-.1v-.1h.1l.1.1.1.1.1.1.1.1h.2-.1l-.1-.1h-.1.1l-.4-.7v.1h-.1l.1.3v.6l.1.1v.2l.1.3v.1l.1.1.1-.1.3.1.1-.1h-.1v-.2h-.4H22.2V21.1l-.4-.2h-.2.2zm.1-1.4l-.2-.1-.1.1V19.8l.3.2h.1l.3-.1h-.1v-.1h.1l.1-.1-.1-.1-.4-.1z"/><g><path class="st0" d="M4 52.4c-.4-.1-.8-.4-1-.9-.2-.5-.3-1-.1-1.4.2-.4.5-.6 1-.9l2.2-1.1.3.5-2.2 1.2c-.3.2-.6.3-.8.6-.1.3-.1.6 0 .9.2.3.4.5.7.5.3.1.6-.1.9-.2l2.2-1.1.3.5-2.2 1.1c-.5.3-.9.4-1.3.3zM7.7 58.6l.8-2.4-.6-.1-1.3 1-.4-.4 3.3-2.6.4.5-1.4 1.1 2.5.3.4.6-2.3-.2-1 2.9-.4-.7zM17.7 67.1l-.5-.3.9-3.4-2.6 2.3-.5-.3 1.2-4.2.5.3-1 3.3 2.6-2.3.5.3-.9 3.3 2.5-2.4.5.3-3.2 3.1zM25.3 70.2l-.1-1.2-1.7-.6-.8.9-.6-.2 2.9-3.5.5.2.3 4.5-.5-.1zm-.2-3.7L23.8 68l1.4.5-.1-2zM32.1 71.4l-.9-1.9h-.5l-.2 1.7-.5-.1.5-4.2 1.2.1c.7.1 1.4.5 1.3 1.3-.1.7-.6 1-1.1 1l1 2-.8.1zm-.1-3.6c-.2-.2-.4-.2-.7-.2h-.4l-.2 1.4h.4c.3 0 .5 0 .7-.1.2-.1.3-.3.3-.5.2-.3.1-.5-.1-.6zM36.8 71.5l-.3-4.2 2.5-.2v.5l-1.9.1.1 1.3 1.8-.1v.5l-1.8.1.1 1.5 1.9-.2v.5l-2.4.2zM46.3 69.7l-.6-1.9-2.2.6.6 1.9-.6.2-1.2-4 .6-.2.5 1.7 2.2-.6-.5-1.8.6-.2 1.2 4-.6.3zM53 66.7c-1 .6-2.3.4-3-.8-.7-1.2-.2-2.4.8-3 1-.6 2.3-.4 3 .8.6 1.2.2 2.4-.8 3zm-2-3.3c-.7.4-1 1.3-.5 2.2.5.9 1.5 1.1 2.2.6.7-.4 1-1.3.5-2.2-.5-.9-1.4-1-2.2-.6zM60.1 60.5c0 .4-.2.9-.6 1.2-.4.4-.8.5-1.3.5-.4 0-.8-.3-1.1-.7l-1.7-1.8.4-.4 1.7 1.8c.2.3.5.5.8.6.3 0 .6 0 .8-.3.3-.3.4-.5.3-.8 0-.3-.3-.6-.5-.8L57.2 58l.4-.4 1.7 1.8c.5.3.7.6.8 1.1zM64.2 56.3c-.4.6-1.1.7-1.4.7l-.1-.5c.4 0 .8-.2 1.1-.5.3-.4.3-.8-.1-1.1-.4-.3-.8 0-1 .2-.2.1-.5.3-.6.4-.4.2-.8.3-1.2 0-.6-.4-.5-1.2-.2-1.8.4-.6 1-.7 1.1-.7l.2.5c-.3 0-.7.2-.9.5-.2.3-.3.7.1.9.4.2.6.1.8-.1l.7-.5c.4-.2.9-.3 1.3 0 .7.6.7 1.4.2 2zM67 51.3l-3.9-1.7 1-2.3.5.2-.8 1.7 1.2.5.7-1.6.5.2-.7 1.6 1.3.6.8-1.8.5.2-1.1 2.4z"/><g><path class="st0" d="M7.5 20.1c.2.4.1.9-.1 1.4-.3.5-.6.8-1 .9-.4.1-.8-.1-1.3-.3l-2.3-1.3.3-.5 2.2 1.1c.3.2.6.3.9.3.3 0 .5-.2.7-.5.2-.3.2-.6.1-.9-.1-.3-.4-.5-.7-.6l-2.2-1.1.3-.5 2.1 1.1c.5.2.9.4 1 .9zM11.6 15.2l-2.5-.3.1.6 1.3 1.1-.4.5-3.3-2.7.4-.5L8.6 15l-.3-2.5.5-.5.3 2.3 3.1.3-.6.6zM20.5 8.2l-.5.3-2.6-2.4.9 3.5-.5.3-3.2-3 .5-.3L17.6 9l-.9-3.5.5-.3 2.5 2.4-.9-3.3.5-.3 1.2 4.2zM26.8 5.7l-.7-.9-1.7.6-.1 1.2-.7.1.3-4.5.5-.2 2.9 3.5-.5.2zm-2.4-2.8l-.1 2 1.4-.5-1.3-1.5zM32.4 4.8l-1.3-1.7-.5.1.2 1.8h-.5L29.8.8 31 .7c.7-.1 1.5.2 1.6 1 .1.7-.4 1.1-.8 1.3l1.4 1.7-.8.1zm-.8-3.5c-.2-.1-.4-.1-.7-.1h-.4l.2 1.4h.4c.3 0 .5-.1.7-.2.2-.2.2-.3.2-.6-.1-.2-.2-.4-.4-.5zM36.2 4.7l.3-4.2 2.5.2v.5l-1.9-.1-.1 1.3 1.8.1V3L37 2.9l-.1 1.5h1.8v.5l-2.5-.2zM44.6 6.1l.5-1.9-2.2-.6-.5 1.9-.6-.2 1.2-4 .6.2-.5 1.7 2.2.6.5-1.7.6.2-1.3 4-.5-.2zM49.9 8.5c-1-.6-1.5-1.8-.9-3s1.9-1.4 3-.9 1.5 1.8.9 3-2 1.5-3 .9zm1.8-3.4c-.8-.4-1.7-.2-2.2.7-.5.9-.2 1.8.6 2.2.8.4 1.7.2 2.2-.7.5-.9.2-1.7-.6-2.2zM56.8 12.9c-.4.1-.9-.1-1.3-.4-.4-.4-.6-.8-.6-1.2 0-.5.2-.8.6-1.2l1.6-1.9.5.4-1.6 1.8c-.2.3-.5.5-.5.8 0 .3.1.6.4.8.3.2.6.3.9.3.3-.1.5-.3.8-.6l1.6-1.8.4.4-1.6 1.9c-.5.3-.8.6-1.2.7zM59.6 16.8c-.5-.6-.3-1.2-.3-1.5h.5c-.1.3-.1.9.2 1.2.3.3.7.5 1.1.2.3-.3.2-.7.1-1-.1-.2-.2-.5-.2-.7-.1-.5 0-.9.4-1.2.6-.5 1.3-.1 1.7.4.4.5.3 1.1.3 1.3h-.5c0-.3 0-.7-.2-1-.3-.3-.6-.5-.9-.2s-.2.6-.2.8l.2.8c.1.5 0 .9-.4 1.2-.5.6-1.3.3-1.8-.3zM62.3 20.7l3.8-1.9 1.1 2.2-.4.2-.9-1.7-1.1.6.8 1.6-.4.2-.8-1.6-1.3.7.9 1.7-.4.2-1.3-2.2z"/></g></g></g></symbol></svg>