<?xml version="1.0" encoding="utf-8"?>
<!-- Generator: Adobe Illustrator 25.2.1, SVG Export Plug-In . SVG Version: 6.00 Build 0)  -->
<svg version="1.1" id="Layer_1" xmlns="http://www.w3.org/2000/svg" xmlns:xlink="http://www.w3.org/1999/xlink" x="0px" y="0px"
	 viewBox="0 0 434.2 138" style="enable-background:new 0 0 434.2 138;" xml:space="preserve">
<style type="text/css">
	.st0{enable-background:new    ;}
	.st1{fill:#1b4932;}
</style>
<g class="st0">
	<path class="st1" d="M23.6,65.6c-0.3,6.1-0.2,9-0.1,11.1l0.2,3.2c0.1,1.1,0.1,2.3,0.1,4.1c0,0,1,1.2,1.1,2.4c0.1,1.1-0.9,1.7-2,1.7
		c-0.6,0-1.2-0.2-1.6-1c-0.2-0.4-0.3-1.8-0.4-3.9c-0.4-7.5-0.3-23.2-0.2-25.1c0.3-3.6-0.2-7.2,1.8-7.3c1.4-0.1,1.8,1.2,1.8,2.6
		C24.4,56.3,23.8,61.3,23.6,65.6z"/>
	<path class="st1" d="M46.6,88.8c-1.1,0.1-2.4-0.8-2.5-2.3c0-0.4,0.1-0.7,0.1-1.2c-0.1-1.1-0.7-3.6-1-8.3L43,71.8
		c0-0.6-0.3-4.9-0.9-4.9c-1,0.1-4.5,7.6-6.5,14.1c-1.4,4.4-1.2,5.7-1.8,6.3c-0.3,0.1-0.6,0.3-1,0.3c-0.4,0-0.8-0.1-1.2-0.6
		c-0.2-0.4-0.4-0.9-0.4-1.7c-0.1-1.7,0.1-4.8-0.1-10.5c-0.2-5,0.1-8.8,0.2-9.6c0.1-0.9,0.6-1.2,1.1-1.3c0.7,0,1.4,0.4,1.7,0.8
		c0.2,0.2,0.2,0.5,0.3,0.9c0.1,1.2-0.4,3.2-0.2,6.3c0.1,1.5,0,2.2,0,2.9c0,0.3,0,0.6,0.1,1c0,0,5-12.5,8.3-12.6l0.2,0
		c2.5,0.4,3,5.3,3.4,12.2l0.3,6.1c0.1,2.1,0.2,3.1,0.3,3.4c0.4,0.7,1,1.7,1,2.5C47.8,88,47.4,88.7,46.6,88.8z"/>
	<path class="st1" d="M64,61.1c-1,0.1-1.6-0.6-2-0.5c-1.8,0.1-2.3,1.3-6.3,5.3c-2.3,2.2-3.4,5.4-3.3,7c0.2,3.1,3.7,3.9,7.3,5.1
		c3.3,1.1,6.3,1.5,6.5,4.8c0.1,2.2-8.3,7.2-9.1,7.2c-1.1,0-1.9-0.6-2-1.3c0-0.3,0.1-0.5,0.3-0.8c0.3-0.5,7.8-3.5,7.7-5.4
		c-0.9-2.6-13-1.4-13.4-9.3c-0.3-5.8,6.1-11.1,9.4-14.2c0.6-0.6,1.4-0.8,2.1-0.9c0.5,0,0.9,0.1,1.2,0.2c0.7,0.3,2.6,1.1,2.7,1.8
		l0,0.2C65.1,60.6,64.8,61.1,64,61.1z"/>
	<path class="st1" d="M74.4,84.6c-0.8,0-1.7-0.7-1.9-1.3c0,0-0.5,4.7-0.1,12l0.2,3.5c0.2,3.8,0.5,6.2,0.6,6.4c0.2,0.4,0.3,0.7,0.3,1
		c0,0.9-0.5,1.6-1.2,1.6c-1.1,0.1-1.9-1.1-2-2.1c0-0.4,0-0.7,0.2-1c0-0.1,0-0.2,0-0.5c-0.1-1.2-0.5-4.1-0.8-8.9
		c-0.1-1.4-0.1-2.9-0.1-4.6c-0.1-11,0.4-14.8,1.2-24.5c0,0-1.3-0.3-1.4-1.5c-0.1-1.6,2.8-2.5,3.6-2.5c3.7-0.1,11.1,3.1,11.4,9.3
		C84.7,76.1,75.5,84.5,74.4,84.6z M74.3,65c0,0-0.6,4.2-0.9,7.3c-0.3,3.1-0.8,9.8-0.8,9.8s8-4.5,9-10.3c0-0.3,0-0.4,0-0.6
		C81.5,68.6,77.4,65.1,74.3,65z"/>
	<path class="st1" d="M91.3,46.7c0,0.7-0.7,1.6-1.3,3.4c-0.7,2-0.3,2.9-0.8,3.4C89,53.7,88.7,54,88.3,54c-0.8,0-1-1-1-1.8
		c0-1,0.2-2.2,0.7-3.6c1-2.3,0.5-3.5,1.9-3.6c0.7,0,1.4,0.6,1.4,1.4L91.3,46.7z M91.5,77.3l0.1,1c0.1,2.4,0.8,2.5,0.8,3.4
		c0,0.9-0.3,1.8-1.3,1.8c-0.4,0-0.9-0.1-1.3-0.4c-0.5-0.3-0.7-1.5-0.8-3.4c-0.1-2.5-0.1-6.4-0.1-11.5c0-2.9-0.4-5.9,1.5-6.1
		c0.9,0,1.7,0.7,1.7,1.9C92.2,65.8,91.4,75.2,91.5,77.3z"/>
	<path class="st1" d="M117.3,62.6c-0.7,0-1.3-0.4-2.1-0.4c-0.4,0-0.8,0.1-1.4,0.5c-3.2,2.1-7,6.8-10.5,12.8c-1.8,3.1-0.9,7.1-1.5,8
		c-0.3,0.4-0.7,0.6-1.1,0.6c-0.5,0-1.1-0.2-1.5-0.6c-0.3-0.3-0.5-0.8-0.5-1.5c-0.1-1.6,0.4-4.3,0.4-8.4c0-1.4,0-2.5-0.1-3.6
		c-0.3-6.6-1.6-7.7-1.6-8.3c0-0.6,1-1.3,1.5-1.3c0.4,0,0.8,0.1,1.2,0.5c0.8,0.7,1.1,1.9,1.3,5.1c0.1,1.8,0.2,2.9,0.4,6.4
		c0,0,3.4-5.1,6.6-8.4c1.9-2,3.9-4.5,7.1-4.7c0.7,0,1.5,0,2.5,0.3c0.3,0.1,0.8,0.7,0.8,1.3C118.8,61.9,118.1,62.6,117.3,62.6z"/>
	<path class="st1" d="M123.4,45c0,0.7-0.7,1.6-1.3,3.4c-0.7,2-0.3,2.9-0.8,3.4c-0.3,0.3-0.6,0.5-0.9,0.5c-0.8,0-1-1-1-1.8
		c0-1,0.2-2.2,0.7-3.6c1-2.3,0.5-3.5,1.9-3.6c0.7,0,1.4,0.6,1.4,1.4L123.4,45z M123.6,75.6l0.1,1c0.1,2.4,0.8,2.5,0.8,3.4
		c0,0.9-0.3,1.8-1.3,1.8c-0.4,0-0.9-0.1-1.3-0.4c-0.5-0.3-0.7-1.5-0.8-3.4c-0.1-2.5-0.1-6.4-0.1-11.5c0-2.9-0.4-5.9,1.5-6.1
		c0.9,0,1.7,0.7,1.7,1.9C124.3,64.2,123.5,73.5,123.6,75.6z"/>
	<path class="st1" d="M147.1,83.5c-1.1,0.1-2.4-0.8-2.5-2.3c0-0.4,0.1-0.7,0.1-1.2c-0.1-1.1-0.7-3.6-1-8.3l-0.2-5.1
		c0-0.6-0.3-4.9-0.9-4.9c-1,0-4.5,7.6-6.5,14.1c-1.4,4.4-1.2,5.7-1.8,6.3c-0.3,0.1-0.6,0.3-1,0.3c-0.4,0-0.8-0.1-1.2-0.6
		c-0.2-0.4-0.4-0.9-0.4-1.7c-0.1-1.7,0.1-4.8-0.1-10.5c-0.2-5,0.1-8.8,0.2-9.6c0.1-0.9,0.6-1.2,1.1-1.3c0.7,0,1.4,0.4,1.7,0.8
		c0.2,0.2,0.2,0.5,0.3,0.9c0.1,1.2-0.4,3.2-0.2,6.3c0.1,1.5,0,2.2,0,2.9c0,0.3,0,0.6,0.1,1c0,0,5-12.5,8.3-12.6l0.2,0
		c2.5,0.4,3,5.3,3.4,12.2l0.3,6.1c0.1,2.1,0.2,3.1,0.3,3.4c0.4,0.7,1,1.7,1,2.5C148.3,82.7,147.9,83.5,147.1,83.5z"/>
	<path class="st1" d="M185.5,83.2c-2.1,0.1-1.8-0.6-2.5-1.3c0,0-0.8,0-2,0.1c-2.8,0.1-6.1,0.6-8.9,1.2c0,0,0.9,1.5,1,4.5
		c0.1,2.8-0.3,6.8-2.7,12.2c-1.9,4.2-6.6,9.8-12.8,10.2c-4.8,0.3-10.5-3.2-10.8-8.9c-0.1-2.6,0.8-5.5,3.1-8.3
		c5.9-7.2,10.7-9.1,18.2-11.2c0,0-2.2-3.5-6.7-3.6c-0.6,0-1.1,0-1.5,0c-4.6,0.2-6.3,2.1-7.7,2.2c-0.7,0-1.7-0.4-1.8-1.2
		c-0.1-1.2,1.3-1.7,2.3-2c0,0-0.7-1.4-0.8-3c-0.1-2.8,2.1-5.1,5.4-9.7c0,0-1.5-0.8-1.6-1.6c0-0.6,0.4-1.4,1.1-1.4
		c0.3,0,0.6,0.1,1.1,0.4c0.2,0.1,0.6,0.1,1.2,0.1c3-0.2,10.3-1.8,13.3-2c0.5,0,0.8,0,1.1,0c0.7,0.2,1.3,0.5,1.3,1
		c0,0.4-0.4,1.1-1,1.1c-0.4,0-1-0.1-2,0c-2.2,0.1-4.5,0.9-7.2,1.4c1.4,1.2,2.9,2.8,3,4.9c0.2,3-2,5-4.6,7.3c0,0,1.8,0.3,3.7,1.6
		c2.2,1.4,2.7,2.2,4,3.9c0,0,4.8-0.8,8.5-1c3.4-0.2,7.5-0.2,8.6,1.7c0.1,0.1,0.1,0.3,0.1,0.4C188.2,82.7,186.8,83.1,185.5,83.2z
		 M169.5,83.8c0,0-11,2.2-17,10.4c-1.9,2.5-2.8,4.8-2.7,6.7c0.2,3.6,4.2,6.4,7.7,6.2c3.9-0.2,7.7-3.4,9.6-6.7
		c2.5-4.5,3.7-8.4,3.5-11.9C170.5,86.9,170.1,85.3,169.5,83.8z M161.1,64.1c-4.7,4.7-6.1,8.4-6.1,9.7c0.1,1,0.5,2.1,0.5,2.1
		s2.1-0.5,3.6-1.3c2.2-1.1,6.3-3.7,6.1-6.4C165.2,66.1,163.2,64.4,161.1,64.1z"/>
	<path class="st1" d="M235.9,66.3c-2.3,0.4-17,10.2-26.8,10.7c-2.3,0.1-4.3-0.3-5.9-1.3c-2.8-2-4.1-4.6-4.3-7.5
		c-0.5-9.9,11.9-23.3,20.5-27.3c0.4-0.2,1.7-0.8,2.8-0.8c1-0.1,1.8,0.4,1.8,1.7c0.1,1.3-1.6,1.7-2.7,2c-6.7,1.8-19.9,15.7-19.5,24.5
		c0.1,2.2,1.1,4,3.2,5.2c1.2,0.7,2.7,0.9,4.4,0.8c9-0.5,23.7-10,24.8-10.6c0.5-0.2,1.6-1,2.7-1c0.9,0,1.8,0.6,1.9,1.7
		C238.9,65.8,235.9,66.3,235.9,66.3z"/>
	<path class="st1" d="M258.4,55.2c-0.7,0-1.3-0.4-2.1-0.4c-0.4,0-0.8,0.1-1.4,0.5c-3.2,2.1-7,6.8-10.5,12.8c-1.8,3.1-0.9,7.1-1.5,8
		c-0.3,0.4-0.7,0.6-1.1,0.6c-0.5,0-1.1-0.2-1.5-0.6c-0.3-0.3-0.5-0.8-0.5-1.5c-0.1-1.6,0.4-4.3,0.4-8.4c0-1.4,0-2.5-0.1-3.6
		c-0.3-6.6-1.6-7.7-1.6-8.3c0-0.6,1-1.3,1.5-1.3c0.4,0,0.8,0.1,1.2,0.5c0.8,0.7,1.1,1.9,1.3,5.1c0.1,1.8,0.2,2.9,0.4,6.4
		c0,0,3.4-5.1,6.6-8.4c1.9-2,3.9-4.5,7.1-4.7c0.7,0,1.5,0,2.5,0.3c0.3,0.1,0.8,0.7,0.8,1.3C259.9,54.5,259.2,55.2,258.4,55.2z"/>
	<path class="st1" d="M281.2,65.6c-1.1,0.7-9.2,8.9-15.2,9.2c-0.8,0-1.6-0.1-2.4-0.4c-3.5-1.4-6.2-5.5-6.4-9.4c0-0.6,0-1.3,0.1-1.9
		c1.1-6.1,7.7-10.5,13.2-10.8c1.7-0.1,3.3,0.2,4.6,1c0.2,0.1,0.2,0.2,0.2,0.4c0.1,1.3-4.3,4.9-7.2,6.9c-3.2,2.2-6.4,2.7-7.9,2.9
		c0,0-0.1,0.6-0.1,1.5c0.1,1.1,0.4,2.7,1.7,4.5c1,1.5,2.1,2.7,4.4,2.6c4.2-0.2,12-7.4,12.5-8.1c0.3-0.6,0.8-2,1.7-2.1
		c0.8,0,1.6,0.7,1.7,1.6C282.3,64.3,281.8,65.1,281.2,65.6z M265.6,56.7c-2.6,1.5-4.2,3.8-4.2,3.8s3-0.3,6.1-2.5
		c1.3-0.9,2.2-1.5,3.8-3.1C269.4,55.1,267.5,55.6,265.6,56.7z"/>
	<path class="st1" d="M297.7,72.7c-0.1,0.2-0.4,0.2-0.6,0.2c-0.4,0-0.9-0.1-1.1-0.4c-0.3-0.3-0.5-1.2-0.5-1.2s-3.6,2.8-6.9,3
		c-2.6,0.1-4.3-1.4-4.4-4c-0.2-3.5,2.7-8.5,6.8-8.7c2.9-0.2,4.4,2.4,5.3,4.8c0,0,0.7-2,0.6-4.9c-0.2-3.1-1.6-8.9-5.8-8.7
		c-2.1,0.1-4.1,1.6-4.2,2.4c0,0.2-0.1,0.3-0.4,0.3c-0.6,0-1.5-0.3-1.6-1.2c-0.1-1.8,3.3-3.8,6.3-3.9c1.1-0.1,2.1,0.1,3,0.6
		c3.8,2.1,5.1,6.3,5.3,10.4C299.6,67,297.9,72.5,297.7,72.7z M291.1,64.3c-2.6,0.1-4.7,3.1-4.6,5.8c0.1,1.2,0.6,1.9,1.9,1.8
		c2.6-0.1,6-3.3,6-3.3S292.9,64.2,291.1,64.3z"/>
	<path class="st1" d="M322.7,49.9c-4.2,0.2-7.8,1.2-9.7,1.7c0,0.6-0.7,9.2-0.3,16.3c0,0.9,0.1,1.8,0.2,2.6c0,0.2,0.3,0.9,0.3,1.6
		c0,0.7-0.2,1.3-1.2,1.3l-0.2,0c-1.6,0-2-2-2-2.8c-0.1-2.4-0.3-5.7,0-11.1c0.2-3.8,0.3-4.8,0.5-7.1c0,0-2.6,0.7-4.4,1.7
		c-0.9,0.5-2.6,2.2-3.5,2.3c-0.9-0.2-1.7-0.7-1.7-1.4c0-0.1,0-0.2,0-0.3c0.2-0.8,0.3-1.2,3.2-2.5c3-1.3,3.6-1.6,6.8-2.6
		c0,0,0.5-4.4,0.7-10.2l0-0.3c0-0.6-0.2-1.3-0.2-2.1c-0.1-1.1,0.1-2.1,1.1-2.1c1-0.1,1.7,0.9,1.8,3.7c0,0.8,0,1.7,0,2.9
		c-0.2,3.2-0.4,4.1-0.7,7.5c0,0,3.1-0.9,6.9-1.1c0.5,0,1.9,0,2.4,0c1.3,0,3-0.1,3.2,1.3c0,0.4-0.1,0.7-0.4,0.8
		c0.8,0.1,1.5,0.8,1.5,1.9c0.1,1.8-0.7,11.2-0.6,13.2l0.1,1c0.1,2.4,0.8,2.5,0.8,3.4c0,0.9-0.3,1.8-1.3,1.8c-0.4,0-0.9-0.1-1.3-0.4
		c-0.5-0.3-0.7-1.5-0.8-3.4c-0.1-2.5-0.1-6.4-0.1-11.5c0-2.5-0.3-5.2,0.9-5.9C323.9,50,323.2,49.9,322.7,49.9z M327.2,34.3
		c0,0.7-0.7,1.6-1.3,3.4c-0.7,2-0.3,2.8-0.8,3.4c-0.2,0.3-0.6,0.6-0.9,0.6c-0.8,0-1-1-1-1.8c0-1,0.2-2.2,0.7-3.6
		c1-2.3,0.5-3.5,1.9-3.6c0.7,0,1.4,0.6,1.4,1.4L327.2,34.3z"/>
	<path class="st1" d="M352.7,50.1c-2.2,2.1-10.5,16.2-11.3,18.1c-0.4,1.1-1.3,2.9-2.6,3c-0.2,0-0.5-0.1-0.8-0.2
		c-1.1-0.5-1.5-2.4-1.9-3.5c-1.6-4.6-2.7-9.2-3.3-10.6c-0.4-1.1-1.4-3-1.5-4.1c0-0.5,0.3-1,1-1.1c1.1-0.1,2.5,1.7,3.3,4.1
		c0.9,2.6,0.7,3.3,1.8,6.8c0.3,1,0.6,2.1,1.2,3.8c0,0,2.9-4.8,5.9-9.5c3.1-4.6,7-10.3,7.1-10.8c0.2-0.5,1-2.7,2.1-2.8
		c0.8,0,1.4,1,1.5,1.8C355.4,46.8,354.1,48.8,352.7,50.1z"/>
	<path class="st1" d="M360.3,32.6c0,0.7-0.7,1.6-1.3,3.4c-0.7,2-0.3,2.9-0.8,3.4c-0.2,0.3-0.6,0.5-0.9,0.5c-0.8,0-1-1-1-1.8
		c0-1,0.2-2.2,0.7-3.6c1-2.3,0.5-3.5,1.9-3.6c0.7,0,1.4,0.6,1.4,1.4L360.3,32.6z M360.5,63.2l0.1,1c0.1,2.4,0.8,2.5,0.8,3.4
		c0,0.9-0.3,1.8-1.3,1.8c-0.4,0-0.9-0.1-1.3-0.4c-0.5-0.3-0.7-1.5-0.8-3.4c-0.1-2.5-0.1-6.4-0.1-11.5c0-2.9-0.4-5.9,1.5-6.1
		c0.9,0,1.7,0.7,1.7,1.9C361.2,51.7,360.4,61.1,360.5,63.2z"/>
	<path class="st1" d="M403.4,53.2c-0.2,3-0.7,15.2-1.2,24c-0.4,6.5-0.9,9.9-0.8,11c0,0.2,0,0.3,0.1,0.4c0.2,0.3,0.8,1.2,0.9,2.1
		c0,0.8-0.5,1.5-1.8,1.5c-1.6,0.1-2.2-0.7-2.2-1.6c0-0.8,0.3-1.7,0.5-1.7c0.4-0.1,0.7-6.2,1.2-16.9c0.4-7.3,0.5-11.2,0.3-19.1
		c0,0-8.6,12.1-11.8,12.2c-1.2,0.1-1.6-1.3-1.7-3.4c-0.2-3,0.4-7.5,0.8-11.9c0.1-1.3,0.1-2.3,0.3-3.2c0,0-0.7-0.1-1.7-0.1
		c-3.3,0.2-6.9,1.1-8.8,1.6c0,0.6-0.7,9.2-0.3,16.3c0,0.9,0.1,1.8,0.2,2.6c0,0.2,0.3,0.9,0.3,1.6c0,0.7-0.2,1.3-1.2,1.3l-0.2,0
		c-1.6,0-2-2-2-2.8c-0.1-2.4-0.3-5.7,0-11.1c0.2-3.8,0.3-4.8,0.5-7.1c0,0-2.6,0.7-4.4,1.7c-0.9,0.5-2.6,2.2-3.5,2.3
		c-0.9-0.2-1.7-0.7-1.7-1.4c0-0.1,0-0.2,0-0.3c0.2-0.8,0.3-1.2,3.2-2.5c3-1.3,3.6-1.6,6.8-2.6c0,0,0.5-4.4,0.7-10.2l0-0.3
		c0-0.6-0.2-1.3-0.2-2.1c-0.1-1.1,0.1-2.1,1.1-2.1c1-0.1,1.7,0.9,1.8,3.7c0,0.8,0,1.7,0,2.9c-0.2,3.2-0.4,4.1-0.7,7.5
		c0,0,3.4-0.9,7.2-1.1c0.5,0,1,0,1.4,0c1,0,4.6,0.1,4.8,2c0.1,1.3-1.6,10-1.4,13c0,0.5,0.1,0.9,0.3,1c0.1,0,0.1,0,0.2,0
		c1.3-0.1,5.4-5.5,9.4-10.7c0.6-0.9,0.8-2.5,1.9-2.6c0.2,0,0.4,0,0.6,0.1c0.9,0.3,1.4,2.4,1.5,4.4C403.4,52.1,403.4,52.7,403.4,53.2
		z"/>
	<path class="st1" d="M413.4,43c-0.3,4.7-1.3,11.5-1.2,13.3c0.1,1.1,0.6,2.1,0.7,3.3c0,0.8-0.3,1.6-1,1.6c-1.6,0.1-2-1.5-2.1-2.9
		c0-0.4,0-0.8,0-1.3c0.3-8.8,0.4-12.5,0.7-21.3c0.1-2.3-0.2-6.7,0.1-7.1c0.2-0.3,0.8-0.7,1.4-0.7c1.4-0.1,1.6,1.7,1.6,3.1
		C413.9,34.8,413.6,38.6,413.4,43z M411.6,73.8c-0.8,0-1.5-1.4-1.6-2.3c0-0.9,0.2-1.9,0.9-1.9c1.6-0.1,1.8,0.8,1.9,1.9
		C412.9,72.5,412.8,73.7,411.6,73.8z"/>
</g>
</svg>
