<?xml version="1.0" encoding="utf-8"?>
<!-- Generator: Adobe Illustrator 24.3.0, SVG Export Plug-In . SVG Version: 6.00 Build 0)  -->
<svg version="1.1" id="Layer_1" xmlns="http://www.w3.org/2000/svg" xmlns:xlink="http://www.w3.org/1999/xlink" x="0px" y="0px"
	 viewBox="0 0 120 120" style="enable-background:new 0 0 120 120;" xml:space="preserve">
<style type="text/css">
	.st0{fill:#D97924;}
</style>
<g>
	<path class="st0" d="M60,120c-16,0-31.1-6.2-42.4-17.6S0,76,0,60s6.2-31.1,17.6-42.4C28.9,6.2,44,0,60,0c16,0,31.1,6.2,42.4,17.6
		C113.8,28.9,120,44,120,60s-6.2,31.1-17.6,42.4C91.1,113.8,76,120,60,120z M60,1.2C27.6,1.2,1.2,27.5,1.2,60
		c0,32.4,26.4,58.8,58.8,58.8c32.4,0,58.8-26.4,58.8-58.8C118.8,27.5,92.4,1.2,60,1.2z"/>
	<path class="st0" d="M95.9,75.7C89.9,89.5,76,99.2,60,99.2s-29.9-9.7-35.9-23.5h-1.3c6.1,14.5,20.5,24.7,37.2,24.7
		s31.1-10.2,37.2-24.7H95.9z"/>
	<path class="st0" d="M21.6,52.3C25.1,34.4,41,20.8,60,20.8s34.9,13.6,38.4,31.5h1.2c-3.6-18.6-20-32.7-39.7-32.7
		S23.9,33.7,20.3,52.3H21.6z"/>
	<path class="st0" d="M15.9,88l-0.6-1.1l3.1-1.9v0l-3.8,0.7l-0.5-0.9l2.7-2.8l0,0l-3.3,1.6l-0.6-1.1l4.9-2.2l0.8,1.4L16,84.3v0
		l3.7-0.7l0.8,1.4L15.9,88z"/>
	<path class="st0" d="M19.7,93.2l-0.8-1.1l0.7-1l-1.1-1.6l-1.1,0.3l-0.8-1.1l5.6-1.5l0.8,1.1L19.7,93.2z M20.1,90.4l1.2-1.7l-2,0.6
		L20.1,90.4z"/>
	<path class="st0" d="M25.7,93.4l-0.9-1.1l-3.3,2.9l-0.8-1l3.3-2.9L23,90.3l0.8-0.7l2.7,3L25.7,93.4z"/>
	<path class="st0" d="M25.8,99.6l-2.6-2.5l3.7-3.9l2.5,2.4l-0.7,0.7l-1.6-1.5l-0.8,0.8l1.5,1.5l-0.7,0.7l-1.5-1.5l-0.9,0.9l1.7,1.6
		L25.8,99.6z"/>
	<path class="st0" d="M30.4,103.2l-1.2-0.9l0.4-2.3l-0.3-0.3l-1.3,1.6l-1-0.8l3.3-4.3l1.5,1.2c0.5,0.4,0.8,0.8,0.9,1.2
		c0.1,0.4,0,0.9-0.3,1.3c-0.6,0.8-1.4,0.7-1.8,0.6L30.4,103.2z M31.5,98.7c0-0.2-0.2-0.3-0.4-0.5l-0.4-0.3L29.8,99l0.4,0.3
		c0.2,0.2,0.4,0.3,0.6,0.3s0.4,0,0.6-0.3C31.6,99,31.6,98.8,31.5,98.7z"/>
	<path class="st0" d="M32.4,104.5l-1.1-0.7l3-4.5l1.1,0.7L32.4,104.5z"/>
	<path class="st0" d="M38,107.7l-1.2-0.7l0.2-1.1l-1.7-0.9l-0.8,0.8l-1.2-0.6l4.4-3.8l1.2,0.6L38,107.7z M37.2,104.9l0.3-2l-1.5,1.4
		L37.2,104.9z"/>
	<path class="st0" d="M42,109.4l-2.9-1.2l2.1-5l1.2,0.5l-1.7,4l1.7,0.7L42,109.4z"/>
	<path class="st0" d="M46.2,110.3c-0.5,0.2-1,0.2-1.5,0c-0.7-0.2-1.3-0.8-1.6-1.4l0.9-0.7c0.3,0.5,0.7,1,1.1,1.1
		c0.4,0.1,0.7,0,0.8-0.3c0.1-0.4-0.2-0.6-0.4-0.8c-0.2-0.1-0.6-0.4-0.7-0.5c-0.1-0.1-0.3-0.3-0.5-0.6c-0.1-0.3-0.2-0.6-0.1-1.1
		c0.1-0.5,0.5-0.8,0.9-1c0.4-0.1,0.9-0.2,1.5,0c0.6,0.2,1.2,0.7,1.4,1.1l-0.8,0.7c-0.2-0.4-0.6-0.8-1-0.9c-0.4-0.1-0.7-0.1-0.8,0.3
		c-0.1,0.3,0.1,0.5,0.4,0.7c0.2,0.2,0.5,0.4,0.7,0.5c0.1,0.1,0.4,0.3,0.6,0.6c0.1,0.3,0.2,0.7,0.1,1.1
		C47,109.8,46.7,110.2,46.2,110.3z"/>
	<path class="st0" d="M55.4,112.5l-1.4-0.2l-0.4-0.7c-0.6,0.4-1.1,0.5-1.8,0.4c-1-0.1-1.8-0.8-1.6-1.9c0.1-0.8,0.8-1.1,1.5-1.3
		c-0.2-0.3-0.4-0.7-0.4-1.2c0.1-0.9,1-1.2,1.8-1c0.8,0.1,1.5,0.7,1.4,1.5c-0.1,0.6-0.7,1-1.2,1.2l0.6,0.9c0.2-0.1,0.7-0.6,0.8-0.9
		l0.8,0.6c-0.2,0.3-0.7,0.8-1.1,1.1L55.4,112.5L55.4,112.5z M52.2,109.6l-0.2,0.1c-0.3,0.1-0.6,0.3-0.7,0.7
		c-0.1,0.4,0.2,0.7,0.6,0.8c0.4,0.1,0.8-0.1,1-0.3L52.2,109.6z M53,107.4c-0.3,0-0.6,0.1-0.6,0.4c0,0.2,0.1,0.4,0.2,0.6l0.1,0.2
		c0.3-0.1,0.7-0.3,0.7-0.6C53.5,107.7,53.3,107.5,53,107.4z"/>
	<path class="st0" d="M65,112.6l-1.2,0l-0.3-3.7h0l-1.1,3.7l-1,0l-1.2-3.7h0l-0.1,3.7l-1.2,0l0.3-5.4l1.6,0l1.2,3.5h0l1.1-3.5l1.6,0
		L65,112.6z"/>
	<path class="st0" d="M71.4,111.7l-1.4,0.2l-0.6-1l-1.9,0.3l-0.2,1.1l-1.3,0.2l1.2-5.7l1.3-0.2L71.4,111.7z M69,109.9l-1-1.8l-0.4,2
		L69,109.9z"/>
	<path class="st0" d="M77.3,110.1l-1.2,0.4l-3.3-2.9c0,0,0.2,0.6,0.4,1.2l0.7,2.4l-1.2,0.3l-1.5-5.2l1.3-0.4l3.2,2.9
		c0,0-0.2-0.6-0.3-1.1l-0.7-2.4l1.2-0.3L77.3,110.1z"/>
	<path class="st0" d="M82.3,105.7c0.3,0.7,0.4,1.2,0.2,1.8c-0.2,0.5-0.6,1-1.4,1.3c-0.7,0.3-1.4,0.3-1.9,0.1
		c-0.5-0.2-0.8-0.7-1.1-1.4l-1.2-2.9l1.2-0.5l1.2,2.9c0.1,0.4,0.3,0.6,0.6,0.7c0.2,0.1,0.5,0.1,0.8,0c0.3-0.1,0.5-0.4,0.6-0.6
		c0.1-0.3,0-0.6-0.1-0.9l-1.2-2.9l1.2-0.5L82.3,105.7z"/>
	<path class="st0" d="M85.5,101.5l-1.9,1l0.6,1.2l1.7-1l0.5,0.9l-1.7,1l1,1.8l-1.1,0.6l-2.6-4.7l3-1.6L85.5,101.5z"/>
	<path class="st0" d="M92.6,102.1l-1.1,0.8l-0.9-0.7l-1.6,1.1l0.3,1.1l-1.1,0.7l-1.4-5.6l1.1-0.7L92.6,102.1z M89.7,101.5l-1.7-1.2
		l0.5,2L89.7,101.5z"/>
	<path class="st0" d="M96.4,98c0,0.4-0.2,1.1-1,1.8c-1.2,1-2.8,1-4-0.3c-1.1-1.3-0.8-2.9,0.3-4c0.8-0.7,1.6-0.8,1.8-0.7l0.4,1.1
		c-0.2,0-0.9,0-1.4,0.5c-0.7,0.6-0.8,1.5-0.1,2.3c0.7,0.8,1.6,0.8,2.3,0.2c0.5-0.4,0.7-1,0.7-1.4L96.4,98z"/>
	<path class="st0" d="M97.1,91.9l-1,1l3.2,3l-0.9,0.9l-3.2-3l-1,1l-0.7-0.7l2.8-2.9L97.1,91.9z"/>
	<path class="st0" d="M102,89c0.6,0.5,0.9,0.9,1,1.4c0.1,0.6-0.1,1.2-0.6,1.8c-0.5,0.6-1,0.9-1.6,1c-0.6,0-1.1-0.2-1.7-0.6l-2.5-1.9
		l0.8-1l2.5,1.9c0.3,0.2,0.6,0.4,0.8,0.4c0.3,0,0.5-0.1,0.7-0.4c0.2-0.3,0.3-0.6,0.2-0.8c-0.1-0.3-0.3-0.5-0.6-0.7l-2.5-1.9l0.8-1
		L102,89z"/>
	<path class="st0" d="M107,85.3l-0.8,1.2l-2.3-0.1l-0.2,0.3l1.8,1.1l-0.7,1.1l-4.6-2.8l1-1.7c0.3-0.5,0.7-0.8,1.1-1
		c0.4-0.2,0.9-0.1,1.4,0.1c0.9,0.5,0.9,1.3,0.8,1.7H107z M102.4,84.7c-0.2,0.1-0.3,0.2-0.5,0.5l-0.3,0.4l1.2,0.7l0.3-0.4
		c0.1-0.3,0.2-0.4,0.2-0.6c0-0.2-0.1-0.4-0.3-0.5C102.7,84.6,102.6,84.6,102.4,84.7z"/>
	<path class="st0" d="M109.1,81.1l-1.5,3.2l-4.9-2.3l1.5-3.2l0.9,0.4l-1,2l1,0.5l0.9-1.9l0.9,0.4l-0.9,1.9l1.1,0.6l1-2.1L109.1,81.1
		z"/>
	<path class="st0" d="M20,36.4l-0.6,1.1L16,36.1v0l2.8,2.7l-0.4,0.9l-3.8-0.6v0l3.2,1.8L17.3,42l-4.7-2.8l0.7-1.4l3.7,0.6v0
		l-2.7-2.6l0.7-1.4L20,36.4z"/>
	<path class="st0" d="M23.2,31.6l-0.8,1.1l-1.1-0.3L20.3,34L21,35l-0.7,1.1l-3.3-4.7l0.7-1.1L23.2,31.6z M20.4,32.1l-2-0.5l1.2,1.7
		L20.4,32.1z"/>
	<path class="st0" d="M22.2,26l-0.9,1.1l3.4,2.8l-0.8,1l-3.4-2.8l-0.9,1.1l-0.8-0.6l2.6-3.2L22.2,26z"/>
	<path class="st0" d="M28.6,25.7l-2.5,2.5l-3.9-3.8l2.5-2.5l0.7,0.7l-1.6,1.6l0.8,0.8l1.5-1.5l0.7,0.7l-1.5,1.5l0.9,0.9l1.6-1.7
		L28.6,25.7z"/>
	<path class="st0" d="M32.7,22.3l-1.1,0.9l-2.2-0.9L29,22.6l1.3,1.6l-1,0.8L26,20.8l1.5-1.2c0.5-0.4,0.9-0.6,1.3-0.6
		c0.4,0,0.9,0.1,1.2,0.6c0.7,0.8,0.4,1.5,0.2,1.9L32.7,22.3z M28.5,20.1c-0.2,0-0.4,0.1-0.6,0.3l-0.4,0.3l0.9,1.1l0.4-0.3
		c0.2-0.2,0.4-0.3,0.4-0.5c0-0.2,0-0.4-0.1-0.6C28.9,20.2,28.8,20.1,28.5,20.1z"/>
	<path class="st0" d="M34.4,21.2l-1,0.7l-3.1-4.4l1-0.7L34.4,21.2z"/>
	<path class="st0" d="M39.6,18l-1.2,0.7l-0.9-0.7l-1.7,1l0.2,1.1l-1.1,0.7L34,15l1.1-0.7L39.6,18z M36.8,17.2l-1.5-1.4l0.4,2
		L36.8,17.2z"/>
	<path class="st0" d="M43.1,16.4l-2.9,1.3l-2.2-5l1.1-0.5l1.8,4l1.7-0.8L43.1,16.4z"/>
	<path class="st0" d="M46.6,14.8c-0.3,0.4-0.7,0.7-1.2,0.9c-0.7,0.3-1.5,0.1-2.1-0.1l0.3-1.1c0.5,0.3,1.2,0.3,1.5,0.2
		c0.4-0.1,0.6-0.4,0.5-0.8c-0.1-0.3-0.6-0.4-0.8-0.4c-0.3,0-0.7,0-0.9,0c-0.1,0-0.4,0-0.7-0.2c-0.3-0.1-0.6-0.4-0.7-0.8
		c-0.2-0.5-0.1-1,0.1-1.3c0.2-0.3,0.6-0.7,1.2-0.9c0.6-0.2,1.4-0.1,1.8,0.1l-0.2,1c-0.4-0.2-0.9-0.3-1.3-0.1
		c-0.4,0.1-0.6,0.4-0.5,0.7c0.1,0.3,0.4,0.3,0.7,0.3c0.3,0,0.7,0,0.9,0c0.1,0,0.6,0,0.8,0.2c0.3,0.1,0.6,0.4,0.7,0.8
		C47,13.9,46.9,14.4,46.6,14.8z"/>
	<path class="st0" d="M55.4,13.3l-1.4,0.3L53.3,13c-0.5,0.5-0.9,0.8-1.6,1c-1,0.2-1.9-0.2-2.1-1.2c-0.1-0.8,0.4-1.3,1-1.8
		c-0.3-0.2-0.7-0.5-0.7-1.1c-0.1-0.8,0.6-1.4,1.4-1.6c0.8-0.1,1.7,0.1,1.8,1c0.1,0.6-0.3,1.2-0.8,1.5l0.8,0.7
		c0.1-0.2,0.4-0.8,0.5-1.1l1,0.3c-0.1,0.3-0.4,1-0.7,1.3L55.4,13.3L55.4,13.3z M51.3,11.6l-0.1,0.1c-0.2,0.2-0.5,0.4-0.4,0.9
		c0.1,0.4,0.5,0.6,0.9,0.6c0.4-0.1,0.7-0.4,0.9-0.6L51.3,11.6z M51.4,9.2c-0.3,0.1-0.5,0.3-0.4,0.6c0,0.2,0.2,0.4,0.3,0.5l0.2,0.2
		c0.2-0.2,0.5-0.5,0.5-0.8C52,9.3,51.7,9.2,51.4,9.2z"/>
	<path class="st0" d="M64,13.1l-1.2,0l-0.1-3.7h0l-1.2,3.7l-1,0l-1.1-3.7h0L59,13l-1.2,0l0.5-5.4l1.6,0l1.1,3.6h0l1.2-3.5l1.6,0
		L64,13.1z"/>
	<path class="st0" d="M69.8,13.9l-1.4-0.2l-0.2-1.1l-1.9-0.3l-0.5,1l-1.3-0.2L67.2,8l1.3,0.2L69.8,13.9z M68.1,11.6l-0.4-2l-0.9,1.8
		L68.1,11.6z"/>
	<path class="st0" d="M75.2,15.3L74,15l-1.3-4.1c0,0-0.1,0.6-0.3,1.2l-0.6,2.4L70.5,14l1.4-5.2l1.3,0.4l1.3,4.1c0,0,0.1-0.6,0.3-1.1
		l0.6-2.4l1.2,0.3L75.2,15.3z"/>
	<path class="st0" d="M81.4,15.3c-0.3,0.7-0.6,1.1-1.1,1.4c-0.5,0.2-1.1,0.2-1.9-0.1c-0.7-0.3-1.2-0.7-1.4-1.2
		c-0.2-0.5-0.1-1.1,0.2-1.8l1.2-2.9l1.2,0.5l-1.2,2.9c-0.1,0.4-0.2,0.6-0.1,0.9c0.1,0.3,0.3,0.5,0.6,0.6c0.3,0.1,0.6,0.1,0.8,0
		c0.3-0.1,0.4-0.4,0.5-0.8l1.2-2.9l1.2,0.5L81.4,15.3z"/>
	<path class="st0" d="M86.7,15.7l-1.9-1l-0.6,1.2l1.8,1l-0.5,0.9l-1.8-1l-1,1.8L81.6,18l2.6-4.8l3,1.6L86.7,15.7z"/>
	<path class="st0" d="M89.2,22.6L88,21.8l0.3-1.1l-1.6-1.1l-0.9,0.7l-1.1-0.7l4.7-3.3l1.1,0.7L89.2,22.6z M88.6,19.7l0.5-2L87.5,19
		L88.6,19.7z"/>
	<path class="st0" d="M93.4,25.4c-0.4,0-1.1,0-2-0.7c-1.2-1-1.5-2.6-0.3-4c1.1-1.3,2.8-1.3,4-0.3c0.8,0.7,1,1.5,1,1.7l-1,0.6
		c0-0.2-0.1-0.9-0.7-1.3c-0.7-0.6-1.6-0.6-2.3,0.2c-0.7,0.8-0.5,1.7,0.1,2.3c0.5,0.4,1.1,0.6,1.5,0.5L93.4,25.4z"/>
	<path class="st0" d="M99.2,26.1l-1-1l-3.2,3l-0.9-0.9l3.2-3l-1-1l0.7-0.7l2.8,2.9L99.2,26.1z"/>
	<path class="st0" d="M101.1,31.9c-0.6,0.5-1.1,0.7-1.7,0.6c-0.6,0-1.1-0.4-1.6-1c-0.5-0.6-0.7-1.2-0.6-1.8c0.1-0.6,0.4-1,1-1.4
		l2.5-1.9l0.8,1l-2.5,1.9c-0.3,0.2-0.5,0.4-0.6,0.7c-0.1,0.3,0,0.6,0.2,0.8c0.2,0.3,0.5,0.4,0.7,0.4c0.3,0,0.5-0.1,0.8-0.4l2.5-1.9
		l0.8,1L101.1,31.9z"/>
	<path class="st0" d="M102.2,37.9l-0.8-1.3l1.2-2l-0.2-0.3l-1.8,1.1l-0.7-1.1l4.6-2.8l1,1.7c0.3,0.5,0.4,1,0.4,1.4
		c0,0.4-0.3,0.9-0.8,1.1c-0.9,0.5-1.6,0.2-1.9-0.1L102.2,37.9z M104.9,34.1c0-0.2-0.1-0.4-0.2-0.6l-0.3-0.4l-1.2,0.7l0.3,0.4
		c0.1,0.3,0.3,0.4,0.5,0.5c0.2,0.1,0.4,0.1,0.6,0C104.8,34.5,104.8,34.3,104.9,34.1z"/>
	<path class="st0" d="M104,41.8l-1.5-3.2l4.9-2.3l1.5,3.2l-0.9,0.4l-1-2l-1,0.5l0.9,1.9l-0.9,0.4l-0.9-1.9l-1.1,0.5l1,2.1L104,41.8z
		"/>
	<path class="st0" d="M47.7,52.3h-3.5V37.4h3.5V52.3z"/>
	<path class="st0" d="M58.8,51.3c-1.1,0.8-2.4,1.2-4,1.2c-2.2,0-4.1-1.1-5.3-2.2l1.7-2.6c1.1,1.1,2.8,1.9,3.9,1.9c1.1,0,2-0.6,2-1.5
		c0-1-1.1-1.4-1.8-1.7c-0.7-0.3-1.8-0.6-2.3-0.8c-0.4-0.2-1.1-0.4-1.8-1.1c-0.7-0.6-1.2-1.5-1.2-2.9c0-1.4,0.7-2.6,1.6-3.3
		c0.8-0.7,2.2-1.2,3.9-1.2s3.7,0.8,4.7,1.8l-1.5,2.4C58,40.6,56.6,40,55.5,40c-1.1,0-1.9,0.4-1.9,1.3c0,0.9,0.8,1.2,1.5,1.5
		c0.7,0.3,1.8,0.7,2.2,0.8c0.4,0.1,1.4,0.6,2.1,1.2c0.6,0.6,1.2,1.5,1.2,2.9C60.5,49.2,59.9,50.5,58.8,51.3z"/>
	<path class="st0" d="M69.5,52.6c-4.4,0-7.9-2.9-7.9-7.7s3.5-7.7,7.9-7.7c4.4,0,7.9,2.9,7.9,7.7S74,52.6,69.5,52.6z M69.5,40.1
		c-2.5,0-4.4,1.8-4.4,4.7c0,2.9,1.9,4.7,4.4,4.7c2.5,0,4.4-1.8,4.4-4.7C73.9,42,72,40.1,69.5,40.1z"/>
	<path class="st0" d="M23.6,69.7c-0.8,0.8-2.3,2-5.4,2c-4.4,0-7.8-2.9-7.8-7.7c0-4.8,3.5-7.7,7.8-7.7c3.1,0,4.7,1.3,5.1,1.7L22.2,61
		c-0.3-0.4-1.9-1.6-3.9-1.6c-2.5,0-4.5,1.7-4.5,4.6c0,2.9,2,4.6,4.5,4.6c1.9,0,3.2-0.7,4-1.6L23.6,69.7z"/>
	<path class="st0" d="M35,71.5h-9.9V56.6h9.7v2.8h-6.2v3h5.8v2.8h-5.8v3.5H35V71.5z"/>
	<path class="st0" d="M49,71.5h-4.1l-3.1-5.7h-1.1v5.7h-3.5V56.6h5.4c1.7,0,3,0.3,3.9,1.1c1,0.7,1.7,1.9,1.7,3.4
		c0,2.8-1.8,3.9-2.9,4.3L49,71.5z M43.9,59.7c-0.4-0.3-1-0.4-1.8-0.4h-1.4v3.8h1.4c0.8,0,1.4-0.1,1.8-0.4c0.4-0.3,0.8-0.7,0.8-1.5
		C44.6,60.4,44.3,60,43.9,59.7z"/>
	<path class="st0" d="M60.1,59.4h-3.9v12.2h-3.5V59.4h-3.9v-2.8h11.2L60.1,59.4L60.1,59.4z"/>
	<path class="st0" d="M65.1,71.5h-3.5V56.6h3.5L65.1,71.5L65.1,71.5z"/>
	<path class="st0" d="M77.1,59.4h-5.8V63h5.5v2.8h-5.5v5.7h-3.5V56.6h9.3L77.1,59.4L77.1,59.4z"/>
	<path class="st0" d="M82.6,71.5h-3.5V56.6h3.5V71.5z"/>
	<path class="st0" d="M95.2,71.5h-9.9V56.6H95v2.8h-6.2v3h5.8v2.8h-5.8v3.5h6.4V71.5z"/>
	<path class="st0" d="M108.2,69.7c-1.2,1-3.2,1.8-5.8,1.8h-5.1V56.6h5.1c2.6,0,4.5,0.7,5.8,1.8c1.2,1,2.4,2.8,2.4,5.7
		C110.6,66.9,109.4,68.7,108.2,69.7z M105.7,60.6c-0.6-0.6-1.7-1.1-3.1-1.1h-1.8v9.1h1.8c1.4,0,2.5-0.5,3.1-1.1
		c0.6-0.6,1.3-1.6,1.3-3.4C107,62.2,106.3,61.2,105.7,60.6z"/>
</g>
</svg>
