<?xml version="1.0" encoding="utf-8"?>
<!-- Generator: Adobe Illustrator 23.1.1, SVG Export Plug-In . SVG Version: 6.00 Build 0)  -->
<svg version="1.1" id="Layer_1" xmlns="http://www.w3.org/2000/svg" xmlns:xlink="http://www.w3.org/1999/xlink" x="0px" y="0px"
	 viewBox="0 0 226 36" style="enable-background:new 0 0 226 36;" xml:space="preserve">
<style type="text/css">
	.st0{fill:#D97924;}
	.st1{fill-rule:evenodd;clip-rule:evenodd;fill:#D97924;}
</style>
<g>
	<path class="st0" d="M11.1,17.4c-0.8-0.3-1.5-0.6-2.6-0.9c-1.9-0.6-3.8-1.3-3.8-2.8s1.2-2.3,3.1-2.3c1.8,0,3.6,0.8,4.9,2l1.6-2.3
		C13,9.8,11.1,8.6,7.7,8.6c-3.4,0-6.5,1.9-6.5,5.4c0,2,1.2,3.8,3,4.5c0.8,0.4,1.7,0.7,2.6,1c1.3,0.4,4.3,1.1,4.3,3.1
		c0,2.1-1.9,2.7-3.7,2.7c-2.2-0.1-4.2-1.1-5.7-2.7L0,24.9c1.8,2.2,4.6,3.5,7.5,3.4c1.9,0.1,3.8-0.5,5.3-1.7c1.3-1.1,2-2.6,2-4.3
		c0-1.3-0.5-2.6-1.5-3.5C12.6,18.2,11.9,17.8,11.1,17.4z"/>
	<path class="st0" d="M25.3,25c-0.8,0.1-1.6-0.3-2-1c-0.4-1.1-0.6-2.3-0.5-3.5V12h4.6V9h-4.6V3.3H19V9h-2.8V12H19v8.6
		c0,3,0.2,4.5,1,5.6c0.9,1.3,2.5,2.1,4.1,1.9c1.2,0,2.4-0.2,3.5-0.6l-0.2-3.1C26.7,24.8,26,25,25.3,25z"/>
	<path class="st0" d="M33.9,11.8h-0.1l0-2.9h-3.9v18.9h3.9v-9.4c-0.1-1.7,0.3-3.3,1.2-4.8c0.7-1,1.9-1.6,3.2-1.6
		c0.7,0,1.4,0.1,2.1,0.4h0.2l0.2-3.5c-0.6-0.2-1.3-0.3-2-0.3C36.5,8.6,34.6,9.9,33.9,11.8z"/>
	<path class="st0" d="M49.6,8.6c-2.5,0-5,0.7-7.2,1.9l1.2,2.5c1.8-1,3.8-1.6,5.8-1.6c2.8,0,4.8,1.4,4.8,4.3v0.8L49,16.6
		c-4.5,0.2-7.5,2.1-7.5,5.8c0,3.7,3.1,5.8,6.6,5.8c2.4,0,4.6-1,6.1-2.8l0,2.4h3.8v-11c0-3.2-0.8-4.8-2.1-6.1
		C54.7,9.5,52.8,8.6,49.6,8.6z M54.2,22.8c-1.1,1.7-2.9,2.7-4.9,2.7c-2.5,0-4-1.5-4-3.3s1.3-3.1,4.4-3.3l4.5-0.3L54.2,22.8z"/>
	<path class="st0" d="M66.1,8.9h-3.9v18.9h3.9V8.9z"/>
	<path class="st0" d="M64.2,0.4c-1.3,0.1-2.3,1.2-2.3,2.5c0.1,1.3,1.2,2.3,2.5,2.2C65.7,5,66.7,4,66.7,2.7c0-1.3-1.1-2.3-2.4-2.3
		C64.3,0.4,64.2,0.4,64.2,0.4z"/>
	<path class="st0" d="M85.5,11.9h-0.1c-1.5-2.2-4-3.5-6.7-3.3c-4.9,0-9.3,3.5-9.3,9.5c0,6,4.3,9.5,9.3,9.5c2.7,0.1,5.2-1.2,6.7-3.4
		h0.1v1c0,2.6-0.7,4.4-1.5,5.3c-0.8,1-2.4,2.1-5.3,2.1c-2.5-0.1-4.9-0.9-6.9-2.4L70,32.8c2.5,1.8,5.5,2.8,8.6,2.8
		c4.8,0,7.2-1.9,8.6-3.6c1.4-1.7,2.1-4,2.1-8.1V8.9h-3.9L85.5,11.9z M79.4,24.5c-3.9,0-6.1-2.8-6.1-6.4s2.2-6.4,6.1-6.4
		c4,0,6.1,2.9,6.1,6.4C85.5,21.6,83.4,24.5,79.4,24.5z"/>
	<path class="st0" d="M103.7,8.6c-2.5-0.1-4.7,1.2-5.9,3.3h-0.1V0.4h-3.9v27.4h3.9v-9.3c0-3.8,1.5-6.8,5-6.8c3.5,0,4,2.7,4,5.4v10.7
		h3.9V16.6C110.5,12.1,109.2,8.6,103.7,8.6z"/>
	<path class="st0" d="M121.8,25c-0.8,0.1-1.6-0.3-2-1c-0.4-0.8-0.5-1.9-0.5-3.5V12h4.6V9h-4.6V3.3h-3.9V9h-2.8V12h2.8v8.6
		c0,3,0.2,4.5,1,5.6c0.9,1.3,2.5,2.1,4.1,1.9c1.2,0,2.4-0.2,3.5-0.6l-0.2-3.1C123.2,24.8,122.5,25,121.8,25z"/>
	<path class="st0" d="M134,14.3c0.3-0.4,0.6-0.8,1.1-1c0.5-0.3,1-0.4,1.5-0.4c0.4,0,0.8,0,1.2,0.2c0.3,0.1,0.6,0.2,0.9,0.4
		c0.2,0.1,0.4,0.3,0.6,0.5c0.2,0.2,0.4,0.4,0.6,0.5c0.3,0.2,0.6,0.5,0.9,0.6c0.5,0.3,1.1,0.4,1.6,0.4c0.4,0,0.7-0.1,1.1-0.2
		c0.4-0.1,0.7-0.3,1-0.6c0.3-0.3,0.6-0.6,0.8-1c0.2-0.5,0.3-0.9,0.3-1.5c0-0.4-0.1-0.8-0.2-1.2c-0.2-0.5-0.4-0.9-0.7-1.3
		c-0.9-1.3-2.2-2.2-3.7-2.7c-1.4-0.5-3-0.7-4.5-0.7c-2.9,0-5.7,1.1-7.7,3.2c-1,1-1.8,2.2-2.3,3.5c-0.6,1.4-0.8,2.9-0.8,4.4
		c0,1.5,0.2,3,0.7,4.4c0.5,1.3,1.2,2.5,2.2,3.6c1,1,2.1,1.8,3.4,2.4c1.4,0.6,3,0.9,4.5,0.9c0.9,0,1.8-0.1,2.7-0.3
		c0.7-0.2,1.5-0.4,2.1-0.7c0.6-0.3,1.1-0.6,1.6-0.9c0.4-0.3,0.8-0.6,1.1-1c0.8-0.8,1.3-1.9,1.3-3c0-0.9-0.4-1.8-1.1-2.4
		c-0.6-0.5-1.3-0.7-2.1-0.7c-0.3,0-0.7,0.1-1,0.2c-0.5,0.2-0.9,0.4-1.3,0.7c-0.5,0.4-1.1,0.8-1.7,1.1c-0.5,0.2-1.1,0.4-1.6,0.4
		c-0.5,0-1.1-0.1-1.5-0.4c-0.4-0.3-0.8-0.6-1.1-1c-0.3-0.5-0.5-0.9-0.7-1.5c-0.2-0.6-0.2-1.1-0.2-1.7c0-0.6,0.1-1.2,0.2-1.8
		C133.5,15.3,133.7,14.8,134,14.3z M132.3,19.6c0.2,0.6,0.4,1.2,0.8,1.8c0.4,0.5,0.8,1,1.4,1.3c0.6,0.4,1.4,0.6,2.1,0.5
		c0.7,0,1.5-0.2,2.1-0.5c0.7-0.3,1.3-0.8,1.9-1.2c0.3-0.2,0.6-0.4,0.9-0.5c0.2-0.1,0.5-0.1,0.7-0.1c0.2,0,0.5,0.1,0.7,0.1
		c0.3,0.1,0.5,0.2,0.7,0.4c0.2,0.2,0.4,0.4,0.5,0.6c0.1,0.3,0.2,0.6,0.2,0.9c0,0.8-0.3,1.7-0.9,2.2c-0.3,0.3-0.7,0.6-1,0.9
		c-0.4,0.3-0.9,0.6-1.4,0.8c-0.6,0.3-1.3,0.5-1.9,0.6c-0.8,0.2-1.7,0.3-2.5,0.2c-1.4,0-2.8-0.2-4.1-0.8c-1.2-0.5-2.2-1.2-3.1-2.1
		c-0.9-0.9-1.5-2-1.9-3.2c-0.5-1.3-0.7-2.7-0.7-4c0-1.4,0.2-2.7,0.8-4c0.5-1.2,1.2-2.3,2.1-3.2c1.8-1.9,4.3-2.9,6.9-2.9
		c1.4,0,2.8,0.2,4.1,0.7c1.3,0.5,2.4,1.3,3.2,2.3c0.2,0.3,0.4,0.6,0.6,1c0.1,0.3,0.1,0.6,0.1,0.9c0,0.3-0.1,0.7-0.2,1
		c-0.1,0.2-0.3,0.5-0.5,0.6c-0.2,0.2-0.5,0.3-0.7,0.4c-0.6,0.2-1.2,0.2-1.8-0.1c-0.3-0.1-0.5-0.3-0.8-0.5c-0.2-0.1-0.3-0.3-0.5-0.5
		c-0.3-0.3-0.5-0.5-0.9-0.6c-0.4-0.2-0.7-0.4-1.1-0.5c-0.5-0.2-1-0.2-1.6-0.2c-0.7,0-1.5,0.2-2.1,0.5c-0.6,0.3-1.1,0.8-1.4,1.3
		c-0.4,0.6-0.6,1.2-0.8,1.8c-0.2,0.7-0.3,1.3-0.3,2C132,18.3,132.1,18.9,132.3,19.6z"/>
	<path class="st0" d="M163.1,6.8c-1,0-1.9,0.3-2.6,1c-0.7,0.7-1.1,1.6-1.1,2.5v8.6c0.1,0.9-0.2,1.8-0.6,2.5
		c-0.4,0.6-1.2,0.9-1.9,0.8c-0.7,0.1-1.4-0.2-1.9-0.8c-0.5-0.7-0.7-1.6-0.7-2.5v-8.6c0-0.9-0.4-1.9-1.1-2.5c-1.5-1.3-3.7-1.3-5.1,0
		c-0.7,0.7-1.1,1.6-1.1,2.5v8.4c0,1.4,0.2,2.7,0.7,4c0.4,1.2,1.1,2.3,2,3.2c0.9,0.9,1.9,1.6,3.1,2.1c2.6,1,5.5,1,8.1,0
		c1.2-0.5,2.2-1.2,3.1-2.1c0.9-0.9,1.6-2,2-3.2c0.5-1.3,0.7-2.7,0.7-4v-8.4c0-0.9-0.4-1.9-1.1-2.5C165,7.1,164.1,6.8,163.1,6.8z
		 M165.7,18.7c0,1.3-0.2,2.5-0.6,3.7c-0.4,1-1,2-1.7,2.8c-0.8,0.8-1.7,1.4-2.7,1.8c-1.1,0.5-2.4,0.7-3.6,0.7c-1.2,0-2.5-0.2-3.6-0.7
		c-1-0.4-2-1-2.7-1.8c-0.8-0.8-1.4-1.8-1.7-2.8c-0.4-1.2-0.6-2.4-0.6-3.7v-8.4c0-0.6,0.2-1.3,0.7-1.7c1-0.9,2.6-0.9,3.6,0
		c0.5,0.4,0.7,1.1,0.7,1.7v8.6c-0.1,1.1,0.2,2.2,0.9,3.1c0.7,0.9,1.7,1.3,2.8,1.3c1.1,0.1,2.1-0.4,2.8-1.3c0.6-0.9,0.9-2,0.9-3.1
		v-8.6c0-0.6,0.2-1.3,0.7-1.7c1-0.9,2.6-0.9,3.6,0c0.5,0.4,0.7,1.1,0.7,1.7L165.7,18.7z"/>
	<path class="st0" d="M199.6,10.4c0.1-1-0.4-2-1.1-2.7c-0.8-0.6-1.8-0.9-2.8-0.9c-0.7,0-1.4,0.2-1.9,0.7c-0.4,0.4-0.8,0.9-1,1.5
		l-3.7,8.7L185.4,9c-0.5-1.1-1.6-2.6-5.2-2.6c-1.3,0-2.6,0.4-3.6,1.2C176,8,175.5,8.4,175,9c-0.4-1.4-1.5-2.2-3.3-2.2
		c-1.8-0.1-3.3,1.2-3.4,2.9c0,0.1,0,0.2,0,0.3v14.9c0,1,0.4,1.9,1.1,2.6c1.5,1.3,3.6,1.3,5.1,0c0.7-0.7,1.1-1.6,1.1-2.6v-6.7
		c0-0.8,0.1-1.6,0.4-2.4c0.3-0.6,0.6-1.1,1.1-1.6c0.5-0.4,1-0.7,1.6-0.9c0.2-0.1,0.4-0.1,0.6-0.2l6,12.7c0.3,0.7,0.8,1.3,1.3,1.8
		c0.6,0.5,1.4,0.7,2.2,0.7c0.8,0,1.6-0.2,2.2-0.6c0.6-0.5,1.1-1.1,1.4-1.7l6.8-14C199.4,11.5,199.5,10.9,199.6,10.4z M198.2,11.5
		l-6.8,14c-0.2,0.5-0.6,1-1.1,1.4c-0.5,0.3-1,0.4-1.5,0.4c-0.5,0-1.1-0.1-1.5-0.4c-0.4-0.4-0.8-0.9-1-1.4L180,12l-0.4,0.1
		c-0.4,0.1-0.8,0.2-1.2,0.3c-0.7,0.2-1.4,0.6-1.9,1.1c-0.6,0.5-1.1,1.2-1.4,1.9c-0.4,0.9-0.6,1.9-0.5,2.8v6.7c0,0.7-0.2,1.3-0.7,1.7
		c-1,0.9-2.6,0.9-3.6,0c-0.5-0.5-0.7-1.1-0.7-1.7V10c0-1.1,0.9-2.1,2-2.1c0.1,0,0.2,0,0.3,0c1.6,0,2.3,0.7,2.3,2.2v0.6l1.1,0.2
		c0.5-0.9,1.2-1.8,2.1-2.4c0.9-0.6,1.9-1,3-1c2.9,0,3.7,1,4.1,2l4.6,11.2l4.7-11.2c0.2-0.4,0.5-0.8,0.8-1.1c0.3-0.3,0.7-0.4,1.2-0.4
		c0.8,0,1.5,0.2,2.1,0.7c0.5,0.5,0.8,1.1,0.8,1.8C198.4,10.8,198.3,11.2,198.2,11.5z"/>
	<path class="st0" d="M219.4,18.5c0.4-0.8,0.6-1.7,0.5-2.6c0-2.5-1-4.8-2.7-6.6c-0.9-0.9-2-1.6-3.2-2.1c-2.7-1.1-5.8-1.1-8.5,0.1
		c-1.3,0.6-2.5,1.4-3.5,2.4c-1,1-1.8,2.3-2.3,3.6c-0.5,1.4-0.8,2.9-0.8,4.4c0,1.5,0.3,3,0.8,4.4c0.5,1.3,1.3,2.5,2.3,3.5
		c1,1,2.2,1.8,3.5,2.3c1.4,0.6,2.9,0.8,4.4,0.8c1.5,0,3.1-0.2,4.5-0.7c1.1-0.4,2.2-0.9,3.1-1.6c0.4-0.3,0.8-0.7,1-1.1
		c0.3-0.5,0.5-1.1,0.5-1.7c0-0.8-0.3-1.6-0.9-2.2c-0.6-0.7-1.4-1-2.3-1c-0.5,0-1.1,0.2-1.5,0.4c-0.1,0.1-0.3,0.2-0.6,0.3
		c-0.3,0.2-0.6,0.3-0.9,0.4c-0.4,0.2-0.7,0.3-1.1,0.4c-0.4,0.1-0.9,0.2-1.3,0.2c-0.9,0-1.8-0.2-2.6-0.8c-0.6-0.4-1-1-1.2-1.7h10.3
		C217.8,19.9,218.8,19.4,219.4,18.5z M205.2,19.4c0.2,1.2,0.9,2.2,1.9,3c0.9,0.6,2.1,1,3.2,1c0.5,0,1.1-0.1,1.6-0.2
		c0.4-0.1,0.9-0.3,1.3-0.4c0.3-0.1,0.7-0.3,1-0.5c0.2-0.1,0.4-0.2,0.5-0.3c0.3-0.2,0.7-0.3,1.1-0.3c0.6,0,1.1,0.2,1.5,0.7
		c0.4,0.4,0.6,0.9,0.6,1.5c0,0.4-0.1,0.8-0.3,1.1c-0.2,0.3-0.5,0.6-0.8,0.8c-0.9,0.6-1.8,1.1-2.8,1.4c-1.3,0.4-2.7,0.6-4.1,0.6
		c-1.4,0-2.7-0.2-4-0.7c-1.2-0.5-2.2-1.2-3.1-2.1c-0.9-0.9-1.6-2-2-3.2c-0.5-1.3-0.7-2.7-0.7-4c0-1.4,0.2-2.7,0.8-4
		c0.5-1.2,1.2-2.3,2.1-3.2c0.9-0.9,1.9-1.7,3.1-2.2c2.4-1,5.1-1.1,7.6-0.1c1.1,0.4,2,1.1,2.8,1.9c0.8,0.8,1.4,1.7,1.8,2.7
		c0.4,1,0.6,2.1,0.6,3.1c0,0.7-0.1,1.5-0.4,2.1c-0.1,0.2-0.3,0.6-1.5,0.6h-11.8L205.2,19.4z"/>
	<path class="st0" d="M225.9,6c0-2.2-1.7-3.9-3.9-3.9c-2.2,0-3.9,1.7-3.9,3.9c0,2.2,1.7,3.9,3.9,3.9C224.2,9.8,225.9,8.1,225.9,6z
		 M225.4,6c0,1.9-1.5,3.4-3.4,3.4c-1.9,0-3.4-1.5-3.4-3.4s1.5-3.4,3.4-3.4C223.9,2.6,225.4,4.1,225.4,6z M223,8.2h0.8l-1.2-1.9
		c0.4-0.1,1-0.4,1-1.2c0-1-0.7-1.3-1.6-1.3h-1.3v4.5h0.6V6.3h0.6L223,8.2z M221.9,5.8h-0.6V4.3h0.6c0.5,0,1,0.1,1,0.8
		S222.4,5.8,221.9,5.8z"/>
	<path class="st1" d="M222.9,8.3l-1.1-1.9h-0.5v1.9h-0.8V3.7h1.4c0.4,0,0.8,0.1,1.1,0.3c0.3,0.2,0.5,0.6,0.5,1.1
		c0,0.4-0.2,0.7-0.4,1c-0.2,0.2-0.4,0.3-0.6,0.3l1.2,2H222.9z M222.5,6.2C222.5,6.2,222.6,6.2,222.5,6.2c0.5-0.1,1-0.4,1-1.2
		c0-1-0.7-1.3-1.6-1.3h-1.3v4.5h0.6V6.3h0.6l1.1,1.9h0.7L222.5,6.2z M222,2c2.2,0,4,1.7,4,4c0,2.2-1.7,4-4,4c-2.2,0-4-1.7-4-4
		C218.1,3.8,219.8,2,222,2z M222,9.3c1.8,0,3.3-1.5,3.3-3.3s-1.5-3.3-3.3-3.3c-1.8,0-3.3,1.5-3.3,3.3C218.8,7.8,220.2,9.3,222,9.3z
		 M221.4,5.7h0.5c0.2,0,0.5,0,0.6-0.1c0.2-0.1,0.3-0.3,0.3-0.5c0-0.3-0.1-0.4-0.3-0.5c-0.2-0.1-0.4-0.1-0.6-0.1h-0.5V5.7z M222,2.1
		c2.2,0,3.9,1.7,3.9,3.9c0,2.2-1.7,3.9-3.9,3.9c-2.2,0-3.9-1.7-3.9-3.9C218.2,3.8,219.9,2.1,222,2.1z M222,9.3
		c1.8,0,3.4-1.5,3.4-3.4s-1.5-3.4-3.4-3.4c-1.9,0-3.4,1.5-3.4,3.4S220.2,9.3,222,9.3z M221.9,5.8c0.5,0,1-0.1,1-0.8
		c0-0.6-0.5-0.8-1-0.8h-0.6v1.5H221.9z"/>
	<path class="st0" d="M212.9,13.1c-0.4-0.4-0.8-0.7-1.3-0.9c-0.6-0.2-1.2-0.4-1.8-0.3c-1.1,0-2.2,0.3-3,1c-0.8,0.7-1.4,1.7-1.6,2.8
		l-0.2,0.7h8.8v-0.5c0-0.5-0.1-0.9-0.3-1.4C213.5,13.9,213.2,13.5,212.9,13.1z M206.5,15.2c0.2-0.6,0.5-1.1,1-1.5
		c0.6-0.5,1.5-0.8,2.3-0.7c0.5,0,0.9,0.1,1.3,0.3c0.3,0.1,0.7,0.4,0.9,0.6c0.2,0.3,0.4,0.6,0.5,0.9c0.1,0.1,0.1,0.3,0.1,0.5
		L206.5,15.2z"/>
</g>
</svg>
