<svg width="344" height="841" viewBox="0 0 344 841" fill="none" xmlns="http://www.w3.org/2000/svg">
<g clip-path="url(#clip0_285_16428)">
<rect x="0.570312" width="343" height="840.171" rx="10" fill="white"/>
<mask id="path-2-inside-1_285_16428" fill="white">
<path d="M0.570312 9.99998C0.570312 4.47714 5.04746 0 10.5703 0H333.57C339.093 0 343.57 4.47715 343.57 10V419.82H0.570312V9.99998Z"/>
</mask>
<path d="M0.570312 9.99998C0.570312 4.47714 5.04746 0 10.5703 0H333.57C339.093 0 343.57 4.47715 343.57 10V419.82H0.570312V9.99998Z" fill="#1B4932" fill-opacity="0.05"/>
<path d="M-0.429688 10C-0.429688 3.92487 4.49518 -1 10.5703 -1H333.57C339.645 -1 344.57 3.92487 344.57 10H342.57C342.57 5.02944 338.541 1 333.57 1H10.5703C5.59975 1 1.57031 5.02944 1.57031 10H-0.429688ZM343.57 419.82H0.570312H343.57ZM-0.429688 419.82V10C-0.429688 3.92487 4.49518 -1 10.5703 -1V1C5.59975 1 1.57031 5.02944 1.57031 10V419.82H-0.429688ZM333.57 -1C339.645 -1 344.57 3.92487 344.57 10V419.82H342.57V10C342.57 5.02944 338.541 1 333.57 1V-1Z" fill="black" fill-opacity="0.05" mask="url(#path-2-inside-1_285_16428)"/>
<mask id="path-4-inside-2_285_16428" fill="white">
<path d="M0.570312 420.171H343.57V830.171C343.57 835.694 339.093 840.171 333.57 840.171H10.5703C5.04747 840.171 0.570312 835.694 0.570312 830.171V420.171Z"/>
</mask>
<path d="M0.570312 420.171H343.57V830.171C343.57 835.694 339.093 840.171 333.57 840.171H10.5703C5.04747 840.171 0.570312 835.694 0.570312 830.171V420.171Z" fill="#DA7924" fill-opacity="0.05"/>
<path d="M0.570312 420.171H343.57H0.570312ZM344.57 830.171C344.57 836.246 339.645 841.171 333.57 841.171H10.5703C4.49518 841.171 -0.429688 836.246 -0.429688 830.171H1.57031C1.57031 835.142 5.59975 839.171 10.5703 839.171H333.57C338.541 839.171 342.57 835.142 342.57 830.171H344.57ZM10.5703 841.171C4.49518 841.171 -0.429688 836.246 -0.429688 830.171V420.171H1.57031V830.171C1.57031 835.142 5.59975 839.171 10.5703 839.171V841.171ZM344.57 420.171V830.171C344.57 836.246 339.645 841.171 333.57 841.171V839.171C338.541 839.171 342.57 835.142 342.57 830.171V420.171H344.57Z" fill="#DA7924" fill-opacity="0.1" mask="url(#path-4-inside-2_285_16428)"/>
</g>
<defs>
<clipPath id="clip0_285_16428">
<rect x="0.570312" width="343" height="840.171" rx="10" fill="white"/>
</clipPath>
</defs>
</svg>
