<svg width="30" height="31" viewBox="0 0 30 31" fill="none" xmlns="http://www.w3.org/2000/svg">
<g id="MinusCircle">
<path id="Vector" opacity="0.2" d="M26.25 15.8779C26.25 18.103 25.5902 20.278 24.354 22.1281C23.1179 23.9781 21.3609 25.4201 19.3052 26.2716C17.2495 27.1231 14.9875 27.3458 12.8052 26.9118C10.623 26.4777 8.61839 25.4062 7.04505 23.8329C5.47171 22.2595 4.40025 20.255 3.96617 18.0727C3.53209 15.8904 3.75487 13.6284 4.60636 11.5727C5.45785 9.51707 6.89979 7.76006 8.74984 6.5239C10.5999 5.28773 12.775 4.62793 15 4.62793C17.9837 4.62793 20.8452 5.81319 22.955 7.92298C25.0647 10.0328 26.25 12.8942 26.25 15.8779Z" fill="#DA7924"/>
<path id="Vector_2" d="M20.625 15.8779C20.625 16.1266 20.5262 16.365 20.3504 16.5408C20.1746 16.7167 19.9361 16.8154 19.6875 16.8154H10.3125C10.0639 16.8154 9.82541 16.7167 9.64959 16.5408C9.47378 16.365 9.37501 16.1266 9.37501 15.8779C9.37501 15.6293 9.47378 15.3908 9.64959 15.215C9.82541 15.0392 10.0639 14.9404 10.3125 14.9404H19.6875C19.9361 14.9404 20.1746 15.0392 20.3504 15.215C20.5262 15.3908 20.625 15.6293 20.625 15.8779ZM27.1875 15.8779C27.1875 18.2884 26.4727 20.6447 25.1335 22.6489C23.7944 24.6532 21.8909 26.2153 19.664 27.1377C17.437 28.0602 14.9865 28.3015 12.6223 27.8312C10.2582 27.361 8.08659 26.2002 6.38214 24.4958C4.67769 22.7913 3.51694 20.6197 3.04668 18.2556C2.57643 15.8914 2.81778 13.4409 3.74022 11.214C4.66267 8.987 6.22477 7.08357 8.22899 5.74439C10.2332 4.40521 12.5895 3.69043 15 3.69043C18.2313 3.69384 21.3292 4.97897 23.6141 7.26383C25.899 9.54869 27.1841 12.6467 27.1875 15.8779ZM25.3125 15.8779C25.3125 13.8383 24.7077 11.8445 23.5745 10.1486C22.4414 8.45273 20.8308 7.13095 18.9464 6.35042C17.0621 5.56989 14.9886 5.36567 12.9881 5.76358C10.9877 6.16149 9.1502 7.14366 7.70797 8.58589C6.26574 10.0281 5.28357 11.8656 4.88566 13.8661C4.48775 15.8665 4.69197 17.94 5.4725 19.8244C6.25303 21.7087 7.57481 23.3193 9.27069 24.4525C10.9666 25.5856 12.9604 26.1904 15 26.1904C17.7341 26.1873 20.3553 25.0998 22.2886 23.1665C24.2219 21.2332 25.3094 18.612 25.3125 15.8779Z" fill="#DA7924"/>
</g>
</svg>
