<svg width="801" height="134" viewBox="0 0 801 134" fill="none" xmlns="http://www.w3.org/2000/svg">
<g clip-path="url(#clip0_1477_3597)">
<path d="M40.0052 67.2432C37.0845 66.0749 34.4542 65.1971 30.6557 63.882C23.7896 61.6922 17.0703 59.2088 17.0703 53.511C17.0703 47.8132 21.453 44.8924 28.1723 44.8924C34.759 45.0131 41.0421 47.6838 45.6998 52.3427L51.5445 43.7241C47.1618 39.051 40.1489 34.6683 27.8818 34.6683C15.6147 34.6683 4.50957 41.6908 4.50957 54.5324C4.4756 58.0823 5.49939 61.5619 7.45044 64.5277C9.4015 67.4935 12.1914 69.8112 15.4647 71.1854C18.5015 72.7113 21.6813 73.9344 24.9579 74.8371C29.631 76.4331 40.5989 78.7793 40.5989 86.3764C40.5989 93.9735 33.7328 96.31 27.3072 96.31C23.3994 96.1473 19.5669 95.1813 16.0488 93.4722C12.5307 91.7632 9.40239 89.3477 6.85892 86.3764L0.139648 94.5544C3.3702 98.5808 7.49434 101.799 12.1851 103.955C16.8758 106.11 22.0042 107.143 27.1636 106.972C34.1115 107.255 40.9373 105.083 46.4436 100.836C48.7539 98.9245 50.5983 96.5114 51.8367 93.7802C53.075 91.049 53.6749 88.0716 53.5906 85.074C53.622 82.6614 53.1437 80.2694 52.1872 78.0543C51.2306 75.8392 49.8173 73.851 48.0396 72.2196C45.6814 70.0927 42.96 68.4071 40.0052 67.2432ZM91.4356 94.9949C90.0303 95.1713 88.604 94.9329 87.3324 94.309C86.0609 93.6852 84.9995 92.7031 84.279 91.4837C82.6927 87.4474 82.0919 83.091 82.5266 78.7761V47.3758H99.1795V36.1302H82.5234V15.3883H68.5007V36.1366H58.2861V47.3854H68.5007V79.0825C68.5007 90.0377 69.0848 95.4418 72.0119 99.8309C73.6176 102.223 75.8294 104.146 78.4214 105.404C81.0134 106.662 83.8928 107.21 86.7656 106.991C91.1094 107.003 95.418 106.211 99.4732 104.654L98.5954 93.4053C96.3537 94.4523 93.9097 94.9949 91.4356 94.9949ZM122.402 46.6449H121.964L122.111 35.9834H108.089V105.366H122.111V70.7481C121.74 64.6135 123.215 58.5084 126.347 53.2205C127.674 51.4406 129.391 49.9884 131.366 48.9753C133.342 47.9621 135.523 47.415 137.743 47.3758C140.35 47.3184 142.94 47.8168 145.34 48.8378H145.924L146.799 35.8366C144.461 34.985 141.982 34.5885 139.495 34.6683C135.759 34.6575 132.11 35.8026 129.05 37.9468C125.99 40.0909 123.667 43.1291 122.402 46.6449ZM179.121 34.6683C169.997 34.7503 161.046 37.1679 153.122 41.6908L157.358 51.0371C163.687 47.2698 170.883 45.2067 178.247 45.0488C188.327 45.0488 195.484 50.3062 195.484 60.8272V63.6011L176.932 64.3257C160.866 65.0566 149.761 71.9227 149.761 85.5049C149.761 98.9435 160.863 106.978 173.701 106.978C177.915 106.98 182.076 106.051 185.889 104.258C189.702 102.465 193.072 99.8527 195.758 96.6069L195.905 105.372H209.491V65.0503C209.491 53.2205 206.717 47.3758 202.04 42.5558C197.38 37.8827 190.657 34.6683 179.121 34.6683ZM195.627 86.9605C193.724 89.9518 191.119 92.4333 188.039 94.1895C184.959 95.9456 181.497 96.9234 177.953 97.0378C168.75 97.0378 163.637 91.6337 163.637 85.0612C163.637 78.4888 168.166 73.6688 179.415 73.0847L195.627 72.0632V86.9605ZM224.567 35.9866H238.589V105.369H224.567V35.9866ZM231.573 4.57678C229.89 4.6623 228.269 5.23953 226.91 6.23702C225.551 7.23451 224.515 8.60849 223.929 10.1889C223.343 11.7693 223.234 13.4868 223.614 15.1289C223.994 16.7709 224.848 18.2654 226.069 19.4273C227.29 20.5893 228.825 21.3678 230.483 21.6664C232.142 21.965 233.852 21.7707 235.402 21.1075C236.951 20.4443 238.272 19.3413 239.201 17.935C240.131 16.5287 240.627 14.8808 240.629 13.1953C240.631 12.0258 240.394 10.8681 239.934 9.79292C239.474 8.7177 238.799 7.74741 237.952 6.94111C237.105 6.13481 236.102 5.50939 235.006 5.10292C233.909 4.69644 232.741 4.51743 231.573 4.57678ZM308.294 46.9385H307.857C305.207 42.9823 301.583 39.7751 297.334 37.626C293.085 35.4769 288.354 34.4583 283.597 34.6683C265.776 34.6683 250.148 47.5227 250.148 69.5798C250.148 91.6369 265.789 104.491 283.597 104.491C288.366 104.676 293.103 103.631 297.352 101.457C301.6 99.2819 305.218 96.0509 307.857 92.0742H308.147V95.5854C308.147 105.079 305.664 111.651 302.89 115.012C300.116 118.524 294.272 122.609 283.901 122.609C274.922 122.296 266.256 119.238 259.07 113.847L252.497 123.634C261.478 130.246 272.308 133.873 283.46 134.005C300.697 134.005 309.316 126.982 314.423 120.713C319.53 114.578 322.02 106.106 322.02 90.7686V35.9834H308.144L308.294 46.9385ZM286.531 93.0956C272.361 93.0956 264.474 82.7247 264.474 69.5766C264.474 56.4285 272.361 45.9139 286.531 45.9139C300.847 45.9139 308.588 56.4317 308.588 69.5766C308.588 82.7215 300.847 93.0956 286.531 93.0956ZM373.907 34.6715C369.569 34.5657 365.286 35.6543 361.524 37.8183C357.763 39.9823 354.669 43.1384 352.581 46.9417H352.29V4.57997H338.414V105.369H352.29V71.0417C352.29 57.1659 357.694 46.2107 370.402 46.2107C383.11 46.2107 384.718 56.1444 384.718 66.0749V105.369H398.741V64.0288C398.738 47.5259 393.918 34.6715 373.907 34.6715ZM439.29 94.9949C437.884 95.1713 436.458 94.9329 435.187 94.309C433.915 93.6852 432.854 92.7031 432.133 91.4837C430.537 88.5629 430.381 84.6175 430.381 78.7761V47.3758H447.034V36.1302H430.381V15.3883H416.358V36.1366H406.143V47.3854H416.358V79.0825C416.358 90.0377 416.942 95.4418 419.869 99.8309C421.475 102.223 423.687 104.146 426.279 105.404C428.871 106.662 431.75 107.21 434.623 106.991C438.967 107.003 443.275 106.211 447.331 104.654L446.453 93.4053C444.21 94.4528 441.765 94.9954 439.29 94.9949ZM483.343 55.8412C484.307 54.3375 485.608 53.0785 487.142 52.1639C488.815 51.2351 490.709 50.7773 492.623 50.8392C494.109 50.8036 495.59 51.0128 497.008 51.4585C498.176 51.8479 499.302 52.3526 500.37 52.9651C501.204 53.4496 501.977 54.0338 502.671 54.7048C503.45 55.4805 504.155 56.1317 504.74 56.62C505.79 57.5103 506.925 58.2951 508.13 58.963C509.915 59.9229 511.922 60.3942 513.949 60.3292C515.244 60.3072 516.528 60.0721 517.747 59.6333C519.101 59.1557 520.363 58.4496 521.479 57.5457C522.709 56.5508 523.697 55.2904 524.371 53.8589C525.121 52.1876 525.488 50.3693 525.443 48.5378C525.447 47.0219 525.216 45.5145 524.76 44.0689C524.15 42.3482 523.258 40.741 522.12 39.3127C518.741 34.7192 514.059 31.2472 508.682 29.3471C503.467 27.5577 497.989 26.6547 492.476 26.6754C487.26 26.6342 482.092 27.6676 477.293 29.711C472.495 31.7545 468.168 34.7644 464.584 38.553C461.052 42.3215 458.263 46.7227 456.364 51.5255C454.349 56.6202 453.334 62.0551 453.373 67.5337C453.332 73.032 454.235 78.4965 456.045 83.6887C457.739 88.5285 460.387 92.9789 463.833 96.7761C467.301 100.526 471.504 103.522 476.18 105.577C481.325 107.795 486.88 108.9 492.482 108.82C495.799 108.852 499.109 108.517 502.352 107.821C505.001 107.238 507.582 106.382 510.054 105.267C512.104 104.336 514.044 103.179 515.838 101.82C517.265 100.731 518.623 99.5543 519.902 98.2955C521.37 96.8585 522.529 95.1368 523.309 93.2361C524.088 91.3353 524.471 89.2954 524.435 87.2414C524.454 85.5875 524.1 83.9506 523.399 82.4524C522.698 80.9542 521.669 79.6332 520.387 78.5878C518.204 76.9072 515.544 75.9618 512.79 75.8873C511.544 75.9322 510.311 76.1602 509.132 76.564C507.422 77.1402 505.848 78.0603 504.507 79.2677C502.661 80.8411 500.653 82.212 498.515 83.3567C496.689 84.2551 494.674 84.7038 492.639 84.6654C490.731 84.7267 488.844 84.2511 487.193 83.2928C485.664 82.3411 484.358 81.0717 483.362 79.5709C482.285 77.917 481.488 76.0964 481.003 74.1827C480.464 72.1075 480.192 69.9716 480.196 67.8273C480.195 65.6534 480.468 63.4879 481.01 61.3826C481.481 59.4209 482.269 57.5492 483.343 55.8412ZM477.1 75.1914C477.693 77.536 478.673 79.7649 480.001 81.7862C481.315 83.7643 483.041 85.4348 485.061 86.6828C487.342 88.0481 489.964 88.7377 492.623 88.6715C495.294 88.71 497.936 88.1092 500.328 86.919C502.731 85.6367 504.99 84.1034 507.07 82.3448C508.007 81.4915 509.107 80.8368 510.303 80.42C511.101 80.135 511.935 79.9673 512.78 79.922C513.661 79.9427 514.533 80.1043 515.363 80.4008C516.278 80.7018 517.134 81.1586 517.894 81.7511C518.649 82.3749 519.262 83.1517 519.694 84.0302C520.2 85.0325 520.449 86.1447 520.419 87.267C520.456 88.7951 520.177 90.3145 519.6 91.7299C519.022 93.1453 518.159 94.4264 517.064 95.4929C515.903 96.6301 514.674 97.6961 513.384 98.6849C511.824 99.8607 510.139 100.86 508.359 101.663C506.143 102.662 503.828 103.426 501.452 103.942C498.503 104.571 495.494 104.871 492.479 104.836C487.441 104.919 482.444 103.933 477.815 101.944C473.638 100.114 469.882 97.4433 466.783 94.0979C463.698 90.6895 461.328 86.6975 459.811 82.3576C458.159 77.5961 457.335 72.5864 457.376 67.5464C457.338 62.5776 458.255 57.6478 460.08 53.0258C461.793 48.6896 464.309 44.7152 467.495 41.3109C470.705 37.918 474.581 35.2235 478.88 33.3957C483.178 31.5679 487.808 30.6461 492.479 30.6878C497.548 30.6654 502.584 31.4929 507.379 33.1361C512.004 34.7801 516.028 37.7748 518.931 41.7323C519.79 42.8059 520.474 44.0081 520.958 45.2946C521.286 46.3509 521.45 47.4511 521.444 48.5569C521.487 49.7882 521.255 51.0137 520.767 52.1448C520.358 53.0369 519.749 53.8224 518.986 54.4399C518.223 55.0591 517.359 55.5419 516.432 55.8667C515.411 56.2325 514.327 56.3898 513.244 56.3295C512.162 56.2692 511.102 55.9924 510.128 55.5156C509.141 54.9662 508.208 54.325 507.341 53.6003C506.703 53.0605 506.09 52.4907 505.506 51.8926C504.573 50.9827 503.531 50.1924 502.403 49.5401C501.105 48.7888 499.735 48.1697 498.314 47.6919C496.476 47.1009 494.553 46.8162 492.623 46.8492C489.988 46.7842 487.386 47.4386 485.096 48.742C483.031 49.967 481.282 51.6582 479.988 53.6802C478.67 55.7502 477.7 58.0221 477.116 60.4058C476.488 62.8354 476.166 65.3339 476.158 67.8433C476.159 70.3237 476.475 72.7908 477.1 75.1914ZM588.403 28.1373C586.695 28.1009 584.997 28.4021 583.406 29.0239C581.814 29.6456 580.361 30.5756 579.13 31.7603C577.883 32.9374 576.897 34.3641 576.237 35.9474C575.577 37.5308 575.258 39.2354 575.3 40.9502V72.5005C575.489 75.7358 574.675 78.9505 572.97 81.7064C572.182 82.7294 571.149 83.5367 569.966 84.0535C568.783 84.5703 567.488 84.7797 566.203 84.6622C564.903 84.7755 563.596 84.5627 562.399 84.0432C561.202 83.5238 560.154 82.714 559.349 81.6872C557.602 78.9529 556.763 75.7366 556.952 72.4973V40.9502C556.994 39.2354 556.675 37.531 556.015 35.9477C555.355 34.3644 554.369 32.9377 553.122 31.7603C550.595 29.4306 547.285 28.1372 543.849 28.1372C540.412 28.1372 537.102 29.4306 534.576 31.7603C533.328 32.9374 532.342 34.3641 531.682 35.9474C531.022 37.5308 530.703 39.2354 530.745 40.9502V71.9132C530.693 76.9694 531.525 81.9958 533.203 86.7658C534.751 91.1267 537.187 95.1189 540.357 98.4902C543.535 101.801 547.378 104.4 551.634 106.116C560.987 109.723 571.348 109.723 580.701 106.116C584.924 104.385 588.738 101.787 591.895 98.4902C595.066 95.1198 597.502 91.1273 599.049 86.7658C600.727 81.9958 601.559 76.9694 601.507 71.9132V40.9502C601.549 39.2354 601.23 37.5308 600.57 35.9474C599.91 34.3641 598.924 32.9374 597.676 31.7603C596.446 30.5753 594.993 29.6451 593.401 29.0234C591.81 28.4016 590.111 28.1005 588.403 28.1373ZM597.504 71.9196C597.551 76.5099 596.795 81.073 595.269 85.4028C593.914 89.2447 591.773 92.7624 588.984 95.7323C586.209 98.6291 582.858 100.913 579.146 102.436C575.028 104.086 570.623 104.902 566.187 104.836C561.723 104.898 557.291 104.08 553.144 102.429C549.409 100.928 546.036 98.6494 543.249 95.745C540.459 92.7747 538.318 89.2572 536.96 85.4156C535.436 81.0856 534.68 76.5226 534.726 71.9323V40.9694C534.687 39.7966 534.899 38.6291 535.346 37.5443C535.794 36.4596 536.467 35.4824 537.321 34.6779C539.101 33.0591 541.42 32.162 543.826 32.162C546.232 32.162 548.552 33.0591 550.332 34.6779C551.187 35.4829 551.861 36.461 552.308 37.547C552.756 38.633 552.967 39.8019 552.927 40.9758V72.526C552.726 76.6147 553.833 80.6612 556.087 84.0781C557.258 85.6197 558.792 86.8478 560.552 87.6532C562.313 88.4585 564.245 88.816 566.177 88.6938C568.102 88.8224 570.029 88.4658 571.781 87.6566C573.533 86.8474 575.053 85.6115 576.203 84.0621C578.402 80.631 579.477 76.5996 579.277 72.5292V40.9502C579.238 39.7777 579.449 38.6102 579.896 37.5254C580.343 36.4407 581.015 35.4634 581.869 34.6587C583.65 33.0379 585.971 32.1396 588.379 32.1396C590.787 32.1396 593.109 33.0379 594.89 34.6587C595.743 35.4634 596.416 36.4407 596.863 37.5254C597.31 38.6102 597.521 39.7777 597.482 40.9502L597.504 71.9196ZM719.683 41.2407C719.786 39.3997 719.465 37.5597 718.746 35.8619C718.027 34.1642 716.928 32.654 715.533 31.4475C712.662 29.1737 709.074 27.9988 705.414 28.1341C704.13 28.0817 702.847 28.285 701.642 28.7321C700.436 29.1793 699.332 29.8614 698.392 30.7389C696.781 32.299 695.504 34.1716 694.641 36.242L681.458 68.3604L668.534 36.3696C666.768 32.22 662.912 26.6754 649.895 26.6754C645.157 26.6592 640.541 28.1778 636.737 31.0038C634.712 32.4704 632.879 34.1863 631.282 36.1111C629.967 30.9336 625.856 28.1309 619.369 28.1309C617.764 28.0142 616.152 28.2347 614.637 28.7782C613.122 29.3217 611.738 30.1762 610.573 31.2867C609.408 32.3973 608.488 33.7393 607.873 35.2266C607.258 36.7138 606.96 38.3134 607 39.9224V94.5576C606.928 96.3067 607.237 98.0506 607.905 99.6688C608.573 101.287 609.584 102.741 610.869 103.929C613.417 106.145 616.68 107.365 620.057 107.365C623.434 107.365 626.697 106.145 629.246 103.929C630.556 102.753 631.59 101.302 632.274 99.6796C632.959 98.0574 633.278 96.3042 633.207 94.5448V70.0171C633.121 66.9952 633.665 63.9885 634.803 61.1879C635.728 58.9975 637.122 57.0363 638.886 55.4422C640.54 53.991 642.466 52.8832 644.552 52.1831C645.284 51.9374 646.03 51.7338 646.786 51.5734L668.259 98.3338C669.381 100.857 671.035 103.108 673.108 104.932C675.381 106.64 678.181 107.498 681.021 107.358C683.849 107.489 686.639 106.675 688.953 105.044C691.078 103.307 692.779 101.109 693.929 98.6179L718.342 47.1556C719.201 45.3005 719.658 43.2848 719.683 41.2407ZM714.703 45.4957L690.326 96.8878C689.445 98.8185 688.144 100.528 686.518 101.89C684.895 102.974 682.962 103.498 681.014 103.38C679.101 103.506 677.203 102.97 675.639 101.861C674.029 100.413 672.746 98.638 671.876 96.6548L649.148 47.1779L647.67 47.3886C646.179 47.6029 644.711 47.949 643.281 48.4228C640.69 49.2908 638.297 50.6656 636.243 52.4672C634.04 54.4403 632.297 56.8723 631.135 59.5918C629.779 62.906 629.127 66.4661 629.22 70.0458V94.5863C629.285 95.778 629.084 96.9692 628.631 98.0734C628.178 99.1777 627.485 100.167 626.603 100.97C624.791 102.527 622.482 103.385 620.094 103.388C617.705 103.391 615.394 102.539 613.579 100.986C612.711 100.17 612.033 99.1734 611.591 98.0665C611.15 96.9596 610.957 95.7695 611.025 94.5799V39.9256C610.985 38.842 611.179 37.7624 611.593 36.7604C612.007 35.7583 612.633 34.8574 613.427 34.1188C614.221 33.3803 615.164 32.8216 616.194 32.4807C617.223 32.1398 618.314 32.0247 619.392 32.1434C625.182 32.1434 627.765 34.5853 627.765 40.0724V42.1153L631.557 43.0091C633.336 39.5187 635.932 36.5104 639.125 34.2405C642.236 31.9018 646.029 30.6512 649.921 30.6814C660.384 30.6814 663.353 34.3459 664.866 37.8986L681.464 78.9804L698.382 37.7837C699.037 36.2233 700.002 34.8116 701.217 33.634C701.789 33.1194 702.457 32.7235 703.183 32.4693C703.909 32.215 704.678 32.1075 705.446 32.1529C708.172 32.0135 710.856 32.8599 713.008 34.5374C713.945 35.3712 714.677 36.4097 715.147 37.5723C715.617 38.7349 715.812 39.9902 715.718 41.2407C715.68 42.715 715.332 44.1647 714.697 45.4957H714.703ZM791.076 71.2939C792.478 68.2937 793.153 65.0052 793.046 61.6954C793.016 52.6426 789.49 43.9513 783.205 37.4358C779.96 34.1178 776.1 31.4627 771.841 29.6184C766.971 27.6129 761.747 26.6126 756.48 26.6779C751.214 26.7432 746.016 27.8726 741.197 29.9983C736.516 32.1473 732.29 35.1737 728.748 38.9137C725.16 42.7408 722.342 47.2233 720.449 52.116C718.456 57.2134 717.443 62.6414 717.464 68.1146C717.409 73.6756 718.398 79.1976 720.379 84.3941C722.222 89.1969 724.995 93.589 728.538 97.3187C732.071 100.992 736.332 103.887 741.047 105.819C746.07 107.853 751.446 108.872 756.864 108.817C762.374 108.935 767.864 108.109 773.096 106.375C777.121 105.006 780.919 103.04 784.36 100.543C785.821 99.4036 787.071 98.0175 788.054 96.4473C789.231 94.6224 789.85 92.4935 789.835 90.3217C789.83 87.2858 788.685 84.3624 786.627 82.1309C785.585 80.9211 784.288 79.9576 782.829 79.3101C781.37 78.6626 779.786 78.3472 778.19 78.3867C776.243 78.4789 774.34 78.9999 772.617 79.9125C772.208 80.1167 771.519 80.4998 770.536 81.068C769.509 81.6497 768.452 82.1761 767.369 82.6449C766.043 83.229 764.674 83.7103 763.274 84.0845C761.754 84.4825 760.188 84.6789 758.616 84.6686C755.302 84.7569 752.045 83.7851 749.321 81.8947C747.238 80.3777 745.666 78.2623 744.814 75.8298H781.989C783.781 76.0418 785.596 75.7254 787.21 74.9195C788.825 74.1137 790.169 72.8535 791.076 71.2939ZM740.17 74.2913C741.033 78.6372 743.474 82.5099 747.023 85.1634C750.424 87.5224 754.481 88.7508 758.62 88.6747C760.546 88.6882 762.465 88.4445 764.327 87.9501C765.923 87.524 767.484 86.9777 768.997 86.3157C770.209 85.7839 771.392 85.1905 772.543 84.5377C773.424 84.0302 774.044 83.6855 774.372 83.5163C775.555 82.8744 776.861 82.4924 778.203 82.3959C779.228 82.362 780.249 82.559 781.188 82.9722C782.127 83.3855 782.961 84.0045 783.629 84.7835C785.041 86.285 785.828 88.2673 785.832 90.3281C785.85 91.73 785.454 93.106 784.692 94.2831C783.966 95.4579 783.039 96.4962 781.954 97.3506C778.832 99.6066 775.389 101.379 771.739 102.608C766.944 104.195 761.913 104.95 756.864 104.842C751.972 104.895 747.119 103.98 742.583 102.148C738.378 100.429 734.579 97.8499 731.43 94.5768C728.243 91.2246 725.749 87.2775 724.088 82.9609C722.291 78.2276 721.397 73.1996 721.451 68.137C721.432 63.1658 722.352 58.2358 724.165 53.6067C725.87 49.1886 728.409 45.1399 731.644 41.6812C734.835 38.3129 738.643 35.5877 742.86 33.6532C747.162 31.7638 751.799 30.7591 756.496 30.6988C761.194 30.6384 765.855 31.5238 770.204 33.3021C773.99 34.9393 777.423 37.2948 780.313 40.2384C783.089 43.1008 785.278 46.4787 786.758 50.1817C788.249 53.8407 789.018 57.7537 789.024 61.705C789.126 64.3809 788.601 67.0436 787.492 69.4808C787.195 70.0586 786.295 71.8238 781.973 71.8238H739.563L740.17 74.2913Z" fill="#DA7924"/>
<path d="M767.79 51.4618C766.506 50.0281 764.931 48.8844 763.171 48.1069C761.136 47.2273 758.937 46.792 756.72 46.8301C752.784 46.6871 748.93 47.9715 745.867 50.4467C742.879 53.1197 740.871 56.7153 740.163 60.6613L739.633 63.0968H771.435V61.0922C771.428 59.3604 771.116 57.6434 770.513 56.02C769.894 54.3458 768.971 52.8004 767.79 51.4618ZM744.753 59.1036C745.461 56.9429 746.734 55.0109 748.44 53.5079C750.783 51.6415 753.727 50.6939 756.72 50.8425C758.363 50.8019 759.995 51.1132 761.508 51.7555C762.753 52.2927 763.868 53.0918 764.777 54.0984C765.63 55.0748 766.297 56.2002 766.743 57.4182C766.943 57.9689 767.103 58.5332 767.222 59.1068L744.753 59.1036Z" fill="#DA7924"/>
</g>
<path d="M789.291 0.582543C783.363 0.582543 778.456 5.51458 778.517 11.3937C778.468 17.2973 783.375 22.1925 789.316 22.1925C795.244 22.1925 800.115 17.3342 800.127 11.3937C800.127 5.45308 795.207 0.570243 789.304 0.582543H789.291ZM789.255 20.6674C784.212 20.6674 780.042 16.4733 780.018 11.406C779.993 6.32633 784.224 2.10766 789.267 2.10766C794.408 2.10766 798.577 6.26484 798.577 11.3814C798.577 16.5225 794.408 20.6674 789.255 20.6674Z" fill="#DA7924"/>
<path d="M791.825 12.2671C791.689 11.9719 791.714 11.8243 792.034 11.689C792.882 11.3201 793.485 10.7051 793.596 9.75805C793.645 9.32758 793.657 8.8725 793.62 8.44202C793.497 7.22439 792.944 6.26504 791.751 5.85916C791.124 5.65007 790.435 5.51478 789.771 5.49018C788.393 5.42869 787.016 5.47788 785.626 5.46559C785.343 5.46559 785.257 5.53938 785.257 5.82227C785.269 7.53187 785.257 9.25378 785.257 10.9634C785.257 12.796 785.257 14.6286 785.257 16.4612C785.257 16.7441 785.343 16.8425 785.626 16.8179C786.007 16.7933 786.376 16.8179 786.757 16.8179C787.077 16.8179 787.237 16.6539 787.237 16.3259C787.237 15.096 787.237 13.866 787.237 12.6361C787.237 12.181 787.237 12.181 787.68 12.181C788.246 12.181 788.799 12.1933 789.365 12.181C789.66 12.181 789.808 12.2671 789.918 12.55C790.435 13.9029 790.964 15.2436 791.493 16.5842C791.53 16.6826 791.677 16.8179 791.763 16.8302C792.403 16.8548 793.055 16.8302 793.756 16.8302C793.706 16.6826 793.67 16.5719 793.633 16.4858C793.03 15.096 792.44 13.6938 791.837 12.304L791.825 12.2671ZM791.53 9.30298C791.37 9.95484 790.89 10.3115 790.275 10.3607C789.34 10.4468 788.405 10.4099 787.471 10.4222C787.274 10.4222 787.225 10.2992 787.225 10.1147C787.225 9.69656 787.225 9.27838 787.225 8.8479C787.225 8.44202 787.225 8.02385 787.225 7.61797C787.225 7.39658 787.299 7.29819 787.52 7.29819C788.393 7.32278 789.266 7.29819 790.14 7.35968C791.197 7.44578 791.775 8.28213 791.53 9.29068V9.30298Z" fill="#DA7924"/>
<defs>
<clipPath id="clip0_1477_3597">
<rect width="792.919" height="129.422" fill="white" transform="translate(0.126953 4.5769)"/>
</clipPath>
</defs>
</svg>
