<svg width="33" height="32" viewBox="0 0 33 32" fill="none" xmlns="http://www.w3.org/2000/svg">
<path opacity="0.2" d="M16.6758 4C14.3024 4 11.9823 4.70379 10.0089 6.02236C8.03555 7.34094 6.49748 9.21509 5.58923 11.4078C4.68098 13.6005 4.44334 16.0133 4.90636 18.3411C5.36939 20.6689 6.51228 22.8071 8.19051 24.4853C9.86874 26.1635 12.0069 27.3064 14.3347 27.7694C16.6625 28.2324 19.0753 27.9948 21.268 27.0866C23.4607 26.1783 25.3348 24.6402 26.6534 22.6668C27.972 20.6935 28.6758 18.3734 28.6758 16C28.6758 12.8174 27.4115 9.76515 25.1611 7.51472C22.9106 5.26428 19.8584 4 16.6758 4ZM14.1758 21V11L22.1758 16L14.1758 21Z" fill="auto"/>
<path d="M16.6758 3C14.1046 3 11.5912 3.76244 9.45337 5.1909C7.31553 6.61935 5.64929 8.64968 4.66535 11.0251C3.68141 13.4006 3.42397 16.0144 3.92558 18.5362C4.42719 21.0579 5.66532 23.3743 7.4834 25.1924C9.30148 27.0105 11.6179 28.2486 14.1396 28.7502C16.6614 29.2518 19.2752 28.9944 21.6507 28.0104C24.0261 27.0265 26.0564 25.3603 27.4849 23.2224C28.9134 21.0846 29.6758 18.5712 29.6758 16C29.6721 12.5533 28.3013 9.24882 25.8642 6.81163C23.427 4.37445 20.1225 3.00364 16.6758 3ZM16.6758 27C14.5002 27 12.3735 26.3549 10.5645 25.1462C8.75557 23.9375 7.34568 22.2195 6.51311 20.2095C5.68055 18.1995 5.46271 15.9878 5.88715 13.854C6.31159 11.7202 7.35923 9.7602 8.89761 8.22183C10.436 6.68345 12.396 5.6358 14.5298 5.21136C16.6636 4.78692 18.8753 5.00476 20.8853 5.83733C22.8953 6.66989 24.6133 8.07979 25.822 9.88873C27.0306 11.6977 27.6758 13.8244 27.6758 16C27.6725 18.9164 26.5125 21.7123 24.4503 23.7745C22.3881 25.8367 19.5922 26.9967 16.6758 27ZM22.7058 15.1525L14.7058 10.1525C14.5545 10.0579 14.3806 10.0056 14.2022 10.0008C14.0238 9.99614 13.8473 10.0393 13.6912 10.1257C13.5351 10.2122 13.405 10.3389 13.3144 10.4926C13.2237 10.6464 13.1759 10.8215 13.1758 11V21C13.1759 21.1785 13.2237 21.3537 13.3144 21.5074C13.405 21.6611 13.5351 21.7878 13.6912 21.8743C13.8473 21.9607 14.0238 22.0039 14.2022 21.9992C14.3806 21.9944 14.5545 21.9421 14.7058 21.8475L22.7058 16.8475C22.8494 16.7576 22.9678 16.6326 23.0499 16.4844C23.1319 16.3361 23.175 16.1694 23.175 16C23.175 15.8306 23.1319 15.6639 23.0499 15.5156C22.9678 15.3674 22.8494 15.2424 22.7058 15.1525ZM15.1758 19.1963V12.8038L20.2895 16L15.1758 19.1963Z" fill="auto"/>
</svg>
