<?xml version="1.0" encoding="utf-8"?>
<!-- Generator: Adobe Illustrator 24.3.0, SVG Export Plug-In . SVG Version: 6.00 Build 0)  -->
<svg version="1.1" id="Layer_1" xmlns="http://www.w3.org/2000/svg" xmlns:xlink="http://www.w3.org/1999/xlink" x="0px" y="0px"
	 viewBox="0 0 120 120" style="enable-background:new 0 0 120 120;" xml:space="preserve">
<style type="text/css">
	.st0{fill:#D97924;}
</style>
<g>
	<path class="st0" d="M60,120c-16,0-31.1-6.2-42.4-17.6C6.2,91.1,0,76,0,60c0-16,6.2-31.1,17.6-42.4C28.9,6.2,44,0,60,0
		c16,0,31.1,6.2,42.4,17.6C113.8,28.9,120,44,120,60c0,16-6.2,31.1-17.6,42.4C91.1,113.8,76,120,60,120z M60,1.2
		C27.6,1.2,1.2,27.5,1.2,60s26.4,58.8,58.8,58.8c32.4,0,58.8-26.4,58.8-58.8S92.4,1.2,60,1.2z"/>
	<path class="st0" d="M25.9,40.7C32.6,28.8,45.4,20.8,60,20.8s27.4,8,34.1,19.9h1.4C88.6,28.1,75.3,19.6,60,19.6
		c-15.3,0-28.6,8.5-35.5,21.1H25.9z"/>
	<path class="st0" d="M93.6,80.1C86.8,91.5,74.3,99.2,60,99.2c-14.2,0-26.7-7.6-33.6-19.1H25c7,12.1,20,20.2,35,20.2
		c14.9,0,28-8.2,35-20.2H93.6z"/>
	<path class="st0" d="M24.5,53.5c-0.8,0.7-1.9,0.9-3.1,0.9H20v4.4h-2.8V46.9h4.3c1.2,0,2.3,0.2,3.1,0.9c0.8,0.7,1.2,1.6,1.2,2.9
		S25.3,52.8,24.5,53.5z M22.4,49.4C22,49.1,21.6,49,21,49h-1.1v3.2H21c0.6,0,1-0.1,1.4-0.3c0.3-0.2,0.6-0.7,0.6-1.3
		C22.9,50,22.7,49.6,22.4,49.4z"/>
	<path class="st0" d="M36.6,58.8h-3.2l-2.5-4.6H30v4.6h-2.8V46.9h4.3c1.3,0,2.4,0.3,3.2,0.8c0.8,0.6,1.3,1.5,1.3,2.7
		c0,2.3-1.5,3.2-2.3,3.4L36.6,58.8z M32.5,49.3C32.1,49.1,31.7,49,31,49h-1.1v3H31c0.6,0,1.1-0.1,1.4-0.3c0.4-0.3,0.6-0.6,0.6-1.2
		C33.1,49.9,32.8,49.6,32.5,49.3z"/>
	<path class="st0" d="M45.4,58.8h-7.9V46.9h7.7v2.2h-4.9v2.4H45v2.2h-4.7v2.8h5.1L45.4,58.8L45.4,58.8z"/>
	<path class="st0" d="M57.1,57.4C56.5,58,55.2,59,52.8,59c-3.5,0-6.2-2.3-6.2-6.2c0-3.9,2.8-6.2,6.2-6.2c2.5,0,3.8,1,4.1,1.4
		L56,50.3c-0.2-0.3-1.5-1.2-3.1-1.2c-2,0-3.6,1.4-3.6,3.7c0,2.3,1.6,3.7,3.6,3.7c1.5,0,2.6-0.6,3.2-1.3L57.1,57.4z"/>
	<path class="st0" d="M61.2,58.8h-2.8V46.9h2.8V58.8z"/>
	<path class="st0" d="M70,58c-0.8,0.7-1.9,1-3.2,1c-1.7,0-3.3-0.9-4.2-1.8l1.4-2c0.9,0.9,2.2,1.5,3.1,1.5c0.9,0,1.6-0.4,1.6-1.2
		c0-0.8-0.9-1.1-1.4-1.3c-0.5-0.2-1.4-0.5-1.8-0.7c-0.3-0.1-0.9-0.4-1.4-0.9c-0.5-0.5-0.9-1.2-0.9-2.3c0-1.1,0.6-2,1.2-2.6
		c0.7-0.6,1.8-1,3.2-1c1.4,0,3,0.7,3.8,1.5L70,50.1c-0.7-0.7-1.8-1.2-2.7-1.2c-0.9,0-1.5,0.3-1.5,1.1c0,0.7,0.7,1,1.2,1.2
		c0.5,0.2,1.4,0.5,1.8,0.7c0.3,0.1,1.1,0.4,1.7,1c0.5,0.5,0.9,1.2,0.9,2.3C71.4,56.3,70.9,57.3,70,58z"/>
	<path class="st0" d="M75.7,58.8h-2.8V46.9h2.8V58.8z"/>
	<path class="st0" d="M83.6,59c-3.5,0-6.3-2.3-6.3-6.2c0-3.9,2.8-6.2,6.3-6.2c3.5,0,6.3,2.3,6.3,6.2C89.9,56.7,87.1,59,83.6,59z
		 M83.6,49.1c-2,0-3.5,1.4-3.5,3.7c0,2.3,1.5,3.7,3.5,3.7s3.5-1.5,3.5-3.7C87.1,50.5,85.6,49.1,83.6,49.1z"/>
	<path class="st0" d="M102.3,58.8h-2.9l-5.2-8.1c0,0,0,1.4,0,2.7v5.4h-2.7V46.9h3l5.1,8c0,0,0-1.4,0-2.6v-5.4h2.7L102.3,58.8
		L102.3,58.8z"/>
	<path class="st0" d="M16.3,74H8.4V62.1h7.7v2.2h-5v2.4h4.7V69h-4.7v2.8h5.1V74z"/>
	<path class="st0" d="M28.8,74H26l-5.2-8.1c0,0,0,1.4,0,2.7V74h-2.7V62.1h3l5.1,8c0,0,0-1.4,0-2.6v-5.4h2.7L28.8,74L28.8,74z"/>
	<path class="st0" d="M41.9,72.1c-0.6,0.5-2,2-5.3,2c-3.3,0-6.2-2.2-6.2-6.2c0-4,2.9-6.1,6.2-6.1c3.2,0,4.5,1.7,4.9,2.1l-1.8,1.6
		c-0.5-0.6-1.4-1.4-3-1.4c-1.9,0-3.4,1.4-3.4,3.8c0,2.4,1.5,3.8,3.5,3.8c1.9,0,2.5-0.8,2.5-0.8v-1.8h-2.5v-2.1h5.2L41.9,72.1
		L41.9,72.1z"/>
	<path class="st0" d="M46.7,74h-2.8V62.1h2.8V74z"/>
	<path class="st0" d="M59.6,74h-2.9l-5.2-8.1c0,0,0,1.4,0,2.7V74h-2.7V62.1h3l5.1,8c0,0,0-1.4,0-2.6v-5.4h2.7L59.6,74L59.6,74z"/>
	<path class="st0" d="M69.7,74h-7.9V62.1h7.7v2.2h-4.9v2.4h4.7V69h-4.7v2.8h5.1L69.7,74L69.7,74z"/>
	<path class="st0" d="M79.3,74h-7.9V62.1h7.7v2.2h-4.9v2.4h4.7V69h-4.7v2.8h5.1L79.3,74L79.3,74z"/>
	<path class="st0" d="M90.5,74h-3.2l-2.5-4.6h-0.9V74H81V62.1h4.3c1.3,0,2.4,0.3,3.2,0.8c0.8,0.6,1.3,1.5,1.3,2.7
		c0,2.3-1.5,3.2-2.3,3.4L90.5,74z M86.3,64.5c-0.3-0.3-0.8-0.3-1.4-0.3h-1.1v3h1.1c0.6,0,1.1-0.1,1.4-0.3c0.4-0.3,0.6-0.6,0.6-1.2
		C87,65.1,86.7,64.8,86.3,64.5z"/>
	<path class="st0" d="M99.3,74h-7.9V62.1h7.7v2.2h-5v2.4h4.7V69h-4.7v2.8h5.1V74z"/>
	<path class="st0" d="M109.6,72.6c-1,0.8-2.5,1.4-4.6,1.4h-4V62.1h4c2.1,0,3.6,0.6,4.6,1.4c1,0.8,1.9,2.2,1.9,4.5
		C111.6,70.4,110.6,71.7,109.6,72.6z M107.7,65.2c-0.5-0.5-1.3-0.8-2.5-0.8h-1.4v7.2h1.4c1.2,0,2-0.4,2.5-0.9
		c0.5-0.5,1.1-1.3,1.1-2.7C108.7,66.6,108.2,65.7,107.7,65.2z"/>
	<path class="st0" d="M15.5,87.2l-0.6-1l4.1-2.5l0.6,1L15.5,87.2z"/>
	<path class="st0" d="M18.9,92.2l-0.7-1l1.4-3.6c0,0-0.5,0.4-0.9,0.7L17,89.6l-0.6-0.9l3.9-2.8l0.7,1l-1.5,3.6c0,0,0.4-0.3,0.8-0.6
		l1.8-1.3l0.6,0.9L18.9,92.2z"/>
	<path class="st0" d="M22,95.4c-0.4-0.1-0.8-0.3-1.2-0.7c-0.5-0.5-0.6-1.2-0.6-1.8l1-0.1c0,0.5,0.1,1.1,0.4,1.4
		c0.2,0.3,0.6,0.4,0.8,0.1c0.3-0.2,0.1-0.6,0-0.8c-0.1-0.2-0.2-0.6-0.3-0.7c0-0.1-0.1-0.4-0.1-0.7c0-0.3,0.1-0.6,0.4-0.9
		c0.3-0.3,0.8-0.4,1.1-0.3c0.4,0.1,0.8,0.3,1.1,0.7c0.4,0.4,0.6,1.1,0.6,1.5l-0.9,0.1c0-0.4-0.1-0.9-0.3-1.1
		c-0.2-0.3-0.5-0.4-0.7-0.2c-0.2,0.2-0.1,0.5,0,0.7c0.1,0.2,0.2,0.6,0.3,0.7c0,0.1,0.2,0.5,0.1,0.8c0,0.3-0.1,0.6-0.4,0.9
		C22.9,95.4,22.4,95.5,22,95.4z"/>
	<path class="st0" d="M28.1,96.4l-0.9-0.9l-2.7,2.8l-0.8-0.8l2.7-2.8l-0.9-0.9l0.6-0.6l2.6,2.5L28.1,96.4z"/>
	<path class="st0" d="M29.2,102.4l-1-0.8l0.3-1l-1.3-1.1l-0.9,0.5l-0.9-0.7l4.5-2.6l0.9,0.7L29.2,102.4z M29,99.8l0.6-1.7l-1.6,1
		L29,99.8z"/>
	<path class="st0" d="M32.6,104.7l-2.3-1.6l2.7-4l0.9,0.6l-2.2,3.2l1.4,0.9L32.6,104.7z"/>
	<path class="st0" d="M36.2,106.7l-2.4-1.4l2.4-4.2l1,0.6l-1.9,3.4l1.5,0.8L36.2,106.7z"/>
	<path class="st0" d="M41.3,109.1l-1.1-0.5l0.1-1l-1.6-0.7l-0.7,0.7l-1.1-0.5l3.6-3.7l1.1,0.5L41.3,109.1z M40.4,106.7l0.2-1.8
		l-1.2,1.3L40.4,106.7z"/>
	<path class="st0" d="M46.2,106.6l-1.2-0.4l-1.3,3.7l-1.1-0.4l1.3-3.7l-1.2-0.4l0.3-0.8l3.4,1.2L46.2,106.6z"/>
	<path class="st0" d="M47.2,111l-1.1-0.3l1.3-4.7l1.1,0.3L47.2,111z"/>
	<path class="st0" d="M51.1,111.9c-1.4-0.3-2.3-1.4-2.1-2.9c0.3-1.5,1.6-2.2,3-2c1.4,0.3,2.4,1.4,2.1,2.9
		C53.8,111.5,52.5,112.2,51.1,111.9z M51.8,108c-0.8-0.1-1.5,0.3-1.7,1.2c-0.2,0.9,0.3,1.6,1.1,1.7c0.8,0.1,1.5-0.3,1.7-1.2
		C53.1,108.8,52.6,108.1,51.8,108z"/>
	<path class="st0" d="M59.5,112.7l-1.2-0.1l-1.9-3.4c0,0,0,0.6,0,1.1l-0.1,2.2l-1.1-0.1l0.3-4.8l1.2,0.1l1.9,3.4c0,0,0-0.6,0-1.1
		l0.1-2.2l1.1,0.1L59.5,112.7z"/>
	<path class="st0" d="M67.3,111.8c-0.2,0.3-0.7,0.7-1.7,0.8c-1.4,0.1-2.6-0.7-2.7-2.3c-0.1-1.5,0.9-2.6,2.3-2.7
		c1-0.1,1.6,0.3,1.7,0.4l-0.3,1c-0.1-0.1-0.7-0.4-1.3-0.4c-0.8,0.1-1.4,0.7-1.3,1.6c0.1,1,0.8,1.4,1.6,1.4c0.6,0,1-0.3,1.2-0.6
		L67.3,111.8z"/>
	<path class="st0" d="M70.9,111.8c-1.4,0.3-2.7-0.4-3-1.9c-0.3-1.5,0.6-2.7,2-2.9c1.4-0.3,2.7,0.4,3,1.9
		C73.2,110.4,72.3,111.5,70.9,111.8z M70.1,107.8c-0.8,0.1-1.3,0.8-1.1,1.8c0.2,0.9,0.9,1.4,1.7,1.2c0.8-0.1,1.3-0.8,1.1-1.8
		C71.6,108.2,70.9,107.7,70.1,107.8z"/>
	<path class="st0" d="M79,109.5l-1.1,0.4l-3-2.5c0,0,0.2,0.6,0.4,1l0.7,2.1l-1.1,0.3l-1.5-4.6l1.1-0.4l3,2.5c0,0-0.2-0.5-0.3-1
		l-0.7-2.1l1.1-0.3L79,109.5z"/>
	<path class="st0" d="M83,107.4c-0.2,0.4-0.6,0.7-1,0.9c-0.6,0.3-1.4,0.2-1.9,0l0.2-1c0.5,0.2,1.1,0.2,1.4,0
		c0.3-0.1,0.5-0.4,0.4-0.7c-0.1-0.3-0.5-0.3-0.7-0.3c-0.2,0-0.6,0-0.8,0c-0.1,0-0.4,0-0.7-0.1c-0.3-0.1-0.5-0.3-0.7-0.7
		c-0.2-0.4-0.1-0.8,0-1.2c0.1-0.3,0.5-0.6,1-0.9c0.5-0.2,1.2-0.3,1.7-0.1l-0.1,0.9c-0.4-0.1-0.8-0.1-1.2,0c-0.3,0.1-0.5,0.4-0.4,0.7
		c0.1,0.3,0.4,0.3,0.7,0.3c0.2,0,0.6,0,0.8,0c0.1,0,0.5,0,0.8,0.1c0.3,0.1,0.6,0.3,0.7,0.7C83.2,106.6,83.2,107,83,107.4z"/>
	<path class="st0" d="M85.9,106.3l-1,0.5l-2.3-4.3l1-0.5L85.9,106.3z"/>
	<path class="st0" d="M89.4,103.8c-0.1,0.4-0.5,0.8-0.9,1c-0.6,0.4-1.3,0.4-1.8,0.3l0-1c0.5,0.1,1.1,0,1.4-0.1
		c0.3-0.2,0.4-0.5,0.3-0.8c-0.2-0.3-0.6-0.2-0.8-0.1c-0.2,0-0.6,0.1-0.8,0.1c-0.1,0-0.4,0.1-0.7,0c-0.3-0.1-0.6-0.2-0.8-0.6
		c-0.3-0.4-0.3-0.8-0.1-1.2c0.1-0.3,0.4-0.7,0.9-1c0.5-0.3,1.2-0.4,1.6-0.3v0.9c-0.4-0.1-0.9,0-1.2,0.1c-0.3,0.2-0.5,0.4-0.3,0.7
		c0.1,0.3,0.4,0.2,0.7,0.1c0.2,0,0.6-0.1,0.8-0.1c0.1,0,0.5-0.1,0.8,0c0.3,0.1,0.6,0.2,0.8,0.6C89.5,102.9,89.6,103.4,89.4,103.8z"
		/>
	<path class="st0" d="M91.4,98l-1,0.7l2.3,3.2l-0.9,0.7l-2.4-3.2l-1,0.7l-0.5-0.7l2.9-2.2L91.4,98z"/>
	<path class="st0" d="M97.1,98.2l-2.4,2.1l-3.2-3.6l2.3-2.1l0.6,0.7l-1.5,1.3l0.7,0.7l1.4-1.2l0.6,0.7L94.2,98l0.7,0.8l1.5-1.4
		L97.1,98.2z"/>
	<path class="st0" d="M101.2,93.8l-0.8,0.9l-3.9-0.6c0,0,0.4,0.4,0.8,0.7l1.6,1.5l-0.7,0.8l-3.6-3.2l0.8-0.9l3.8,0.7
		c0,0-0.4-0.4-0.8-0.7l-1.6-1.5l0.7-0.8L101.2,93.8z"/>
	<path class="st0" d="M104.2,88.9c0.1,0.3,0.1,1-0.5,1.8c-0.8,1.1-2.2,1.5-3.5,0.6c-1.3-0.9-1.4-2.4-0.5-3.5c0.6-0.8,1.2-1,1.4-1
		l0.6,0.8c-0.1,0-0.8,0.2-1.1,0.7c-0.5,0.7-0.4,1.5,0.4,2.1c0.8,0.6,1.6,0.3,2.1-0.3c0.4-0.5,0.4-1,0.4-1.4L104.2,88.9z"/>
	<path class="st0" d="M103.2,82.2l1.6,2.9l1.7,1l-0.6,1l-1.7-1h-3.3l0.6-1.1l2.2,0.1l-1.2-1.8L103.2,82.2z"/>
	<path class="st0" d="M20.9,35.3c-0.8,1.2-2.1,1.7-3.5,0.8c-1.3-0.8-1.5-2.3-0.8-3.5c0.8-1.2,2.2-1.7,3.5-0.8
		C21.5,32.6,21.7,34,20.9,35.3z M17.5,33.1c-0.4,0.7-0.3,1.5,0.5,2c0.8,0.5,1.6,0.3,2-0.4s0.3-1.5-0.5-2
		C18.7,32.2,17.9,32.4,17.5,33.1z"/>
	<path class="st0" d="M23,28.5c0,0.4-0.2,0.8-0.5,1.2l-0.4,0.5l1.4,1.1l-0.7,0.9l-3.8-3l1.1-1.4c0.3-0.4,0.7-0.7,1.1-0.8
		c0.4-0.1,0.8,0,1.2,0.3C22.8,27.7,23,28.1,23,28.5z M21.2,28.2c-0.2,0-0.3,0.1-0.4,0.3l-0.3,0.3l1,0.8l0.3-0.3
		c0.1-0.2,0.2-0.3,0.2-0.5s-0.1-0.4-0.3-0.5C21.5,28.1,21.3,28.1,21.2,28.2z"/>
	<path class="st0" d="M25.1,23.7l-0.8,0.9l2.9,2.7l-0.8,0.8l-2.9-2.7l-0.8,0.9l-0.7-0.6l2.5-2.6L25.1,23.7z"/>
	<path class="st0" d="M29.4,25l-0.8,0.8l-3.3-3.6l0.8-0.8L29.4,25z"/>
	<path class="st0" d="M34.7,20.8l-0.9,0.7l-2.1-2.5h0l1.1,3.2l-0.7,0.5l-2.8-2l0,0l1.8,2.7l-0.9,0.7l-2.6-4.1l1.1-0.9l2.7,1.9h0
		L30.4,18l1.1-0.9L34.7,20.8z"/>
	<path class="st0" d="M36.7,19.6l-1,0.6l-2.5-4.1l1-0.6L36.7,19.6z"/>
	<path class="st0" d="M40.1,17.4c-0.2,0.4-0.5,0.7-1,1c-0.6,0.3-1.3,0.3-1.9,0.1l0.1-1c0.5,0.2,1.1,0.1,1.4,0
		c0.3-0.2,0.5-0.4,0.3-0.7c-0.1-0.3-0.5-0.2-0.7-0.2c-0.2,0-0.6,0.1-0.8,0.1c-0.1,0-0.4,0-0.7,0c-0.3-0.1-0.6-0.3-0.8-0.7
		c-0.2-0.4-0.2-0.8,0-1.2c0.1-0.3,0.5-0.7,1-0.9c0.5-0.3,1.2-0.3,1.6-0.2l-0.1,0.9c-0.4-0.1-0.9-0.1-1.2,0.1
		c-0.3,0.2-0.5,0.4-0.4,0.7c0.1,0.3,0.4,0.2,0.7,0.2c0.2,0,0.6-0.1,0.8-0.1c0.1,0,0.5-0.1,0.8,0c0.3,0.1,0.6,0.3,0.8,0.7
		C40.3,16.6,40.3,17,40.1,17.4z"/>
	<path class="st0" d="M44.7,15.8l-3,1.2l-1.8-4.5l2.9-1.2l0.3,0.8L41.3,13l0.4,0.9l1.8-0.7l0.3,0.8L42,14.7l0.4,1l1.9-0.8L44.7,15.8
		z"/>
	<path class="st0" d="M49,13.9c-0.3,0.4-0.8,0.8-1.6,1.1l-1.6,0.4l-1.4-4.6l1.6-0.4c0.8-0.2,1.5-0.2,1.9,0c0.5,0.2,1,0.6,1.2,1.5
		C49.5,12.9,49.3,13.5,49,13.9z M47.4,11.3c-0.3-0.1-0.6-0.2-1.1,0l-0.6,0.1l0.8,2.8l0.6-0.1c0.4-0.1,0.7-0.4,0.9-0.6
		c0.1-0.2,0.3-0.6,0.1-1.2C47.9,11.7,47.6,11.4,47.4,11.3z"/>
	<path class="st0" d="M55.2,9.4l-1.9,0.3l0.2,1.2l1.8-0.3l0.1,0.9l-1.8,0.3l0.3,1.8l-1.1,0.1l-0.7-4.8l3-0.4L55.2,9.4z"/>
	<path class="st0" d="M59.1,13.2c-1.4,0-2.6-0.8-2.6-2.4c-0.1-1.5,1-2.5,2.5-2.6c1.4,0,2.6,0.8,2.6,2.4
		C61.6,12.2,60.5,13.1,59.1,13.2z M58.9,9.2c-0.8,0-1.4,0.6-1.4,1.5c0,0.9,0.7,1.5,1.5,1.5c0.8,0,1.4-0.6,1.4-1.6
		C60.4,9.7,59.7,9.1,58.9,9.2z"/>
	<path class="st0" d="M66.5,13.4l-1.3-0.1l-0.9-1.9l-0.4,0l-0.1,1.8l-1.1-0.1l0.4-4.8l1.7,0.1c0.5,0,1,0.2,1.2,0.4
		c0.3,0.3,0.5,0.7,0.4,1.1c-0.1,0.9-0.7,1.2-1,1.3L66.5,13.4z M65.1,9.4c-0.1-0.1-0.3-0.1-0.6-0.2l-0.4,0L64,10.5l0.4,0
		c0.3,0,0.4,0,0.6-0.1c0.1-0.1,0.3-0.2,0.3-0.5C65.4,9.7,65.3,9.5,65.1,9.4z"/>
	<path class="st0" d="M72.6,12.3c-0.4,0.2-0.8,0.2-1.3,0.1l-0.6-0.1L70.3,14l-1.1-0.2l1-4.7l1.7,0.4c0.5,0.1,0.9,0.3,1.1,0.6
		c0.3,0.3,0.4,0.7,0.3,1.2C73.2,11.8,72.9,12.2,72.6,12.3z M72,10.5c-0.1-0.1-0.3-0.2-0.5-0.3l-0.4-0.1l-0.3,1.3l0.4,0.1
		c0.2,0,0.4,0,0.6,0c0.1-0.1,0.3-0.2,0.3-0.5C72.2,10.8,72.2,10.6,72,10.5z"/>
	<path class="st0" d="M77.2,16l-1.2-0.4l-0.4-2.1l-0.3-0.1l-0.6,1.8l-1.1-0.3l1.5-4.6l1.7,0.5c0.5,0.2,0.9,0.4,1.1,0.7
		c0.2,0.3,0.3,0.8,0.2,1.2c-0.3,0.9-1,1-1.3,1L77.2,16z M76.8,11.9c-0.1-0.1-0.3-0.2-0.5-0.3l-0.4-0.1l-0.4,1.2l0.4,0.1
		c0.3,0.1,0.4,0.1,0.6,0c0.2-0.1,0.3-0.1,0.4-0.4C76.9,12.2,76.9,12,76.8,11.9z"/>
	<path class="st0" d="M80,17.3c-1.3-0.6-1.9-1.9-1.3-3.3c0.6-1.4,2.1-1.8,3.4-1.2c1.3,0.6,1.9,1.9,1.3,3.3
		C82.7,17.5,81.3,17.9,80,17.3z M81.7,13.7c-0.7-0.3-1.5-0.1-1.9,0.8c-0.4,0.8-0.1,1.6,0.7,2c0.7,0.3,1.5,0,1.9-0.8
		C82.7,14.8,82.4,14,81.7,13.7z"/>
	<path class="st0" d="M86.6,20.2c-0.5,0.1-1.2,0-1.9-0.5l-1.4-0.8l2.5-4.1l1.4,0.8c0.7,0.4,1.1,1,1.3,1.5c0.2,0.5,0.2,1.2-0.3,2
		C87.7,19.8,87.1,20.1,86.6,20.2z M87.5,17.2c-0.1-0.3-0.3-0.6-0.7-0.8l-0.5-0.3l-1.5,2.5l0.5,0.3c0.4,0.2,0.8,0.3,1,0.2
		c0.3-0.1,0.6-0.2,0.9-0.7C87.5,17.9,87.5,17.5,87.5,17.2z"/>
	<path class="st0" d="M92.2,22.5c-0.4,0.5-0.8,0.8-1.3,0.9c-0.5,0.1-1-0.1-1.6-0.5c-0.6-0.4-0.8-0.9-0.9-1.4c0-0.5,0.1-0.9,0.6-1.5
		l1.7-2.2l0.9,0.7l-1.7,2.2c-0.2,0.3-0.4,0.5-0.3,0.7c0,0.2,0.1,0.5,0.4,0.7c0.3,0.2,0.5,0.2,0.7,0.2c0.3-0.1,0.4-0.3,0.6-0.5
		l1.7-2.2l0.9,0.7L92.2,22.5z"/>
	<path class="st0" d="M95.3,27.4c-0.4,0-1,0-1.7-0.7c-1-1-1.2-2.4-0.1-3.6c1.1-1.1,2.5-1,3.6,0c0.7,0.7,0.8,1.4,0.8,1.5L96.9,25
		c0-0.1-0.1-0.8-0.6-1.2c-0.6-0.6-1.4-0.6-2.1,0.1c-0.7,0.7-0.6,1.5,0,2.1c0.4,0.4,0.9,0.6,1.3,0.5L95.3,27.4z"/>
	<path class="st0" d="M100.6,28.4l-0.8-1l-3,2.5L96,29.1l3-2.5l-0.8-1l0.7-0.6l2.4,2.8L100.6,28.4z"/>
	<path class="st0" d="M101.8,37.2l-0.7-1.1l0.2-0.7c-0.6-0.2-1-0.4-1.3-1c-0.5-0.8-0.5-1.7,0.3-2.2c0.6-0.4,1.2-0.1,1.8,0.3
		c0.1-0.3,0.2-0.7,0.6-1c0.7-0.4,1.4,0,1.8,0.6c0.4,0.7,0.4,1.4-0.2,1.8c-0.5,0.3-1.1,0.1-1.5-0.1l-0.3,0.9c0.2,0,0.8,0.1,1.1,0.1
		l0.1,0.9c-0.3,0-1,0-1.3-0.1L101.8,37.2L101.8,37.2z M101.9,33.3l-0.1-0.1c-0.2-0.1-0.6-0.3-0.9-0.1c-0.3,0.2-0.4,0.6-0.2,0.9
		c0.2,0.3,0.5,0.5,0.8,0.5L101.9,33.3z M103.8,32.6c-0.1-0.2-0.4-0.3-0.6-0.2c-0.2,0.1-0.2,0.3-0.3,0.4l-0.1,0.2
		c0.2,0.1,0.6,0.3,0.8,0.1C103.9,33.1,104,32.8,103.8,32.6z"/>
</g>
</svg>
