<?xml version="1.0" encoding="utf-8"?>
<!-- Generator: Adobe Illustrator 24.3.0, SVG Export Plug-In . SVG Version: 6.00 Build 0)  -->
<svg version="1.1" id="Layer_1" focusable="false" xmlns="http://www.w3.org/2000/svg" xmlns:xlink="http://www.w3.org/1999/xlink"
	 x="0px" y="0px" viewBox="0 0 512 512" style="enable-background:new 0 0 512 512;" xml:space="preserve">
<style type="text/css">
	.st0{fill:#FFFFFF;}
</style>
<path class="st0" d="M256,0C114.6,0,0,114.6,0,256s114.6,256,256,256s256-114.6,256-256S397.4,0,256,0z M455.4,156.9h-85.2
	c-9.3-45.8-24.9-84.9-44.6-112.6C382.5,63.1,429.1,104.1,455.4,156.9z M346.8,256c0,23.6-1.7,45.6-4.4,66.1H169.6
	c-2.8-20.4-4.4-42.4-4.4-66.1s1.7-45.6,4.4-66.1h172.8C345.2,210.4,346.8,232.4,346.8,256z M256,33c27.8,0,63.4,45.5,80.6,123.9
	H175.4C192.6,78.6,228.2,33,256,33z M186.3,44.3C166.7,71.9,151,111,141.7,156.9H56.6C82.9,104.1,129.5,63.1,186.3,44.3z M33,256
	c0-23,3.5-45.2,10-66.1h93.4c-2.7,21.2-4.3,43.1-4.3,66.1s1.5,44.9,4.3,66.1H43C36.5,301.2,33,279,33,256z M56.6,355.1h85.2
	c9.3,45.8,24.9,84.9,44.6,112.6C129.5,448.9,82.9,407.9,56.6,355.1z M256,479c-27.8,0-63.4-45.5-80.6-123.9h161.2
	C319.4,433.4,283.8,479,256,479L256,479z M325.7,467.7c19.6-27.7,35.3-66.7,44.6-112.6h85.2C429.1,407.9,382.5,448.9,325.7,467.7z
	 M375.5,322.1c2.7-21.2,4.3-43.1,4.3-66.1s-1.5-44.9-4.3-66.1H469c6.5,20.9,10,43,10,66.1s-3.5,45.2-10,66.1H375.5z"/>
</svg>
