<svg width="1217" height="586" viewBox="0 0 1217 586" fill="none" xmlns="http://www.w3.org/2000/svg">
<mask id="path-1-inside-1_124_2061" fill="white">
<path d="M607 0H1206.42C1211.94 0 1216.42 4.47715 1216.42 10V576C1216.42 581.523 1211.94 586 1206.42 586H607V0Z"/>
</mask>
<path d="M607 0H1206.42C1211.94 0 1216.42 4.47715 1216.42 10V576C1216.42 581.523 1211.94 586 1206.42 586H607V0Z" fill="#DA7924" fill-opacity="0.05"/>
<path d="M607 -1H1206.42C1212.5 -1 1217.42 3.92487 1217.42 10H1215.42C1215.42 5.02944 1211.39 1 1206.42 1H607V-1ZM1217.42 576C1217.42 582.075 1212.5 587 1206.42 587H607V585H1206.42C1211.39 585 1215.42 580.971 1215.42 576H1217.42ZM607 586V0V586ZM1206.42 -1C1212.5 -1 1217.42 3.92487 1217.42 10V576C1217.42 582.075 1212.5 587 1206.42 587V585C1211.39 585 1215.42 580.971 1215.42 576V10C1215.42 5.02944 1211.39 1 1206.42 1V-1Z" fill="#DA7924" fill-opacity="0.1" mask="url(#path-1-inside-1_124_2061)"/>
<mask id="path-3-inside-2_124_2061" fill="white">
<path d="M0 10C0 4.47717 4.47715 0 10 0H607V586H10C4.47717 586 0 581.523 0 576V10Z"/>
</mask>
<path d="M0 10C0 4.47717 4.47715 0 10 0H607V586H10C4.47717 586 0 581.523 0 576V10Z" fill="#1B4932" fill-opacity="0.05"/>
<path d="M-1 10C-1 3.92487 3.92487 -1 10 -1H607V1H10C5.02944 1 1 5.02944 1 10H-1ZM607 587H10C3.92487 587 -1 582.075 -1 576H1C1 580.971 5.02944 585 10 585H607V587ZM10 587C3.92487 587 -1 582.075 -1 576V10C-1 3.92487 3.92487 -1 10 -1V1C5.02944 1 1 5.02944 1 10V576C1 580.971 5.02944 585 10 585V587ZM607 0V586V0Z" fill="black" fill-opacity="0.05" mask="url(#path-3-inside-2_124_2061)"/>
</svg>
