<svg width="200" height="48" viewBox="0 0 200 48" fill="none" xmlns="http://www.w3.org/2000/svg">
<g clip-path="url(#clip0_1477_3565)">
<path d="M40.5413 62.8272C37.6206 61.6589 34.9904 60.7811 31.1918 59.4659C24.3257 57.2762 17.6064 54.7928 17.6064 49.095C17.6064 43.3971 21.9891 40.4764 28.7084 40.4764C35.2951 40.5971 41.5783 43.2678 46.236 47.9267L52.0806 39.3081C47.6979 34.6349 40.685 30.2523 28.4179 30.2523C16.1509 30.2523 5.0457 37.2748 5.0457 50.1164C5.01174 53.6663 6.03552 57.1458 7.98658 60.1117C9.93763 63.0775 12.7276 65.3952 16.0008 66.7694C19.0377 68.2953 22.2174 69.5184 25.494 70.4211C30.1672 72.0171 41.1351 74.3633 41.1351 81.9604C41.1351 89.5574 34.269 91.894 27.8434 91.894C23.9355 91.7313 20.103 90.7653 16.5849 89.0562C13.0668 87.3472 9.93853 84.9317 7.39506 81.9604L0.675781 90.1384C3.90633 94.1648 8.03047 97.3833 12.7212 99.5386C17.412 101.694 22.5403 102.727 27.6997 102.555C34.6476 102.839 41.4734 100.667 46.9797 96.4204C49.2901 94.5085 51.1344 92.0954 52.3728 89.3642C53.6112 86.633 54.211 83.6556 54.1267 80.658C54.1581 78.2454 53.6798 75.8534 52.7233 73.6383C51.7668 71.4232 50.3534 69.435 48.5757 67.8036C46.2175 65.6767 43.4961 63.9911 40.5413 62.8272ZM91.9717 90.5789C90.5664 90.7553 89.1401 90.5169 87.8686 89.893C86.597 89.2692 85.5356 88.2871 84.8151 87.0676C83.2289 83.0314 82.6281 78.675 83.0627 74.3601V42.9598H99.7157V31.7142H83.0595V10.9722H69.0368V31.7206H58.8222V42.9694H69.0368V74.6665C69.0368 85.6216 69.621 91.0258 72.5481 95.4149C74.1537 97.8071 76.3655 99.7303 78.9575 100.988C81.5495 102.246 84.429 102.794 87.3018 102.575C91.6456 102.587 95.9542 101.795 100.009 100.238L99.1315 88.9893C96.8899 90.0363 94.4458 90.5789 91.9717 90.5789ZM122.938 42.2288H122.501L122.647 31.5674H108.625V100.95H122.647V66.3321C122.276 60.1975 123.751 54.0924 126.883 48.8045C128.21 47.0246 129.927 45.5724 131.903 44.5592C133.878 43.5461 136.059 42.999 138.279 42.9598C140.886 42.9024 143.476 43.4008 145.876 44.4218H146.46L147.335 31.4206C144.997 30.569 142.518 30.1724 140.031 30.2523C136.295 30.2414 132.646 31.3866 129.586 33.5308C126.526 35.6749 124.204 38.7131 122.938 42.2288ZM179.657 30.2523C170.534 30.3343 161.583 32.7519 153.658 37.2748L157.894 46.6211C164.223 42.8538 171.419 40.7907 178.783 40.6328C188.863 40.6328 196.02 45.8901 196.02 56.4111V59.185L177.468 59.9096C161.402 60.6406 150.297 67.5067 150.297 81.0889C150.297 94.5275 161.399 102.562 174.237 102.562C178.451 102.564 182.612 101.635 186.425 99.8421C190.238 98.0493 193.608 95.4367 196.294 92.1909L196.441 100.956H210.027V60.6342C210.027 48.8045 207.253 42.9598 202.576 38.1398C197.916 33.4667 191.194 30.2523 179.657 30.2523ZM196.164 82.5445C194.26 85.5358 191.655 88.0173 188.575 89.7735C185.495 91.5296 182.033 92.5074 178.489 92.6218C169.286 92.6218 164.173 87.2177 164.173 80.6452C164.173 74.0728 168.702 69.2528 179.951 68.6686L196.164 67.6472V82.5445ZM225.103 31.5706H239.125V100.953H225.103V31.5706ZM232.109 0.160761C230.426 0.246285 228.805 0.823511 227.446 1.821C226.087 2.8185 225.051 4.19247 224.465 5.7729C223.88 7.35332 223.77 9.07082 224.15 10.7128C224.531 12.3549 225.384 13.8493 226.605 15.0113C227.826 16.1733 229.361 16.9518 231.02 17.2504C232.678 17.549 234.388 17.3547 235.938 16.6915C237.487 16.0283 238.808 14.9253 239.738 13.519C240.667 12.1127 241.163 10.4648 241.165 8.77931C241.167 7.60975 240.93 6.45212 240.47 5.3769C240.01 4.30169 239.335 3.33139 238.488 2.5251C237.641 1.7188 236.639 1.09337 235.542 0.686901C234.445 0.280429 233.277 0.101416 232.109 0.160761ZM308.83 42.5225H308.393C305.743 38.5663 302.119 35.3591 297.87 33.21C293.621 31.0609 288.89 30.0422 284.133 30.2523C266.312 30.2523 250.684 43.1067 250.684 65.1638C250.684 87.2209 266.325 100.075 284.133 100.075C288.903 100.26 293.639 99.2151 297.888 97.0405C302.136 94.8659 305.754 91.6349 308.393 87.6582H308.684V91.1694C308.684 100.663 306.2 107.235 303.426 110.596C300.652 114.108 294.808 118.193 284.437 118.193C275.458 117.88 266.792 114.822 259.606 109.431L253.033 119.218C262.015 125.83 272.844 129.457 283.996 129.589C301.233 129.589 309.852 122.566 314.959 116.297C320.066 110.162 322.556 101.69 322.556 86.3526V31.5674H308.68L308.83 42.5225ZM287.067 88.6796C272.897 88.6796 265.01 78.3086 265.01 65.1606C265.01 52.0125 272.897 41.4979 287.067 41.4979C301.383 41.4979 309.124 52.0157 309.124 65.1606C309.124 78.3055 301.383 88.6796 287.067 88.6796ZM374.443 30.2555C370.105 30.1497 365.822 31.2383 362.061 33.4023C358.3 35.5662 355.206 38.7223 353.117 42.5257H352.826V0.163953H338.951V100.953H352.826V66.6257C352.826 52.7499 358.231 41.7947 370.938 41.7947C383.646 41.7947 385.254 51.7284 385.254 61.6589V100.953H399.277V59.6128C399.274 43.1099 394.454 30.2555 374.443 30.2555ZM439.826 90.5789C438.421 90.7553 436.994 90.5169 435.723 89.893C434.451 89.2692 433.39 88.2871 432.669 87.0676C431.073 84.1469 430.917 80.2015 430.917 74.3601V42.9598H447.57V31.7142H430.917V10.9722H416.894V31.7206H406.68V42.9694H416.894V74.6665C416.894 85.6216 417.478 91.0258 420.405 95.4149C422.011 97.8071 424.223 99.7303 426.815 100.988C429.407 102.246 432.286 102.794 435.159 102.575C439.503 102.587 443.811 101.795 447.867 100.238L446.989 88.9893C444.746 90.0368 442.301 90.5794 439.826 90.5789ZM483.879 51.4252C484.843 49.9214 486.144 48.6625 487.678 47.7479C489.352 46.8191 491.246 46.3613 493.159 46.4232C494.645 46.3876 496.126 46.5968 497.545 47.0425C498.712 47.4319 499.838 47.9366 500.906 48.5491C501.741 49.0336 502.513 49.6178 503.207 50.2888C503.986 51.0645 504.692 51.7156 505.276 52.204C506.326 53.0943 507.462 53.879 508.666 54.547C510.451 55.5069 512.459 55.9782 514.485 55.9132C515.781 55.8912 517.064 55.6561 518.283 55.2173C519.637 54.7397 520.899 54.0336 522.015 53.1297C523.245 52.1348 524.233 50.8744 524.907 49.4429C525.658 47.7716 526.024 45.9533 525.979 44.1217C525.983 42.6059 525.752 41.0985 525.296 39.6529C524.686 37.9322 523.794 36.325 522.656 34.8967C519.277 30.3032 514.595 26.8312 509.218 24.9311C504.003 23.1417 498.525 22.2386 493.012 22.2594C487.796 22.2182 482.628 23.2515 477.829 25.295C473.031 27.3385 468.704 30.3483 465.12 34.137C461.588 37.9054 458.799 42.3067 456.9 47.1095C454.885 52.2042 453.87 57.6391 453.909 63.1177C453.868 68.6159 454.772 74.0804 456.581 79.2726C458.275 84.1125 460.924 88.5629 464.37 92.3601C467.837 96.1103 472.04 99.106 476.716 101.161C481.861 103.379 487.416 104.484 493.018 104.404C496.335 104.436 499.645 104.101 502.888 103.405C505.537 102.822 508.118 101.966 510.59 100.851C512.64 99.9197 514.58 98.7635 516.375 97.4035C517.802 96.3152 519.159 95.1382 520.438 93.8795C521.906 92.4425 523.065 90.7208 523.845 88.8201C524.624 86.9193 525.007 84.8794 524.971 82.8254C524.99 81.1715 524.636 79.5346 523.935 78.0364C523.234 76.5382 522.205 75.2172 520.923 74.1717C518.74 72.4912 516.08 71.5458 513.326 71.4713C512.08 71.5162 510.848 71.7442 509.668 72.148C507.958 72.7242 506.384 73.6443 505.043 74.8516C503.198 76.4251 501.189 77.796 499.051 78.9407C497.225 79.8391 495.21 80.2878 493.175 80.2494C491.267 80.3107 489.38 79.8351 487.729 78.8768C486.2 77.925 484.894 76.6557 483.899 75.1549C482.821 73.501 482.024 71.6804 481.54 69.7667C481 67.6915 480.728 65.5556 480.732 63.4113C480.731 61.2374 481.004 59.0719 481.546 56.9666C482.017 55.0049 482.806 53.1332 483.879 51.4252ZM477.636 70.7754C478.229 73.1199 479.209 75.3489 480.537 77.3702C481.851 79.3483 483.577 81.0187 485.597 82.2668C487.878 83.6321 490.501 84.3217 493.159 84.2554C495.83 84.294 498.472 83.6932 500.864 82.503C503.267 81.2207 505.527 79.6874 507.606 77.9288C508.543 77.0755 509.643 76.4208 510.839 76.004C511.637 75.719 512.471 75.5512 513.317 75.506C514.197 75.5267 515.069 75.6883 515.899 75.9848C516.814 76.2858 517.67 76.7426 518.43 77.3351C519.185 77.9589 519.798 78.7357 520.23 79.6142C520.736 80.6165 520.985 81.7287 520.955 82.8509C520.992 84.3791 520.713 85.8984 520.136 87.3139C519.559 88.7293 518.695 90.0104 517.6 91.0769C516.439 92.2141 515.21 93.2801 513.92 94.2689C512.361 95.4447 510.675 96.4436 508.896 97.2471C506.679 98.2463 504.364 99.0102 501.988 99.5262C499.039 100.155 496.03 100.455 493.015 100.42C487.978 100.503 482.98 99.517 478.351 97.528C474.174 95.6981 470.418 93.0272 467.319 89.6819C464.234 86.2735 461.864 82.2814 460.348 77.9416C458.695 73.1801 457.871 68.1704 457.912 63.1304C457.874 58.1616 458.792 53.2318 460.616 48.6098C462.329 44.2735 464.845 40.2992 468.031 36.8949C471.241 33.502 475.117 30.8075 479.416 28.9797C483.715 27.1519 488.344 26.2301 493.015 26.2718C498.084 26.2493 503.12 27.0769 507.916 28.7201C512.54 30.3641 516.565 33.3588 519.468 37.3163C520.326 38.3899 521.01 39.5921 521.495 40.8786C521.822 41.9348 521.986 43.0351 521.98 44.1409C522.023 45.3722 521.792 46.5977 521.303 47.7288C520.894 48.6209 520.285 49.4064 519.522 50.0238C518.759 50.6431 517.895 51.1259 516.968 51.4507C515.947 51.8164 514.863 51.9738 513.781 51.9135C512.698 51.8532 511.638 51.5764 510.664 51.0996C509.677 50.5502 508.744 49.9089 507.877 49.1843C507.239 48.6445 506.626 48.0746 506.042 47.4766C505.109 46.5667 504.067 45.7764 502.939 45.124C501.641 44.3728 500.271 43.7536 498.85 43.2758C497.012 42.6848 495.089 42.4001 493.159 42.4331C490.524 42.3682 487.922 43.0226 485.632 44.326C483.567 45.551 481.818 47.2421 480.525 49.2641C479.206 51.3342 478.236 53.6061 477.652 55.9898C477.024 58.4194 476.702 60.9179 476.694 63.4273C476.695 65.9077 477.012 68.3748 477.636 70.7754ZM588.94 23.7213C587.231 23.6848 585.533 23.9861 583.942 24.6079C582.35 25.2296 580.898 26.1595 579.667 27.3443C578.419 28.5214 577.433 29.9481 576.773 31.5314C576.113 33.1148 575.794 34.8194 575.836 36.5342V68.0845C576.025 71.3198 575.211 74.5345 573.506 77.2904C572.718 78.3134 571.685 79.1207 570.502 79.6375C569.319 80.1542 568.024 80.3636 566.739 80.2462C565.439 80.3594 564.132 80.1467 562.935 79.6272C561.738 79.1077 560.69 78.298 559.885 77.2712C558.138 74.5368 557.299 71.3206 557.488 68.0813V36.5342C557.53 34.8194 557.211 33.115 556.551 31.5317C555.891 29.9484 554.905 28.5217 553.658 27.3443C551.132 25.0146 547.821 23.7212 544.385 23.7212C540.948 23.7212 537.638 25.0146 535.112 27.3443C533.864 28.5214 532.878 29.9481 532.218 31.5314C531.558 33.1148 531.239 34.8194 531.281 36.5342V67.4972C531.229 72.5534 532.061 77.5798 533.739 82.3498C535.287 86.7106 537.723 90.7029 540.893 94.0742C544.071 97.3845 547.914 99.9836 552.17 101.7C561.523 105.307 571.884 105.307 581.237 101.7C585.461 99.9685 589.274 97.3707 592.432 94.0742C595.602 90.7038 598.038 86.7113 599.585 82.3498C601.263 77.5798 602.095 72.5534 602.043 67.4972V36.5342C602.085 34.8194 601.766 33.1148 601.106 31.5314C600.446 29.9481 599.46 28.5214 598.212 27.3443C596.982 26.1593 595.529 25.2291 593.938 24.6074C592.346 23.9856 590.648 23.6845 588.94 23.7213ZM598.04 67.5035C598.087 72.0938 597.331 76.657 595.806 80.9868C594.45 84.8286 592.309 88.3463 589.52 91.3163C586.745 94.2131 583.394 96.4965 579.682 98.0196C575.564 99.6696 571.159 100.486 566.723 100.42C562.259 100.482 557.827 99.664 553.68 98.0132C549.945 96.5119 546.572 94.2334 543.785 91.329C540.996 88.3587 538.854 84.8412 537.496 80.9995C535.972 76.6696 535.216 72.1066 535.262 67.5163V36.5534C535.223 35.3806 535.435 34.2131 535.882 33.1283C536.33 32.0435 537.003 31.0664 537.857 30.2618C539.637 28.643 541.956 27.746 544.362 27.746C546.768 27.746 549.088 28.643 550.868 30.2618C551.723 31.0669 552.397 32.045 552.844 33.131C553.292 34.217 553.503 35.3859 553.463 36.5598V68.11C553.262 72.1987 554.369 76.2451 556.623 79.6621C557.794 81.2037 559.328 82.4318 561.088 83.2371C562.849 84.0424 564.781 84.3999 566.713 84.2778C568.638 84.4064 570.565 84.0498 572.317 83.2406C574.069 82.4314 575.589 81.1954 576.739 79.6461C578.938 76.215 580.013 72.1836 579.813 68.1132V36.5342C579.774 35.3617 579.985 34.1942 580.432 33.1094C580.879 32.0247 581.552 31.0474 582.405 30.2427C584.186 28.6219 586.508 27.7236 588.916 27.7236C591.323 27.7236 593.645 28.6219 595.426 30.2427C596.279 31.0474 596.952 32.0247 597.399 33.1094C597.846 34.1942 598.057 35.3617 598.018 36.5342L598.04 67.5035ZM720.219 36.8247C720.322 34.9837 720.002 33.1436 719.282 31.4459C718.563 29.7482 717.464 28.238 716.069 27.0315C713.198 24.7577 709.61 23.5828 705.951 23.7181C704.666 23.6657 703.384 23.869 702.178 24.3161C700.973 24.7633 699.868 25.4454 698.928 26.3228C697.317 27.883 696.04 29.7556 695.177 31.8259L681.994 63.9444L669.07 31.9536C667.304 27.804 663.448 22.2594 650.431 22.2594C645.693 22.2432 641.077 23.7618 637.274 26.5878C635.248 28.0544 633.415 29.7703 631.818 31.6951C630.503 26.5176 626.392 23.7149 619.906 23.7149C618.3 23.5982 616.688 23.8187 615.173 24.3622C613.658 24.9057 612.274 25.7602 611.109 26.8707C609.944 27.9813 609.024 29.3233 608.409 30.8106C607.794 32.2978 607.497 33.8974 607.536 35.5064V90.1416C607.464 91.8907 607.773 93.6346 608.441 95.2527C609.109 96.8709 610.12 98.3246 611.405 99.5135C613.953 101.729 617.217 102.949 620.593 102.949C623.97 102.949 627.234 101.729 629.782 99.5135C631.092 98.3368 632.126 96.8857 632.811 95.2635C633.495 93.6414 633.814 91.8882 633.743 90.1288V65.6011C633.658 62.5792 634.201 59.5725 635.339 56.7719C636.264 54.5815 637.658 52.6203 639.422 51.0261C641.076 49.575 643.002 48.4671 645.088 47.7671C645.82 47.5213 646.566 47.3178 647.322 47.1574L668.795 93.9178C669.917 96.4409 671.571 98.6917 673.644 100.516C675.917 102.224 678.717 103.082 681.557 102.942C684.385 103.073 687.176 102.259 689.489 100.627C691.614 98.8907 693.315 96.6934 694.466 94.2019L718.878 42.7396C719.737 40.8845 720.194 38.8688 720.219 36.8247ZM715.239 41.0797L690.862 92.4718C689.982 94.4024 688.68 96.1115 687.054 97.4737C685.431 98.5581 683.498 99.0816 681.551 98.9644C679.637 99.0903 677.739 98.5538 676.175 97.445C674.565 95.9968 673.282 94.2219 672.412 92.2388L649.684 42.7619L648.206 42.9726C646.716 43.1869 645.247 43.533 643.817 44.0068C641.226 44.8748 638.833 46.2496 636.779 48.0512C634.576 50.0243 632.833 52.4563 631.672 55.1758C630.315 58.49 629.663 62.05 629.756 65.6298V90.1703C629.821 91.362 629.62 92.5532 629.167 93.6574C628.714 94.7616 628.021 95.7512 627.139 96.5544C625.327 98.1115 623.019 98.969 620.63 98.9719C618.241 98.9749 615.93 98.123 614.115 96.5704C613.247 95.754 612.569 94.7573 612.128 93.6505C611.686 92.5436 611.493 91.3535 611.562 90.1639V35.5096C611.521 34.426 611.715 33.3464 612.129 32.3444C612.543 31.3423 613.169 30.4413 613.963 29.7028C614.757 28.9643 615.701 28.4056 616.73 28.0647C617.759 27.7238 618.85 27.6087 619.928 27.7273C625.718 27.7273 628.301 30.1693 628.301 35.6564V37.6993L632.093 38.5931C633.872 35.1027 636.468 32.0943 639.661 29.8245C642.772 27.4858 646.565 26.2352 650.457 26.2654C660.92 26.2654 663.889 29.9299 665.402 33.4826L682.001 74.5644L698.919 33.3677C699.573 31.8072 700.538 30.3956 701.753 29.218C702.325 28.7034 702.993 28.3075 703.719 28.0533C704.445 27.799 705.215 27.6915 705.983 27.7369C708.708 27.5975 711.392 28.4439 713.544 30.1214C714.481 30.9552 715.213 31.9937 715.683 33.1563C716.153 34.3189 716.349 35.5742 716.255 36.8247C716.216 38.299 715.868 39.7487 715.233 41.0797H715.239ZM791.613 66.8779C793.014 63.8776 793.689 60.5892 793.582 57.2794C793.552 48.2266 790.026 39.5353 783.741 33.0198C780.496 29.7018 776.636 27.0467 772.377 25.2024C767.508 23.1968 762.283 22.1966 757.017 22.2619C751.75 22.3272 746.552 23.4566 741.734 25.5823C737.052 27.7313 732.826 30.7577 729.285 34.4977C725.696 38.3248 722.878 42.8072 720.985 47.7C718.992 52.7974 717.979 58.2254 718.001 63.6986C717.945 69.2596 718.934 74.7816 720.915 79.9781C722.758 84.7809 725.531 89.1729 729.074 92.9027C732.607 96.5755 736.868 99.4707 741.583 101.403C746.606 103.437 751.982 104.456 757.4 104.4C762.91 104.519 768.4 103.693 773.632 101.959C777.658 100.59 781.455 98.6238 784.896 96.1267C786.357 94.9876 787.607 93.6015 788.59 92.0313C789.767 90.2064 790.386 88.0774 790.371 85.9057C790.366 82.8698 789.221 79.9464 787.163 77.7149C786.122 76.5051 784.825 75.5416 783.366 74.8941C781.907 74.2466 780.322 73.9312 778.726 73.9706C776.779 74.0629 774.876 74.5839 773.153 75.4964C772.744 75.7007 772.055 76.0838 771.072 76.652C770.045 77.2337 768.988 77.7601 767.905 78.2288C766.579 78.813 765.21 79.2942 763.81 79.6685C762.29 80.0665 760.724 80.2629 759.153 80.2526C755.838 80.3409 752.581 79.3691 749.857 77.4787C747.774 75.9617 746.202 73.8463 745.35 71.4138H782.525C784.317 71.6258 786.132 71.3094 787.746 70.5035C789.361 69.6977 790.705 68.4374 791.613 66.8779ZM740.706 69.8752C741.569 74.2212 744.01 78.0939 747.559 80.7474C750.96 83.1063 755.017 84.3348 759.156 84.2586C761.082 84.2722 763.001 84.0285 764.863 83.534C766.459 83.108 768.02 82.5617 769.533 81.8997C770.745 81.3679 771.928 80.7744 773.08 80.1217C773.961 79.6142 774.58 79.2694 774.909 79.1003C776.091 78.4584 777.397 78.0764 778.739 77.9799C779.765 77.946 780.785 78.143 781.724 78.5562C782.663 78.9695 783.498 79.5885 784.165 80.3675C785.577 81.869 786.365 83.8513 786.368 85.9121C786.386 87.314 785.99 88.69 785.228 89.8671C784.502 91.0419 783.575 92.0801 782.49 92.9346C779.368 95.1906 775.925 96.963 772.275 98.1919C767.48 99.7785 762.45 100.534 757.4 100.426C752.509 100.479 747.655 99.5638 743.119 97.7323C738.914 96.0129 735.116 93.4339 731.966 90.1607C728.779 86.8086 726.285 82.8614 724.624 78.5449C722.827 73.8115 721.933 68.7835 721.987 63.721C721.968 58.7498 722.888 53.8198 724.701 49.1907C726.406 44.7726 728.945 40.7239 732.18 37.2652C735.371 33.8969 739.179 31.1717 743.397 29.2372C747.698 27.3478 752.335 26.3431 757.032 26.2828C761.73 26.2224 766.391 27.1078 770.74 28.8861C774.526 30.5232 777.959 32.8788 780.849 35.8224C783.625 38.6848 785.814 42.0627 787.294 45.7656C788.785 49.4247 789.555 53.3377 789.56 57.289C789.662 59.9649 789.137 62.6276 788.028 65.0648C787.731 65.6426 786.831 67.4078 782.509 67.4078H740.099L740.706 69.8752Z" fill="white"/>
<path d="M768.327 47.0458C767.043 45.6121 765.468 44.4684 763.708 43.6909C761.673 42.8113 759.473 42.376 757.256 42.4141C753.321 42.2711 749.466 43.5555 746.403 46.0307C743.416 48.7037 741.408 52.2993 740.699 56.2453L740.169 58.6808H771.972V56.6762C771.965 54.9444 771.652 53.2274 771.049 51.604C770.43 49.9298 769.507 48.3844 768.327 47.0458ZM745.289 54.6875C745.997 52.5269 747.27 50.5949 748.976 49.0919C751.32 47.2255 754.264 46.2779 757.256 46.4265C758.899 46.3859 760.532 46.6972 762.045 47.3394C763.29 47.8767 764.405 48.6758 765.313 49.6824C766.167 50.6588 766.834 51.7842 767.28 53.0021C767.479 53.5528 767.639 54.1172 767.758 54.6907L745.289 54.6875Z" fill="white"/>
</g>
<defs>
<clipPath id="clip0_1477_3565">
<rect width="200" height="48" fill="white" transform="translate(0.663086 0.160889)"/>
</clipPath>
</defs>
</svg>
