<svg width="41" height="41" viewBox="0 0 41 41" fill="none" xmlns="http://www.w3.org/2000/svg">
<g filter="url(#filter0_b_166_17542)">
<rect x="0.910156" y="0.396484" width="40" height="40" rx="20" fill="#DA7924"/>
<path fill-rule="evenodd" clip-rule="evenodd" d="M12.5117 14.3973C12.5117 14.079 12.6381 13.7738 12.8632 13.5487C13.0882 13.3237 13.3935 13.1973 13.7117 13.1973H28.1117C28.43 13.1973 28.7352 13.3237 28.9602 13.5487C29.1853 13.7738 29.3117 14.079 29.3117 14.3973C29.3117 14.7155 29.1853 15.0208 28.9602 15.2458C28.7352 15.4708 28.43 15.5973 28.1117 15.5973H13.7117C13.3935 15.5973 13.0882 15.4708 12.8632 15.2458C12.6381 15.0208 12.5117 14.7155 12.5117 14.3973ZM12.5117 20.3973C12.5117 20.079 12.6381 19.7738 12.8632 19.5487C13.0882 19.3237 13.3935 19.1973 13.7117 19.1973H28.1117C28.43 19.1973 28.7352 19.3237 28.9602 19.5487C29.1853 19.7738 29.3117 20.079 29.3117 20.3973C29.3117 20.7155 29.1853 21.0208 28.9602 21.2458C28.7352 21.4708 28.43 21.5973 28.1117 21.5973H13.7117C13.3935 21.5973 13.0882 21.4708 12.8632 21.2458C12.6381 21.0208 12.5117 20.7155 12.5117 20.3973ZM19.7117 26.3973C19.7117 26.079 19.8381 25.7738 20.0632 25.5487C20.2882 25.3237 20.5935 25.1973 20.9117 25.1973H28.1117C28.43 25.1973 28.7352 25.3237 28.9602 25.5487C29.1853 25.7738 29.3117 26.079 29.3117 26.3973C29.3117 26.7155 29.1853 27.0208 28.9602 27.2458C28.7352 27.4708 28.43 27.5973 28.1117 27.5973H20.9117C20.5935 27.5973 20.2882 27.4708 20.0632 27.2458C19.8381 27.0208 19.7117 26.7155 19.7117 26.3973Z" fill="white"/>
</g>
<defs>
<filter id="filter0_b_166_17542" x="-5.08984" y="-5.60352" width="52" height="52" filterUnits="userSpaceOnUse" color-interpolation-filters="sRGB">
<feFlood flood-opacity="0" result="BackgroundImageFix"/>
<feGaussianBlur in="BackgroundImageFix" stdDeviation="3"/>
<feComposite in2="SourceAlpha" operator="in" result="effect1_backgroundBlur_166_17542"/>
<feBlend mode="normal" in="SourceGraphic" in2="effect1_backgroundBlur_166_17542" result="shape"/>
</filter>
</defs>
</svg>
