<svg width="53" height="48" viewBox="0 0 53 48" fill="none" xmlns="http://www.w3.org/2000/svg">
<path d="M51.457 15.7781C50.9291 15.1798 50.2798 14.7007 49.5525 14.3726C48.8251 14.0445 48.0362 13.8748 47.2383 13.875H34.1133V10.125C34.1133 7.6386 33.1256 5.25403 31.3674 3.49587C29.6093 1.73772 27.2247 0.75 24.7383 0.75C24.3899 0.749751 24.0484 0.846542 23.752 1.02952C23.4556 1.2125 23.216 1.47443 23.0602 1.78594L14.2055 19.5H4.11328C3.11872 19.5 2.16489 19.8951 1.46163 20.5984C0.758369 21.3016 0.363281 22.2554 0.363281 23.25V43.875C0.363281 44.8696 0.758369 45.8234 1.46163 46.5266C2.16489 47.2299 3.11872 47.625 4.11328 47.625H44.4258C45.7962 47.6255 47.1196 47.1256 48.1476 46.2194C49.1755 45.3131 49.8373 44.0628 50.0086 42.7031L52.8211 20.2031C52.9208 19.411 52.8507 18.6067 52.6155 17.8438C52.3803 17.0808 51.9854 16.3767 51.457 15.7781ZM4.11328 23.25H13.4883V43.875H4.11328V23.25ZM49.0992 19.7344L46.2867 42.2344C46.2296 42.6876 46.009 43.1044 45.6664 43.4065C45.3237 43.7086 44.8826 43.8752 44.4258 43.875H17.2383V21.818L25.8422 4.60781C27.1174 4.86304 28.2648 5.55224 29.0891 6.55815C29.9134 7.56405 30.3636 8.8245 30.3633 10.125V15.75C30.3633 16.2473 30.5608 16.7242 30.9125 17.0758C31.2641 17.4275 31.741 17.625 32.2383 17.625H47.2383C47.5044 17.6249 47.7674 17.6814 48.0099 17.7909C48.2525 17.9003 48.4689 18.06 48.645 18.2596C48.821 18.4591 48.9525 18.6938 49.0309 18.9481C49.1092 19.2024 49.1325 19.4704 49.0992 19.7344Z" fill="#1B4932"/>
</svg>
