<svg width="21" height="22" viewBox="0 0 21 22" fill="none" xmlns="http://www.w3.org/2000/svg">
<path d="M20.6401 4.96047C20.5697 4.87622 20.4816 4.80846 20.3822 4.76197C20.2827 4.71548 20.1742 4.69139 20.0645 4.69141H4.9407L4.3707 1.55734C4.33931 1.38453 4.24826 1.22822 4.11342 1.11566C3.97859 1.0031 3.80853 0.941432 3.63289 0.941406H1.31445C1.11554 0.941406 0.924775 1.02042 0.784123 1.16108C0.643471 1.30173 0.564453 1.49249 0.564453 1.69141C0.564453 1.89032 0.643471 2.08108 0.784123 2.22174C0.924775 2.36239 1.11554 2.44141 1.31445 2.44141H3.00195L5.3982 15.5936C5.46879 15.9836 5.64117 16.3481 5.89789 16.6502C5.54356 16.9811 5.28781 17.4037 5.15901 17.8712C5.0302 18.3386 5.03337 18.8326 5.16817 19.2983C5.30296 19.764 5.56411 20.1833 5.92266 20.5097C6.28122 20.8361 6.72315 21.0568 7.19948 21.1473C7.6758 21.2379 8.16789 21.1947 8.62119 21.0227C9.07448 20.8506 9.47127 20.5564 9.76756 20.1726C10.0638 19.7888 10.248 19.3305 10.2997 18.8484C10.3514 18.3663 10.2686 17.8793 10.0604 17.4414H14.3185C14.1507 17.7927 14.0639 18.1771 14.0645 18.5664C14.0645 19.0856 14.2184 19.5931 14.5068 20.0248C14.7953 20.4565 15.2053 20.7929 15.6849 20.9916C16.1646 21.1903 16.6924 21.2423 17.2016 21.141C17.7108 21.0397 18.1785 20.7897 18.5456 20.4226C18.9127 20.0554 19.1627 19.5877 19.264 19.0785C19.3653 18.5693 19.3133 18.0415 19.1146 17.5619C18.916 17.0822 18.5795 16.6722 18.1478 16.3838C17.7161 16.0954 17.2086 15.9414 16.6895 15.9414H7.61164C7.436 15.9414 7.26594 15.8797 7.13111 15.7672C6.99627 15.6546 6.90522 15.4983 6.87383 15.3255L6.57664 13.6914H17.4516C17.9786 13.6913 18.4887 13.5063 18.8932 13.1686C19.2977 12.831 19.5709 12.362 19.6651 11.8436L20.8051 5.57547C20.8244 5.46713 20.8196 5.35587 20.7911 5.24959C20.7626 5.1433 20.711 5.0446 20.6401 4.96047ZM8.81445 18.5664C8.81445 18.7889 8.74847 19.0064 8.62486 19.1914C8.50124 19.3764 8.32554 19.5206 8.11997 19.6058C7.91441 19.6909 7.6882 19.7132 7.46998 19.6698C7.25175 19.6264 7.05129 19.5192 6.89396 19.3619C6.73662 19.2046 6.62948 19.0041 6.58607 18.7859C6.54266 18.5677 6.56494 18.3415 6.65009 18.1359C6.73524 17.9303 6.87943 17.7546 7.06444 17.631C7.24944 17.5074 7.46695 17.4414 7.68945 17.4414C7.98782 17.4414 8.27397 17.5599 8.48495 17.7709C8.69593 17.9819 8.81445 18.268 8.81445 18.5664ZM17.8145 18.5664C17.8145 18.7889 17.7485 19.0064 17.6249 19.1914C17.5012 19.3764 17.3255 19.5206 17.12 19.6058C16.9144 19.6909 16.6882 19.7132 16.47 19.6698C16.2517 19.6264 16.0513 19.5192 15.894 19.3619C15.7366 19.2046 15.6295 19.0041 15.5861 18.7859C15.5427 18.5677 15.5649 18.3415 15.6501 18.1359C15.7352 17.9303 15.8794 17.7546 16.0644 17.631C16.2494 17.5074 16.4669 17.4414 16.6895 17.4414C16.9878 17.4414 17.274 17.5599 17.4849 17.7709C17.6959 17.9819 17.8145 18.268 17.8145 18.5664ZM18.1895 11.5755C18.158 11.7488 18.0665 11.9054 17.9311 12.0181C17.7957 12.1307 17.625 12.192 17.4488 12.1914H6.30383L5.21352 6.19141H19.1654L18.1895 11.5755Z" fill="white"/>
</svg>
