<svg width="16" height="17" viewBox="0 0 16 17" fill="none" xmlns="http://www.w3.org/2000/svg">
<path d="M14.4746 2.75H0.724609C0.558849 2.75 0.399878 2.81585 0.282668 2.93306C0.165458 3.05027 0.0996094 3.20924 0.0996094 3.375C0.0996094 3.54076 0.165458 3.69973 0.282668 3.81694C0.399878 3.93415 0.558849 4 0.724609 4H1.34961V15.25C1.34961 15.5815 1.48131 15.8995 1.71573 16.1339C1.95015 16.3683 2.26809 16.5 2.59961 16.5H12.5996C12.9311 16.5 13.2491 16.3683 13.4835 16.1339C13.7179 15.8995 13.8496 15.5815 13.8496 15.25V4H14.4746C14.6404 4 14.7993 3.93415 14.9166 3.81694C15.0338 3.69973 15.0996 3.54076 15.0996 3.375C15.0996 3.20924 15.0338 3.05027 14.9166 2.93306C14.7993 2.81585 14.6404 2.75 14.4746 2.75ZM12.5996 15.25H2.59961V4H12.5996V15.25ZM3.84961 0.875C3.84961 0.70924 3.91546 0.550268 4.03267 0.433058C4.14988 0.315848 4.30885 0.25 4.47461 0.25H10.7246C10.8904 0.25 11.0493 0.315848 11.1666 0.433058C11.2838 0.550268 11.3496 0.70924 11.3496 0.875C11.3496 1.04076 11.2838 1.19973 11.1666 1.31694C11.0493 1.43415 10.8904 1.5 10.7246 1.5H4.47461C4.30885 1.5 4.14988 1.43415 4.03267 1.31694C3.91546 1.19973 3.84961 1.04076 3.84961 0.875Z" fill="black" fill-opacity="0.4"/>
</svg>
