<svg width="20" height="21" viewBox="0 0 20 21" fill="none" xmlns="http://www.w3.org/2000/svg">
<path d="M11.5 14.9375C11.5 15.1364 11.421 15.3272 11.2803 15.4678C11.1397 15.6085 10.9489 15.6875 10.75 15.6875C10.3522 15.6875 9.97065 15.5295 9.68934 15.2482C9.40804 14.9669 9.25 14.5853 9.25 14.1875V10.4375C9.05109 10.4375 8.86033 10.3585 8.71967 10.2178C8.57902 10.0772 8.5 9.88641 8.5 9.6875C8.5 9.48859 8.57902 9.29782 8.71967 9.15717C8.86033 9.01652 9.05109 8.9375 9.25 8.9375C9.64783 8.9375 10.0294 9.09554 10.3107 9.37684C10.592 9.65814 10.75 10.0397 10.75 10.4375V14.1875C10.9489 14.1875 11.1397 14.2665 11.2803 14.4072C11.421 14.5478 11.5 14.7386 11.5 14.9375ZM19.75 10.4375C19.75 12.3659 19.1782 14.2509 18.1068 15.8543C17.0355 17.4577 15.5127 18.7074 13.7312 19.4453C11.9496 20.1833 9.98919 20.3764 8.09787 20.0002C6.20656 19.624 4.46928 18.6954 3.10571 17.3318C1.74215 15.9682 0.813554 14.2309 0.437348 12.3396C0.061142 10.4483 0.254225 8.48792 0.992179 6.70634C1.73013 4.92476 2.97982 3.40201 4.58319 2.33067C6.18657 1.25933 8.07164 0.6875 10 0.6875C12.585 0.69023 15.0634 1.71834 16.8913 3.54622C18.7192 5.37411 19.7473 7.85248 19.75 10.4375ZM18.25 10.4375C18.25 8.8058 17.7661 7.21075 16.8596 5.85405C15.9531 4.49734 14.6646 3.43992 13.1571 2.81549C11.6497 2.19107 9.99085 2.02769 8.39051 2.34602C6.79017 2.66435 5.32016 3.45009 4.16637 4.60387C3.01259 5.75765 2.22685 7.22766 1.90853 8.828C1.5902 10.4283 1.75358 12.0871 2.378 13.5946C3.00242 15.1021 4.05984 16.3906 5.41655 17.2971C6.77326 18.2036 8.36831 18.6875 10 18.6875C12.1873 18.685 14.2843 17.815 15.8309 16.2684C17.3775 14.7218 18.2475 12.6248 18.25 10.4375ZM9.625 7.4375C9.84751 7.4375 10.065 7.37152 10.25 7.2479C10.435 7.12429 10.5792 6.94859 10.6644 6.74302C10.7495 6.53745 10.7718 6.31125 10.7284 6.09302C10.685 5.87479 10.5778 5.67434 10.4205 5.517C10.2632 5.35967 10.0627 5.25252 9.84448 5.20912C9.62625 5.16571 9.40005 5.18799 9.19449 5.27314C8.98892 5.35828 8.81322 5.50248 8.6896 5.68748C8.56598 5.87249 8.5 6.09 8.5 6.3125C8.5 6.61087 8.61853 6.89702 8.82951 7.108C9.04049 7.31897 9.32664 7.4375 9.625 7.4375Z" fill="#1B4932"/>
</svg>
