<svg width="16" height="16" viewBox="0 0 16 16" fill="none" xmlns="http://www.w3.org/2000/svg">
<path d="M15.1678 14.2198C15.2374 14.2895 15.2927 14.3722 15.3304 14.4632C15.3681 14.5543 15.3876 14.6519 15.3876 14.7504C15.3876 14.849 15.3681 14.9465 15.3304 15.0376C15.2927 15.1286 15.2374 15.2114 15.1678 15.281C15.0981 15.3507 15.0154 15.406 14.9243 15.4437C14.8333 15.4814 14.7357 15.5008 14.6371 15.5008C14.5386 15.5008 14.441 15.4814 14.35 15.4437C14.2589 15.406 14.1762 15.3507 14.1065 15.281L7.88714 9.06073L1.66776 15.281C1.52703 15.4218 1.33616 15.5008 1.13714 15.5008C0.938113 15.5008 0.747241 15.4218 0.606511 15.281C0.46578 15.1403 0.386719 14.9494 0.386719 14.7504C0.386719 14.5514 0.46578 14.3605 0.606511 14.2198L6.82682 8.00042L0.606511 1.78104C0.46578 1.64031 0.386719 1.44944 0.386719 1.25042C0.386719 1.05139 0.46578 0.860522 0.606511 0.719792C0.747241 0.579062 0.938113 0.5 1.13714 0.5C1.33616 0.5 1.52703 0.579062 1.66776 0.719792L7.88714 6.9401L14.1065 0.719792C14.2472 0.579062 14.4381 0.5 14.6371 0.5C14.8362 0.5 15.027 0.579062 15.1678 0.719792C15.3085 0.860522 15.3876 1.05139 15.3876 1.25042C15.3876 1.44944 15.3085 1.64031 15.1678 1.78104L8.94745 8.00042L15.1678 14.2198Z" fill="#343330"/>
</svg>
