<?xml version="1.0" encoding="utf-8"?>
<!-- Generator: Adobe Illustrator 24.3.0, SVG Export Plug-In . SVG Version: 6.00 Build 0)  -->
<svg version="1.1" id="Layer_1" xmlns="http://www.w3.org/2000/svg" xmlns:xlink="http://www.w3.org/1999/xlink" x="0px" y="0px"
	 viewBox="0 0 125 131" style="enable-background:new 0 0 125 131;" xml:space="preserve">
<path fill="#FFFFFF" d="M81.7,85.7c-2.9,0-5.1-1.8-5.1-5c0-3.1,2.3-5.1,5.1-5.1c2.9,0,5.1,1.8,5.1,5.1C87,83.7,84.7,85.7,81.7,85.7z
	 M81.7,77.4c-1.6,0-2.9,1.1-2.9,3c0,1.8,1.3,3,2.9,3c1.6,0,2.9-1.1,2.9-3C84.6,78.7,83.4,77.4,81.7,77.4z"/>
<path fill="#FFFFFF" d="M91.4,77.6V80H95v1.8h-3.6v3.7h-2.3v-9.8h6.1v1.8L91.4,77.6L91.4,77.6z"/>
<path fill="#FFFFFF" d="M99.7,77.6V80h3.6v1.8h-3.6v3.7h-2.3v-9.8h6.1v1.8L99.7,77.6L99.7,77.6z"/>
<path fill="#FFFFFF" d="M76,50.6c0-3.4,2.4-5.7,5.6-5.7c3.1,0,5.6,2.3,5.6,5.7c0,3.4-2.4,5.7-5.6,5.7C78.4,56.3,76,54,76,50.6z
	 M84.4,50.6c0-1.8-1-3.1-2.7-3.1c-1.7,0-2.7,1.3-2.7,3.1s1,3.1,2.7,3.1C83.4,53.7,84.4,52.5,84.4,50.6z M94.5,44.7l2,1.1L82.3,68.5
	l-2-1.1C85,59.8,89.7,52.2,94.5,44.7z M89.4,62.5c0-3.4,2.4-5.7,5.6-5.7c3.3,0,5.6,2.3,5.6,5.7c0,3.4-2.3,5.7-5.6,5.7
	C91.9,68.1,89.4,65.9,89.4,62.5z M97.9,62.5c0-1.8-1-3.1-2.7-3.1c-1.7,0-2.7,1.3-2.7,3.1c0,1.8,1,3.1,2.7,3.1
	C96.9,65.6,97.9,64.4,97.9,62.5z"/>
<path fill="#D97924" d="M13.1,42.1c-0.4,1-1.3,1.6-2.1,1.8l-0.7-1.3c0.7-0.3,1.4-0.9,1.6-1.3c0.3-0.4,0.1-1-0.3-1.1
	c-0.4-0.1-0.9,0.1-1.1,0.4c-0.3,0.3-0.7,0.7-0.9,0.9c-0.1,0.1-0.4,0.4-0.9,0.6c-0.4,0.1-0.9,0.1-1.6-0.1c-0.6-0.3-1-0.9-1.1-1.4
	c-0.1-0.6,0-1.3,0.3-2c0.4-0.7,1.1-1.4,1.9-1.7L8.9,38c-0.6,0.1-1.1,0.7-1.4,1.1c-0.3,0.4-0.1,1,0.1,1.1c0.7,0.1,1.1-0.1,1.3-0.3
	c0.3-0.3,0.7-0.6,0.9-0.9c0.7-0.7,1.6-1,2.4-0.6C13.5,39.3,13.7,40.8,13.1,42.1z"/>
<path fill="#D97924" d="M13.5,29.6l4.9,3.4l-1,1.4L12.5,31l-1.1,1.6l-1.1-0.7l3.1-4.4l1.1,0.7L13.5,29.6z"/>
<path fill="#D97924" d="M25.1,25.5l-3-0.9L21.7,25l2,2l-1.3,1.1l-5.1-5.2l1.9-1.8c1-1,2.3-1.4,3.4-0.3c1,1,0.7,2,0.4,2.4l3.4,0.9
	L25.1,25.5z M20,22.3l-0.4,0.4l1.3,1.3l0.4-0.4c0.4-0.4,0.7-1,0.3-1.6C21,21.4,20.4,21.8,20,22.3z"/>
<path fill="#D97924" d="M34,18.7l-1.1-1l-2.1,1.4l0.4,1.6l-1.4,1L28,14.2l1.4-1l6.3,4.5L34,18.7z M29.5,15.2l0.7,2.7l1.6-1L29.5,15.2z"
	/>
<path fill="#D97924" d="M39.7,15.7l-3-6.7l1.6-0.7l3,6.7L39.7,15.7z"/>
<path fill="#D97924" d="M49.6,12.5c-2,0.4-4-0.4-4.6-2.7c-0.6-2.3,0.9-4,2.9-4.5c1.8-0.5,2.8,0.2,3.1,0.5l-0.9,1.1
	c-0.4-0.3-1-0.6-2-0.4c-1.1,0.3-1.8,1.3-1.4,2.7c0.3,1.4,1.4,2,2.6,1.7c1.1-0.3,1.4-0.9,1.4-0.9l-0.4-0.9l-1.4,0.4l-0.3-1.3l3-0.7
	l0.7,3C52.1,10.9,51.4,12,49.6,12.5z"/>
<path fill="#D97924" d="M62.1,10.8v-3l-2.9,0.1l0.1,3h-1.7l-0.4-7.2H59l0.1,2.8L62,6.4l-0.1-2.8h1.7l0.3,7.2H62.1z"/>
<path fill="#D97924" d="M73,5.8l-1,5.8l-1.7-0.3l1-5.8l-1.9-0.3l0.3-1.3l5.5,0.9l-0.3,1.3L73,5.8z"/>
<path fill="#D97924" d="M81.2,14.2c-2-0.7-3.1-2.6-2.4-4.7c0.7-2.3,2.9-3,4.9-2.3c1.4,0.4,2,1.3,2.1,1.6l-1,1.1c0-0.3-0.6-1-1.6-1.3
	c-1.1-0.4-2.3,0-2.9,1.4c-0.4,1.3,0.1,2.4,1.3,2.8c0.9,0.3,1.6,0.1,2.1-0.1l0.1,1.4C83.4,14.5,82.6,14.7,81.2,14.2z"/>
<path fill="#D97924" d="M92.9,19c-0.7,0.1-1.6,0.1-2.4-0.4c-0.9-0.6-1.4-1.3-1.6-2c-0.1-0.7,0-1.4,0.6-2.3l2.1-3.5l1.4,0.9l-2.1,3.5
	c-0.3,0.4-0.4,0.9-0.4,1.1c0,0.2,0.3,0.7,0.7,0.9c0.4,0.3,0.9,0.3,1.1,0.1c0.4-0.1,0.6-0.4,0.9-0.9l2.1-3.5l1.4,0.9l-2.1,3.5
	C94,18.3,93.6,18.9,92.9,19z"/>
<path fill="#D97924" d="M100,25.7l0.7-3.1l-0.4-0.4l-1.9,2l-1.3-1.1l4.9-5.4l2,1.7c1,1,1.6,2.3,0.6,3.4c-0.9,1-2,0.9-2.4,0.6l-0.7,3.4
	L100,25.7z M102.9,20.4l-0.6-0.4l-1.3,1.4l0.6,0.4c0.4,0.4,1,0.7,1.6,0.1C103.7,21.3,103.5,20.8,102.9,20.4z"/>
<path fill="#D97924" d="M106.5,33l-1-1.3l4.1-6.5l1.1,1.4l-3,4.4l5-1.7l1.1,1.4L106.5,33z"/>
<path fill="#D97924" d="M110.3,39l6.6-3.3L119,40l-1.3,0.6l-1.3-2.7l-1.3,0.7l1.3,2.6l-1.3,0.7l-1.3-2.6l-1.6,0.7l1.4,2.8l-1.3,0.6
	L110.3,39z"/>
<path fill="#D97924" d="M8.5,92.9L8.1,92l-2.3,1.4L5,91.9l6.4-3.4l1.1,2.3c0.7,1.3,0.6,2.7-0.9,3.4C10.4,95,9.2,94.3,8.5,92.9z
	 M11.4,91.2l-0.3-0.6l-1.7,0.9l0.3,0.6c0.3,0.6,0.7,1,1.4,0.6C11.7,92.3,11.7,91.8,11.4,91.2z"/>
<path fill="#D97924" d="M14.4,106.2l1.1-3l-0.3-0.4l-2.1,1.7l-1.1-1.3l5.6-4.7l1.7,2c0.9,1.1,1.3,2.4,0,3.4c-1,0.9-2,0.6-2.6,0.3
	l-1.1,3.3L14.4,106.2z M18.1,101.3l-0.4-0.6l-1.4,1.1l0.4,0.6c0.4,0.4,1,0.9,1.6,0.3C18.8,102.4,18.5,101.8,18.1,101.3z"/>
<path fill="#D97924" d="M24.1,115.3c-1.7-1.3-2.3-3.4-0.9-5.2c1.4-1.8,3.6-2,5.3-0.7c1.7,1.3,2.3,3.4,0.9,5.2
	C28.1,116.6,25.8,116.6,24.1,115.3z M27.8,110.5c-1-0.7-2.3-0.6-3,0.6c-0.7,1.1-0.6,2.4,0.3,3.1c1,0.7,2.3,0.6,3-0.6
	C29,112.5,28.8,111.3,27.8,110.5z"/>
<path fill="#D97924" d="M47.6,126.2l-0.1-1.6l-2.6-0.7l-0.9,1.3l-1.7-0.4l4.6-6.2l1.7,0.4l0.7,7.7L47.6,126.2z M47.3,120.6l-1.6,2.3
	l1.7,0.4L47.3,120.6z"/>
<path fill="#D97924" d="M60.6,128.1c-2.1-0.1-3.7-1.6-3.7-3.8c0.1-2.3,1.9-3.7,4-3.5c1.4,0,2.3,0.7,2.4,0.9l-0.6,1.4
	c-0.1-0.1-0.9-0.9-1.9-0.9c-1.3,0-2.1,0.7-2.3,2.1c0,1.4,0.9,2.3,2.1,2.3c0.9,0,1.6-0.3,2-0.7l0.6,1.3
	C62.9,127.5,62,128.1,60.6,128.1z"/>
<path fill="#D97924" d="M74.4,126.9c-2.1,0.4-4-0.7-4.4-3c-0.4-2.3,1-4,3.1-4.4c1.4-0.3,2.4,0.1,2.6,0.4l-0.3,1.4c-0.1-0.1-1-0.6-2-0.4
	c-1.1,0.3-2,1.1-1.7,2.6c0.3,1.4,1.4,2,2.6,1.8c0.9-0.1,1.4-0.6,1.9-1.1l0.9,1.1C76.4,125.9,75.9,126.7,74.4,126.9z"/>
<path fill="#D97924" d="M87.7,122.8c-2,0.9-4.1,0.3-5-1.8c-1-2.1,0-4.1,2-5c2-0.9,4.1-0.3,5,1.8C90.7,120,89.7,122,87.7,122.8z
	 M85.3,117.3c-1.1,0.4-1.6,1.7-1,3c0.6,1.3,1.7,1.7,2.9,1.3c1.1-0.4,1.6-1.7,1-3C87.7,117.3,86.4,116.9,85.3,117.3z"/>
<path fill="#D97924" d="M102.3,113c0,0.7-0.6,1.4-1.3,2.1c-0.9,0.7-1.7,0.9-2.4,0.7c-0.7-0.1-1.3-0.6-2-1.4L94,111l1.4-1l2.6,3.4
	c0.3,0.4,0.6,0.7,1,0.9c0.3,0.1,0.7,0,1.1-0.3c0.4-0.3,0.6-0.6,0.6-1c0-0.4-0.1-0.7-0.6-1.1l-2.6-3.4l1.4-1l2.6,3.4
	C102.2,111.6,102.5,112.2,102.3,113z"/>
<path fill="#D97924" d="M112.7,103.4l-5.9-0.6c0,0,0.7,0.6,1.3,1l2.6,2.1l-1.1,1.1l-5.7-4.5l1.1-1.4l5.7,0.7c0,0-0.7-0.4-1.3-1
	l-2.6-2.1l1-1.3l5.7,4.5L112.7,103.4z"/>
<path fill="#D97924" d="M114.3,89.5l5.3,2.6l-0.7,1.6l-5.3-2.6l-0.9,1.7l-1.1-0.7l2.4-4.8l1.1,0.6L114.3,89.5z"/>
<path fill="#D97924" d="M120.6,66.4c0.8,0,1.4-0.6,1.4-1.4c0-0.8-0.6-1.4-1.4-1.4c-0.8,0-1.4,0.6-1.4,1.4
	C119.2,65.7,119.8,66.4,120.6,66.4z"/>
<path fill="#D97924" d="M4.4,66.4c0.8,0,1.4-0.6,1.4-1.4c0-0.8-0.6-1.4-1.4-1.4S3,64.2,3,65C3,65.7,3.6,66.4,4.4,66.4z"/>
<path fill="#FFFFFF" d="M28.7,86h4.4V45.3H20.6v3.4h8.1V86z M56.6,86.7c10.7,0,15.2-10.4,15.2-21c0-10.6-4.5-21-15.2-21
	c-10.6,0-15.2,10.4-15.2,21C41.4,76.2,45.9,86.7,56.6,86.7z M56.6,82.7c-7,0-10.6-7.1-10.6-17.1s3.6-17,10.6-17c7,0,10.6,7,10.6,17
	S63.5,82.7,56.6,82.7z"/>
</svg>
