<?xml version="1.0" encoding="utf-8"?>
<!-- Generator: Adobe Illustrator 23.1.1, SVG Export Plug-In . SVG Version: 6.00 Build 0)  -->
<svg version="1.1" id="Layer_1" xmlns="http://www.w3.org/2000/svg" xmlns:xlink="http://www.w3.org/1999/xlink" x="0px" y="0px"
	 viewBox="0 0 125 130" style="enable-background:new 0 0 125 130;" xml:space="preserve">
<g>
	<path fill="#FFFFFF" d="M31.8,85.4V47.8h-8.3v-2.7H35v40.3H31.8z"/>
	<path fill="#FFFFFF" d="M57,86.1c-7.3,0-11.2-4.5-12.3-6.8l2.3-1.7c1.4,3,5,5.7,10.3,5.7c5.3,0,10.6-3.4,10.6-10.4
		c0-7-5.3-10.4-10.6-10.4c-2.7,0-5.6,0.7-7,2.1l-2-1.1l3.9-18.4h18.3V48h-16l-2.9,12.9c1.7-0.9,4-1.1,6-1.1
		c6.7,0,13.6,4.7,13.6,13.2S64.4,86.1,57,86.1z"/>
	<path fill="#FFFFFF" d="M81.7,84.9c-2.9,0-5.1-1.8-5.1-5c0-3.1,2.3-5.1,5.1-5.1c2.9,0,5.1,1.8,5.1,5.1C87,82.9,84.7,84.9,81.7,84.9z
		 M81.7,76.6c-1.6,0-2.9,1.1-2.9,3c0,1.8,1.3,3,2.9,3c1.6,0,2.9-1.1,2.9-3C84.6,77.9,83.4,76.6,81.7,76.6z"/>
	<path fill="#FFFFFF" d="M91.4,76.8v2.4H95V81h-3.6v3.7h-2.3v-9.8h6.1v1.8H91.4z"/>
	<path fill="#FFFFFF" d="M99.7,76.8v2.4h3.6V81h-3.6v3.7h-2.3v-9.8h6.1v1.8H99.7z"/>
	<path fill="#FFFFFF" d="M76,49.8c0-3.4,2.4-5.7,5.6-5.7c3.1,0,5.6,2.3,5.6,5.7c0,3.4-2.4,5.7-5.6,5.7C78.4,55.5,76,53.2,76,49.8z
		 M84.4,49.8c0-1.8-1-3.1-2.7-3.1S79,48,79,49.8c0,1.8,1,3.1,2.7,3.1S84.4,51.7,84.4,49.8z M94.5,43.9l2,1.1L82.3,67.7l-2-1.1
		C85,59,89.7,51.4,94.5,43.9z M89.4,61.7c0-3.4,2.4-5.7,5.6-5.7c3.3,0,5.6,2.3,5.6,5.7c0,3.4-2.3,5.7-5.6,5.7
		C91.9,67.3,89.4,65.1,89.4,61.7z M97.9,61.7c0-1.8-1-3.1-2.7-3.1s-2.7,1.3-2.7,3.1c0,1.8,1,3.1,2.7,3.1S97.9,63.6,97.9,61.7z"/>
	<path fill="#D97924" d="M13.1,41.3c-0.4,1-1.3,1.6-2.1,1.8l-0.7-1.3c0.7-0.3,1.4-0.9,1.6-1.3c0.3-0.4,0.1-1-0.3-1.1
		c-0.4-0.1-0.9,0.1-1.1,0.4c-0.3,0.3-0.7,0.7-0.9,0.9c-0.1,0.1-0.4,0.4-0.9,0.6c-0.4,0.1-0.9,0.1-1.6-0.1c-0.6-0.3-1-0.9-1.1-1.4
		c-0.1-0.6,0-1.3,0.3-2c0.4-0.7,1.1-1.4,1.9-1.7l0.7,1.1c-0.6,0.1-1.1,0.7-1.4,1.1c-0.3,0.4-0.1,1,0.1,1.1c0.7,0.1,1.1-0.1,1.3-0.3
		c0.3-0.3,0.7-0.6,0.9-0.9c0.7-0.7,1.6-1,2.4-0.6C13.5,38.5,13.7,40,13.1,41.3z"/>
	<path fill="#D97924" d="M13.5,28.8l4.9,3.4l-1,1.4l-4.9-3.4l-1.1,1.6l-1.1-0.7l3.1-4.4l1.1,0.7L13.5,28.8z"/>
	<path fill="#D97924" d="M25.1,24.7l-3-0.9l-0.4,0.4l2,2l-1.3,1.1l-5.1-5.2l1.9-1.8c1-1,2.3-1.4,3.4-0.3c1,1,0.7,2,0.4,2.4l3.4,0.9
		L25.1,24.7z M20,21.5l-0.4,0.4l1.3,1.3l0.4-0.4c0.4-0.4,0.7-1,0.3-1.6C21,20.6,20.4,21,20,21.5z"/>
	<path fill="#D97924" d="M34,17.9l-1.1-1l-2.1,1.4l0.4,1.6l-1.4,1L28,13.4l1.4-1l6.3,4.5L34,17.9z M29.5,14.4l0.7,2.7l1.6-1L29.5,14.4z
		"/>
	<path fill="#D97924" d="M39.7,14.9l-3-6.7l1.6-0.7l3,6.7L39.7,14.9z"/>
	<path fill="#D97924" d="M49.6,11.7c-2,0.4-4-0.4-4.6-2.7c-0.6-2.3,0.9-4,2.9-4.5C49.7,4,50.7,4.7,51,5l-0.9,1.1c-0.4-0.3-1-0.6-2-0.4
		C47,6,46.3,7,46.7,8.4c0.3,1.4,1.4,2,2.6,1.7c1.1-0.3,1.4-0.9,1.4-0.9l-0.4-0.9l-1.4,0.4l-0.3-1.3l3-0.7l0.7,3
		C52.1,10.1,51.4,11.2,49.6,11.7z"/>
	<path fill="#D97924" d="M62.1,10V7l-2.9,0.1l0.1,3h-1.7l-0.4-7.2H59l0.1,2.8L62,5.6l-0.1-2.8h1.7l0.3,7.2H62.1z"/>
	<path fill="#D97924" d="M73,5l-1,5.8l-1.7-0.3l1-5.8l-1.9-0.3l0.3-1.3L75.2,4l-0.3,1.3L73,5z"/>
	<path fill="#D97924" d="M81.2,13.4c-2-0.7-3.1-2.6-2.4-4.7c0.7-2.3,2.9-3,4.9-2.3c1.4,0.4,2,1.3,2.1,1.6l-1,1.1c0-0.3-0.6-1-1.6-1.3
		c-1.1-0.4-2.3,0-2.9,1.4c-0.4,1.3,0.1,2.4,1.3,2.8c0.9,0.3,1.6,0.1,2.1-0.1l0.1,1.4C83.4,13.7,82.6,13.9,81.2,13.4z"/>
	<path fill="#D97924" d="M92.9,18.2c-0.7,0.1-1.6,0.1-2.4-0.4c-0.9-0.6-1.4-1.3-1.6-2c-0.1-0.7,0-1.4,0.6-2.3l2.1-3.5l1.4,0.9l-2.1,3.5
		c-0.3,0.4-0.4,0.9-0.4,1.1s0.3,0.7,0.7,0.9c0.4,0.3,0.9,0.3,1.1,0.1c0.4-0.1,0.6-0.4,0.9-0.9l2.1-3.5l1.4,0.9l-2.1,3.5
		C94,17.5,93.6,18.1,92.9,18.2z"/>
	<path fill="#D97924" d="M100,24.9l0.7-3.1l-0.4-0.4l-1.9,2l-1.3-1.1l4.9-5.4l2,1.7c1,1,1.6,2.3,0.6,3.4c-0.9,1-2,0.9-2.4,0.6l-0.7,3.4
		L100,24.9z M102.9,19.6l-0.6-0.4l-1.3,1.4l0.6,0.4c0.4,0.4,1,0.7,1.6,0.1C103.7,20.5,103.5,20,102.9,19.6z"/>
	<path fill="#D97924" d="M106.5,32.2l-1-1.3l4.1-6.5l1.1,1.4l-3,4.4l5-1.7l1.1,1.4L106.5,32.2z"/>
	<path fill="#D97924" d="M110.3,38.2l6.6-3.3l2.1,4.3l-1.3,0.6l-1.3-2.7l-1.3,0.7l1.3,2.6l-1.3,0.7l-1.3-2.6l-1.6,0.7l1.4,2.8l-1.3,0.6
		L110.3,38.2z"/>
	<path fill="#D97924" d="M8.5,92.1l-0.4-0.9l-2.3,1.4L5,91.1l6.4-3.4l1.1,2.3c0.7,1.3,0.6,2.7-0.9,3.4C10.4,94.2,9.2,93.5,8.5,92.1z
		 M11.4,90.4l-0.3-0.6l-1.7,0.9l0.3,0.6c0.3,0.6,0.7,1,1.4,0.6C11.7,91.5,11.7,91,11.4,90.4z"/>
	<path fill="#D97924" d="M14.4,105.4l1.1-3l-0.3-0.4l-2.1,1.7l-1.1-1.3l5.6-4.7l1.7,2c0.9,1.1,1.3,2.4,0,3.4c-1,0.9-2,0.6-2.6,0.3
		l-1.1,3.3L14.4,105.4z M18.1,100.5l-0.4-0.6l-1.4,1.1l0.4,0.6c0.4,0.4,1,0.9,1.6,0.3C18.8,101.6,18.5,101,18.1,100.5z"/>
	<path fill="#D97924" d="M24.1,114.5c-1.7-1.3-2.3-3.4-0.9-5.2c1.4-1.8,3.6-2,5.3-0.7c1.7,1.3,2.3,3.4,0.9,5.2
		C28.1,115.8,25.8,115.8,24.1,114.5z M27.8,109.7c-1-0.7-2.3-0.6-3,0.6c-0.7,1.1-0.6,2.4,0.3,3.1c1,0.7,2.3,0.6,3-0.6
		C29,111.7,28.8,110.5,27.8,109.7z"/>
	<path fill="#D97924" d="M47.6,125.4l-0.1-1.6l-2.6-0.7l-0.9,1.3l-1.7-0.4l4.6-6.2l1.7,0.4l0.7,7.7L47.6,125.4z M47.3,119.8l-1.6,2.3
		l1.7,0.4L47.3,119.8z"/>
	<path fill="#D97924" d="M60.6,127.3c-2.1-0.1-3.7-1.6-3.7-3.8c0.1-2.3,1.9-3.7,4-3.5c1.4,0,2.3,0.7,2.4,0.9l-0.6,1.4
		c-0.1-0.1-0.9-0.9-1.9-0.9c-1.3,0-2.1,0.7-2.3,2.1c0,1.4,0.9,2.3,2.1,2.3c0.9,0,1.6-0.3,2-0.7l0.6,1.3
		C62.9,126.7,62,127.3,60.6,127.3z"/>
	<path fill="#D97924" d="M74.4,126.1c-2.1,0.4-4-0.7-4.4-3c-0.4-2.3,1-4,3.1-4.4c1.4-0.3,2.4,0.1,2.6,0.4l-0.3,1.4
		c-0.1-0.1-1-0.6-2-0.4c-1.1,0.3-2,1.1-1.7,2.6c0.3,1.4,1.4,2,2.6,1.8c0.9-0.1,1.4-0.6,1.9-1.1l0.9,1.1
		C76.4,125.1,75.9,125.9,74.4,126.1z"/>
	<path fill="#D97924" d="M87.7,122c-2,0.9-4.1,0.3-5-1.8c-1-2.1,0-4.1,2-5c2-0.9,4.1-0.3,5,1.8C90.7,119.2,89.7,121.2,87.7,122z
		 M85.3,116.5c-1.1,0.4-1.6,1.7-1,3c0.6,1.3,1.7,1.7,2.9,1.3c1.1-0.4,1.6-1.7,1-3C87.7,116.5,86.4,116.1,85.3,116.5z"/>
	<path fill="#D97924" d="M102.3,112.2c0,0.7-0.6,1.4-1.3,2.1c-0.9,0.7-1.7,0.9-2.4,0.7c-0.7-0.1-1.3-0.6-2-1.4l-2.6-3.4l1.4-1l2.6,3.4
		c0.3,0.4,0.6,0.7,1,0.9c0.3,0.1,0.7,0,1.1-0.3c0.4-0.3,0.6-0.6,0.6-1c0-0.4-0.1-0.7-0.6-1.1l-2.6-3.4l1.4-1l2.6,3.4
		C102.2,110.8,102.5,111.4,102.3,112.2z"/>
	<path fill="#D97924" d="M112.7,102.6l-5.9-0.6c0,0,0.7,0.6,1.3,1l2.6,2.1l-1.1,1.1l-5.7-4.5l1.1-1.4l5.7,0.7c0,0-0.7-0.4-1.3-1
		l-2.6-2.1l1-1.3l5.7,4.5L112.7,102.6z"/>
	<path fill="#D97924" d="M114.3,88.7l5.3,2.6l-0.7,1.6l-5.3-2.6l-0.9,1.7l-1.1-0.7l2.4-4.8l1.1,0.6L114.3,88.7z"/>
	<path fill="#D97924" d="M120.6,65.6c0.8,0,1.4-0.6,1.4-1.4c0-0.8-0.6-1.4-1.4-1.4c-0.8,0-1.4,0.6-1.4,1.4
		C119.2,64.9,119.8,65.6,120.6,65.6z"/>
	<path fill="#D97924" d="M4.4,65.6c0.8,0,1.4-0.6,1.4-1.4c0-0.8-0.6-1.4-1.4-1.4c-0.8,0-1.4,0.6-1.4,1.4C3,64.9,3.6,65.6,4.4,65.6z"/>
</g>
</svg>
