<svg width="125" height="130" viewBox="0 0 125 130" fill="none" xmlns="http://www.w3.org/2000/svg">
<path d="M13.1 41.3C12.7 42.3 11.8 42.9 11 43.1L10.3 41.8C11 41.5 11.7 40.9 11.9 40.5C12.2 40.1 12 39.5 11.6 39.4C11.2 39.3 10.7 39.5 10.5 39.8C10.2 40.1 9.79999 40.5 9.59999 40.7C9.49999 40.8 9.19999 41.1 8.69999 41.3C8.29999 41.4 7.79999 41.4 7.09999 41.2C6.49999 40.9 6.09999 40.3 5.99999 39.8C5.89999 39.2 5.99999 38.5 6.29999 37.8C6.69999 37.1 7.39999 36.4 8.19999 36.1L8.89999 37.2C8.29999 37.3 7.79999 37.9 7.49999 38.3C7.19999 38.7 7.39999 39.3 7.59999 39.4C8.29999 39.5 8.69999 39.3 8.89999 39.1C9.19999 38.8 9.59999 38.5 9.79999 38.2C10.5 37.5 11.4 37.2 12.2 37.6C13.5 38.5 13.7 40 13.1 41.3Z" fill="#D97924"/>
<path d="M13.5 28.8L18.4 32.2L17.4 33.6L12.5 30.2L11.4 31.8L10.3 31.1L13.4 26.7L14.5 27.4L13.5 28.8Z" fill="#D97924"/>
<path d="M25.1 24.7L22.1 23.8L21.7 24.2L23.7 26.2L22.4 27.3L17.3 22.1L19.2 20.3C20.2 19.3 21.5 18.9 22.6 20C23.6 21 23.3 22 23 22.4L26.4 23.3L25.1 24.7ZM20 21.5L19.6 21.9L20.9 23.2L21.3 22.8C21.7 22.4 22 21.8 21.6 21.2C21 20.6 20.4 21 20 21.5Z" fill="#D97924"/>
<path d="M34 17.9L32.9 16.9L30.8 18.3L31.2 19.9L29.8 20.9L28 13.4L29.4 12.4L35.7 16.9L34 17.9ZM29.5 14.4L30.2 17.1L31.8 16.1L29.5 14.4Z" fill="#D97924"/>
<path d="M39.7 14.9L36.7 8.2L38.3 7.5L41.3 14.2L39.7 14.9Z" fill="#D97924"/>
<path d="M49.6 11.7C47.6 12.1 45.6 11.3 45 9C44.4 6.7 45.9 5 47.9 4.5C49.7 4 50.7 4.7 51 5L50.1 6.1C49.7 5.8 49.1 5.5 48.1 5.7C47 6 46.3 7 46.7 8.4C47 9.8 48.1 10.4 49.3 10.1C50.4 9.8 50.7 9.2 50.7 9.2L50.3 8.3L48.9 8.7L48.6 7.4L51.6 6.7L52.3 9.7C52.1 10.1 51.4 11.2 49.6 11.7Z" fill="#D97924"/>
<path d="M62.1 10V7L59.2 7.1L59.3 10.1H57.6L57.2 2.9H59L59.1 5.7L62 5.6L61.9 2.8H63.6L63.9 10H62.1Z" fill="#D97924"/>
<path d="M73 5.00001L72 10.8L70.3 10.5L71.3 4.70001L69.4 4.40001L69.7 3.10001L75.2 4.00001L74.9 5.30001L73 5.00001Z" fill="#D97924"/>
<path d="M81.2 13.4C79.2 12.7 78.1 10.8 78.8 8.7C79.5 6.4 81.7 5.7 83.7 6.4C85.1 6.8 85.7 7.7 85.8 8L84.8 9.1C84.8 8.8 84.2 8.1 83.2 7.8C82.1 7.4 80.9 7.8 80.3 9.2C79.9 10.5 80.4 11.6 81.6 12C82.5 12.3 83.2 12.1 83.7 11.9L83.8 13.3C83.4 13.7 82.6 13.9 81.2 13.4Z" fill="#D97924"/>
<path d="M92.9 18.2C92.2 18.3 91.3 18.3 90.5 17.8C89.6 17.2 89.1 16.5 88.9 15.8C88.8 15.1 88.9 14.4 89.5 13.5L91.6 10L93 10.9L90.9 14.4C90.6 14.8 90.5 15.3 90.5 15.5C90.5 15.7 90.8 16.2 91.2 16.4C91.6 16.7 92.1 16.7 92.3 16.5C92.7 16.4 92.9 16.1 93.2 15.6L95.3 12.1L96.7 13L94.6 16.5C94 17.5 93.6 18.1 92.9 18.2Z" fill="#D97924"/>
<path d="M100 24.9L100.7 21.8L100.3 21.4L98.4 23.4L97.1 22.3L102 16.9L104 18.6C105 19.6 105.6 20.9 104.6 22C103.7 23 102.6 22.9 102.2 22.6L101.5 26L100 24.9ZM102.9 19.6L102.3 19.2L101 20.6L101.6 21C102 21.4 102.6 21.7 103.2 21.1C103.7 20.5 103.5 20 102.9 19.6Z" fill="#D97924"/>
<path d="M106.5 32.2L105.5 30.9L109.6 24.4L110.7 25.8L107.7 30.2L112.7 28.5L113.8 29.9L106.5 32.2Z" fill="#D97924"/>
<path d="M110.3 38.2L116.9 34.9L119 39.2L117.7 39.8L116.4 37.1L115.1 37.8L116.4 40.4L115.1 41.1L113.8 38.5L112.2 39.2L113.6 42L112.3 42.6L110.3 38.2Z" fill="#D97924"/>
<path d="M8.5 92.1L8.1 91.2L5.8 92.6L5 91.1L11.4 87.7L12.5 90C13.2 91.3 13.1 92.7 11.6 93.4C10.4 94.2 9.2 93.5 8.5 92.1ZM11.4 90.4L11.1 89.8L9.4 90.7L9.7 91.3C10 91.9 10.4 92.3 11.1 91.9C11.7 91.5 11.7 91 11.4 90.4Z" fill="#D97924"/>
<path d="M14.4 105.4L15.5 102.4L15.2 102L13.1 103.7L12 102.4L17.6 97.7L19.3 99.7C20.2 100.8 20.6 102.1 19.3 103.1C18.3 104 17.3 103.7 16.7 103.4L15.6 106.7L14.4 105.4ZM18.1 100.5L17.7 99.9L16.3 101L16.7 101.6C17.1 102 17.7 102.5 18.3 101.9C18.8 101.6 18.5 101 18.1 100.5Z" fill="#D97924"/>
<path d="M24.1 114.5C22.4 113.2 21.8 111.1 23.2 109.3C24.6 107.5 26.8 107.3 28.5 108.6C30.2 109.9 30.8 112 29.4 113.8C28.1 115.8 25.8 115.8 24.1 114.5ZM27.8 109.7C26.8 109 25.5 109.1 24.8 110.3C24.1 111.4 24.2 112.7 25.1 113.4C26.1 114.1 27.4 114 28.1 112.8C29 111.7 28.8 110.5 27.8 109.7Z" fill="#D97924"/>
<path d="M47.6 125.4L47.5 123.8L44.9 123.1L44 124.4L42.3 124L46.9 117.8L48.6 118.2L49.3 125.9L47.6 125.4ZM47.3 119.8L45.7 122.1L47.4 122.5L47.3 119.8Z" fill="#D97924"/>
<path d="M60.6 127.3C58.5 127.2 56.9 125.7 56.9 123.5C57 121.2 58.8 119.8 60.9 120C62.3 120 63.2 120.7 63.3 120.9L62.7 122.3C62.6 122.2 61.8 121.4 60.8 121.4C59.5 121.4 58.7 122.1 58.5 123.5C58.5 124.9 59.4 125.8 60.6 125.8C61.5 125.8 62.2 125.5 62.6 125.1L63.2 126.4C62.9 126.7 62 127.3 60.6 127.3Z" fill="#D97924"/>
<path d="M74.4 126.1C72.3 126.5 70.4 125.4 70 123.1C69.6 120.8 71 119.1 73.1 118.7C74.5 118.4 75.5 118.8 75.7 119.1L75.4 120.5C75.3 120.4 74.4 119.9 73.4 120.1C72.3 120.4 71.4 121.2 71.7 122.7C72 124.1 73.1 124.7 74.3 124.5C75.2 124.4 75.7 123.9 76.2 123.4L77.1 124.5C76.4 125.1 75.9 125.9 74.4 126.1Z" fill="#D97924"/>
<path d="M87.7 122C85.7 122.9 83.6 122.3 82.7 120.2C81.7 118.1 82.7 116.1 84.7 115.2C86.7 114.3 88.8 114.9 89.7 117C90.7 119.2 89.7 121.2 87.7 122ZM85.3 116.5C84.2 116.9 83.7 118.2 84.3 119.5C84.9 120.8 86 121.2 87.2 120.8C88.3 120.4 88.8 119.1 88.2 117.8C87.7 116.5 86.4 116.1 85.3 116.5Z" fill="#D97924"/>
<path d="M102.3 112.2C102.3 112.9 101.7 113.6 101 114.3C100.1 115 99.3 115.2 98.6 115C97.9 114.9 97.3 114.4 96.6 113.6L94 110.2L95.4 109.2L98 112.6C98.3 113 98.6 113.3 99 113.5C99.3 113.6 99.7 113.5 100.1 113.2C100.5 112.9 100.7 112.6 100.7 112.2C100.7 111.8 100.6 111.5 100.1 111.1L97.5 107.7L98.9 106.7L101.5 110.1C102.2 110.8 102.5 111.4 102.3 112.2Z" fill="#D97924"/>
<path d="M112.7 102.6L106.8 102C106.8 102 107.5 102.6 108.1 103L110.7 105.1L109.6 106.2L103.9 101.7L105 100.3L110.7 101C110.7 101 110 100.6 109.4 100L106.8 97.9L107.8 96.6L113.5 101.1L112.7 102.6Z" fill="#D97924"/>
<path d="M114.3 88.7L119.6 91.3L118.9 92.9L113.6 90.3L112.7 92L111.6 91.3L114 86.5L115.1 87.1L114.3 88.7Z" fill="#D97924"/>
<path d="M120.6 65.6C121.4 65.6 122 65 122 64.2C122 63.4 121.4 62.8 120.6 62.8C119.8 62.8 119.2 63.4 119.2 64.2C119.2 64.9 119.8 65.6 120.6 65.6Z" fill="#D97924"/>
<path d="M4.4 65.6C5.2 65.6 5.8 65 5.8 64.2C5.8 63.4 5.2 62.8 4.4 62.8C3.6 62.8 3 63.4 3 64.2C3 64.9 3.6 65.6 4.4 65.6Z" fill="#D97924"/>
<path d="M72.0824 82.7558C69.1824 82.7558 66.9824 80.9558 66.9824 77.7558C66.9824 74.6558 69.2824 72.6558 72.0824 72.6558C74.9824 72.6558 77.1824 74.4558 77.1824 77.7558C77.3824 80.7558 75.0824 82.7558 72.0824 82.7558ZM72.0824 74.4558C70.4824 74.4558 69.1824 75.5558 69.1824 77.4558C69.1824 79.2558 70.4824 80.4558 72.0824 80.4558C73.6824 80.4558 74.9824 79.3558 74.9824 77.4558C74.9824 75.7558 73.7824 74.4558 72.0824 74.4558Z" fill="white"/>
<path d="M81.7824 74.6558V77.0558H85.3824V78.8558H81.7824V82.5558H79.4824V72.7558H85.5824V74.5558H81.7824V74.6558Z" fill="white"/>
<path d="M90.0824 74.6558V77.0558H93.6824V78.8558H90.0824V82.5558H87.7824V72.7558H93.8824V74.5558H90.0824V74.6558Z" fill="white"/>
<path d="M66.3824 47.6558C66.3824 44.2558 68.7824 41.9558 71.9824 41.9558C75.0824 41.9558 77.5824 44.2558 77.5824 47.6558C77.5824 51.0558 75.1824 53.3558 71.9824 53.3558C68.7824 53.3558 66.3824 51.0558 66.3824 47.6558ZM74.7824 47.6558C74.7824 45.8558 73.7824 44.5558 72.0824 44.5558C70.3824 44.5558 69.3824 45.8558 69.3824 47.6558C69.3824 49.4558 70.3824 50.7558 72.0824 50.7558C73.7824 50.7558 74.7824 49.5558 74.7824 47.6558ZM84.8824 41.7558L86.8824 42.8558L72.6824 65.5558L70.6824 64.4558C75.3824 56.8558 80.0824 49.2558 84.8824 41.7558ZM79.7824 59.5558C79.7824 56.1558 82.1824 53.8558 85.3824 53.8558C88.6824 53.8558 90.9824 56.1558 90.9824 59.5558C90.9824 62.9558 88.6824 65.2558 85.3824 65.2558C82.2824 65.1558 79.7824 62.9558 79.7824 59.5558ZM88.2824 59.5558C88.2824 57.7558 87.2824 56.4558 85.5824 56.4558C83.8824 56.4558 82.8824 57.7558 82.8824 59.5558C82.8824 61.3558 83.8824 62.6558 85.5824 62.6558C87.2824 62.6558 88.2824 61.4558 88.2824 59.5558Z" fill="white"/>
<path d="M60.6344 71.505C60.6344 66.1919 57.3875 62.4728 52.7829 60.997V60.8789C55.3214 59.8163 59.2766 57.7501 59.2766 51.4335C59.2766 45.0579 53.8455 41.2207 47.647 41.2207C41.4484 41.2207 35.9583 45.0579 35.9583 51.4335C35.9583 57.7501 39.9726 59.8163 42.452 60.8789V60.997C37.9064 62.4728 34.6596 66.1919 34.6596 71.505C34.6596 78.8842 39.9726 83.1936 47.647 83.1936C55.3214 83.1936 60.6344 78.8842 60.6344 71.505ZM56.0298 51.7877C56.0298 56.8056 52.3697 59.5211 47.647 59.5211C42.9243 59.5211 39.2052 56.8056 39.2052 51.7877C39.2052 46.7698 42.9243 44.0543 47.647 44.0543C52.3697 44.0543 56.0298 46.7698 56.0298 51.7877ZM57.3875 71.3279C57.3875 76.9361 52.96 80.419 47.647 80.419C42.334 80.419 37.9064 76.9361 37.9064 71.3279C37.9064 65.7197 42.0388 62.3547 47.647 62.3547C53.2552 62.3547 57.3875 65.7197 57.3875 71.3279Z" fill="white"/>
</svg>
