<?xml version="1.0" encoding="utf-8"?>
<!-- Generator: Adobe Illustrator 24.3.0, SVG Export Plug-In . SVG Version: 6.00 Build 0)  -->
<svg version="1.1" id="Layer_1" focusable="false" xmlns="http://www.w3.org/2000/svg" xmlns:xlink="http://www.w3.org/1999/xlink"
	 x="0px" y="0px" viewBox="0 0 35 23" style="enable-background:new 0 0 35 23;" xml:space="preserve">
<path fill="currentColor" d="M23.2,0.5L21.7,2c-0.4,0.4-0.4,1,0,1.3L28,9.4H0.9C0.4,9.5,0,9.9,0,10.4v2.2c0,0.5,0.4,0.9,0.9,0.9h27l-6.3,6.1
	c-0.4,0.4-0.4,1,0,1.3l1.5,1.5c0.4,0.4,1,0.4,1.3,0l10.3-10.3c0.4-0.4,0.4-1,0-1.3L24.5,0.5C24.2,0.2,23.6,0.2,23.2,0.5L23.2,0.5z"
	/>
</svg>
