<?xml version="1.0" encoding="utf-8"?>
<!-- Generator: Adobe Illustrator 24.3.0, SVG Export Plug-In . SVG Version: 6.00 Build 0)  -->
<svg version="1.1" id="Layer_1" xmlns="http://www.w3.org/2000/svg" xmlns:xlink="http://www.w3.org/1999/xlink" x="0px" y="0px"
	 viewBox="0 0 88 89" style="enable-background:new 0 0 88 89;" xml:space="preserve">
<g fill="currentColor">
	<path class="st0" d="M55,69.1c1.4,0.7,3,0.9,4.6,0.7c0,0-0.6,4.5-3.2,4.3C54.4,74,55,69.1,55,69.1L55,69.1z M42.9,17.7
		c-1.5,2.1-3.3,4-5.4,5.6c-1.6-0.6-3.1-1.3-4.6-2.1c0,0-6.4,11.6-18.1,14.4c0,0-3.2,4.9-0.3,12.6c2.9,7.7,1.7,10.1,1.7,10.1
		s5.6,1.5,13.2-2.7c7.5-4.2,13.2-2.5,15.1,2c1.3-0.7,2.3-1.8,3.1-3.1c2,3,3.3,6.3,3.8,9.9c0.3,1.9,8.2,3.5,11.3,0.8
		c0,0,1-2.7,6.4-11c5.3-8.3,0-16.1-1.9-18.5c-1.9-2.4-4.3-5.7-3.8-9.4c-0.8-1-1.6-1.9-2.5-2.8c0,0,0-5-1-5.3c-1,1.1-1.8,2.3-2.4,3.7
		c-0.9,3.5-0.6,6.2-2.7,7.3c0,0-6-3.5-6.9-5.3c0.5-1.4,1.3-2.7,2.3-3.9C49.9,19.9,44.7,19.5,42.9,17.7"/>
	<path class="st0" d="M10.9,21.5l0.8-1.2l-2-0.5L10.9,21.5z M8.9,19.7L9.4,19l4.8,1.3l-0.4,0.6l-1.4-0.4l-1.1,1.5l0.8,1.2l-0.4,0.6
		L8.9,19.7z"/>
	<path class="st0" d="M14.6,17l-2-2l0.5-0.5l2,2c0.6,0.6,1.2,0.7,1.8,0.1c0.6-0.6,0.5-1.1-0.1-1.8l-2-2l0.5-0.5l2,2
		c0.2,0.2,0.4,0.4,0.5,0.6c0.1,0.2,0.2,0.5,0.2,0.7c0,0.3-0.1,0.5-0.2,0.8c-0.1,0.2-0.3,0.4-0.5,0.6c-0.2,0.2-0.4,0.4-0.6,0.5
		c-0.2,0.1-0.5,0.2-0.8,0.2s-0.5-0.1-0.8-0.2C14.9,17.4,14.7,17.3,14.6,17L14.6,17z M19.8,12.6l0.6-0.5c0.1,0.1,0.2,0.2,0.3,0.3
		c0.1,0.1,0.3,0.1,0.4,0.1c0.1,0,0.3,0,0.4-0.1c0.1-0.1,0.3-0.1,0.4-0.2c0.5-0.4,0.7-0.8,0.4-1.2c-0.3-0.4-0.8-0.2-1.4,0.1
		c-0.7,0.3-1.5,0.6-2.1-0.1c-0.1-0.2-0.2-0.4-0.2-0.6c0-0.2,0-0.4,0-0.6c0.1-0.2,0.1-0.4,0.3-0.5c0.1-0.2,0.3-0.3,0.5-0.4
		c0.2-0.2,0.4-0.3,0.6-0.3c0.2-0.1,0.4-0.1,0.7-0.1c0.2,0,0.4,0.1,0.7,0.2c0.2,0.1,0.4,0.3,0.5,0.4l-0.6,0.4
		c-0.1-0.1-0.2-0.2-0.3-0.3c-0.1-0.1-0.3-0.1-0.4-0.1c-0.1,0-0.3,0-0.4,0.1c-0.1,0-0.2,0.1-0.3,0.2c-0.5,0.3-0.6,0.8-0.3,1.2
		c0.3,0.4,0.8,0.1,1.5-0.2c0.7-0.3,1.5-0.6,2,0.2c0.1,0.2,0.2,0.4,0.2,0.6c0,0.2,0,0.4,0,0.6c-0.1,0.2-0.2,0.4-0.3,0.6
		c-0.1,0.2-0.3,0.3-0.5,0.4C22.2,12.8,22,13,21.8,13s-0.5,0.1-0.7,0.1c-0.2,0-0.5-0.1-0.7-0.2C20.2,12.9,20,12.7,19.8,12.6"/>
	<path class="st0" d="M27.5,5l-1.3,0.7l1.7,3.7l-0.6,0.3L25.5,6l-1.3,0.7l-0.3-0.6l3.3-1.7L27.5,5z M31.9,5l0.9-0.3
		c0.8-0.3,1-0.8,0.9-1.3c-0.1-0.5-0.5-0.6-1.3-0.4l-0.9,0.3L31.9,5z M32.3,2.5c1.2-0.4,1.9-0.1,2.1,0.7c0.1,0.3,0.1,0.6-0.1,0.9
		c-0.1,0.3-0.4,0.5-0.7,0.7c0.8,0,1.3,0.5,1.7,1.5l0.1,0.2l-0.7,0.2l0-0.1c-0.4-0.9-0.9-1.5-1.9-1.2l-0.6,0.2l0.5,1.7l-0.7,0.2
		L30.6,3L32.3,2.5z M39.6,1.7l0.9,1.8l-1.4,0.2L39.6,1.7z M39.2,0.9l-1.3,4.9l0.7-0.1L39,4.3l1.8-0.2l0.6,1.3l0.7-0.1L40,0.8
		L39.2,0.9z M45,5.2l2.9,0.1l0-0.6l-2.2-0.1L46,0.5l-0.7,0L45,5.2z M50.9,5.7l0.7,0.1l0.9-4.7L51.8,1L50.9,5.7z M56.4,4.9l1.3,0.4
		l0-2.1L56.4,4.9z M57.5,2.4l0.8,0.2l0.1,5l-0.7-0.2l0-1.5L56,5.4l-0.9,1.2l-0.7-0.2L57.5,2.4z M64.3,9.1L66,6l0.6,0.3l-2.3,4.2
		l-0.6-0.3l-0.4-4.4l-1.8,3.3L61,8.7l2.3-4.2L64,4.9L64.3,9.1z M70.8,14.6l0.6,0.6c0.1,0.2,0.3,0.3,0.5,0.4c0.2,0.1,0.4,0.1,0.7,0.1
		c0.2,0,0.5-0.1,0.7-0.2c0.2-0.1,0.4-0.3,0.5-0.5l0,0c0.8-0.9,0.8-1.6,0.1-2.4l-0.6-0.6L70.8,14.6z M73.1,11.1l1.1,1.1
		c0.3,0.2,0.5,0.5,0.6,0.7c0.1,0.3,0.2,0.6,0.2,0.9c0,0.3-0.1,0.6-0.2,0.9c-0.1,0.3-0.3,0.5-0.6,0.8c-0.2,0.3-0.4,0.5-0.7,0.6
		c-0.3,0.1-0.6,0.2-0.9,0.2c-0.3,0-0.6-0.1-0.9-0.2c-0.3-0.1-0.5-0.3-0.7-0.6l-1.1-1.1L73.1,11.1z M77.6,20.2l-1-1.4l-1.2,0.9
		l1.6,2.2l-0.5,0.4l-2-2.7l3.8-2.9l1.9,2.6l-0.5,0.4l-1.5-2.1l-1.1,0.8l1,1.4L77.6,20.2z M79.1,23.7l0.3,0.7
		c-0.1,0.1-0.2,0.2-0.3,0.3C79.1,24.9,79,25,79,25.1c0,0.1,0,0.3,0,0.4c0,0.1,0.1,0.3,0.2,0.4c0.3,0.6,0.7,0.8,1.1,0.5
		c0.4-0.2,0.3-0.8,0.1-1.4c-0.2-0.8-0.3-1.6,0.5-2.1c0.2-0.1,0.4-0.1,0.6-0.1c0.2,0,0.4,0,0.6,0.1c0.2,0.1,0.4,0.2,0.5,0.3
		c0.1,0.1,0.2,0.3,0.3,0.5c0.1,0.2,0.2,0.4,0.2,0.6c0,0.2,0,0.5,0,0.7c-0.1,0.2-0.1,0.4-0.3,0.6c-0.1,0.2-0.3,0.3-0.5,0.5L82,25.6
		c0.1-0.1,0.2-0.2,0.3-0.3c0.1-0.1,0.1-0.2,0.2-0.4c0-0.1,0-0.3,0-0.4c0-0.1-0.1-0.3-0.2-0.4c-0.3-0.5-0.7-0.7-1.1-0.5
		c-0.4,0.2-0.3,0.8-0.1,1.5c0.2,0.8,0.3,1.6-0.5,2c-0.2,0.1-0.4,0.2-0.6,0.2c-0.2,0-0.4,0-0.6-0.1c-0.2-0.1-0.4-0.2-0.5-0.4
		c-0.1-0.2-0.3-0.3-0.3-0.5c-0.3-0.4-0.4-0.9-0.3-1.4C78.5,24.4,78.7,24,79.1,23.7L79.1,23.7z M80.7,31.2l-0.2-0.7l4.4-1.7l0.2,0.7
		L80.7,31.2z M83,37.5c-0.3-0.1-0.5-0.2-0.7-0.5c-0.2-0.2-0.3-0.5-0.3-0.8c-0.1-0.3-0.1-0.6,0-0.9c0.1-0.3,0.2-0.6,0.4-0.8
		c0.2-0.2,0.4-0.5,0.7-0.6c0.3-0.2,0.6-0.2,0.9-0.3c0.3-0.1,0.6-0.1,0.9-0.1c0.3,0,0.6,0.1,0.9,0.3c0.3,0.2,0.5,0.4,0.7,0.6
		c0.2,0.3,0.3,0.5,0.4,0.9c0.1,0.5,0.1,1-0.2,1.4c-0.2,0.4-0.6,0.8-1.1,0.9l-0.1-0.7c0.3-0.1,0.5-0.3,0.7-0.6
		c0.1-0.3,0.2-0.6,0.1-0.9c-0.2-0.9-0.9-1.3-2-1.1l-0.1,0c-0.2,0-0.4,0.1-0.6,0.2c-0.2,0.1-0.4,0.2-0.5,0.4
		c-0.1,0.2-0.2,0.4-0.3,0.6c-0.1,0.2-0.1,0.4,0,0.6c0,0.2,0.1,0.3,0.1,0.4c0.1,0.1,0.2,0.3,0.3,0.3c0.1,0.1,0.3,0.2,0.4,0.2
		c0.2,0,0.3,0,0.5,0L83.7,36l0.6-0.1l0.3,1.9l-2.2,0.5l-0.1-0.6L83,37.5z M82.7,41.4v0.7l3.7-0.1l-3.7,2.6v0.7l4.7-0.1v-0.7
		l-3.5,0.1l3.5-2.5v-0.8L82.7,41.4z M81.9,51.8l0.6,0.1l0.4-2.7l1.5,0.2l-0.3,1.7l0.6,0.1l0.3-1.7l1.3,0.2l-0.4,2.6l0.6,0.1L87,49
		l-4.6-0.7L81.9,51.8z M81.5,55.5l-0.3,0.8C81.1,56.6,81,56.8,81,57c0,0.2,0,0.5,0.2,0.7c0.1,0.2,0.3,0.4,0.4,0.5
		c0.2,0.1,0.4,0.2,0.6,0.3l0,0c0.2,0.1,0.4,0.2,0.7,0.2c0.2,0,0.5,0,0.7-0.1c0.2-0.1,0.4-0.2,0.5-0.4c0.1-0.2,0.2-0.4,0.3-0.6
		l0.3-0.9L81.5,55.5z M85.6,56.1L85,57.7c-0.1,0.3-0.2,0.6-0.4,0.9c-0.2,0.3-0.4,0.5-0.7,0.6c-0.3,0.1-0.6,0.2-0.9,0.2
		c-0.3,0-0.6-0.1-0.9-0.2c-0.3-0.1-0.6-0.2-0.9-0.4c-0.3-0.2-0.5-0.5-0.6-0.8c-0.1-0.3-0.2-0.6-0.2-0.9c0-0.3,0.1-0.6,0.2-0.9
		l0.5-1.5L85.6,56.1z M76.9,66.4l0.8-1.3l1.2,0.8l-0.8,1.3L76.9,66.4z M72.2,73.6l-1,1l1.8,0.9L72.2,73.6z M73.7,75.7l-0.6,0.6
		l-4.4-2.2l0.5-0.5l1.3,0.6l1.3-1.3l-0.5-1.3l0.5-0.5L73.7,75.7z"/>
	<path class="st0" d="M67.7,77.3l1.5,2.4l-0.6,0.4l-1.5-2.4c-0.5-0.7-1-0.9-1.7-0.4c-0.7,0.5-0.7,1-0.3,1.7l1.5,2.4l-0.6,0.4
		l-1.5-2.4c-0.2-0.2-0.3-0.4-0.4-0.7s-0.1-0.5,0-0.8c0-0.3,0.2-0.5,0.3-0.7c0.2-0.2,0.3-0.4,0.6-0.5c0.2-0.2,0.4-0.3,0.7-0.4
		c0.3-0.1,0.5-0.1,0.8,0c0.3,0.1,0.5,0.2,0.7,0.3C67.5,76.8,67.6,77,67.7,77.3L67.7,77.3z M61.7,80.7L61.1,81
		c-0.1-0.1-0.2-0.2-0.3-0.3c-0.1-0.1-0.2-0.2-0.4-0.2c-0.1,0-0.3,0-0.4,0c-0.1,0-0.3,0.1-0.4,0.2c-0.6,0.3-0.8,0.7-0.6,1.2
		c0.2,0.4,0.7,0.3,1.4,0.1c0.8-0.2,1.6-0.3,2,0.5c0.1,0.2,0.1,0.4,0.1,0.6c0,0.2-0.1,0.4-0.1,0.6c-0.1,0.2-0.2,0.4-0.4,0.5
		c-0.2,0.1-0.3,0.2-0.5,0.3c-0.2,0.1-0.4,0.2-0.6,0.2c-0.2,0-0.5,0-0.7,0c-0.2-0.1-0.4-0.2-0.6-0.3c-0.2-0.1-0.3-0.3-0.4-0.5
		l0.7-0.3c0.1,0.1,0.1,0.2,0.3,0.3c0.1,0.1,0.2,0.2,0.4,0.2c0.1,0,0.3,0,0.4,0c0.1,0,0.3-0.1,0.4-0.2c0.5-0.2,0.7-0.7,0.6-1.1
		c-0.2-0.5-0.8-0.3-1.5-0.1c-0.8,0.2-1.6,0.3-1.9-0.5c-0.1-0.2-0.1-0.4-0.1-0.6c0-0.2,0.1-0.4,0.1-0.6c0.1-0.2,0.2-0.4,0.4-0.5
		c0.2-0.1,0.3-0.2,0.6-0.3c0.2-0.1,0.4-0.2,0.7-0.3c0.2,0,0.5,0,0.7,0c0.2,0.1,0.4,0.2,0.6,0.3C61.5,80.3,61.6,80.5,61.7,80.7"/>
	<path class="st0" d="M53.3,82.4l1,3.9l-1.4,0.4l0.2,0.6l3.6-1l-0.2-0.6L55,86.2l-1-3.9L53.3,82.4z M48.5,85.9L47.7,86
		c-0.9,0.1-1.1,0.6-1.1,1.1c0,0.5,0.4,0.7,1.1,0.6l1-0.1L48.5,85.9z M47.7,88.3c-1.2,0.1-1.8-0.3-1.9-1.1c0-0.3,0-0.6,0.2-0.9
		c0.2-0.3,0.5-0.4,0.8-0.5c-0.8-0.1-1.2-0.7-1.4-1.8l0-0.2l0.7-0.1l0,0.1c0.2,1,0.6,1.6,1.6,1.5l0.6-0.1l-0.2-1.8l0.7-0.1l0.4,4.7
		L47.7,88.3z M39.9,85.7l1.4,0.1l-0.9,1.9L39.9,85.7z M39.9,88.4l0.8,0.1l2.2-4.6l-0.7,0l-0.6,1.3l-1.8-0.1l-0.4-1.4l-0.7-0.1
		L39.9,88.4z M32.8,83.1l2.1,0.5l-1,4l0.7,0.2l1.1-4.6L33,82.5L32.8,83.1z M29.5,81.3l0.7,0.2L28.4,86l-0.7-0.2L29.5,81.3z
		 M24.6,81.3l-1.2-0.7l-0.3,2.1L24.6,81.3z M23,83.6l-0.7-0.4l0.8-5l0.6,0.3L23.5,80l1.6,0.9l1.1-1l0.6,0.3L23,83.6z M17.7,75.6
		l-2.2,2.8L14.9,78l3-3.7l0.5,0.4L18,79.1l2.3-2.9l0.5,0.4l-3,3.7l-0.6-0.5L17.7,75.6z M9.3,67.6L9.3,67.6C9,67.7,8.9,67.9,8.7,68
		c-0.1,0.2-0.2,0.4-0.3,0.6c-0.1,0.2-0.1,0.4,0,0.7c0,0.2,0.1,0.4,0.2,0.6c0.1,0.2,0.3,0.3,0.5,0.5c0.2,0.1,0.4,0.2,0.6,0.2
		c0.2,0,0.4,0,0.7-0.1c0.2-0.1,0.4-0.2,0.6-0.4l0,0c0.2-0.1,0.4-0.2,0.5-0.4c0.1-0.2,0.2-0.4,0.3-0.6c0.1-0.2,0.1-0.4,0-0.7
		c0-0.2-0.1-0.4-0.2-0.6c-0.1-0.2-0.3-0.3-0.5-0.5c-0.2-0.1-0.4-0.2-0.6-0.2c-0.2,0-0.4,0-0.7,0.1C9.6,67.3,9.4,67.4,9.3,67.6
		L9.3,67.6z M11.4,70.8c-0.2,0.2-0.5,0.4-0.8,0.5c-0.3,0.1-0.6,0.1-0.9,0.1c-0.3,0-0.6-0.2-0.9-0.3c-0.3-0.2-0.5-0.4-0.7-0.7
		c-0.2-0.3-0.3-0.6-0.4-0.9c-0.1-0.3-0.1-0.6,0-0.9c0.1-0.3,0.2-0.6,0.4-0.9c0.2-0.3,0.4-0.5,0.7-0.6c0.2-0.2,0.5-0.4,0.8-0.5
		c0.3-0.1,0.6-0.1,0.9-0.1c0.3,0,0.6,0.2,0.9,0.3c0.3,0.2,0.5,0.4,0.7,0.7c0.2,0.3,0.3,0.6,0.4,0.9s0.1,0.6,0,0.9
		c-0.1,0.3-0.2,0.6-0.4,0.9C11.9,70.4,11.7,70.6,11.4,70.8z M5.3,65.5L5,64.8l3-2.3L4.2,63l-0.3-0.7l2.9-2.5l-3.7,0.7l-0.3-0.7
		l4.8-0.7L8,59.8l-3,2.5l3.8-0.6l0.3,0.6L5.3,65.5z M4.7,52.4l-3.4,0.8l-0.1-0.7l4.6-1l0.1,0.7l-3.1,3.2l3.6-0.8l0.1,0.7l-4.6,1
		l-0.2-0.8L4.7,52.4z M3.2,46l0,1.7l1.5-0.1l-0.1-2.7l0.6,0l0.1,3.4l-4.7,0.2l-0.1-3.3l0.6,0l0.1,2.6l1.3-0.1l0-1.7L3.2,46z M5,41.1
		l0.1-0.9c0.1-0.2,0.1-0.5,0-0.7c0-0.2-0.1-0.4-0.3-0.6c-0.1-0.2-0.3-0.3-0.5-0.4c-0.2-0.1-0.4-0.1-0.7-0.1h0
		c-0.2-0.1-0.5-0.1-0.7,0c-0.2,0-0.4,0.1-0.6,0.3C2.1,38.8,2,39,1.9,39.2c-0.1,0.2-0.2,0.4-0.2,0.7l-0.1,0.9L5,41.1z M0.9,41.4
		l0.2-1.6c0-0.3,0.1-0.6,0.2-0.9c0.1-0.3,0.3-0.5,0.6-0.7c0.3-0.2,0.5-0.3,0.9-0.4c0.3-0.1,0.6-0.1,1,0c0.3,0,0.6,0.1,0.9,0.2
		c0.3,0.1,0.5,0.4,0.7,0.6c0.2,0.3,0.3,0.6,0.4,0.9c0.1,0.3,0,0.6-0.1,1l-0.2,1.6L0.9,41.4z M7.9,28.4l-0.6,1.4L6,29.2l0.6-1.4
		L7.9,28.4z"/>
</g>
</svg>
