<?xml version="1.0" encoding="utf-8"?>
<!-- Generator: Adobe Illustrator 23.1.1, SVG Export Plug-In . SVG Version: 6.00 Build 0)  -->
<svg version="1.1" id="Layer_1" xmlns="http://www.w3.org/2000/svg" xmlns:xlink="http://www.w3.org/1999/xlink" x="0px" y="0px"
	 viewBox="0 0 167 129" style="enable-background:new 0 0 167 129;" xml:space="preserve">
<g>
	<path fill="#D97924" d="M127.5,108.7C115.7,120.5,100,127,83.3,127c-16.7,0-32.4-6.5-44.2-18.3c-7.2-7.2-12.4-15.7-15.3-25.1h-2.1
		c0.6,2,1.4,4,2.2,6c3.2,7.7,7.9,14.6,13.8,20.5s12.8,10.6,20.5,13.8c8,3.4,16.4,5.1,25.1,5.1c8.7,0,17.2-1.7,25.1-5.1
		c7.7-3.2,14.6-7.9,20.5-13.8c5.9-5.9,10.6-12.8,13.8-20.5c0.8-2,1.6-4,2.2-6h-2.1C139.8,93,134.6,101.6,127.5,108.7z"/>
	<path fill="#D97924" d="M112.6,93.9c-7.8,7.8-18.3,12.2-29.4,12.2c-11.1,0-21.5-4.3-29.4-12.2c-3.1-3.1-5.6-6.5-7.5-10.3h-2.2
		c2.1,4.3,4.9,8.2,8.4,11.7c8.2,8.2,19.2,12.7,30.8,12.7s22.6-4.5,30.8-12.7c3.5-3.5,6.3-7.4,8.4-11.7h-2.2
		C118.2,87.3,115.7,90.8,112.6,93.9z"/>
	<path fill="#D97924" d="M39.1,20.3C50.9,8.5,66.6,2,83.3,2c16.7,0,32.4,6.5,44.2,18.3c7.4,7.4,12.6,16.2,15.6,25.9h2.1
		c-0.7-2.3-1.5-4.6-2.4-6.8c-3.2-7.7-7.9-14.6-13.8-20.5C123,13,116.1,8.3,108.4,5.1C100.4,1.7,92,0,83.3,0
		c-8.7,0-17.2,1.7-25.1,5.1C50.5,8.3,43.6,13,37.7,18.9c-5.9,5.9-10.6,12.8-13.8,20.5c-0.9,2.2-1.7,4.5-2.4,6.8h2.1
		C26.4,36.5,31.7,27.7,39.1,20.3z"/>
	<path fill="#D97924" d="M53.9,35.1C61.8,27.3,72.2,23,83.3,23c11.1,0,21.5,4.3,29.4,12.2c3.3,3.3,5.9,7,7.9,11.1h2.2
		c-2.1-4.6-5.1-8.8-8.7-12.5C105.8,25.5,94.9,21,83.3,21s-22.6,4.5-30.8,12.7c-3.7,3.7-6.6,7.9-8.7,12.5H46
		C47.9,42.2,50.6,38.4,53.9,35.1z"/>
	<path fill="#D97924" d="M34.4,37.2l4.6,5.6l0.8-1.4l-0.9-1.1l1.2-2.1l1.4,0.3l0.9-1.5l-7.2-1.2L34.4,37.2z M38.9,37.9L38,39.4
		l-1.7-1.9L38.9,37.9z"/>
	<path fill="#D97924" d="M44.4,29.9l-3.1-2.5l-1,1.3l3.1,2.5c0.4,0.3,0.6,0.6,0.7,0.9c0.1,0.3,0,0.7-0.3,1c-0.3,0.3-0.6,0.5-0.9,0.5
		c-0.4,0-0.7-0.2-1.1-0.5l-3.1-2.5l-1,1.3l3.1,2.5c0.7,0.6,1.4,0.9,2.1,0.8c0.7-0.1,1.4-0.4,2-1.2c0.6-0.8,0.8-1.5,0.7-2.2
		C45.6,31,45.2,30.5,44.4,29.9z"/>
	<path fill="#D97924" d="M47.5,23.1l-0.9-0.9l-3.7,3.5l0.9,0.9l1.3-1.2l3.8,4l1.2-1.1l-3.8-4L47.5,23.1z"/>
	<path fill="#D97924" d="M51.9,18.2l1.5,2.1l-2.2,1.6l-1.5-2.1l-1.3,0.9l4,5.5l1.3-0.9L52,23l2.2-1.6l1.6,2.3l1.3-0.9l-4-5.5L51.9,18.2
		z"/>
	<path fill="#D97924" d="M58.7,14.1c-1.8,0.9-2.7,2.8-1.7,4.7s2.9,2.5,4.8,1.6c1.8-0.9,2.7-2.7,1.7-4.7C62.5,13.7,60.5,13.3,58.7,14.1z
		 M61.2,19.2c-1,0.5-2.1,0.1-2.7-1c-0.6-1.2-0.2-2.3,0.9-2.8s2.1-0.1,2.7,1C62.6,17.6,62.2,18.7,61.2,19.2z"/>
	<path fill="#D97924" d="M69.9,12.2c-0.4-1.4-1.8-1.6-3-1.2l-2.3,0.7l2,6.5l1.5-0.5l-0.8-2.5l0.5-0.1l2.1,2.1l1.8-0.5l-2.5-2.2
		C69.6,14.2,70.3,13.5,69.9,12.2z M67.5,13.9l-0.6,0.2l-0.5-1.7l0.6-0.2c0.6-0.2,1.1-0.2,1.4,0.5C68.6,13.4,68.1,13.8,67.5,13.9z"/>
	<path fill="#D97924" d="M73.3,9.5l-1.6,0.3l1.3,6.7l1.6-0.3L73.3,9.5z"/>
	<path fill="#D97924" d="M79.3,11.6c-0.2-0.1-0.7-0.2-1-0.3c-0.3-0.1-0.7-0.2-0.7-0.6c0-0.4,0.3-0.6,0.8-0.7c0.5-0.1,1.1,0.2,1.6,0.5
		l0.6-1.2C80,9,79,8.7,78.2,8.7c-0.8,0.1-1.4,0.3-1.7,0.7c-0.4,0.4-0.6,0.9-0.6,1.5c0.1,0.6,0.3,1,0.7,1.3c0.3,0.3,0.7,0.3,0.9,0.4
		c0.2,0.1,0.8,0.2,1.1,0.3c0.3,0.1,0.8,0.2,0.9,0.7s-0.3,0.7-0.8,0.8c-0.5,0.1-1.3-0.2-1.8-0.7L76,14.9c0.6,0.5,1.5,0.9,2.5,0.8
		c1.3-0.1,2.5-1,2.4-2.4C80.9,12.3,80.2,11.8,79.3,11.6z"/>
	<path fill="#D97924" d="M82.8,15.3l4.5,0.1l0.1-1.3l-2.9-0.1l0.1-1.6l2.7,0.1l0-1.3l-2.7-0.1l0.1-1.4l2.8,0.1l0.1-1.3L83,8.6
		L82.8,15.3z"/>
	<path fill="#D97924" d="M92.4,9.3l-2.3-0.4L89,15.6l2.3,0.4c2.1,0.4,3.9-0.5,4.2-2.7C95.9,11.1,94.5,9.7,92.4,9.3z M93.9,13
		c-0.2,1.2-1.1,1.9-2.3,1.7l-0.8-0.1l0.7-4.1l0.8,0.1C93.5,10.9,94.1,11.8,93.9,13z"/>
	<path fill="#D97924" d="M103.9,12.5l-2.1-0.9l-2.6,6.3l2.1,0.9c2,0.8,3.9,0.4,4.7-1.7C106.9,15,105.8,13.3,103.9,12.5z M104.5,16.4
		c-0.5,1.2-1.5,1.6-2.6,1.1l-0.7-0.3l1.5-3.8l0.7,0.3C104.6,14.3,105,15.3,104.5,16.4z"/>
	<path fill="#D97924" d="M109,19.3l2.3,1.3l0.6-1.1l-2.3-1.3l0.7-1.2l2.4,1.4l0.6-1.1l-3.8-2.2l-3.4,5.9l3.9,2.3l0.7-1.1l-2.5-1.5
		L109,19.3z"/>
	<path fill="#D97924" d="M117.2,20l-6.2,3.8l1.3,1l1.2-0.8l1.9,1.5l-0.5,1.4l1.4,1.1l2.2-6.9L117.2,20z M115.9,24.4l-1.3-1.1l2.2-1.4
		L115.9,24.4z"/>
	<path fill="#D97924" d="M123.2,25.4l-1.1-1.1l-4.8,4.8l2.7,2.8l0.9-0.9l-1.6-1.7L123.2,25.4z"/>
	<path fill="#D97924" d="M121,32.9l2.7,3.6l1-0.8l-1.8-2.3l1.2-1l1.6,2.1l1-0.8l-1.6-2.1l1.1-0.8l1.7,2.2l1-0.8l-2.7-3.5L121,32.9z"/>
	<path fill="#D97924" d="M125.5,39.3l2.2-1.3l0.3,0.4l-1.5,2.5l0.9,1.6l1.6-2.9c0.4,0.4,1.2,0.8,2.3,0.2c1.3-0.7,1.1-2.1,0.5-3.2
		l-1.2-2.1l-5.9,3.4L125.5,39.3z M130.3,36.5l0.3,0.5c0.3,0.5,0.4,1.1-0.2,1.4c-0.6,0.3-1-0.1-1.3-0.6l-0.3-0.5L130.3,36.5z"/>
	<path fill="#D97924" d="M40.4,91.1l-7.1,1.5l0.9,1.4l1.4-0.3l1.3,2l-0.9,1.1l0.9,1.5l4.3-5.8L40.4,91.1z M37.8,94.8l-0.9-1.4l2.5-0.6
		L37.8,94.8z"/>
	<path fill="#D97924" d="M46,98.6l-3,2.6c-0.4,0.3-0.7,0.5-1,0.5c-0.3,0-0.7-0.1-1-0.5c-0.3-0.3-0.4-0.7-0.3-1c0.1-0.3,0.3-0.6,0.7-0.9
		l3-2.6l-1.1-1.2l-3,2.6c-0.7,0.6-1.1,1.2-1.2,1.9c-0.1,0.7,0.2,1.4,0.8,2.2c0.6,0.7,1.3,1.1,2.1,1.1c0.7,0,1.3-0.3,2-0.9l3-2.6
		L46,98.6z"/>
	<path fill="#D97924" d="M51,105l0.8-0.9l-3.8-3.4l-0.8,0.9l1.3,1.1l-3.7,4.2L46,108l3.7-4.2L51,105z"/>
	<path fill="#D97924" d="M56.4,107.2l-1.5,2.2l-2.3-1.5l1.5-2.2l-1.3-0.9l-3.8,5.6l1.3,0.9L52,109l2.3,1.5l-1.6,2.3l1.3,0.9l3.8-5.6
		L56.4,107.2z"/>
	<path fill="#D97924" d="M62.3,110.3c-1.8-0.8-3.8-0.3-4.7,1.7c-0.9,2,0,3.8,1.8,4.7c1.8,0.8,3.8,0.3,4.7-1.7
		C65,113,64.2,111.1,62.3,110.3z M62.7,114.3c-0.5,1.2-1.7,1.6-2.7,1.1c-1-0.5-1.5-1.6-0.9-2.7c0.5-1.2,1.7-1.6,2.7-1.1
		C62.8,112,63.2,113.1,62.7,114.3z"/>
	<path fill="#D97924" d="M69.3,113l-2.3-0.7l-1.9,6.5l1.5,0.4l0.7-2.5l0.5,0.1l0.7,2.9l1.8,0.5l-0.9-3.2c0.5,0,1.5-0.3,1.8-1.5
		C71.6,114.2,70.6,113.4,69.3,113z M69.7,115.3c-0.2,0.7-0.8,0.7-1.4,0.5l-0.6-0.2l0.5-1.7l0.6,0.2
		C69.3,114.3,69.9,114.6,69.7,115.3z"/>
	<path fill="#D97924" d="M73.4,114l-1.2,6.7l1.6,0.3l1.2-6.7L73.4,114z"/>
	<path fill="#D97924" d="M79.1,116c0.5,0,1.1,0.4,1.5,0.8l0.8-1.1c-0.4-0.5-1.3-0.9-2.1-1s-1.4,0.1-1.8,0.4c-0.4,0.3-0.8,0.8-0.8,1.4
		c-0.1,0.6,0.1,1.1,0.4,1.3c0.3,0.3,0.6,0.5,0.8,0.6c0.2,0.1,0.7,0.3,1,0.5c0.3,0.1,0.8,0.3,0.7,0.8c0,0.5-0.5,0.7-1,0.6
		c-0.5,0-1.2-0.5-1.7-1l-0.9,1.1c0.5,0.5,1.3,1.1,2.3,1.2c1.3,0.1,2.7-0.5,2.8-1.9c0.1-1-0.5-1.6-1.3-2c-0.2-0.1-0.7-0.3-1-0.5
		c-0.3-0.1-0.7-0.3-0.6-0.7C78.2,116.1,78.6,115.9,79.1,116z"/>
	<path fill="#D97924" d="M84.8,120.4l-0.1-1.6l2.6-0.1l0-1.3l-2.7,0.1l-0.1-1.4l2.8-0.1l-0.1-1.3L83,115l0.2,6.8l4.5-0.2l0-1.3
		L84.8,120.4z"/>
	<path fill="#D97924" d="M91.4,114.3l-2.3,0.4l1.1,6.7l2.3-0.4c2.1-0.4,3.5-1.7,3.1-4C95.2,114.8,93.5,113.9,91.4,114.3z M92.4,119.6
		l-0.8,0.1l-0.7-4.1l0.8-0.1c1.3-0.2,2.1,0.4,2.3,1.7C94.2,118.5,93.6,119.4,92.4,119.6z"/>
	<path fill="#D97924" d="M101.3,111.6l-2.1,0.8l2.5,6.3l2.1-0.8c2-0.8,3-2.4,2.2-4.5C105.2,111.3,103.3,110.8,101.3,111.6z
		 M103.4,116.7l-0.7,0.3l-1.5-3.8l0.7-0.3c1.2-0.5,2.2,0,2.6,1.2C105,115.2,104.6,116.2,103.4,116.7z"/>
	<path fill="#D97924" d="M110.2,113.6l-0.8-1.4l2.3-1.3l-0.6-1.1l-2.3,1.3l-0.7-1.2l2.4-1.4l-0.6-1.1l-3.8,2.1l3.3,5.9l3.9-2.2
		l-0.6-1.1L110.2,113.6z"/>
	<path fill="#D97924" d="M112.9,105.3l2,7l1.3-1l-0.4-1.4l1.9-1.5l1.2,0.8l1.4-1l-6.1-3.9L112.9,105.3z M116.7,107.7l-1.3,1l-0.8-2.5
		L116.7,107.7z"/>
	<path fill="#D97924" d="M122.1,104.7l-3.8-3.9l-1.1,1.1l4.7,4.9l2.8-2.7l-0.9-0.9L122.1,104.7z"/>
	<path fill="#D97924" d="M123.7,94.7l-2.8,3.4l5.2,4.3L129,99l-1-0.8l-1.8,2.2l-1.2-1l1.7-2.1l-1-0.8l-1.7,2l-1.1-0.9l1.8-2.2
		L123.7,94.7z"/>
	<path fill="#D97924" d="M131.3,95.6l-2.2-1.4l0.3-0.4l2.9,0.2l1-1.6l-3.3,0c0.1-0.5,0.1-1.5-0.9-2.2c-1.3-0.8-2.4,0-3.1,1.1l-1.3,2.1
		l5.7,3.6L131.3,95.6z M128.4,93l-0.3,0.5l-1.5-0.9l0.3-0.5c0.3-0.5,0.7-0.9,1.3-0.5C128.9,91.9,128.8,92.5,128.4,93z"/>
	<path fill="#FFFFFF" d="M10.1,66.4c-0.4-0.4-1.1-0.8-1.6-1c-0.6-0.2-1.1-0.4-1.9-0.7c-1.4-0.5-2.8-0.9-2.8-2.1c0-1.2,0.9-1.7,2.3-1.7
		s2.7,0.7,3.6,1.5l1.2-1.7c-0.9-0.9-2.3-1.8-4.8-1.8c-2.5,0-4.8,1.4-4.8,4c0,2,1.3,2.9,2.2,3.4c0.7,0.4,1,0.4,1.9,0.7
		c0.9,0.3,3.2,0.8,3.2,2.3s-1.4,2-2.7,2s-3.1-0.7-4.2-2L0.4,71c1.2,1.5,3.1,2.5,5.5,2.5c1.6,0,2.9-0.5,3.9-1.3
		c0.9-0.8,1.5-1.8,1.5-3.2C11.2,67.8,10.7,66.9,10.1,66.4z"/>
	<path fill="#FFFFFF" d="M19.1,71.1c0,0-0.1,0-0.1,0c-0.8,0-1.2-0.3-1.5-0.7c-0.3-0.6-0.4-1.4-0.4-2.6v-6.4h1.7h1.7v-2.3H19h-1.8v-4.2
		h-2.9v4.2h-2.1v2.3h2.1v6.5c0,2.2,0.1,3.3,0.7,4.2c0.6,0.9,1.5,1.5,3,1.5c0.5,0,1-0.1,1.4-0.1c0.7-0.1,1.2-0.3,1.2-0.3l-0.2-2.3
		C20.4,70.7,19.9,71,19.1,71.1z"/>
	<path fill="#FFFFFF" d="M25.3,61.2L25.3,61.2L25.2,59h-2.9v14.1h2.9v-7c0-2.1,0.6-3.2,0.9-3.6c0.3-0.4,1.1-1.2,2.3-1.2
		c0.8,0,1.3,0.2,1.5,0.3h0.1l0.2-2.6c0,0-0.5-0.2-1.5-0.2C27.2,58.8,26,59.6,25.3,61.2z"/>
	<path fill="#FFFFFF" d="M41.5,60.4c-0.4-0.4-0.9-0.7-1.5-1c-0.8-0.4-1.9-0.6-3.2-0.6c-2.3,0-4.3,0.8-5.3,1.4l0.9,1.9
		c0.5-0.3,2.2-1.2,4.3-1.2c1.4,0,2.6,0.5,3.1,1.6c0.2,0.5,0.4,1,0.4,1.6v0.6l-0.4,0l-3.4,0.1c-3.3,0.1-5.5,1.5-5.5,4.3
		c0,2.7,2.3,4.4,4.9,4.4c2.6,0,3.9-1.5,4.5-2.1l0,1.8h0.3h2H43v-8.2c0-2.1-0.4-3.2-1.1-4.1C41.8,60.7,41.6,60.5,41.5,60.4z
		 M36.6,71.5c-1.9,0-2.9-1.1-2.9-2.4c0-1.3,0.9-2.3,3.2-2.4l2.9-0.2l0.4,0v3c0,0.1-0.1,0.1-0.1,0.2C39.4,70.4,38.3,71.5,36.6,71.5z"
		/>
	<path fill="#FFFFFF" d="M48.9,59h-2.9v14.1h2.9V59z"/>
	<path fill="#FFFFFF" d="M47.5,52.6c-1.1,0-1.9,0.7-1.9,1.7c0,1,0.8,1.7,1.9,1.7c1.1,0,1.8-0.7,1.8-1.7S48.6,52.6,47.5,52.6z"/>
	<path fill="#FFFFFF" d="M63.1,61.3L63.1,61.3c-0.9-1.3-2.6-2.5-5-2.5c-3.6,0-6.8,2.6-6.8,7.1c0,4.5,3.2,7.1,6.8,7.1
		c2.4,0,4-1.1,4.9-2.5h0.1v0.7c0,1.9-0.5,3.3-1.1,4c-0.6,0.7-1.7,1.5-3.9,1.5s-4.3-1.1-5.1-1.8l-1.3,2c0.4,0.3,2.8,2.1,6.3,2.1
		c3.5,0,5.3-1.4,6.3-2.7c1-1.3,1.5-3,1.5-6.1V59.1h-2.8L63.1,61.3z M58.7,70.7c-2.9,0-4.5-2.1-4.5-4.8s1.6-4.8,4.5-4.8
		c2.9,0,4.5,2.1,4.5,4.8S61.6,70.7,58.7,70.7z"/>
	<path fill="#FFFFFF" d="M76.5,58.8c-2.1,0-3.6,1.1-4.4,2.5h-0.1v-8.6h-2.8v20.5h2.8v-7c0-2.8,1.1-5.1,3.7-5.1c2.6,0,2.9,2,2.9,4v8h2.9
		v-8.4C81.6,61.4,80.6,58.8,76.5,58.8z"/>
	<path fill="#FFFFFF" d="M89.8,71.1c-0.8,0-1.2-0.3-1.5-0.7C88,69.8,88,69,88,67.8v-6.4h3.4v-2.3H88v-4.2h-2.9v4.2h-2.1v2.3h2.1v6.5
		c0,2.2,0.1,3.3,0.7,4.2c0.6,0.9,1.5,1.5,3,1.5c1.5,0,2.6-0.5,2.6-0.5l-0.2-2.3C91.3,70.7,90.7,71.1,89.8,71.1z"/>
	<path fill="#FFFFFF" d="M98.8,63.1c0.2-0.3,0.5-0.6,0.8-0.7c0.3-0.2,0.7-0.3,1.1-0.3c0.3,0,0.7,0,0.9,0.1c0.3,0.1,0.5,0.2,0.7,0.3
		c0.2,0.1,0.3,0.2,0.5,0.3c0.2,0.2,0.3,0.3,0.4,0.4c0.2,0.2,0.4,0.3,0.7,0.5c0.3,0.2,0.7,0.3,1.2,0.3c0.2,0,0.5-0.1,0.8-0.1
		c0.3-0.1,0.5-0.2,0.8-0.4c0.2-0.2,0.4-0.5,0.6-0.7c0.1-0.3,0.2-0.7,0.2-1.1c0-0.3-0.1-0.6-0.1-0.9c-0.1-0.3-0.3-0.6-0.5-1
		c-0.7-1-1.7-1.7-2.7-2c-1-0.4-2.1-0.5-3.3-0.5c-1.1,0-2.2,0.2-3.2,0.6c-1,0.4-1.8,1-2.5,1.8c-0.7,0.7-1.3,1.6-1.7,2.6
		c-0.4,1-0.6,2.1-0.6,3.3c0,1.2,0.2,2.3,0.5,3.3c0.4,1,0.9,1.9,1.6,2.7c0.7,0.7,1.5,1.3,2.5,1.8s2.1,0.7,3.3,0.7
		c0.7,0,1.4-0.1,2-0.2c0.6-0.1,1.1-0.3,1.6-0.5c0.5-0.2,0.9-0.5,1.2-0.7c0.3-0.3,0.6-0.5,0.8-0.7c0.6-0.6,0.9-1.4,0.9-2.3
		c0-0.4-0.1-0.7-0.2-1c-0.1-0.3-0.3-0.5-0.6-0.7c-0.2-0.2-0.5-0.3-0.8-0.4c-0.3-0.1-0.5-0.1-0.8-0.1c-0.2,0-0.4,0-0.7,0.1
		c-0.3,0.1-0.6,0.3-0.9,0.5c-0.4,0.4-0.8,0.6-1.2,0.8c-0.3,0.2-0.7,0.3-1.2,0.3c-0.4,0-0.8-0.1-1.1-0.3c-0.3-0.2-0.6-0.5-0.8-0.8
		c-0.2-0.3-0.4-0.7-0.5-1.1c-0.1-0.4-0.2-0.9-0.2-1.3c0-0.4,0.1-0.9,0.2-1.3C98.4,63.8,98.6,63.4,98.8,63.1z M97.5,67
		c0.1,0.5,0.3,0.9,0.6,1.3c0.3,0.4,0.6,0.7,1,1c0.4,0.3,0.9,0.4,1.5,0.4c0.6,0,1.1-0.1,1.6-0.4c0.4-0.2,0.9-0.5,1.4-0.9
		c0.2-0.2,0.5-0.3,0.7-0.4c0.3-0.1,0.4-0.1,0.5-0.1c0.1,0,0.3,0,0.5,0.1c0.2,0.1,0.4,0.2,0.5,0.3c0.1,0.1,0.3,0.3,0.4,0.5
		c0.1,0.2,0.1,0.4,0.1,0.7c0,0.7-0.2,1.2-0.7,1.7c-0.2,0.2-0.5,0.4-0.7,0.7c-0.3,0.2-0.6,0.4-1,0.6c-0.4,0.2-0.9,0.3-1.4,0.5
		c-0.5,0.1-1.1,0.2-1.8,0.2c-1.1,0-2.1-0.2-3-0.6c-0.9-0.4-1.6-0.9-2.2-1.6c-0.6-0.7-1.1-1.5-1.4-2.4c-0.3-0.9-0.5-1.9-0.5-3
		c0-1.1,0.2-2.1,0.5-2.9c0.4-0.9,0.9-1.7,1.5-2.4c0.6-0.7,1.4-1.2,2.3-1.6c0.9-0.4,1.8-0.6,2.8-0.6c1.1,0,2.1,0.2,3,0.5
		c0.9,0.3,1.7,0.9,2.3,1.7c0.2,0.3,0.3,0.5,0.4,0.7c0.1,0.2,0.1,0.4,0.1,0.7c0,0.3-0.1,0.5-0.1,0.7c-0.1,0.2-0.2,0.3-0.4,0.5
		c-0.2,0.1-0.3,0.2-0.5,0.3c-0.2,0.1-0.3,0.1-0.5,0.1c-0.3,0-0.6-0.1-0.8-0.2c-0.2-0.1-0.4-0.3-0.6-0.4c-0.1-0.1-0.2-0.2-0.4-0.3
		c-0.2-0.2-0.4-0.3-0.6-0.5c-0.2-0.1-0.5-0.3-0.8-0.4c-0.3-0.1-0.7-0.2-1.2-0.2c-0.6,0-1.1,0.1-1.5,0.4c-0.4,0.3-0.8,0.6-1,1
		c-0.3,0.4-0.5,0.9-0.6,1.4c-0.1,0.5-0.2,1-0.2,1.5C97.3,66,97.4,66.5,97.5,67z"/>
	<path fill="#FFFFFF" d="M120.2,57.4c-0.7,0-1.4,0.3-1.9,0.7c-0.5,0.5-0.8,1.1-0.8,1.9v6.4c0,0.8-0.2,1.4-0.5,1.9
		c-0.3,0.4-0.7,0.6-1.4,0.6c-0.6,0-1.1-0.2-1.4-0.6c-0.3-0.4-0.5-1.1-0.5-1.9v-6.4c0-0.7-0.3-1.4-0.8-1.9c-0.5-0.5-1.1-0.7-1.9-0.7
		c-0.7,0-1.4,0.3-1.9,0.7s-0.8,1.1-0.8,1.9v6.3c0,1.1,0.2,2.1,0.5,3c0.3,0.9,0.8,1.7,1.5,2.4c0.6,0.7,1.4,1.2,2.3,1.5
		c0.9,0.4,1.9,0.5,3,0.5c1.1,0,2.1-0.2,2.9-0.5c0.9-0.4,1.7-0.9,2.3-1.5c0.6-0.7,1.1-1.5,1.5-2.4c0.3-0.9,0.5-1.9,0.5-3v-6.3
		c0-0.7-0.3-1.4-0.8-1.9C121.6,57.7,120.9,57.4,120.2,57.4z M122.1,66.4c0,1-0.1,1.9-0.5,2.7c-0.3,0.8-0.7,1.5-1.3,2.1
		c-0.5,0.6-1.2,1-2,1.4c-0.8,0.3-1.7,0.5-2.6,0.5c-1,0-1.9-0.2-2.7-0.5c-0.8-0.3-1.5-0.8-2-1.4c-0.5-0.6-1-1.3-1.3-2.1
		c-0.3-0.8-0.5-1.7-0.5-2.7V60c0-0.5,0.2-0.9,0.5-1.3c0.4-0.3,0.8-0.5,1.3-0.5s1,0.2,1.3,0.5c0.4,0.3,0.5,0.8,0.5,1.3v6.4
		c0,1,0.2,1.8,0.6,2.3c0.5,0.6,1.1,0.9,2.1,0.9c0.9,0,1.6-0.3,2-0.9c0.4-0.6,0.6-1.4,0.6-2.3V60c0-0.5,0.2-0.9,0.5-1.3
		c0.4-0.3,0.8-0.5,1.3-0.5s1,0.2,1.3,0.5c0.3,0.3,0.5,0.8,0.5,1.3V66.4z"/>
	<path fill="#FFFFFF" d="M146.9,60.1c0-0.9-0.3-1.5-0.8-2c-0.2-0.2-0.4-0.3-0.7-0.4c-0.4-0.2-0.9-0.3-1.4-0.3c-0.6,0-1.1,0.2-1.4,0.5
		c-0.3,0.3-0.6,0.7-0.8,1.1l-2.7,6.5l-2.6-6.5c-0.4-0.9-1.1-2-3.8-2c-1,0-1.9,0.3-2.7,0.9c-0.4,0.3-0.8,0.7-1.1,1
		c-0.3-1.1-1.1-1.6-2.4-1.6c-0.1,0-0.2,0-0.3,0c-0.7,0.1-1.2,0.3-1.6,0.7c-0.1,0.1-0.2,0.2-0.3,0.3c-0.3,0.4-0.4,0.8-0.4,1.3V71
		c0,0.3,0.1,0.7,0.1,0.9c0.1,0.4,0.3,0.7,0.6,1c0.3,0.3,0.7,0.5,1.1,0.6c0.3,0.1,0.5,0.1,0.8,0.1c0.7,0,1.3-0.2,1.9-0.7
		c0.5-0.5,0.8-1.1,0.8-1.9v-5c0-0.7,0.1-1.3,0.3-1.8c0.2-0.5,0.5-0.9,0.8-1.2c0.3-0.3,0.7-0.5,1.1-0.7c0.1-0.1,0.3-0.1,0.5-0.1
		l4.4,9.5c0.3,0.6,0.6,1,1,1.3c0.4,0.3,0.9,0.5,1.6,0.5c0.7,0,1.2-0.2,1.6-0.5c0.4-0.3,0.7-0.7,1-1.3l4.1-8.6l0.9-1.9
		C146.9,60.9,146.9,60.5,146.9,60.1z M145.9,61l-0.2,0.5l-4.7,10c-0.2,0.5-0.5,0.8-0.8,1c-0.3,0.2-0.6,0.3-1.1,0.3
		c-0.5,0-0.8-0.1-1.1-0.3c-0.3-0.2-0.5-0.6-0.8-1.1l-4.6-10.1l-0.3,0c-0.3,0-0.6,0.1-0.9,0.2c-0.5,0.2-1,0.5-1.4,0.8
		c-0.4,0.4-0.8,0.9-1,1.5c-0.3,0.6-0.4,1.3-0.4,2.1v5c0,0.6-0.2,1-0.5,1.3c-0.4,0.3-0.8,0.5-1.3,0.5c-0.2,0-0.4,0-0.6-0.1
		c-0.3-0.1-0.5-0.2-0.7-0.4c-0.3-0.3-0.5-0.7-0.5-1.3V59.9c0-0.4,0.1-0.8,0.4-1.1c0.3-0.3,0.6-0.4,1.1-0.5c0.1,0,0.1,0,0.2,0
		c1.2,0,1.7,0.5,1.7,1.6v0.4l0.8,0.2c0.3-0.7,0.9-1.3,1.5-1.8c0.7-0.5,1.4-0.7,2.2-0.7c2.1,0,2.7,0.7,3,1.5l3.4,8.4l3.4-8.4
		c0.1-0.3,0.3-0.6,0.6-0.9c0.2-0.2,0.5-0.3,0.9-0.3c0.6,0,1.1,0.1,1.5,0.4c0,0,0.1,0,0.1,0.1c0.4,0.3,0.5,0.8,0.5,1.4
		C146.1,60.4,146.1,60.7,145.9,61z"/>
	<path fill="#FFFFFF" d="M159.9,59.3c-0.6-0.7-1.4-1.2-2.3-1.6c-0.9-0.4-1.9-0.6-3.1-0.6c-1.1,0-2.2,0.2-3.2,0.7
		c-1,0.5-1.8,1.1-2.5,1.8c-0.4,0.5-0.8,0.9-1.1,1.5c-0.2,0.4-0.4,0.8-0.6,1.2c-0.4,1-0.6,2.1-0.6,3.3c0,1.2,0.2,2.3,0.6,3.3
		c0.1,0.3,0.3,0.7,0.5,1c0.3,0.6,0.7,1.2,1.2,1.7c0.7,0.7,1.6,1.3,2.5,1.7c1,0.4,2.1,0.6,3.2,0.6c1.3,0,2.4-0.2,3.3-0.5
		c0.9-0.3,1.7-0.7,2.3-1.2c0.3-0.2,0.5-0.5,0.7-0.8c0.2-0.4,0.4-0.8,0.4-1.3c0-0.6-0.2-1.2-0.7-1.7c-0.4-0.5-1-0.8-1.7-0.8
		c-0.3,0-0.7,0.1-1.1,0.3c-0.1,0-0.2,0.1-0.4,0.2c-0.2,0.1-0.4,0.2-0.6,0.3c-0.3,0.1-0.5,0.2-0.8,0.3c-0.3,0.1-0.6,0.1-0.9,0.1
		c-0.7,0-1.3-0.2-1.9-0.6c-0.4-0.3-0.7-0.7-0.9-1.2h7.6c0.9,0,1.5-0.3,1.9-0.9c0.3-0.5,0.4-1.2,0.4-1.9c0-0.9-0.2-1.8-0.5-2.7
		C161,60.8,160.5,60,159.9,59.3z M160.8,65.9c-0.1,0.1-0.2,0.5-1.1,0.5H151l0.1,0.5c0.2,1,0.7,1.7,1.4,2.2c0.7,0.5,1.5,0.7,2.4,0.7
		c0.4,0,0.8-0.1,1.2-0.1c0.3-0.1,0.7-0.2,0.9-0.3c0.3-0.1,0.5-0.3,0.7-0.4c0.2-0.1,0.3-0.2,0.4-0.2c0.4-0.2,0.6-0.2,0.8-0.2
		c0.5,0,0.8,0.2,1.1,0.5c0.3,0.3,0.5,0.7,0.5,1.1c0,0.3-0.1,0.6-0.2,0.8c-0.2,0.3-0.4,0.5-0.6,0.6c-0.5,0.4-1.2,0.8-2.1,1.1
		c-0.8,0.3-1.9,0.5-3,0.5c-1.1,0-2-0.2-2.9-0.5c-0.9-0.4-1.6-0.9-2.3-1.5c-0.6-0.7-1.1-1.5-1.5-2.4c-0.1-0.2-0.1-0.3-0.2-0.5
		c-0.2-0.8-0.3-1.6-0.3-2.5c0-0.9,0.1-1.8,0.4-2.6c0-0.1,0.1-0.2,0.1-0.3c0.4-0.9,0.9-1.7,1.5-2.4c0.6-0.7,1.4-1.2,2.3-1.6
		c0.9-0.4,1.8-0.6,2.9-0.6c1,0,1.9,0.2,2.7,0.5c0.8,0.3,1.5,0.8,2.1,1.4c0.6,0.6,1,1.3,1.3,2c0.3,0.8,0.5,1.5,0.5,2.3
		C161.1,64.9,161,65.5,160.8,65.9z"/>
	<path fill="#FFFFFF" d="M156.8,62.2c-0.3-0.3-0.6-0.5-0.9-0.7c-0.4-0.2-0.8-0.3-1.3-0.3c-0.9,0-1.6,0.3-2.2,0.7
		c-0.6,0.5-1,1.2-1.2,2.1l-0.1,0.5h6.5v-0.4c0-0.3-0.1-0.7-0.2-1C157.2,62.8,157,62.5,156.8,62.2z M152.1,63.8
		c0.2-0.5,0.4-0.9,0.7-1.1c0.4-0.4,1-0.5,1.7-0.5c0.4,0,0.7,0.1,1,0.2c0.3,0.1,0.5,0.3,0.7,0.5c0.2,0.2,0.3,0.4,0.4,0.7
		c0,0.1,0.1,0.2,0.1,0.3L152.1,63.8L152.1,63.8z"/>
	<path fill="#FFFFFF" d="M163.6,54c-1.7,0-3.1,1.3-3.1,3.1c0,1.7,1.3,3.1,3.1,3.1c1.7,0,3.1-1.3,3.1-3.1C166.6,55.4,165.3,54,163.6,54z
		 M163.6,59.6c-1.4,0-2.5-1.1-2.5-2.5c0-1.4,1.1-2.5,2.5-2.5s2.5,1.1,2.5,2.5C166.1,58.4,165,59.6,163.6,59.6z"/>
	<path fill="#FFFFFF" d="M164.7,56.4c0-0.6-0.5-0.9-1-0.9h-1.1v3.3h0.5v-1.4h0.4l0.8,1.4h0.6l-0.9-1.4C164.3,57.2,164.7,57,164.7,56.4z
		 M163.1,56.9v-1.1h0.4c0.3,0,0.7,0.1,0.7,0.5c0,0.4-0.3,0.5-0.7,0.5H163.1z"/>
</g>
</svg>
