<?xml version="1.0" encoding="utf-8"?>
<!-- Generator: Adobe Illustrator 23.1.1, SVG Export Plug-In . SVG Version: 6.00 Build 0)  -->
<svg version="1.1" id="Layer_1" xmlns="http://www.w3.org/2000/svg" xmlns:xlink="http://www.w3.org/1999/xlink" x="0px" y="0px"
	 viewBox="0 0 53 53" style="enable-background:new 0 0 53 53;" xml:space="preserve">
<g fill="currentColor">
	<path class="st1" d="M19.4,18.6c0-2.9-2.4-5.3-5.3-5.3c-2.9,0-5.3,2.4-5.3,5.3s2.4,5.3,5.3,5.3S19.4,21.5,19.4,18.6z M10.6,18.6
		c0-2,1.6-3.5,3.5-3.5s3.5,1.6,3.5,3.5s-1.6,3.5-3.5,3.5S10.6,20.5,10.6,18.6z"/>
	<path class="st1" d="M50.4,15.7c-0.3-0.1-0.6,0-0.8,0.2c-2.2,2-5.5,1.8-7.5-0.4c-0.8-0.8-1.2-1.9-1.3-3c0-0.5-0.5-0.8-1-0.8
		c-0.1,0-0.2,0-0.3,0.1c-0.7,0.4-1.5,0.5-2.4,0.5c-2.9,0-5.3-2.4-5.3-5.3c0-1.8,0.9-3.4,2.4-4.4c0.3-0.2,0.4-0.5,0.4-0.9
		c-0.1-0.3-0.3-0.6-0.6-0.7C19.9-3,5.2,5,1.1,19.1c-4.1,14,3.9,28.8,18,32.9c14,4.1,28.8-3.9,32.9-18c1.7-5.8,1.4-12.1-1-17.7
		C50.8,16,50.6,15.8,50.4,15.7z M26.5,51.2c-13.7,0-24.7-11-24.8-24.7c0-13.7,11-24.7,24.7-24.8c1.8,0,3.6,0.2,5.4,0.6
		c-2.6,2.9-2.4,7.4,0.5,10c1.3,1.2,3,1.8,4.8,1.8c0.7,0,1.3-0.1,2-0.3c1,3.8,4.9,6,8.7,5c0.7-0.2,1.3-0.5,1.9-0.9
		c4.7,12.8-1.9,27-14.7,31.7C32.3,50.7,29.4,51.2,26.5,51.2z"/>
	<path class="st1" d="M38,32.7c-2.9,0-5.3,2.4-5.3,5.3s2.4,5.3,5.3,5.3c2.9,0,5.3-2.4,5.3-5.3S40.9,32.7,38,32.7z M38,41.5
		c-2,0-3.5-1.6-3.5-3.5s1.6-3.5,3.5-3.5c2,0,3.5,1.6,3.5,3.5S39.9,41.5,38,41.5z"/>
	<path class="st1" d="M23.9,38c0-1.5-1.2-2.6-2.6-2.6h-7.1c-1.5,0-2.6,1.2-2.6,2.6c0,1.5,1.2,2.6,2.6,2.6h7.1
		C22.7,40.6,23.9,39.4,23.9,38z M21.2,38.9h-7.1c-0.5,0-0.9-0.4-0.9-0.9c0-0.5,0.4-0.9,0.9-0.9h7.1c0.5,0,0.9,0.4,0.9,0.9
		C22.1,38.5,21.7,38.9,21.2,38.9z"/>
	<path class="st1" d="M38.7,22.6c1.1-1.1,1.1-2.8,0-3.8c-1.1-1.1-2.8-1.1-3.8,0l-4.9,4.9c-1.1,1.1-1.1,2.8,0,3.8
		c1.1,1.1,2.8,1.1,3.8,0L38.7,22.6z M31.2,26.2c-0.4-0.4-0.4-1,0-1.3l4.9-4.9c0.4-0.4,1-0.4,1.3,0c0.4,0.4,0.4,1,0,1.3l-4.9,4.9
		C32.2,26.6,31.6,26.6,31.2,26.2z"/>
	<path class="st1" d="M23,31.8c1.5,0,2.6-1.2,2.6-2.6c0-1.5-1.2-2.6-2.6-2.6s-2.6,1.2-2.6,2.6C20.3,30.6,21.5,31.8,23,31.8z
			M23,28.3c0.5,0,0.9,0.4,0.9,0.9c0,0.5-0.4,0.9-0.9,0.9s-0.9-0.4-0.9-0.9C22.1,28.7,22.5,28.3,23,28.3z"/>
	<path class="st1" d="M43.9,25.9c-0.3-0.3-0.9-0.3-1.3,0c-0.3,0.3-0.3,0.9,0,1.3l3.5,3.5c0.3,0.3,0.9,0.3,1.2,0c0,0,0,0,0,0
		c0.3-0.3,0.3-0.9,0-1.2c0,0,0,0,0,0L43.9,25.9z"/>
	<path class="st1" d="M27.8,44.3l-4.4,2.6c-0.4,0.2-0.6,0.8-0.3,1.2c0.2,0.3,0.4,0.4,0.8,0.4c0.2,0,0.3,0,0.5-0.1l4.4-2.6
		c0.4-0.2,0.6-0.7,0.4-1.2C29,44.2,28.4,44,28,44.2C27.9,44.2,27.9,44.3,27.8,44.3L27.8,44.3z"/>
	<path class="st1" d="M25.7,15.5c0.2,0.3,0.4,0.4,0.8,0.4c0.2,0,0.3,0,0.5-0.1c0.4-0.2,0.6-0.8,0.3-1.2l-2.6-4.4
		c-0.2-0.4-0.7-0.6-1.2-0.4c-0.4,0.2-0.6,0.7-0.4,1.2c0,0.1,0.1,0.1,0.1,0.2L25.7,15.5z"/>
</g>
</svg>
