<?xml version="1.0" encoding="utf-8"?>
<!-- Generator: Adobe Illustrator 24.3.0, SVG Export Plug-In . SVG Version: 6.00 Build 0)  -->
<svg version="1.1" id="Layer_1" xmlns="http://www.w3.org/2000/svg" xmlns:xlink="http://www.w3.org/1999/xlink" x="0px" y="0px"
	 viewBox="0 0 87 89" style="enable-background:new 0 0 87 89;" xml:space="preserve">
<g fill="currentColor">
	<path class="st0" d="M27.3,53.3V26.7h-5.7v-5.1h12.9v31.7H27.3z"/>
	<path class="st0" d="M51.9,53.8c-6.3,0-10.2-2.9-11.7-5.2l3.4-4.4c1.7,2.4,5.1,3.8,7.8,3.8c2.7,0,6-1.6,6-5.4c0-3.8-3.1-5.3-6-5.3
		c-2.1,0-4.4,0.6-5.8,1.7L42.4,37l2.4-15.5h18.6v5.7H50.2l-0.9,5.7c1-0.4,2.2-0.7,4.2-0.7c4.8,0,11.1,3,11.1,10.4
		C64.6,50.1,58.2,53.8,51.9,53.8z"/>
	<path class="st0" d="M7.6,28.9l-0.5,1.2l-6.2-0.4l0.6-1.3l4.2,0.4l-3.1-2.9l0.6-1.3L7.6,28.9z"/>
	<path class="st0" d="M10,24.4l-4.8-3.3L7.3,18l0.9,0.6l-1.4,2l1,0.7l1.3-1.9L10,20l-1.3,1.9l1.1,0.8l1.4-2l0.9,0.6L10,24.4z"/>
	<path class="st0" d="M16.4,16.6L14,15.9l-0.3,0.3l1.6,1.6l-1,1l-4.1-4.1l1.5-1.5c0.8-0.8,1.9-1.2,2.8-0.3c0.8,0.8,0.6,1.6,0.4,2
		l2.7,0.7L16.4,16.6z M12.3,14l-0.4,0.4l1.1,1.1l0.4-0.4c0.4-0.4,0.6-0.8,0.2-1.2C13.1,13.4,12.6,13.7,12.3,14z"/>
	<path class="st0" d="M19.6,13.9L19,13.1l0.3-4.7L17,9.9L16.4,9l3.8-2.5l0.5,0.8L20.4,12l2.5-1.7l0.6,0.9L19.6,13.9z"/>
	<path class="st0" d="M26.3,9.8l-2.4-5.3L25.1,4l2.4,5.3L26.3,9.8z"/>
	<path class="st0" d="M34.5,6.9l-3.5-3.2c0,0,0.2,0.7,0.4,1.3l0.7,2.5l-1.3,0.3l-1.5-5.6l1.4-0.4L34.2,5c0,0-0.2-0.6-0.3-1.2
		l-0.7-2.5l1.3-0.3l1.5,5.6L34.5,6.9z"/>
	<path class="st0" d="M42.6,5.9L41,3.5l-0.4,0.5L40.7,6l-1.4,0.1l-0.3-5.8l1.4-0.1l0.1,2.1l1.7-2.2L43.8,0l-1.9,2.4l2.4,3.4
		L42.6,5.9z"/>
	<path class="st0" d="M50,1.7l-0.6,4.7l-1.4-0.2l0.6-4.7l-1.5-0.2l0.1-1.1l4.3,0.6l-0.1,1.1L50,1.7z"/>
	<path class="st0" d="M59.3,9.4c-0.8-0.3-1.3-1-1.5-1.6l1-0.6c0.2,0.6,0.7,1.1,1.1,1.3c0.4,0.2,0.8,0.1,1-0.2
		c0.2-0.4-0.2-0.7-0.4-0.9c-0.2-0.2-0.5-0.5-0.7-0.7c-0.1-0.1-0.3-0.3-0.5-0.7c-0.1-0.3-0.2-0.7,0-1.2c0.2-0.5,0.7-0.8,1.1-0.9
		c0.4-0.1,1-0.1,1.6,0.2c0.6,0.3,1.2,0.9,1.4,1.4l-0.9,0.6C62.4,5.6,62,5.2,61.6,5c-0.4-0.2-0.8-0.2-0.9,0.2C60.5,5.5,60.8,5.7,61,6
		c0.2,0.2,0.5,0.5,0.7,0.7c0.6,0.5,0.8,1.2,0.5,2C61.6,9.7,60.3,9.8,59.3,9.4z"/>
	<path class="st0" d="M68.7,9.1L66.1,13l-1.1-0.8l2.7-3.9l-1.2-0.8l0.6-0.9l3.6,2.4L70,9.9L68.7,9.1z"/>
	<path class="st0" d="M71.9,18l0.5-1.1l-1.5-1.4L69.8,16l-1-1l5.6-2.7l1,1L72.9,19L71.9,18z M73.8,13.9l-2,1l1,1L73.8,13.9z"/>
	<path class="st0" d="M76.9,24.4l0.7-1l-1.2-1.7L75.2,22l-0.8-1.2l6.1-1.5l0.8,1.2l-3.6,5.1L76.9,24.4z M79.6,20.8l-2.1,0.6l0.8,1.2
		L79.6,20.8z"/>
	<path class="st0" d="M79,28.3l5.3-2.3l0.5,1.3l-4.3,1.9l0.8,1.9l-1,0.5L79,28.3z"/>
	<path class="st0" d="M0.8,54.9c-0.1-0.5,0-1,0.2-1.3l0.7,0.3c-0.2,0.3-0.3,0.7-0.2,1c0.1,0.3,0.2,0.4,0.5,0.4
		c0.2-0.1,0.3-0.3,0.3-0.5c0-0.2,0.1-0.4,0.1-0.6c0-0.1,0-0.3,0.2-0.5c0.1-0.2,0.3-0.3,0.6-0.4c0.3-0.1,0.6,0,0.8,0.2
		c0.2,0.2,0.4,0.4,0.5,0.8c0.1,0.4,0,0.9-0.2,1.2l-0.6-0.2c0.2-0.2,0.2-0.6,0.2-0.8c-0.1-0.3-0.2-0.4-0.4-0.4
		c-0.2,0.1-0.2,0.3-0.3,0.4C3,54.7,3,54.9,3,55.1c-0.1,0.5-0.3,0.8-0.8,0.9C1.4,56.2,0.9,55.6,0.8,54.9z"/>
	<path class="st0" d="M4.7,58.2L2,59l-0.3-0.8l2.7-0.9l-0.3-0.9l0.6-0.2l0.8,2.5L5,59L4.7,58.2z"/>
	<path class="st0" d="M3.5,62.9l0.9-1.2l-0.1-0.2L3.1,62l-0.3-0.8L6,59.9L6.5,61c0.3,0.6,0.3,1.3-0.5,1.6c-0.6,0.3-1,0-1.2-0.2
		l-1,1.4L3.5,62.9z M5.8,61.2l-0.1-0.3l-0.8,0.3L5,61.5c0.1,0.3,0.3,0.5,0.7,0.4C6,61.7,6,61.4,5.8,61.2z"/>
	<path class="st0" d="M6,67.1c-0.3-0.1-0.7-0.3-0.9-0.8c-0.3-0.4-0.3-0.8-0.2-1.2c0.1-0.3,0.4-0.6,0.8-0.8l1.8-1L7.9,64l-1.8,1
		c-0.2,0.1-0.4,0.2-0.4,0.4c-0.1,0.2-0.1,0.3,0.1,0.5c0.1,0.2,0.3,0.3,0.4,0.3c0.2,0,0.4,0,0.6-0.2l1.8-1l0.4,0.7l-1.8,1
		C6.7,67.1,6.4,67.2,6,67.1z"/>
	<path class="st0" d="M7.7,70.4c-0.6-0.8-0.5-1.9,0.4-2.5c0.9-0.6,1.9-0.4,2.5,0.5C11,69,11,69.5,11,69.6l-0.7,0.2
		c0-0.1,0-0.6-0.2-0.9c-0.3-0.5-0.9-0.6-1.5-0.2C8,69,8,69.6,8.3,70.1c0.3,0.4,0.6,0.5,0.8,0.6l-0.4,0.6C8.5,71.2,8.1,71,7.7,70.4z"
		/>
	<path class="st0" d="M12.5,71.9l-2.2,1.8l-0.5-0.6l2.2-1.8l-0.6-0.7l0.5-0.4l1.7,2l-0.5,0.4L12.5,71.9z"/>
	<path class="st0" d="M13.9,77c-0.4,0-0.7-0.1-1.1-0.5c-0.4-0.4-0.5-0.7-0.5-1.1c0-0.4,0.2-0.7,0.5-1l1.4-1.5l0.6,0.6L13.4,75
		c-0.2,0.2-0.3,0.3-0.3,0.5c0,0.2,0,0.3,0.2,0.5c0.2,0.2,0.3,0.2,0.5,0.2c0.2,0,0.3-0.1,0.5-0.3l1.4-1.5l0.6,0.6l-1.4,1.5
		C14.6,76.8,14.3,77,13.9,77z"/>
	<path class="st0" d="M16.7,79.8l0.3-1.5l-0.2-0.2l-0.8,1l-0.6-0.5l2.2-2.7l1,0.8c0.5,0.4,0.8,1,0.4,1.6c-0.4,0.5-0.9,0.5-1.2,0.4
		l-0.2,1.7L16.7,79.8z M17.9,77.2l-0.3-0.2l-0.6,0.7l0.3,0.2c0.2,0.2,0.5,0.3,0.8,0C18.3,77.6,18.2,77.3,17.9,77.2z"/>
	<path class="st0" d="M18.6,81.2l1.9-2.9l1.9,1.3L22,80.1l-1.2-0.8l-0.4,0.6l1.1,0.8l-0.4,0.5l-1.1-0.8l-0.4,0.7l1.3,0.8l-0.4,0.6
		L18.6,81.2z"/>
	<path class="st0" d="M21.9,83.3l1.7-3.1l0.7,0.4l-1.3,2.5l1.1,0.6l-0.3,0.6L21.9,83.3z"/>
	<path class="st0" d="M24.9,84.9l1.4-3.2l2.1,0.9l-0.3,0.6l-1.3-0.6l-0.3,0.7l1.3,0.5l-0.3,0.6l-1.3-0.5l-0.3,0.7l1.4,0.6L27,85.8
		L24.9,84.9z"/>
	<path class="st0" d="M30.3,87l1-3.3l0.8,0.2l-1,3.3L30.3,87z"/>
	<path class="st0" d="M35,88.2l-1-2.6c0,0-0.1,0.4-0.2,0.8l-0.3,1.5l-0.8-0.2l0.7-3.4l0.9,0.2l1,2.6c0,0,0.1-0.4,0.1-0.8l0.3-1.5
		l0.8,0.2l-0.7,3.4L35,88.2z"/>
	<path class="st0" d="M39.4,85.9L39,88.8l-0.8-0.1l0.3-2.8l-0.9-0.1l0.1-0.6l2.6,0.3L40.2,86L39.4,85.9z"/>
	<path class="st0" d="M41.4,88.9l0.1-3.5l2.3,0.1l0,0.7l-1.4,0l0,0.7l1.4,0l0,0.7l-1.4,0l0,0.8l1.5,0l0,0.7L41.4,88.9z"/>
	<path class="st0" d="M46.9,88.9c-1,0.1-1.9-0.5-1.9-1.7c-0.1-1.2,0.7-1.9,1.7-1.9c0.9-0.1,1.4,0.4,1.5,0.5l-0.5,0.5
		c-0.2-0.2-0.4-0.4-0.9-0.3c-0.6,0-1,0.5-0.9,1.2c0.1,0.7,0.5,1.1,1.1,1c0.6,0,0.7-0.3,0.7-0.3l0-0.5l-0.7,0.1l0-0.6l1.5-0.1
		l0.1,1.4C48.3,88.3,47.9,88.8,46.9,88.9z"/>
	<path class="st0" d="M51.9,88.1l-1-1.2l-0.3,0l0.2,1.3l-0.8,0.2L49.5,85l1.2-0.2c0.7-0.1,1.3,0,1.5,0.8c0.1,0.7-0.3,1-0.5,1.1
		l1.1,1.3L51.9,88.1z M50.7,85.5l-0.3,0.1l0.2,0.9l0.3-0.1c0.3-0.1,0.6-0.2,0.5-0.6C51.3,85.4,51,85.4,50.7,85.5z"/>
	<path class="st0" d="M54.1,87.6l-0.9-3.4l0.8-0.2l0.9,3.4L54.1,87.6z"/>
	<path class="st0" d="M57,83.8l0.9,2.7l-0.8,0.3l-0.9-2.7l-0.9,0.3l-0.2-0.6l2.5-0.8l0.2,0.6L57,83.8z"/>
	<path class="st0" d="M60.1,85.7l-1.4-3.2l2.1-0.9l0.3,0.6l-1.3,0.6l0.3,0.7l1.3-0.6l0.3,0.6L60.2,84l0.3,0.7l1.4-0.6l0.3,0.6
		L60.1,85.7z"/>
	<path class="st0" d="M63.6,84.1L61.9,81l0.7-0.4l1.6,3.1L63.6,84.1z"/>
	<path class="st0" d="M65.5,79.7l1.5,2.4l-0.7,0.4l-1.5-2.4L64,80.6l-0.3-0.5l2.2-1.4l0.3,0.5L65.5,79.7z"/>
	<path class="st0" d="M71.8,78.6c-0.7,0.6-1.8,0.7-2.5-0.2c-0.8-0.9-0.5-1.9,0.2-2.5c0.7-0.6,1.3-0.5,1.5-0.5l-0.1,0.7
		c-0.2,0-0.6,0-0.9,0.3c-0.4,0.4-0.5,1,0,1.5c0.5,0.5,1.1,0.6,1.5,0.2c0.4-0.4,0.4-0.6,0.4-0.6L71.4,77l-0.6,0.5L70.5,77l1.2-1
		l0.9,1.1C72.5,77.4,72.5,78,71.8,78.6z"/>
	<path class="st0" d="M75.6,74.8l-0.7-0.3l-0.9,0.9l0.3,0.7l-0.6,0.6l-1.6-3.4l0.6-0.6l3.4,1.5L75.6,74.8z M73.2,73.6l0.6,1.2
		l0.6-0.6L73.2,73.6z"/>
	<path class="st0" d="M78.3,71.6l-1.5-0.2l-0.2,0.2l1.1,0.8l-0.5,0.6l-2.8-2.1l0.8-1c0.4-0.5,1-0.9,1.6-0.4c0.5,0.4,0.5,0.9,0.4,1.2
		l1.7,0.2L78.3,71.6z M75.6,70.4l-0.2,0.3l0.7,0.5l0.2-0.3c0.2-0.2,0.3-0.5,0-0.8C76,70,75.8,70.2,75.6,70.4z"/>
	<path class="st0" d="M80.9,67.8l-0.7-0.2l-0.7,1.1l0.5,0.6L79.5,70l-2.3-3l0.5-0.7l3.7,0.7L80.9,67.8z M78.2,67.1l0.8,1l0.5-0.7
		L78.2,67.1z"/>
	<path class="st0" d="M83.1,63.7L80.3,64c0,0,0.4,0.2,0.7,0.3l1.4,0.7l-0.3,0.7l-3.1-1.5l0.4-0.8l2.8-0.3c0,0-0.4-0.2-0.7-0.3
		l-1.4-0.7l0.3-0.7l3.1,1.5L83.1,63.7z"/>
	<path class="st0" d="M81.9,58.9l2.7,1l-0.3,0.8l-2.7-1l-0.3,0.8l-0.6-0.2l0.9-2.5l0.6,0.2L81.9,58.9z"/>
	<path class="st0" d="M85.3,57.8l-3.4-1l0.2-0.8l3.4,1L85.3,57.8z"/>
	<path class="st0" d="M86,55.4l-3.4-0.7l0.5-2.2l0.6,0.1L83.3,54l0.7,0.1l0.3-1.3l0.6,0.1l-0.3,1.3l0.8,0.2l0.3-1.5l0.7,0.1L86,55.4
		z"/>
	<path class="st0" d="M85.5,43.2c0.6,0,1-0.5,1-1c0-0.6-0.5-1-1-1c-0.6,0-1,0.5-1,1C84.5,42.8,84.9,43.2,85.5,43.2z"/>
	<path class="st0" d="M1.5,43.2c0.6,0,1-0.5,1-1c0-0.6-0.5-1-1-1c-0.6,0-1,0.5-1,1C0.5,42.8,1,43.2,1.5,43.2z"/>
	<path class="st0" d="M24.2,75.3c-0.8,0-1.6-0.2-1.7-0.3l0.1-2c0.2,0.1,0.5,0.2,0.9,0.2c0.7,0,0.8-0.5,0.8-1.3V60.6H27v11.3
		C27,73.8,26.3,75.3,24.2,75.3z"/>
	<path class="st0" d="M37.5,72.1l-0.8-2.3h-4.1l-0.8,2.3H29l4.3-11.6h2.8l4.3,11.6H37.5z M34.6,63.5l-1.4,4.1h2.9L34.6,63.5z"/>
	<path class="st0" d="M49.9,72.1l-0.8-2.3H45l-0.8,2.3h-2.8l4.3-11.6h2.8l4.3,11.6H49.9z M47,63.5l-1.4,4.1h2.9L47,63.5z"/>
	<path class="st0" d="M60.8,72.1l-2.4-4.4h-0.8v4.4h-2.7V60.6H59c2.2,0,4.3,0.9,4.3,3.5c0,2.2-1.4,3-2.3,3.3l2.9,4.8L60.8,72.1
		L60.8,72.1z M58.6,62.7h-1.1v3h1.1c1,0,2-0.3,2-1.5C60.6,62.9,59.6,62.7,58.6,62.7z"/>
</g>
</svg>
