<?xml version="1.0" encoding="utf-8"?>
<!-- Generator: Adobe Illustrator 24.3.0, SVG Export Plug-In . SVG Version: 6.00 Build 0)  -->
<svg version="1.1" id="Layer_1" xmlns="http://www.w3.org/2000/svg" xmlns:xlink="http://www.w3.org/1999/xlink" x="0px" y="0px"
	 viewBox="0 0 87 89" style="enable-background:new 0 0 87 89;" xml:space="preserve">
<g fill="currentColor">
	<path class="st0" d="M2.5,55.5C2.2,55.3,2,55,2,54.6c-0.1-0.5,0-1,0.3-1.4l0.7,0.3c-0.2,0.3-0.3,0.7-0.2,1.1
		C2.7,54.8,2.9,55,3.2,55s0.3-0.4,0.3-0.5s0-0.5,0.1-0.6c0-0.2,0.1-0.3,0.2-0.5c0.1-0.2,0.4-0.4,0.6-0.4c0.3-0.1,0.6,0,0.9,0.2
		c0.3,0.2,0.4,0.5,0.5,0.9c0.1,0.4,0,0.9-0.2,1.2L4.9,55c0.2-0.3,0.2-0.6,0.2-0.9c-0.1-0.3-0.2-0.5-0.4-0.4c-0.2,0-0.3,0.3-0.3,0.5
		c0,0.2-0.1,0.5-0.1,0.6c0,0.2-0.1,0.4-0.2,0.6c-0.1,0.2-0.4,0.4-0.6,0.4C3.1,55.8,2.7,55.7,2.5,55.5"/>
	<path class="st0" d="M6.4,58.8l-0.3-0.9l-2.9,0.9L2.9,58l3-0.9l-0.3-0.9l0.7-0.2L7,58.6L6.4,58.8z"/>
	<path class="st0" d="M7.3,61.4c0-0.2,0-0.3-0.1-0.5l-0.1-0.3L6.2,61l0.1,0.3c0.1,0.2,0.1,0.3,0.3,0.4c0.1,0.1,0.3,0.1,0.4,0
		C7.2,61.6,7.3,61.5,7.3,61.4 M5.1,63.7l-0.4-0.9l1-1.3l-0.1-0.2l-1.3,0.6L3.9,61l3.5-1.5l0.5,1.2c0.2,0.3,0.2,0.7,0.1,1
		c-0.2,0.6-0.8,0.9-1.4,0.8c-0.2-0.1-0.4-0.2-0.5-0.3L5.1,63.7z M8.6,66.8c-0.3,0.2-0.8,0.3-1.2,0.3c-0.9-0.3-1.3-1.2-1.2-2.1
		c0.1-0.4,0.4-0.7,0.8-0.8l1.9-1.1l0.4,0.8l-1.9,1.1C7.3,65,7.1,65.1,7,65.3c-0.1,0.4,0.1,0.8,0.5,0.9c0,0,0,0,0,0l0,0
		c0.3,0.1,0.5,0,0.7-0.2l1.9-1.1l0.4,0.7L8.6,66.8z M10.3,71.3c-0.5-0.1-0.9-0.4-1.2-0.8c-0.8-0.7-0.9-1.9-0.2-2.7
		c0.7-0.8,1.9-0.9,2.7-0.2c0.2,0.1,0.3,0.3,0.4,0.5l0.1,0.2c0.3,0.4,0.4,0.8,0.4,1.3l-0.7,0.2c0.1-0.4,0-0.7-0.2-1
		c-0.5-0.5-1.2-0.5-1.7,0c-0.4,0.4-0.4,0.9-0.2,1.3c0.2,0.3,0.5,0.5,0.9,0.6L10.3,71.3z"/>
	<path class="st0" d="M14.7,72.6l-0.6-0.7l-2.3,2l-0.6-0.7l2.3-2l-0.7-0.7l0.5-0.5l1.8,2.1L14.7,72.6z"/>
	<path class="st0" d="M16.7,76.5c-0.3,0.3-0.6,0.6-1.1,0.6c-0.9-0.1-1.7-0.8-1.8-1.7c0-0.4,0.2-0.8,0.6-1.1l1.5-1.6l0.6,0.6L15,74.9
		c-0.2,0.1-0.3,0.3-0.3,0.5c0,0.4,0.3,0.7,0.7,0.7l0,0c0.2-0.1,0.4-0.2,0.5-0.4l1.5-1.5l0.6,0.6L16.7,76.5z M20,77.4
		c-0.1-0.1-0.2-0.3-0.3-0.4l-0.3-0.2l-0.6,0.8l0.3,0.2c0.1,0.1,0.3,0.2,0.4,0.2c0.2,0,0.3-0.1,0.4-0.2C20,77.7,20.1,77.6,20,77.4
		 M19.2,80.6l-0.8-0.6l0.3-1.6l-0.2-0.2l-0.9,1.2l-0.7-0.5l2.3-3l1.1,0.8c0.3,0.2,0.5,0.5,0.6,0.8c0.1,0.6-0.2,1.2-0.9,1.4
		c-0.2,0-0.4,0-0.6,0L19.2,80.6z"/>
	<path class="st0" d="M22.7,81.1l0.3-1.3l-1.1,0.9L22.7,81.1z M23.2,83.1l-0.8-0.5l0.2-0.8l-1.2-0.7l-0.6,0.5L20,81.1l3.2-2.5
		l0.8,0.5L23.2,83.1z M26.3,84.6l-1.9-1l1.7-3.4l0.8,0.4l-1.3,2.7l1.2,0.6L26.3,84.6z M29.3,85.8l1.3-3.5l0.8,0.3l-1.3,3.5
		L29.3,85.8z M35,87.5l-0.9-0.2l-1-2.9L33,85.2l-0.4,1.6l-0.8-0.2l1-3.6l0.9,0.2l0.9,2.8c0,0,0.1-0.4,0.2-0.8l0.4-1.7l0.8,0.2
		L35,87.5z M36.8,84.8l1,0.2l-0.5,3l0.9,0.1l0.5-3l1,0.2l0.1-0.7l-2.8-0.4L36.8,84.8z M40.5,88.3l2.5,0.2v-0.7l-1.6-0.1l0.1-0.9
		l1.5,0.1v-0.7l-1.5-0.1v-0.8l1.6,0.1v-0.7l-2.4-0.2L40.5,88.3z"/>
	<path class="st0" d="M47.9,87.8c-0.4,0.5-1,0.7-1.6,0.7c-1.1,0-1.9-0.9-1.9-2c0-1,0.8-1.8,1.7-1.9c0.6-0.1,1.2,0.2,1.6,0.6
		l-0.6,0.5c-0.3-0.3-0.6-0.4-1-0.4c-0.7,0-1.2,0.6-1.1,1.3c0,0.7,0.6,1.2,1.3,1.1c0.6,0,0.8-0.3,0.8-0.3v-0.5h-0.8v-0.7l1.6-0.1
		L47.9,87.8z M50.7,85c-0.1,0-0.3,0-0.5,0h-0.4l0.1,0.9h0.4c0.2,0,0.3-0.1,0.4-0.2c0.2-0.2,0.2-0.5,0-0.7L50.7,85 M52.5,87.8
		l-1.1,0.2l-1-1.3h-0.3l0.2,1.4l-0.9,0.1l-0.6-3.7l1.3-0.2c0.3-0.1,0.7,0,1,0.1c0.3,0.2,0.5,0.4,0.5,0.8c0.1,0.5-0.1,1-0.6,1.2
		L52.5,87.8z"/>
	<path class="st0" d="M52.8,83.8l0.9-0.2l0.8,3.7l-0.9,0.2L52.8,83.8z M57.5,83.2l-0.9,0.3l0.9,2.9l-0.8,0.3l-0.9-2.9l-0.9,0.3
		l-0.2-0.7l2.7-0.8L57.5,83.2z M61.1,81.1l-0.4,2.5l0.6,1.4l-0.8,0.3l-0.6-1.4l-2.1-1.6l0.9-0.4l1.3,1.1l0.1-1.7L61.1,81.1z"/>
	<path class="st0" d="M73.7,74.9l-1.3-0.6l0.6,1.3L73.7,74.9z M75.7,74.9L75,75.6l-0.7-0.4l-1,0.9l0.3,0.7L73,77.5l-1.6-3.6l0.7-0.6
		L75.7,74.9z M75.4,70.7c-0.2,0.1-0.3,0.2-0.4,0.3l-0.2,0.3l0.7,0.6l0.2-0.3c0.1-0.1,0.2-0.3,0.2-0.4c0-0.3-0.2-0.5-0.4-0.5
		L75.4,70.7 M78.5,71.6l-0.7,0.8l-1.6-0.3l-0.2,0.2l1.1,0.9l-0.6,0.7l-2.9-2.3l0.9-1c0.2-0.3,0.5-0.5,0.8-0.6c0.6-0.1,1.2,0.4,1.3,1
		c0,0.2,0,0.3,0,0.5L78.5,71.6z M79.2,68.1l-1.4-0.4l0.9,1.2L79.2,68.1z M81.2,67.8l-0.5,0.8l-0.8-0.2l-0.7,1.2l0.5,0.6l-0.5,0.8
		l-2.3-3.3l0.5-0.8L81.2,67.8z M83.4,63.6L83,64.4l-3,0.3c0,0,0.4,0.2,0.8,0.4l1.5,0.8l-0.4,0.8l-3.3-1.7L79,64l3-0.3l-0.7-0.4
		l-1.5-0.8l0.4-0.8L83.4,63.6z M82.2,58.7l-0.4,0.9l2.8,1.2l-0.3,0.8l-2.8-1.2l-0.4,0.9l-0.6-0.3l1-2.6L82.2,58.7z M86.1,56.2
		l-0.7,2.3l-3.6-1.1l0.7-2.3l0.7,0.2l-0.4,1.5l0.7,0.2l0.4-1.4l0.7,0.2l-0.4,1.4l0.8,0.2l0.5-1.5L86.1,56.2z M87,52.3l-0.5,2.4
		L82.8,54l0.5-2.3l0.7,0.1l-0.3,1.5l0.8,0.1l0.3-1.4l0.7,0.1l-0.3,1.4l0.9,0.2l0.3-1.6L87,52.3z M35.4,53.1h-7.1V26.9h-5.6v-5h12.7
		L35.4,53.1z M53.2,27.5c-4,0-5.7,4.3-5.7,9.9s1.7,10,5.7,10S59,43,59,37.4S57.2,27.5,53.2,27.5 M53.2,53.6
		c-9.1,0-12.9-7.9-12.9-16.1s3.8-16.1,12.9-16.1s12.9,7.9,12.9,16.1S62.3,53.6,53.2,53.6 M32.3,59.9l-3.9,6.7v4.6h-2.6v-4.6
		l-3.9-6.7h2.9l2.3,4.5l2.3-4.5H32.3z M41.7,71.2h-7.5V59.9h7.3V62h-4.7v2.3h4.4v2.1h-4.4v2.6h4.8L41.7,71.2z M50.2,66.9l-1.4-4.1
		l-1.4,4.1H50.2z M54.5,71.2h-2.9l-0.8-2.3h-4l-0.8,2.3h-2.7l4.2-11.3h2.8L54.5,71.2z M61.5,62.2c-0.4-0.2-0.9-0.3-1.4-0.3h-1.1v2.9
		h1.1c0.4,0,0.9,0,1.3-0.3c0.6-0.5,0.8-1.3,0.4-2C61.7,62.5,61.5,62.3,61.5,62.2 M65.3,71.2h-3.1l-2.3-4.3h-0.8v4.3h-2.7V59.9h4.1
		c1.1-0.1,2.1,0.2,3,0.8c0.8,0.6,1.3,1.6,1.2,2.6c0.1,1.5-0.8,2.8-2.2,3.2L65.3,71.2z M4.7,24.2L8,26.9l-4.2-0.7l-0.6,1.3l3.3,2.7
		l-4.2-0.7l-0.6,1.4L8,31.7l0.6-1.3l-3.4-2.8l4.3,0.7l0.6-1.3l-4.9-4.2L4.7,24.2z M14.3,20.9l-2.3,3.3l-5-3.6l2.3-3.2l0.9,0.7
		l-1.5,2.1l1,0.7l1.4-1.9l0.9,0.7l-1.4,1.9l1.2,0.8l1.5-2.1L14.3,20.9z M16.1,15.5L14,14.5l1,2.1L16.1,15.5z M19.4,15.5l-1.1,1.1
		l-1.2-0.6l-1.6,1.5l0.6,1.2L15,19.8l-2.7-6l1.1-1.1L19.4,15.5z M20.4,8.7l-1.3,0.9l3,4l-1.2,0.9l-2.9-4l-1.3,0.9L16,10.5l3.7-2.7
		L20.4,8.7z M29.5,9.5l-1.3,0.6L27,7.8l-2.2,1.1l1.2,2.3l-1.3,0.6L22,6.3l1.3-0.6l1.1,2.1l2.2-1.1l-1.1-2.1L26.8,4L29.5,9.5z
		 M35.3,7.6l-3.8,1.2l-1.8-5.9l3.8-1.2l0.3,1.2l-2.5,0.7l0.4,1.2L34.1,4l0.3,1.1l-2.3,0.7l0.4,1.4L35,6.5L35.3,7.6z M39.3,2
		c-0.2-0.1-0.5-0.1-0.7-0.1L38,2l0.2,1.6l0.6-0.1c0.3,0,0.5-0.1,0.7-0.3c0.2-0.2,0.3-0.4,0.2-0.7C39.7,2.4,39.5,2.1,39.3,2 M42,6.6
		l-1.7,0.2l-1.5-2.2l-0.4,0.1L38.7,7l-1.4,0.2l-0.8-6.1l2.2-0.3c0.6-0.1,1.1,0,1.7,0.2c0.5,0.3,0.8,0.8,0.9,1.3
		c0.2,0.8-0.2,1.6-1,1.9L42,6.6z M43.6,6.6l0.1-6.1h1.4l-0.1,6.1L43.6,6.6z"/>
	<path class="st0" d="M52.7,7.5l-1.5-0.2l-2.1-4.6c0,0-0.1,0.7-0.2,1.4l-0.4,2.8l-1.4-0.2l0.9-6l1.5,0.2l2,4.5c0,0,0.1-0.7,0.2-1.3
		l0.4-2.8l1.4,0.2L52.7,7.5z M60.4,9c-0.9,0.4-2,0.5-2.9,0.1c-1.6-0.5-2.5-2.2-2-3.8c0,0,0,0,0,0c0-0.1,0-0.2,0.1-0.3
		c0.5-1.6,2.2-2.5,3.8-2l0.3,0.1c0.9,0.3,1.7,1,2,1.9l-1.2,0.5c-0.2-0.6-0.7-1-1.2-1.2c-0.9-0.3-1.9,0.1-2.3,1c0,0,0,0,0,0
		c0,0.1,0,0.1,0,0.2c-0.4,0.9-0.1,2,0.8,2.4L58,8c0.9,0.3,1.3,0.1,1.3,0.1l0.3-0.9l-1.2-0.4l0.4-1l2.5,0.9L60.4,9z M67.4,13.8
		c-0.6,0-1.2-0.2-1.7-0.5c-0.7-0.5-1.1-1.2-1.3-2l1.2-0.5c0.1,0.6,0.5,1.2,1,1.6c0.4,0.3,0.8,0.3,1-0.1c0.2-0.3,0-0.7-0.2-1
		s-0.5-0.6-0.6-0.8c-0.2-0.2-0.3-0.5-0.4-0.8c-0.1-0.4,0-0.9,0.2-1.2C67,8.1,67.5,7.8,68,7.8c0.6,0,1.2,0.2,1.6,0.5
		c0.6,0.4,1,1,1.2,1.7l-1.1,0.5c-0.1-0.5-0.4-1-0.8-1.3c-0.4-0.3-0.8-0.3-1,0c-0.2,0.3,0,0.6,0.2,0.9l0.6,0.8
		c0.2,0.3,0.3,0.6,0.4,0.9c0.1,0.4,0,0.9-0.2,1.2C68.6,13.5,68,13.8,67.4,13.8"/>
	<path class="st0" d="M75.5,14.8l-1.2-1.1l-3.4,3.7l-1.1-1l3.4-3.7l-1.2-1.1l0.8-0.8l3.4,3.1L75.5,14.8z M75.7,22.8l-2.5-3.2
		l4.8-3.8l2.5,3.1l-0.9,0.7l-1.6-2l-1,0.8l1.5,1.9L77.6,21l-1.5-1.9l-1.2,0.9l1.6,2.1L75.7,22.8z M78.8,28l-2-3.5l5.3-3.1l1.9,3.5
		l-1,0.6l-1.3-2.2l-1.1,0.6l1.2,2.1l-1,0.6l-1.2-2.1l-1.2,0.7l1.3,2.3L78.8,28z M80.9,33.1l-1.3-3.3l5.7-2.2l0.5,1.3l-4.7,1.8l0.8,2
		L80.9,33.1z"/>
	<path class="st0" d="M2,42.1c0-0.5-0.4-1-1-1s-1,0.4-1,1s0.4,1,1,1c0,0,0,0,0,0l0,0C1.5,43.1,1.9,42.6,2,42.1C2,42.1,2,42.1,2,42.1
		 M87,42.1c0-0.5-0.4-1-0.9-1c0,0,0,0,0,0c-0.5,0-1,0.4-1,1c0,0.5,0.4,1,1,1c0,0,0,0,0,0l0,0C86.6,43.1,87,42.6,87,42.1
		C87,42.1,87,42.1,87,42.1"/>
	<path class="st0" d="M68.3,81.1c-0.1,0.6-0.5,1.1-1.1,1.4c-0.8,0.6-2,0.4-2.6-0.4c0,0,0,0,0,0c0,0-0.1-0.1-0.1-0.2
		c-0.5-1-0.2-2.2,0.8-2.7c0.5-0.3,1-0.3,1.5-0.2l-0.2,0.7c-0.3-0.1-0.7-0.1-1,0.1c-0.5,0.3-0.7,1-0.4,1.5l0.1,0.1
		c0.2,0.5,0.9,0.8,1.4,0.5c0,0,0.1,0,0.1-0.1c0.5-0.3,0.5-0.6,0.5-0.6l-0.3-0.5l-0.7,0.4l-0.4-0.6l1.4-0.9L68.3,81.1z M71.4,77.5
		c0.3,0.3,0.5,0.7,0.4,1.2c-0.2,0.9-1,1.5-1.9,1.5c-0.4-0.1-0.8-0.4-1-0.7l-1.3-1.7l0.7-0.5l1.3,1.7c0.1,0.2,0.3,0.3,0.5,0.4
		c0.4,0.1,0.8-0.2,0.8-0.6c0,0,0,0,0,0c0-0.2-0.1-0.4-0.3-0.6l-1.3-1.7l0.7-0.5L71.4,77.5z"/>
</g>
</svg>
