<?xml version="1.0" encoding="utf-8"?>
<!-- Generator: Adobe Illustrator 24.3.0, SVG Export Plug-In . SVG Version: 6.00 Build 0)  -->
<svg version="1.1" id="Layer_1" xmlns="http://www.w3.org/2000/svg" xmlns:xlink="http://www.w3.org/1999/xlink" x="0px" y="0px"
	 viewBox="0 0 87 89" style="enable-background:new 0 0 87 89;" xml:space="preserve">
<g fill="currentColor">
	<path class="st0" d="M27.6,52.5v-26H22v-5h12.6v31H27.6z"/>
	<path class="st0" d="M51.7,53c-6.2,0-10-2.8-11.4-5.1l3.3-4.3c1.7,2.4,4.9,3.7,7.6,3.7c2.6,0,5.8-1.5,5.8-5.3
		c0-3.7-3.1-5.2-5.8-5.2c-2,0-4.3,0.6-5.7,1.6l-3.1-1.9l2.4-15.1h18.1v5.6H50.1l-0.9,5.6c0.9-0.4,2.1-0.7,4.1-0.7
		c4.7,0,10.8,3,10.8,10.1C64.1,49.3,57.9,53,51.7,53z"/>
	<path class="st0" d="M84.5,44.9c0.5,0,1-0.4,1-1c0-0.5-0.4-1-1-1c-0.5,0-1,0.4-1,1C83.5,44.5,83.9,44.9,84.5,44.9z"/>
	<path class="st0" d="M2.5,44.9c0.5,0,1-0.4,1-1c0-0.5-0.4-1-1-1s-1,0.4-1,1C1.5,44.5,2,44.9,2.5,44.9z"/>
	<path class="st0" d="M40.5,70.8l-0.8-2.3h-4l-0.8,2.3h-2.7l4.2-11.3h2.7l4.2,11.3H40.5z M37.8,59.2c-1,0-1.9-0.6-1.9-1.7
		c0-1.1,0.9-1.7,1.9-1.7c1,0,1.9,0.6,1.9,1.7C39.7,58.6,38.8,59.2,37.8,59.2z M37.7,62.5l-1.4,4h2.8L37.7,62.5z M37.8,56.8
		c-0.5,0-0.8,0.3-0.8,0.8c0,0.5,0.3,0.8,0.8,0.8c0.5,0,0.8-0.3,0.8-0.8C38.6,57.1,38.3,56.8,37.8,56.8z"/>
	<path class="st0" d="M51.2,70.8l-2.4-4.3H48v4.3h-2.6V59.6h4.1c2.2,0,4.2,0.9,4.2,3.4c0,2.1-1.4,3-2.2,3.2l2.9,4.7L51.2,70.8
		L51.2,70.8z M49,61.6h-1v2.9h1c1,0,1.9-0.3,1.9-1.5C50.9,61.9,50,61.6,49,61.6z"/>
	<path class="st0" d="M8.1,29.7C7.5,31.2,6,32,4.3,31.3c-1.7-0.7-2.2-2.4-1.5-3.9c0.6-1.4,1.6-1.7,1.8-1.8l0.4,1.1
		c-0.3,0.1-0.9,0.4-1.2,1.1c-0.4,0.8,0,1.8,1.1,2.2c1.1,0.4,2,0,2.3-0.8C7.5,28.4,7.2,28,7.2,28l-0.8-0.3L6,28.8l-0.9-0.4l1-2.3
		L8.2,27C8.3,27.4,8.7,28.3,8.1,29.7z"/>
	<path class="st0" d="M12.2,22.3L11,22l-1.1,1.7l0.7,1l-0.8,1.1l-3.6-4.9l0.8-1.1l5.9,1.4L12.2,22.3z M7.9,21.1l1.3,1.7l0.8-1.2
		L7.9,21.1z"/>
	<path class="st0" d="M14.3,19.5l-4.2-3.9l0.9-1l3.4,3.1l1.3-1.4l0.8,0.8L14.3,19.5z"/>
	<path class="st0" d="M20.1,14.1l-1,0.8l-5.2-3.1l1.1-0.9l3.5,2.2l-1.4-3.9l1.1-0.9L20.1,14.1z"/>
	<path class="st0" d="M26.4,10.2l-0.9-0.8l-1.8,1l0.2,1.2l-1.2,0.7l-0.8-6l1.2-0.7l4.6,4L26.4,10.2z M23.2,7.1l0.4,2.1l1.2-0.7
		L23.2,7.1z"/>
	<path class="st0" d="M33.2,7.6l-3.5-2.9c0,0,0.2,0.6,0.4,1.2l0.8,2.5l-1.2,0.4l-1.7-5.4l1.4-0.4l3.5,2.9c0,0-0.2-0.6-0.4-1.2
		l-0.8-2.5l1.2-0.4l1.7,5.4L33.2,7.6z"/>
	<path class="st0" d="M37.1,6.8l-0.8-5.6l1.3-0.2l0.8,5.6L37.1,6.8z"/>
	<path class="st0" d="M42.7,6.4c-0.8,0-1.6-0.4-2-0.8l0.6-1c0.4,0.4,1.1,0.7,1.5,0.7c0.4,0,0.8-0.2,0.8-0.6c0-0.4-0.4-0.5-0.7-0.6
		c-0.2-0.1-0.7-0.2-0.9-0.3c-0.1-0.1-0.4-0.2-0.7-0.4c-0.3-0.2-0.5-0.6-0.5-1.1c0-0.5,0.2-1,0.6-1.3c0.3-0.3,0.8-0.5,1.5-0.5
		c0.7,0,1.4,0.3,1.8,0.7l-0.6,0.9c-0.3-0.3-0.9-0.6-1.3-0.6c-0.4,0-0.7,0.2-0.7,0.5c0,0.4,0.3,0.5,0.6,0.6c0.2,0.1,0.7,0.2,0.9,0.3
		c0.7,0.3,1.2,0.7,1.3,1.5C44.9,5.7,43.8,6.3,42.7,6.4z"/>
	<path class="st0" d="M47.1,6.4L48,0.7l3.6,0.5l-0.1,1.1L49.1,2L49,3.1l2.2,0.3L51,4.5l-2.2-0.3l-0.2,1.3L51,5.8l-0.1,1.1L47.1,6.4z
		"/>
	<path class="st0" d="M56,8.3l-0.5-2.4l-0.4-0.1l-0.7,2.1l-1.3-0.4L54.9,2l1.9,0.6c1,0.3,1.9,1.1,1.5,2.3c-0.3,1-1.1,1.2-1.6,1.2
		l0.7,2.7L56,8.3z M56.4,3.6l-0.5-0.2l-0.4,1.4L55.9,5c0.5,0.1,1,0.1,1.1-0.4C57.3,4,56.8,3.7,56.4,3.6z"/>
	<path class="st0" d="M63.5,6.6l-2.1,4.1l-1.2-0.6L62.3,6L61,5.3l0.5-0.9l3.8,1.9l-0.5,0.9L63.5,6.6z"/>
	<path class="st0" d="M68.4,15.6c-0.6-0.5-0.9-1.3-1-2l1.1-0.3c0,0.6,0.3,1.2,0.7,1.5c0.3,0.3,0.7,0.3,1,0.1c0.3-0.3,0-0.7-0.1-0.9
		c-0.1-0.2-0.4-0.6-0.4-0.8c-0.1-0.1-0.2-0.4-0.2-0.8c0-0.3,0-0.7,0.4-1.1c0.4-0.4,0.8-0.6,1.3-0.6c0.4,0,0.9,0.2,1.4,0.6
		c0.5,0.4,0.9,1.2,0.9,1.7l-1,0.3c0-0.5-0.3-1-0.6-1.3c-0.3-0.3-0.7-0.4-0.9-0.1c-0.2,0.3-0.1,0.6,0.1,0.8c0.1,0.2,0.3,0.6,0.4,0.8
		c0.4,0.7,0.5,1.4-0.1,2C70.4,16.5,69.2,16.3,68.4,15.6z"/>
	<path class="st0" d="M76.7,17.3l-3.5,3l-0.9-1l3.5-3l-0.9-1.1l0.8-0.7l2.8,3.3l-0.8,0.7L76.7,17.3z"/>
	<path class="st0" d="M77,25.8l0.8-0.9l-1.1-1.7l-1.2,0.3l-0.7-1.2l6-1.2l0.7,1.2L77.7,27L77,25.8z M79.8,22.4l-2.1,0.5l0.7,1.2
		L79.8,22.4z M81.2,21.5c-0.3-0.4-0.2-1,0.2-1.2c0.5-0.3,0.9-0.1,1.2,0.4c0.3,0.4,0.2,1-0.2,1.3C82,22.2,81.5,22,81.2,21.5z
		 M82.3,20.9c-0.1-0.2-0.4-0.3-0.6-0.1c-0.2,0.1-0.2,0.4-0.1,0.6c0.1,0.2,0.4,0.3,0.6,0.1C82.4,21.3,82.4,21.1,82.3,20.9z"/>
	<path class="st0" d="M78.5,28.9l5.3-2.1l0.5,1.2l-4.3,1.7l0.7,1.8l-1,0.4L78.5,28.9z"/>
	<path class="st0" d="M3.7,58.9l-0.2-0.5L2,59l-0.3-1l4.1-1.5L6.3,58c0.3,0.9,0.2,1.6-0.8,2C4.6,60.3,4,59.8,3.7,58.9z M5.5,58.1
		l-0.1-0.4l-1.1,0.4l0.1,0.4c0.1,0.4,0.4,0.6,0.8,0.5C5.6,58.9,5.6,58.5,5.5,58.1z"/>
	<path class="st0" d="M5.9,67.4l1-1.6l-0.2-0.3l-1.5,0.9l-0.5-0.9l3.8-2.2l0.8,1.4c0.4,0.7,0.5,1.6-0.3,2.1
		c-0.7,0.4-1.3,0.1-1.5-0.1l-1,1.9L5.9,67.4z M8.6,64.8l-0.2-0.4l-1,0.6l0.2,0.4c0.2,0.3,0.5,0.6,0.9,0.4
		C8.9,65.5,8.8,65.1,8.6,64.8z"/>
	<path class="st0" d="M10.6,73.9c-0.9-1-0.9-2.3,0.1-3.3c1.1-0.9,2.4-0.7,3.3,0.2c0.9,1,0.9,2.3-0.1,3.3
		C12.8,75.1,11.5,74.9,10.6,73.9z M13.4,71.5c-0.5-0.6-1.3-0.6-1.9-0.1c-0.6,0.6-0.7,1.3-0.2,1.9c0.5,0.6,1.3,0.6,1.9,0.1
		C13.8,72.8,13.9,72,13.4,71.5z"/>
	<path class="st0" d="M17.2,79.8L16,78.9l2.6-3.5l1.2,0.9c1.1,0.8,1.5,2,0.6,3.2C19.5,80.6,18.3,80.6,17.2,79.8z M19.3,77l-0.4-0.3
		l-1.6,2.1l0.4,0.3c0.7,0.5,1.3,0.4,1.8-0.3C20.1,78.2,20,77.5,19.3,77z"/>
	<path class="st0" d="M26.5,84.7c-0.4,0.2-0.9,0.1-1.5-0.1c-0.6-0.3-0.9-0.6-1.1-1.1c-0.1-0.4-0.1-0.9,0.2-1.4l1.1-2.3l0.9,0.4
		l-1.1,2.3C25,82.8,24.9,83,25,83.2c0.1,0.2,0.2,0.4,0.5,0.5c0.3,0.1,0.5,0.1,0.7,0c0.2-0.1,0.3-0.3,0.5-0.6l1.1-2.3l0.9,0.4
		l-1.1,2.3C27.2,84.2,27,84.5,26.5,84.7z"/>
	<path class="st0" d="M34,87.5l-0.6-2L33,85.8l-0.3,1.4l-1-0.2l1-4.3l1,0.2l-0.4,1.6l1.7-1.2l1.2,0.3l-1.9,1.3l1,3L34,87.5z"/>
	<path class="st0" d="M41.8,84.9l-0.2,3.6l-1-0.1l0.2-3.6l-1.1-0.1l0-0.8l3.3,0.2l0,0.8L41.8,84.9z"/>
	<path class="st0" d="M49.3,88.2c-1.2,0.2-2.4-0.5-2.6-2c-0.2-1.5,0.8-2.4,2-2.5c1.2-0.1,1.7,0.4,1.9,0.5L50,84.9
		c-0.2-0.2-0.6-0.4-1.2-0.4c-0.7,0.1-1.2,0.7-1.1,1.6c0.1,0.9,0.7,1.3,1.4,1.2C49.9,87.3,50,87,50,87L50,86.3L49,86.4l-0.1-0.8
		l1.9-0.3l0.2,1.8C50.9,87.4,50.5,88.1,49.3,88.2z"/>
	<path class="st0" d="M58.7,85.8l-0.6-0.7l-1.5,0.5l0,0.9l-1,0.4l0.1-4.7l1-0.4l3,3.6L58.7,85.8z M56.6,83.1v1.7l1-0.4L56.6,83.1z"
		/>
	<path class="st0" d="M66.1,82.2l-1.6-1l-0.3,0.2l0.8,1.5l-0.9,0.5l-2.2-3.8l1.4-0.8c0.7-0.4,1.6-0.5,2.1,0.3
		c0.4,0.7,0.1,1.3-0.1,1.5l1.9,1L66.1,82.2z M63.5,79.6l-0.4,0.2l0.6,1l0.4-0.2c0.3-0.2,0.6-0.5,0.4-0.9
		C64.2,79.3,63.9,79.4,63.5,79.6z"/>
	<path class="st0" d="M73.1,77l-0.8-0.5l-1.2,1l0.4,0.9l-0.8,0.7L69,74.7l0.8-0.7l4.2,2.2L73.1,77z M70.1,75.3l0.6,1.6l0.8-0.7
		L70.1,75.3z"/>
	<path class="st0" d="M78.9,70.4l-3.5-0.3c0,0,0.4,0.3,0.8,0.6l1.6,1.2l-0.6,0.8l-3.5-2.7l0.7-0.9l3.5,0.3c0,0-0.4-0.3-0.8-0.6
		l-1.6-1.2l0.6-0.8l3.5,2.7L78.9,70.4z"/>
	<path class="st0" d="M79.8,62l3.2,1.6l-0.5,0.9l-3.2-1.6l-0.5,1l-0.7-0.4l1.5-3l0.7,0.4L79.8,62z"/>
	<path class="st0" d="M85.2,58.2L81,56.9l0.3-1l4.2,1.3L85.2,58.2z"/>
</g>
</svg>
