<?xml version="1.0" encoding="utf-8"?>
<!-- Generator: Adobe Illustrator 24.3.0, SVG Export Plug-In . SVG Version: 6.00 Build 0)  -->
<svg version="1.1" id="Layer_1" xmlns="http://www.w3.org/2000/svg" xmlns:xlink="http://www.w3.org/1999/xlink" x="0px" y="0px"
	 viewBox="0 0 87 89" style="enable-background:new 0 0 87 89;" xml:space="preserve">
<g fill="currentColor">
	<path class="st0" d="M2,55.6c-0.3-0.2-0.5-0.6-0.5-0.9c-0.1-0.5,0-1,0.3-1.4l0.7,0.3c-0.2,0.3-0.3,0.7-0.2,1.1
		C2.3,54.8,2.4,55,2.7,55C2.9,54.9,3,54.6,3,54.4C3,54.3,3,54,3.1,53.8c0-0.2,0.1-0.3,0.2-0.5c0.1-0.2,0.4-0.4,0.6-0.5
		c0.3-0.1,0.7,0,0.9,0.2c0.3,0.2,0.4,0.5,0.5,0.9c0.1,0.4,0,0.9-0.2,1.3L4.4,55c0.2-0.3,0.2-0.6,0.2-0.9c0-0.3-0.2-0.5-0.4-0.4
		c-0.2,0-0.3,0.3-0.3,0.5c0,0.2-0.1,0.5-0.1,0.6c0,0.2-0.1,0.4-0.2,0.6c-0.1,0.2-0.4,0.4-0.6,0.5C2.7,55.9,2.3,55.8,2,55.6
		 M5.9,58.8l-0.3-0.9l-2.9,0.9L2.5,58l2.9-0.9l-0.3-0.9l0.7-0.2l0.8,2.7L5.9,58.8z"/>
	<path class="st0" d="M6.8,61.4c0-0.2,0-0.3-0.1-0.5l-0.1-0.3L5.7,61l0.1,0.3c0,0.2,0.1,0.3,0.3,0.4c0.1,0.1,0.3,0.1,0.4,0
		C6.7,61.6,6.8,61.5,6.8,61.4 M4.6,63.7l-0.4-0.9l1-1.3l-0.1-0.3l-1.3,0.6L3.4,61l3.4-1.5l0.5,1.2c0.2,0.3,0.2,0.7,0.1,1
		c-0.2,0.6-0.8,0.9-1.4,0.8c-0.2-0.1-0.4-0.2-0.5-0.3L4.6,63.7z M8,66.8c-0.6,0.5-1.5,0.4-2-0.2c-0.1-0.1-0.2-0.2-0.2-0.3
		c-0.5-0.6-0.3-1.5,0.3-2c0,0,0,0,0,0c0.1-0.1,0.2-0.1,0.3-0.2L8.4,63l0.4,0.8l-1.9,1.1c-0.2,0.1-0.4,0.2-0.5,0.4
		c-0.1,0.2,0,0.4,0.1,0.6c0.1,0.2,0.3,0.3,0.5,0.4c0.2,0,0.4,0,0.6-0.2l1.9-1l0.4,0.8L8,66.8z M9.7,71.3c-0.5-0.1-0.9-0.4-1.2-0.8
		c-0.6-0.8-0.5-2,0.3-2.6c0,0,0,0,0,0L9,67.8c0.9-0.6,2.2-0.3,2.8,0.6c0.2,0.4,0.3,0.8,0.3,1.2l-0.7,0.2c0-0.4,0-0.7-0.2-1
		c-0.3-0.5-1-0.6-1.5-0.3l-0.1,0.1c-0.5,0.3-0.7,1-0.3,1.5c0,0,0,0,0,0c0,0,0,0.1,0,0.1c0.2,0.3,0.5,0.5,0.9,0.6L9.7,71.3z"/>
	<path class="st0" d="M14.1,72.5l-0.6-0.7l-2.3,2l-0.6-0.7l2.3-2l-0.6-0.7l0.5-0.5l1.8,2.1L14.1,72.5z"/>
	<path class="st0" d="M16.1,76.5c-0.3,0.3-0.6,0.6-1.1,0.6c-0.4,0-0.9-0.2-1.2-0.5c-0.3-0.3-0.6-0.7-0.6-1.2c0-0.4,0.2-0.8,0.5-1.1
		l1.5-1.6l0.6,0.6L14.4,75c-0.2,0.1-0.3,0.3-0.3,0.5c0,0.2,0.1,0.4,0.2,0.5c0.1,0.2,0.3,0.2,0.5,0.2c0.2-0.1,0.4-0.2,0.5-0.3
		l1.5-1.6l0.7,0.6L16.1,76.5z M19.3,77.4c-0.1-0.1-0.2-0.3-0.3-0.3l-0.3-0.2l-0.6,0.8l0.3,0.2c0.1,0.1,0.3,0.2,0.4,0.2
		c0.1,0,0.3-0.1,0.4-0.2C19.4,77.7,19.4,77.6,19.3,77.4 M18.6,80.6l-0.8-0.6l0.3-1.6l-0.2-0.2l-0.9,1.2l-0.7-0.5l2.3-3l1,0.8
		c0.3,0.2,0.5,0.5,0.6,0.8c0.1,0.3,0,0.7-0.2,0.9c-0.3,0.4-0.7,0.5-1.2,0.4L18.6,80.6z"/>
	<path class="st0" d="M22,81.1l0.3-1.4l-1.1,0.9L22,81.1z M22.5,83l-0.8-0.5l0.2-0.8l-1.2-0.7l-0.6,0.5l-0.8-0.5l3.1-2.5l0.8,0.5
		L22.5,83z M25.5,84.6l-1.9-1l1.6-3.4l0.8,0.4l-1.3,2.7l1.2,0.6L25.5,84.6z M29.4,86.1l-0.8-0.3l1.2-3.5l0.8,0.3L29.4,86.1z
		 M34.2,87.5l-0.9-0.2l-0.9-2.9c0,0-0.1,0.4-0.2,0.8l-0.4,1.6l-0.8-0.3l0.9-3.6l0.9,0.2l0.9,2.9c0,0,0.1-0.4,0.2-0.8l0.4-1.6
		l0.8,0.2L34.2,87.5z M35.9,84.7l1,0.2l-0.5,3l0.9,0.1l0.5-3l0.9,0.2l0.1-0.7L36,84.1L35.9,84.7z M39.5,88.3l2.4,0.2l0-0.7l-1.6-0.1
		v-0.9l1.5,0.1v-0.7l-1.4-0.1v-0.8l1.5,0.1v-0.7l-2.4-0.1L39.5,88.3z"/>
	<path class="st0" d="M46.9,87.8c-0.4,0.5-1,0.7-1.6,0.7c-1.1,0.1-2-0.6-2.1-1.7s0.6-2,1.7-2.1c0.1,0,0.1,0,0.2,0l0,0
		c0.6-0.1,1.2,0.2,1.6,0.6L46,85.7c-0.5-0.4-1.2-0.4-1.6,0.1c-0.4,0.5-0.4,1.2,0.1,1.6c0.2,0.2,0.5,0.3,0.7,0.3
		c0.6,0,0.8-0.3,0.8-0.3V87h-0.8v-0.7l1.6-0.1L46.9,87.8z M49.7,85c-0.1,0-0.3,0-0.5,0l-0.3,0.1L49,86h0.3c0.2,0,0.3-0.1,0.4-0.2
		c0.1-0.1,0.2-0.3,0.1-0.4C49.9,85.3,49.8,85.1,49.7,85 M51.3,87.8l-1,0.2l-0.9-1.3h-0.3l0.2,1.4l-0.9,0.1l-0.5-3.7l1.3-0.2
		c0.3-0.1,0.7,0,1,0.1c0.3,0.2,0.5,0.4,0.5,0.8c0.1,0.5-0.1,0.9-0.6,1.2L51.3,87.8z"/>
	<path class="st0" d="M51.7,83.8l0.8,3.7l0.8-0.2l-0.8-3.7L51.7,83.8z M56.4,83.2l-0.9,0.3l0.9,2.9l-0.8,0.3l-0.9-2.9L53.7,84
		l-0.2-0.7l2.7-0.8L56.4,83.2z M59.9,81l-0.3,2.6l0.6,1.4l-0.8,0.3l-0.6-1.4l-2-1.6l0.9-0.4l1.3,1.1l0.1-1.7L59.9,81z"/>
	<path class="st0" d="M66.8,80.7c-0.1,0.6-0.5,1.1-1.1,1.4c-0.8,0.6-2,0.4-2.5-0.5l-0.1-0.2c-0.5-1-0.2-2.2,0.8-2.7c0,0,0,0,0,0
		c0.5-0.3,1-0.3,1.5-0.2l-0.2,0.7c-0.3-0.1-0.7-0.1-1,0.1c-0.5,0.3-0.7,1-0.3,1.5c0,0,0,0.1,0,0.1c0.2,0.5,0.9,0.8,1.4,0.5
		c0,0,0,0,0,0c0,0,0.1,0,0.1,0c0.5-0.3,0.5-0.6,0.5-0.6l-0.3-0.5l-0.7,0.4l-0.3-0.6l1.4-0.9L66.8,80.7z M70,77.1
		c0.3,0.3,0.5,0.7,0.4,1.2c-0.2,0.9-1,1.5-1.9,1.5c-0.4-0.1-0.8-0.4-1-0.7l-1.4-1.7l0.7-0.5l1.3,1.7c0.1,0.2,0.3,0.3,0.5,0.4
		c0.2,0,0.4,0,0.6-0.1c0.2-0.1,0.3-0.3,0.3-0.5c0-0.2-0.1-0.4-0.3-0.6l-1.3-1.7l0.7-0.5L70,77.1z"/>
	<path class="st0" d="M72.4,75l-1.3-0.7l0.6,1.3L72.4,75z M74.4,75l-0.7,0.7l-0.7-0.4l-1,0.9l0.3,0.7l-0.7,0.6l-1.6-3.7l0.7-0.6
		L74.4,75z M74.1,70.8c-0.1,0.1-0.3,0.1-0.4,0.3l-0.2,0.3l0.7,0.6l0.2-0.3c0.1-0.1,0.2-0.3,0.2-0.4c0-0.3-0.2-0.5-0.4-0.5
		c0,0,0,0,0,0C74.2,70.8,74.2,70.8,74.1,70.8 M77.2,71.7l-0.7,0.8l-1.6-0.3l-0.2,0.2l1.1,0.9L75.3,74l-2.8-2.4l0.8-1
		c0.2-0.3,0.5-0.5,0.8-0.6c0.3-0.1,0.7,0,0.9,0.2c0.4,0.3,0.6,0.8,0.4,1.3L77.2,71.7z M77.9,68.2l-1.4-0.4l0.8,1.2L77.9,68.2z
		 M79.8,67.8l-0.5,0.8l-0.8-0.2l-0.7,1.2l0.5,0.6L77.8,71l-2.3-3.3l0.5-0.8L79.8,67.8z M82,63.7l-0.4,0.8l-3,0.3l0.8,0.4l1.5,0.8
		l-0.4,0.8L77.2,65l0.4-0.8l3-0.3c0,0-0.4-0.2-0.7-0.4l-1.5-0.8l0.4-0.8L82,63.7z M80.8,58.7l-0.3,0.9l2.8,1.2L83,61.6l-2.8-1.2
		l-0.3,0.9L79.2,61l1-2.6L80.8,58.7z M84.7,56.2L84,58.5l-3.6-1l0.7-2.3l0.7,0.2l-0.4,1.5l0.7,0.2l0.4-1.4l0.7,0.2l-0.4,1.4l0.8,0.2
		L84,56L84.7,56.2z M85.6,52.3l-0.5,2.5L81.5,54l0.5-2.3l0.7,0.1l-0.3,1.5l0.7,0.1l0.3-1.4l0.7,0.1l-0.3,1.4l0.8,0.2l0.3-1.6
		L85.6,52.3z M34.5,53.1h-7V26.9H22v-5h12.6L34.5,53.1z M51.6,53.6c-6.2,0-9.9-2.9-11.4-5.1l3.3-4.3c1.8,2.3,4.6,3.7,7.6,3.7
		c2.6,0,5.8-1.5,5.8-5.3c0-3.7-3-5.2-5.8-5.2c-2,0-3.9,0.6-5.6,1.6l-3.1-1.9l2.3-15.2h18.1v5.6H50L49,33.1c1.3-0.5,2.7-0.8,4.1-0.7
		c4.7,0,10.8,3,10.8,10.2S57.7,53.6,51.6,53.6 M31.6,59.8l-3.9,6.7v4.6H25v-4.5l-3.9-6.8h2.9l2.3,4.5l2.3-4.5H31.6z M40.8,71.1h-7.4
		V59.8h7.2V62h-4.7v2.3h4.4v2.1H36V69h4.8L40.8,71.1z M49.1,66.8l-1.4-4.1l-1.4,4.1H49.1z M53.4,71.2h-2.9l-0.8-2.3h-4L45,71.2h-2.7
		l4.2-11.3h2.7L53.4,71.2z"/>
	<path class="st0" d="M60.3,62.2c-0.4-0.2-0.9-0.3-1.3-0.3h-1v2.9h1c0.5,0.1,0.9,0,1.3-0.3c0.4-0.3,0.6-0.7,0.6-1.2
		C60.9,62.9,60.7,62.4,60.3,62.2 M64.1,71.2h-3.1l-2.3-4.3h-0.8v4.3h-2.7V59.8h4c1-0.1,2.1,0.2,2.9,0.8c1.4,1.2,1.6,3.4,0.4,4.8
		c-0.4,0.4-0.9,0.8-1.4,1L64.1,71.2z M9.2,25.8c0.3,1,0.3,2-0.2,2.9c-0.6,1.5-2.4,2.3-3.9,1.7l-0.2-0.1c-1.5-0.7-2.3-2.5-1.6-4
		c0,0,0,0,0,0c0-0.1,0.1-0.2,0.1-0.2c0.4-0.9,1.1-1.6,2-1.8l0.3,1.2c-0.6,0.2-1.1,0.6-1.3,1.2c-0.4,1,0.2,2.1,1.2,2.5
		c0.9,0.3,1.9,0,2.3-0.8c0.4-0.9,0.2-1.3,0.2-1.3l-0.8-0.4l-0.5,1.2l-1-0.5l1.2-2.4L9.2,25.8z"/>
	<path class="st0" d="M11,20.6l-2.2-0.7l1.3,1.9L11,20.6z M14.3,20.1l-0.9,1.3L12.1,21l-1.3,1.8l0.7,1.1L10.7,25l-3.6-5.4L8,18.4
		L14.3,20.1z M17.8,16.5L15.4,19l-4.3-4.4l1-1l3.5,3.5l1.5-1.5L17.8,16.5z M19,7.8l1.9,6.3l-1.1,0.8l-5.5-3.5l1.2-0.9l3.7,2.5
		l-1.4-4.2L19,7.8z M25.3,8.6L23.7,7L24,9.3L25.3,8.6z M28.5,9.7l-1.4,0.7l-0.9-0.9l-1.9,1l0.2,1.3l-1.3,0.7L22.3,6l1.3-0.7
		L28.5,9.7z M35.1,7.5l-1.4,0.4L30,4.7c0,0,0.2,0.7,0.4,1.3l0.8,2.6L29.9,9l-1.7-5.9l1.5-0.4L33.3,6c0,0-0.2-0.7-0.4-1.3L32.1,2
		l1.3-0.3L35.1,7.5z M36.4,1.1l0.8,6.1L38.7,7l-0.8-6.1L36.4,1.1z M44.2,6.3c-0.5,0.4-1,0.5-1.6,0.5c-0.8,0-1.6-0.3-2.2-0.9l0.7-1.1
		c0.4,0.4,1,0.7,1.6,0.7c0.5,0,0.8-0.2,0.8-0.6S43,4.4,42.7,4.3L41.8,4c-0.3-0.1-0.5-0.2-0.7-0.4c-0.3-0.3-0.5-0.7-0.5-1.2
		c0-0.5,0.2-1,0.6-1.4c0.5-0.4,1-0.5,1.6-0.5c0.7,0,1.4,0.3,1.9,0.7l-0.6,1c-0.4-0.4-0.9-0.6-1.4-0.6c-0.5,0-0.8,0.2-0.8,0.6
		s0.3,0.5,0.6,0.6l0.9,0.3c0.3,0.1,0.6,0.3,0.8,0.5c0.3,0.3,0.5,0.7,0.5,1.2C44.9,5.4,44.6,6,44.2,6.3 M46.7,6.8l4,0.5l0.2-1.2
		l-2.6-0.3l0.2-1.4l2.3,0.3l0.2-1.2l-2.3-0.3L48.8,2l2.5,0.3l0.2-1.2l-3.9-0.5L46.7,6.8z"/>
	<path class="st0" d="M57.1,4.5c-0.2-0.4-0.6-0.7-1.1-0.8l-0.7-0.2L54.2,7l0.7,0.2c0.8,0.4,1.8,0,2.2-0.8c0-0.1,0.1-0.2,0.1-0.3
		C57.4,5.6,57.3,5,57.1,4.5 M56.9,8.4c-0.8,0.3-1.7,0.3-2.5,0l-1.9-0.7l1.9-5.8l2,0.6c0.8,0.2,1.5,0.7,2,1.4
		c0.5,0.8,0.6,1.7,0.2,2.5C58.4,7.4,57.7,8.1,56.9,8.4 M64.9,13c-0.6,0-1.2-0.1-1.7-0.5c-0.7-0.5-1.2-1.1-1.3-1.9l1.2-0.5
		c0.1,0.6,0.5,1.1,1,1.5c0.4,0.2,0.8,0.2,1-0.1c0.2-0.3-0.1-0.7-0.3-1l-0.6-0.8c-0.2-0.2-0.3-0.5-0.4-0.8c-0.1-0.4,0-0.9,0.2-1.3
		c0.3-0.4,0.7-0.7,1.2-0.8c0.6,0,1.1,0.1,1.6,0.4c0.6,0.4,1,1,1.2,1.7l-1,0.5c-0.1-0.5-0.4-1-0.8-1.3c-0.4-0.2-0.8-0.3-1,0
		c-0.2,0.3,0,0.6,0.2,0.9L66,9.9c0.2,0.3,0.4,0.6,0.5,0.9c0.1,0.5,0,1-0.2,1.4C66,12.6,65.5,12.9,64.9,13"/>
	<path class="st0" d="M72.9,13.5l-1.2-1l-3.2,3.8l-1.1-0.9l3.2-3.8l-1.2-1l0.7-0.9l3.5,3L72.9,13.5z M73.5,21.6l-2.6-3.1l4.6-4
		l2.6,3l-0.9,0.7l-1.7-1.9l-0.9,0.8l1.6,1.8l-0.9,0.8l-1.6-1.8l-1.1,0.9l1.7,2L73.5,21.6z M76.7,26.5l-2.1-3.4l5.1-3.3l2.1,3.4
		l-1,0.6l-1.3-2.2l-1,0.7l1.3,2l-1,0.6l-1.3-2l-1.2,0.8l1.4,2.2L76.7,26.5z M79,31.5l-1.4-3.3l5.6-2.5l0.6,1.3l-4.5,2l0.8,1.9
		L79,31.5z"/>
	<path class="st0" d="M3.4,42.1c0-0.5-0.4-0.9-0.9-0.9c-0.5,0-0.9,0.4-0.9,0.9c0,0,0,0,0,0c0,0.5,0.4,0.9,0.9,0.9c0,0,0,0,0,0
		C3,43.1,3.4,42.7,3.4,42.1"/>
	<path class="st0" d="M85.2,42.1c0-0.5-0.4-0.9-1-0.9c-0.5,0-0.9,0.4-0.9,0.9c0,0,0,0,0,0c0,0.5,0.4,0.9,0.9,0.9
		C84.7,43.1,85.2,42.6,85.2,42.1"/>
</g>
</svg>
