<?xml version="1.0" encoding="utf-8"?>
<!-- Generator: Adobe Illustrator 24.3.0, SVG Export Plug-In . SVG Version: 6.00 Build 0)  -->
<svg version="1.1" id="Layer_1" xmlns="http://www.w3.org/2000/svg" xmlns:xlink="http://www.w3.org/1999/xlink" x="0px" y="0px"
	 viewBox="0 0 87 89" style="enable-background:new 0 0 87 89;" xml:space="preserve">
<g fill="currentColor">
	<path class="st0" d="M1,54.2c-0.3-0.2-0.4-0.5-0.5-0.9c-0.1-0.5,0.1-1.1,0.3-1.4l0.7,0.3c-0.2,0.3-0.3,0.8-0.3,1.1
		c0.1,0.3,0.2,0.5,0.5,0.4c0.3,0,0.3-0.3,0.3-0.5c0-0.2,0.1-0.5,0.1-0.6c0-0.1,0.1-0.3,0.2-0.5c0.1-0.2,0.3-0.4,0.7-0.4
		c0.4-0.1,0.7,0.1,0.9,0.2c0.2,0.2,0.4,0.5,0.5,0.9s0,1-0.2,1.3l-0.7-0.3c0.2-0.3,0.3-0.6,0.2-0.9c-0.1-0.3-0.2-0.5-0.4-0.4
		C3,52.4,3,52.7,3,52.8c0,0.2-0.1,0.5-0.1,0.6c0,0.1-0.1,0.4-0.2,0.6c-0.1,0.2-0.3,0.4-0.7,0.4C1.6,54.5,1.3,54.4,1,54.2z"/>
	<path class="st0" d="M4.8,57.6l-0.3-0.9l-3,0.8l-0.2-0.9l3-0.8l-0.3-0.9l0.7-0.2l0.8,2.7L4.8,57.6z"/>
	<path class="st0" d="M3.4,62.5l-0.4-1l1.1-1.3L4,60l-1.3,0.5l-0.3-0.8l3.5-1.4l0.5,1.3c0.2,0.4,0.2,0.7,0.1,1
		c-0.1,0.3-0.3,0.6-0.7,0.7c-0.7,0.3-1.1-0.1-1.3-0.3L3.4,62.5z M5.7,60.2c0-0.1,0-0.3-0.1-0.5l-0.1-0.3l-0.9,0.3l0.1,0.3
		c0.1,0.2,0.1,0.3,0.3,0.4c0.1,0.1,0.2,0.1,0.4,0C5.6,60.4,5.7,60.3,5.7,60.2z"/>
	<path class="st0" d="M6.7,65.7C6.3,66,5.9,66.1,5.5,66c-0.4-0.1-0.7-0.4-1-0.9c-0.3-0.5-0.3-0.9-0.2-1.3c0.1-0.4,0.4-0.6,0.9-0.9
		l2-1l0.4,0.8l-2,1c-0.2,0.1-0.4,0.2-0.5,0.4c-0.1,0.2-0.1,0.4,0,0.6c0.1,0.2,0.3,0.3,0.5,0.4c0.2,0,0.4,0,0.6-0.2l2-1l0.4,0.8
		L6.7,65.7z"/>
	<path class="st0" d="M8.3,70.3c-0.3-0.1-0.8-0.2-1.2-0.9c-0.6-0.9-0.5-2.1,0.5-2.7c1-0.7,2.1-0.3,2.7,0.6c0.4,0.6,0.4,1.2,0.4,1.3
		L10,68.8c0-0.1,0.1-0.6-0.2-1c-0.4-0.5-1-0.7-1.6-0.3c-0.6,0.4-0.7,1.1-0.3,1.6c0.3,0.4,0.6,0.6,0.9,0.6L8.3,70.3z"/>
	<path class="st0" d="M12.7,71.7l-0.6-0.8l-2.4,1.9l-0.6-0.7l2.4-1.9L11,69.5l0.5-0.4l1.8,2.2L12.7,71.7z"/>
	<path class="st0" d="M14.6,75.8c-0.4,0.4-0.7,0.6-1.1,0.6c-0.4,0-0.8-0.2-1.2-0.6c-0.4-0.4-0.6-0.8-0.5-1.2c0-0.4,0.2-0.7,0.6-1.1
		l1.6-1.5l0.6,0.6L13,74.1c-0.2,0.2-0.3,0.3-0.3,0.5c0,0.2,0,0.4,0.2,0.6c0.2,0.2,0.4,0.2,0.5,0.2c0.2,0,0.4-0.1,0.6-0.3l1.6-1.5
		l0.6,0.6L14.6,75.8z"/>
	<path class="st0" d="M17,79.9l-0.8-0.7l0.3-1.6l-0.2-0.2l-0.9,1.1L14.7,78l2.4-2.9l1,0.9c0.3,0.3,0.5,0.5,0.6,0.8
		c0.1,0.3,0,0.6-0.2,0.9c-0.5,0.6-1,0.5-1.3,0.4L17,79.9z M17.9,76.7c0-0.1-0.1-0.2-0.3-0.4l-0.3-0.2l-0.6,0.7l0.3,0.2
		c0.2,0.1,0.3,0.2,0.4,0.2c0.1,0,0.3,0,0.4-0.2C17.9,77,17.9,76.9,17.9,76.7z"/>
	<path class="st0" d="M20.1,82L18,80.6l2.1-3.1l2,1.4l-0.4,0.6l-1.3-0.9L20,79.2l1.2,0.8l-0.4,0.6l-1.2-0.8l-0.5,0.7l1.3,0.9
		L20.1,82z"/>
	<path class="st0" d="M23.3,83.9l-1.9-1.1l1.8-3.3l0.8,0.4l-1.5,2.7l1.1,0.6L23.3,83.9z"/>
	<path class="st0" d="M26.8,85.5l-2.3-1l1.5-3.4l2.2,1L28,82.7L26.6,82l-0.3,0.7l1.3,0.6L27.3,84L26,83.4l-0.4,0.8l1.5,0.7
		L26.8,85.5z"/>
	<path class="st0" d="M30.9,86.9L30,86.7l1.1-3.6l0.8,0.3L30.9,86.9z"/>
	<path class="st0" d="M35.8,88.1l-0.9-0.2l-1.1-2.9c0,0-0.1,0.4-0.2,0.8l-0.4,1.7l-0.8-0.2l0.8-3.7l0.9,0.2l1,2.8
		c0,0,0.1-0.4,0.2-0.8l0.4-1.7l0.8,0.2L35.8,88.1z"/>
	<path class="st0" d="M40.3,85.6l-1-0.1L39,88.5l-0.9-0.1l0.3-3.1l-1-0.1l0.1-0.7l2.8,0.3L40.3,85.6z"/>
	<path class="st0" d="M43.8,88.8l-2.5,0l0.1-3.8l2.4,0l0,0.7l-1.6,0l0,0.8l1.5,0l0,0.7l-1.5,0l0,0.9l1.6,0L43.8,88.8z"/>
	<path class="st0" d="M48.7,87.9c-0.2,0.2-0.6,0.7-1.6,0.8c-1,0.1-2-0.5-2.1-1.8c-0.1-1.3,0.8-2,1.8-2.1c1-0.1,1.5,0.4,1.6,0.5
		l-0.5,0.6c-0.2-0.2-0.5-0.4-1-0.4c-0.6,0.1-1,0.5-1,1.3c0.1,0.8,0.6,1.2,1.2,1.1c0.6-0.1,0.8-0.3,0.8-0.3l0-0.6L47,87.1l-0.1-0.7
		l1.7-0.1L48.7,87.9z"/>
	<path class="st0" d="M53.3,87.6l-1,0.2l-1.1-1.3L51,86.6l0.3,1.4l-0.9,0.2l-0.7-3.7l1.3-0.3c0.4-0.1,0.8-0.1,1,0.1
		c0.3,0.1,0.5,0.4,0.6,0.8c0.1,0.7-0.3,1.1-0.5,1.2L53.3,87.6z M51.5,84.9c-0.1-0.1-0.3,0-0.5,0L50.7,85l0.2,0.9l0.3-0.1
		c0.2,0,0.3-0.1,0.4-0.2c0.1-0.1,0.2-0.2,0.1-0.4C51.7,85.1,51.6,85,51.5,84.9z"/>
	<path class="st0" d="M55.4,87.1l-0.9,0.2l-1-3.6l0.9-0.2L55.4,87.1z"/>
	<path class="st0" d="M58.2,82.9l-0.9,0.3l1,2.9l-0.8,0.3l-1-2.9l-0.9,0.3l-0.2-0.7l2.7-1L58.2,82.9z"/>
	<path class="st0" d="M62.8,84.2l-2.3,1l-1.6-3.4l2.2-1l0.3,0.6L60,82.1l0.3,0.7l1.3-0.6l0.3,0.6l-1.3,0.6l0.4,0.8l1.5-0.7
		L62.8,84.2z"/>
	<path class="st0" d="M64.9,83.1l-0.8,0.4l-1.8-3.3l0.8-0.4L64.9,83.1z"/>
	<path class="st0" d="M66.7,78.3l-0.8,0.5l1.7,2.6l-0.7,0.5l-1.7-2.6l-0.8,0.5l-0.4-0.6l2.4-1.6L66.7,78.3z"/>
	<path class="st0" d="M73.2,76.1c0,0.3,0,0.9-0.8,1.6c-0.8,0.7-1.9,0.8-2.8-0.1c-0.8-0.9-0.6-2.1,0.2-2.8c0.7-0.7,1.4-0.6,1.6-0.5
		L71.3,75c-0.2,0-0.6,0-1,0.3c-0.5,0.4-0.5,1,0,1.6c0.5,0.6,1.2,0.6,1.6,0.2s0.4-0.7,0.4-0.7L72,76l-0.6,0.5l-0.4-0.5l1.2-1.1
		L73.2,76.1z"/>
	<path class="st0" d="M77,72.9l-0.6,0.7l-0.7-0.3l-0.9,1l0.4,0.7l-0.6,0.7l-1.9-3.6l0.6-0.7L77,72.9z M75,73l-1.3-0.6l0.7,1.3L75,73
		z"/>
	<path class="st0" d="M79.6,69.4L79,70.2L77.3,70l-0.2,0.2l1.2,0.8l-0.5,0.7l-3.1-2.2l0.8-1.1c0.2-0.3,0.5-0.6,0.8-0.6
		c0.3-0.1,0.6-0.1,0.9,0.2c0.6,0.4,0.5,1,0.4,1.2L79.6,69.4z M76.4,68.7c-0.1,0-0.2,0.1-0.3,0.3l-0.2,0.3l0.8,0.6l0.2-0.3
		c0.1-0.2,0.2-0.3,0.2-0.4c0-0.1,0-0.3-0.2-0.4C76.7,68.6,76.5,68.6,76.4,68.7z"/>
	<path class="st0" d="M82,65.4l-0.5,0.8L80.7,66L80,67.2l0.5,0.6l-0.5,0.8l-2.6-3.1l0.5-0.8L82,65.4z M80,65.9l-1.4-0.3l0.9,1.1
		L80,65.9z"/>
	<path class="st0" d="M83.9,61l-0.4,0.8l-3,0.5c0,0,0.4,0.2,0.8,0.3l1.6,0.7l-0.3,0.8l-3.5-1.5l0.4-0.9l3-0.5c0,0-0.4-0.2-0.8-0.3
		l-1.6-0.7l0.3-0.8L83.9,61z"/>
	<path class="st0" d="M82.3,56.1L82,57l2.9,0.9l-0.3,0.8l-2.9-0.9l-0.3,0.9l-0.7-0.2l0.9-2.7L82.3,56.1z"/>
	<path class="st0" d="M85.8,54.9l-0.2,0.9l-3.7-0.9l0.2-0.9L85.8,54.9z"/>
	<path class="st0" d="M86.5,50.8l-0.4,2.5l-3.7-0.6l0.4-2.4l0.7,0.1l-0.2,1.5l0.8,0.1l0.2-1.5l0.7,0.1l-0.2,1.5l0.9,0.1l0.3-1.6
		L86.5,50.8z"/>
	<path class="st0" d="M34.4,53.1h-7.1V26.8h-5.7v-5h12.8V53.1z"/>
	<path class="st0" d="M52.4,53.7c-9.2,0-13-7.9-13-16.2s3.9-16.2,13-16.2s13,7.9,13,16.2S61.5,53.7,52.4,53.7z M52.4,27.4
		c-4,0-5.8,4.3-5.8,9.9s1.7,10,5.8,10s5.8-4.4,5.8-10C58.2,31.7,56.4,27.4,52.4,27.4z"/>
	<path class="st0" d="M28.4,71.1c0,1.2-0.2,2-0.7,2.6c-0.4,0.5-1.1,0.8-2.1,0.8c-0.8,0-1.5-0.2-1.7-0.2l0.1-2
		c0.2,0.1,0.5,0.1,0.9,0.1c0.6,0,0.8-0.5,0.8-1.3V60h2.6V71.1z"/>
	<path class="st0" d="M41.7,71.3h-2.9L38,69.1h-4l-0.8,2.3h-2.8L34.6,60h2.8L41.7,71.3z M37.4,67l-1.4-4.1L34.5,67H37.4z"/>
	<path class="st0" d="M53.8,71.3h-2.9l-0.8-2.3h-4l-0.8,2.3h-2.8L46.8,60h2.8L53.8,71.3z M49.5,67l-1.4-4.1L46.7,67H49.5z"/>
	<path class="st0" d="M64.8,71.3h-3.1L59.3,67h-0.8v4.3h-2.7V60h4.1c1.3,0,2.3,0.3,3,0.8c0.8,0.6,1.2,1.5,1.2,2.6
		c0,2.2-1.4,3-2.2,3.3L64.8,71.3z M60.8,62.3c-0.3-0.2-0.8-0.3-1.4-0.3h-1.1V65h1.1c0.6,0,1-0.1,1.4-0.3c0.3-0.2,0.6-0.6,0.6-1.2
		C61.4,62.9,61.2,62.6,60.8,62.3z"/>
	<path class="st0" d="M5.9,20l4.6,4.5l-0.7,1.3l-4.3-1l3.2,3L8,29.1l-6.3-1.4l0.7-1.3l4.2,1l-3.1-3l0.7-1.3l4.2,1l-3.2-2.9L5.9,20z"
		/>
	<path class="st0" d="M15.4,18.3l-2.7,3.1l-4.7-4l2.6-3l0.9,0.8L9.9,17l1,0.8l1.6-1.8l0.9,0.8l-1.6,1.8l1.1,0.9l1.7-2L15.4,18.3z"/>
	<path class="st0" d="M20.3,14l-3.1,2.6l-3.9-4.8l3.1-2.6l0.7,0.9l-2,1.6l0.8,1l1.9-1.5l0.7,0.9l-1.9,1.5l0.9,1.1l2-1.7L20.3,14z"/>
	<path class="st0" d="M26.5,10.2L25.1,11l-2.3-1.4l-0.4,0.2l1.2,2.1l-1.3,0.7l-3.1-5.4l1.9-1.1c0.6-0.3,1.1-0.5,1.6-0.4
		c0.5,0.1,1,0.4,1.3,0.9c0.6,1,0.2,1.8-0.2,2.1L26.5,10.2z M22.3,7c-0.2,0-0.4,0.1-0.7,0.2L21,7.5l0.8,1.4l0.5-0.3
		c0.3-0.2,0.5-0.3,0.6-0.5c0.1-0.2,0.1-0.4,0-0.7C22.7,7.1,22.5,7,22.3,7z"/>
	<path class="st0" d="M31.2,1.8l-0.1,6.6l-1.3,0.5l-4.2-5.1l1.5-0.5l2.8,3.5l-0.1-4.5L31.2,1.8z"/>
	<path class="st0" d="M40.4,6.5l-1.6,0.2l-0.6-1.2L36,5.9l-0.2,1.3l-1.5,0.2l1.4-6.5l1.5-0.2L40.4,6.5z M37.7,4.5l-1.1-2.1l-0.4,2.3
		L37.7,4.5z"/>
	<path class="st0" d="M45.7,6.1c-0.4,0.3-1,0.5-1.7,0.5c-0.9,0-1.7-0.5-2.2-1l0.7-1c0.4,0.5,1.1,0.8,1.6,0.8c0.5,0,0.8-0.2,0.8-0.6
		c0-0.4-0.4-0.6-0.7-0.7c-0.3-0.1-0.7-0.3-0.9-0.4c-0.2-0.1-0.5-0.2-0.7-0.5C42.4,3,42.2,2.6,42.2,2c0-0.6,0.3-1.1,0.7-1.3
		c0.4-0.3,0.9-0.5,1.6-0.5c0.7,0,1.5,0.4,1.9,0.8l-0.6,1c-0.4-0.4-0.9-0.6-1.4-0.7c-0.5,0-0.8,0.2-0.8,0.5c0,0.4,0.3,0.5,0.6,0.6
		c0.3,0.1,0.7,0.3,0.9,0.4C45.4,3,45.8,3.2,46,3.5c0.3,0.3,0.5,0.6,0.5,1.2C46.5,5.2,46.2,5.8,45.7,6.1z"/>
	<path class="st0" d="M53.6,2.6l-1.6-0.3l-0.9,5L49.7,7l0.9-5l-1.6-0.3l0.2-1.1l4.6,0.8L53.6,2.6z"/>
	<path class="st0" d="M61.3,10.4c-0.5,0.1-1.1,0-1.7-0.2C58.8,9.8,58.2,9,58,8.4l1.1-0.7c0.2,0.6,0.7,1.2,1.1,1.4
		c0.4,0.2,0.8,0.1,1-0.2c0.2-0.4-0.2-0.7-0.4-0.9c-0.2-0.2-0.6-0.5-0.7-0.7c-0.1-0.1-0.3-0.4-0.5-0.7c-0.1-0.3-0.2-0.8,0.1-1.3
		c0.3-0.5,0.7-0.8,1.2-1c0.4-0.1,1-0.1,1.7,0.2c0.6,0.3,1.3,1,1.5,1.5l-1,0.7c-0.2-0.5-0.6-1-1-1.2c-0.4-0.2-0.8-0.2-1,0.2
		c-0.2,0.3,0.1,0.6,0.3,0.8c0.2,0.2,0.5,0.6,0.7,0.7c0.1,0.1,0.4,0.4,0.6,0.8c0.1,0.3,0.2,0.8-0.1,1.3C62.3,9.9,61.9,10.3,61.3,10.4
		z"/>
	<path class="st0" d="M70,10.4l-1.3-0.9l-2.8,4.2l-1.2-0.8l2.8-4.2l-1.3-0.9l0.6-0.9l3.8,2.6L70,10.4z"/>
	<path class="st0" d="M72.2,19.2l-1.1-1.1l0.5-1.2L70,15.4L68.8,16l-1.1-1l5.9-2.9l1.1,1L72.2,19.2z M72.1,15.9l1-2.1L71,14.8
		L72.1,15.9z"/>
	<path class="st0" d="M76.7,25.3L75.8,24l0.8-1.1l-1.3-1.8L74,21.5l-0.9-1.2l6.4-1.7l0.9,1.2L76.7,25.3z M77.3,22l1.4-1.9l-2.3,0.7
		L77.3,22z"/>
	<path class="st0" d="M79.2,30.4l-1.5-3.2l5.6-2.7l0.6,1.3l-4.5,2.1l0.9,1.9L79.2,30.4z"/>
	<path class="st0" d="M1.8,43.1c0.5,0,1-0.4,1-1s-0.4-1-1-1c-0.5,0-1,0.4-1,1S1.3,43.1,1.8,43.1z"/>
	<path class="st0" d="M84.9,43.1c0.5,0,1-0.4,1-1s-0.4-1-1-1s-1,0.4-1,1S84.4,43.1,84.9,43.1z"/>
</g>
</svg>
