<?xml version="1.0" encoding="utf-8"?>
<!-- Generator: Adobe Illustrator 24.3.0, SVG Export Plug-In . SVG Version: 6.00 Build 0)  -->
<svg version="1.1" id="Layer_1" xmlns="http://www.w3.org/2000/svg" xmlns:xlink="http://www.w3.org/1999/xlink" x="0px" y="0px"
	 viewBox="0 0 87 89" style="enable-background:new 0 0 87 89;" xml:space="preserve">
<g fill="currentColor">
	<path class="st0" d="M40.5,70.8l-0.8-2.3h-4l-0.8,2.3h-2.7l4.2-11.3h2.7l4.2,11.3H40.5z M37.8,59.2c-1,0-1.9-0.6-1.9-1.7
		c0-1.1,0.9-1.7,1.9-1.7c1,0,1.9,0.6,1.9,1.7C39.7,58.6,38.8,59.2,37.8,59.2z M37.7,62.4l-1.4,4.1h2.8L37.7,62.4z M37.8,56.7
		c-0.5,0-0.8,0.3-0.8,0.8c0,0.5,0.3,0.8,0.8,0.8c0.5,0,0.8-0.3,0.8-0.8C38.6,57,38.3,56.7,37.8,56.7z"/>
	<path class="st0" d="M51.2,70.8l-2.4-4.3H48v4.3h-2.7V59.5h4.1c2.2,0,4.2,0.9,4.2,3.4c0,2.1-1.4,3-2.2,3.2l2.9,4.7L51.2,70.8
		L51.2,70.8z M49,61.6h-1v2.9h1c1,0,1.9-0.3,1.9-1.5C50.9,61.8,50,61.6,49,61.6z"/>
	<path class="st0" d="M27.6,52.4v-26H22v-5h12.6v31H27.6z"/>
	<path class="st0" d="M52.4,53c-9.1,0-12.8-7.8-12.8-16c0-8.2,3.8-16,12.8-16s12.8,7.8,12.8,16C65.2,45.1,61.4,53,52.4,53z M52.4,27
		c-4,0-5.7,4.2-5.7,9.8s1.7,9.9,5.7,9.9s5.7-4.3,5.7-9.9C58.1,31.2,56.4,27,52.4,27z"/>
	<path class="st0" d="M8.5,28.6c-0.7,1.5-2.2,2.3-3.9,1.5s-2.1-2.4-1.5-3.9c0.5-1.1,1.2-1.5,1.4-1.5l0.8,0.8c-0.2,0-0.8,0.4-1.1,1.1
		c-0.4,0.9-0.1,1.8,0.9,2.3c1,0.4,1.9,0,2.3-0.9c0.3-0.6,0.2-1.2,0.1-1.6l1.1,0C8.8,26.7,9,27.5,8.5,28.6z"/>
	<path class="st0" d="M13.9,20.1c-1.1,1.3-2.8,1.6-4.2,0.4c-1.4-1.2-1.4-2.9-0.3-4.2c1.1-1.3,2.8-1.6,4.2-0.4
		C15,17.1,15,18.8,13.9,20.1z M10.2,17.1c-0.6,0.7-0.5,1.7,0.3,2.4c0.8,0.7,1.8,0.6,2.4-0.1c0.6-0.7,0.5-1.7-0.3-2.4
		C11.8,16.3,10.8,16.4,10.2,17.1z"/>
	<path class="st0" d="M22.4,12.4l-2.2-1.1l-0.4,0.2l1.2,1.8L20,14l-3.2-4.7l1.7-1.2c0.9-0.6,2-0.8,2.7,0.2c0.6,0.9,0.3,1.6,0,2
		l2.5,1.1L22.4,12.4z M18.8,9.2l-0.4,0.3l0.8,1.2l0.4-0.3c0.4-0.3,0.7-0.7,0.4-1.2C19.7,8.7,19.3,8.9,18.8,9.2z"/>
	<path class="st0" d="M29,3.9l1.6,4.3l-1.3,0.5l-1.6-4.3l-1.4,0.5l-0.4-1l4-1.5l0.4,1L29,3.9z"/>
	<path class="st0" d="M37.4,6.6l-0.6-5.7l3.7-0.4l0.1,1.1l-2.3,0.3L38.3,3l2.2-0.2l0.1,1.1L38.4,4l0.1,1.3L41,5.1l0.1,1.1L37.4,6.6z
		"/>
	<path class="st0" d="M50.6,6.8l-1.9-4.2c0,0-0.1,0.7-0.2,1.3l-0.4,2.5l-1.3-0.2l0.9-5.6l1.4,0.2L51,4.9c0,0,0.1-0.6,0.2-1.2
		l0.4-2.6l1.3,0.2L51.9,7L50.6,6.8z"/>
	<path class="st0" d="M59,9.5c-0.8-0.3-1.2-1-1.5-1.6l1-0.6c0.2,0.6,0.7,1.1,1.1,1.3c0.4,0.2,0.8,0.1,0.9-0.2
		c0.2-0.4-0.2-0.7-0.4-0.8C60,7.3,59.7,7,59.5,6.9c-0.1-0.1-0.3-0.3-0.4-0.6c-0.1-0.3-0.2-0.7,0-1.2c0.2-0.5,0.6-0.8,1.1-0.9
		c0.4-0.1,1-0.1,1.6,0.2c0.6,0.3,1.2,0.9,1.4,1.4l-0.9,0.6c-0.2-0.4-0.5-0.9-0.9-1c-0.4-0.2-0.7-0.1-0.9,0.2
		c-0.1,0.3,0.1,0.6,0.3,0.8c0.2,0.2,0.5,0.5,0.6,0.6c0.6,0.5,0.8,1.2,0.5,1.9C61.3,9.9,60,10,59,9.5z"/>
	<path class="st0" d="M70.5,11l-2.9,3.7l-1.1-0.8l2.9-3.7l-1.2-0.9l0.6-0.8l3.4,2.6l-0.6,0.8L70.5,11z"/>
	<path class="st0" d="M74.5,21.9l0.6-1l-1.3-1.6l-1.1,0.4l-0.9-1.1l5.8-1.8l0.9,1.1L75.4,23L74.5,21.9z M77,18.2l-2,0.7l0.9,1.1
		L77,18.2z M78.3,17.2c-0.3-0.4-0.4-0.9,0.1-1.3c0.4-0.3,0.9-0.2,1.3,0.2c0.3,0.4,0.4,0.9-0.1,1.3C79.1,17.8,78.6,17.6,78.3,17.2z
		 M79.3,16.4c-0.1-0.2-0.4-0.2-0.6-0.1c-0.2,0.1-0.2,0.4-0.1,0.6c0.1,0.2,0.4,0.2,0.6,0.1C79.4,16.8,79.4,16.6,79.3,16.4z"/>
	<path class="st0" d="M78.1,27.8l5.2-2.3l0.5,1.2l-4.2,1.9l0.8,1.8l-1,0.4L78.1,27.8z"/>
	<path class="st0" d="M3.6,58.9l-0.2-0.5l-1.5,0.5l-0.3-1l4.2-1.5L6.3,58c0.3,0.9,0.2,1.6-0.8,2C4.6,60.3,3.9,59.8,3.6,58.9z
		 M5.5,58.1l-0.1-0.4l-1.1,0.4l0.1,0.4c0.1,0.4,0.4,0.6,0.8,0.5C5.6,58.8,5.6,58.5,5.5,58.1z"/>
	<path class="st0" d="M5.9,67.3l1-1.6l-0.2-0.3l-1.5,0.9l-0.5-0.9l3.8-2.2l0.8,1.4c0.4,0.7,0.5,1.6-0.3,2.1
		c-0.7,0.4-1.3,0.1-1.5-0.1l-1,1.9L5.9,67.3z M8.5,64.8l-0.2-0.4l-1,0.6l0.2,0.4c0.2,0.3,0.5,0.6,0.9,0.4
		C8.8,65.5,8.7,65.1,8.5,64.8z"/>
	<path class="st0" d="M10.6,73.9c-0.9-1-0.9-2.3,0.1-3.3c1.1-0.9,2.4-0.7,3.3,0.2c0.9,1,0.9,2.3-0.1,3.3
		C12.8,75,11.5,74.8,10.6,73.9z M13.3,71.4c-0.5-0.6-1.3-0.6-1.9-0.1c-0.6,0.6-0.7,1.3-0.2,1.9c0.5,0.6,1.3,0.6,1.9,0.1
		C13.8,72.7,13.8,72,13.3,71.4z"/>
	<path class="st0" d="M17.1,79.8l-1.2-0.9l2.6-3.5l1.2,0.9c1.1,0.8,1.5,2,0.6,3.2C19.5,80.6,18.3,80.6,17.1,79.8z M19.3,77l-0.4-0.3
		l-1.6,2.1l0.4,0.3c0.7,0.5,1.4,0.4,1.8-0.3C20,78.1,20,77.5,19.3,77z"/>
	<path class="st0" d="M26.5,84.7c-0.4,0.2-0.9,0.1-1.5-0.1c-0.6-0.3-0.9-0.6-1.1-1.1c-0.1-0.4-0.1-0.9,0.2-1.4l1.1-2.3l0.9,0.4
		l-1.1,2.3c-0.1,0.3-0.2,0.5-0.1,0.7c0.1,0.2,0.2,0.4,0.5,0.5c0.3,0.1,0.5,0.1,0.7,0c0.2-0.1,0.3-0.3,0.5-0.6l1.1-2.3l0.9,0.4
		l-1.1,2.3C27.2,84.2,26.9,84.5,26.5,84.7z"/>
	<path class="st0" d="M34,87.5l-0.6-2l-0.4,0.3l-0.3,1.4l-1-0.2l1-4.3l1,0.2l-0.4,1.6l1.7-1.2l1.2,0.3l-1.9,1.3l1,3L34,87.5z"/>
	<path class="st0" d="M41.8,84.9l-0.2,3.6l-1-0.1l0.2-3.6l-1.1-0.1l0-0.8l3.3,0.2l0,0.8L41.8,84.9z"/>
	<path class="st0" d="M49.3,88.2c-1.2,0.2-2.4-0.5-2.6-2c-0.2-1.5,0.8-2.4,2-2.5c1.2-0.1,1.7,0.4,1.9,0.5L50,84.9
		c-0.2-0.2-0.6-0.4-1.2-0.4c-0.7,0.1-1.2,0.7-1.1,1.6c0.1,0.9,0.7,1.3,1.4,1.2c0.7-0.1,0.9-0.4,0.9-0.4L50,86.3l-0.9,0.1l-0.1-0.8
		l1.9-0.3l0.2,1.8C50.9,87.4,50.5,88.1,49.3,88.2z"/>
	<path class="st0" d="M58.8,85.8l-0.6-0.7l-1.5,0.5l0,0.9l-1,0.4l0.1-4.7l1-0.4l3,3.6L58.8,85.8z M56.7,83.1v1.7l1-0.4L56.7,83.1z"
		/>
	<path class="st0" d="M66.1,82.2l-1.6-1l-0.3,0.2l0.8,1.5l-0.9,0.5l-2.2-3.8l1.4-0.8c0.7-0.4,1.6-0.5,2.1,0.3
		c0.4,0.7,0.1,1.3-0.1,1.5l1.9,1L66.1,82.2z M63.6,79.5l-0.4,0.2l0.6,1l0.4-0.2c0.3-0.2,0.6-0.5,0.4-0.9
		C64.3,79.3,63.9,79.4,63.6,79.5z"/>
	<path class="st0" d="M73.1,77l-0.8-0.5l-1.2,1l0.4,0.9l-0.8,0.7L69,74.7l0.8-0.7l4.2,2.2L73.1,77z M70.1,75.2l0.6,1.6l0.8-0.7
		L70.1,75.2z"/>
	<path class="st0" d="M79,70.4l-3.5-0.3c0,0,0.4,0.3,0.8,0.6l1.6,1.2l-0.6,0.8l-3.5-2.7l0.7-0.9l3.5,0.3c0,0-0.4-0.3-0.8-0.6
		l-1.6-1.2l0.6-0.8l3.5,2.7L79,70.4z"/>
	<path class="st0" d="M79.9,61.9l3.2,1.6l-0.5,0.9l-3.2-1.6l-0.5,1l-0.7-0.4l1.5-3l0.7,0.4L79.9,61.9z"/>
	<path class="st0" d="M85.2,58.1L81,56.8l0.3-1l4.2,1.3L85.2,58.1z"/>
	<path class="st0" d="M84.5,45c0.5,0,1-0.4,1-1s-0.4-1-1-1c-0.5,0-1,0.4-1,1S84,45,84.5,45z"/>
	<path class="st0" d="M2.5,45c0.5,0,1-0.4,1-1s-0.4-1-1-1s-1,0.4-1,1S1.9,45,2.5,45z"/>
</g>
</svg>
