<?xml version="1.0" encoding="utf-8"?>
<!-- Generator: Adobe Illustrator 26.2.1, SVG Export Plug-In . SVG Version: 6.00 Build 0)  -->
<svg version="1.1" id="Layer_1" xmlns="http://www.w3.org/2000/svg" xmlns:xlink="http://www.w3.org/1999/xlink" x="0px" y="0px"
	 viewBox="0 0 225 35" style="enable-background:new 0 0 225 35;" xml:space="preserve">
<g fill="currentColor">
	<path d="M11.1,16.9c-0.8-0.3-1.5-0.6-2.6-0.9c-1.9-0.6-3.8-1.3-3.8-2.8s1.2-2.3,3.1-2.3c1.8,0,3.6,0.8,4.9,2l1.6-2.3
		c-1.3-1.3-3.2-2.5-6.6-2.5S1.2,10,1.2,13.5c0,2,1.2,3.8,3,4.5c0.8,0.4,1.7,0.7,2.6,1c1.3,0.4,4.3,1.1,4.3,3.1
		c0,2.1-1.9,2.7-3.7,2.7c-2.2-0.1-4.2-1.1-5.7-2.7L0,24.4c1.8,2.2,4.6,3.5,7.5,3.4c1.9,0.1,3.8-0.5,5.3-1.7c1.3-1.1,2-2.6,2-4.3
		c0-1.3-0.5-2.6-1.5-3.5C12.5,17.7,11.9,17.3,11.1,16.9z"/>
	<path d="M25.2,24.5c-0.8,0.1-1.6-0.3-2-1c-0.4-1.1-0.6-2.3-0.5-3.5v-8.5h4.6v-3h-4.6V2.9h-3.8v5.7h-2.8v3h2.8v8.6
		c0,3,0.2,4.5,1,5.6c0.9,1.3,2.5,2.1,4.1,1.9c1.2,0,2.4-0.2,3.5-0.6l-0.2-3.1C26.6,24.3,25.9,24.5,25.2,24.5z"/>
	<path d="M33.8,11.3L33.8,11.3l-0.1-2.9h-3.9v18.8h3.9v-9.3c-0.1-1.7,0.3-3.3,1.2-4.8c0.7-1,1.9-1.6,3.2-1.6
		c0.7,0,1.4,0.1,2.1,0.4h0.2l0.2-3.5c-0.6-0.2-1.3-0.3-2-0.3C36.4,8.2,34.5,9.4,33.8,11.3z"/>
	<path d="M49.4,8.2c-2.5,0-5,0.7-7.2,1.9l1.2,2.5c1.8-1,3.8-1.6,5.8-1.6c2.8,0,4.8,1.4,4.8,4.3V16l-5.2,0.1
		c-4.5,0.2-7.5,2.1-7.5,5.8s3.1,5.8,6.6,5.8c2.4,0,4.6-1,6.1-2.8v2.4h3.8V16.3c0-3.2-0.8-4.8-2.1-6.1C54.5,9,52.6,8.2,49.4,8.2z
		 M54,22.3C52.9,24,51.1,25,49.1,25c-2.5,0-4-1.5-4-3.3s1.3-3.1,4.4-3.3l4.5-0.3V22.3z"/>
	<path d="M65.8,8.5H62v18.8h3.9V8.5z"/>
	<path d="M63.9,0c-1.3,0.1-2.3,1.2-2.3,2.5c0.1,1.3,1.2,2.3,2.5,2.2c1.3-0.1,2.3-1.1,2.3-2.4S65.3,0,63.9,0
		C64,0,63.9,0,63.9,0z"/>
	<path d="M85.2,11.4L85.2,11.4c-1.6-2.2-4.1-3.5-6.8-3.3c-4.9,0-9.3,3.5-9.3,9.4s4.3,9.4,9.3,9.4
		c2.7,0.1,5.2-1.2,6.7-3.4h0.1v1c0,2.6-0.7,4.4-1.5,5.3c-0.8,1-2.4,2.1-5.3,2.1c-2.5-0.1-4.9-0.9-6.9-2.4l-1.8,2.6
		c2.5,1.8,5.5,2.8,8.6,2.8c4.8,0,7.2-1.9,8.6-3.6c1.4-1.7,2.1-4,2.1-8.1V8.5h-3.9L85.2,11.4z M79.1,24c-3.9,0-6.1-2.8-6.1-6.4
		s2.2-6.4,6.1-6.4c4,0,6.1,2.9,6.1,6.4S83.1,24,79.1,24z"/>
	<path d="M103.3,8.2c-2.5-0.1-4.7,1.2-5.9,3.3h-0.1V0h-3.9v27.2h3.9V18c0-3.8,1.5-6.8,5-6.8c3.5,0,4,2.7,4,5.4v10.6h3.9
		V16.1C110.1,11.6,108.8,8.2,103.3,8.2z"/>
	<path d="M121.3,24.5c-0.8,0.1-1.6-0.3-2-1c-0.4-0.8-0.5-1.9-0.5-3.5v-8.5h4.6v-3h-4.6V2.9h-3.9v5.7h-2.8v3h2.8v8.6
		c0,3,0.2,4.5,1,5.6c0.9,1.3,2.5,2.1,4.1,1.9c1.2,0,2.4-0.2,3.5-0.6l-0.2-3.1C122.7,24.3,122,24.5,121.3,24.5z"/>
	<path d="M133.5,13.8c0.3-0.4,0.6-0.8,1.1-1c0.5-0.3,1-0.4,1.5-0.4c0.4,0,0.8,0,1.2,0.2c0.3,0.1,0.6,0.2,0.9,0.4
		c0.2,0.1,0.4,0.3,0.6,0.5c0.2,0.2,0.4,0.4,0.6,0.5c0.3,0.2,0.6,0.5,0.9,0.6c0.5,0.3,1.1,0.4,1.6,0.4c0.4,0,0.7-0.1,1.1-0.2
		c0.4-0.1,0.7-0.3,1-0.6c0.3-0.3,0.6-0.6,0.8-1c0.2-0.5,0.3-0.9,0.3-1.5c0-0.4-0.1-0.8-0.2-1.2c-0.2-0.5-0.4-0.9-0.7-1.3
		c-0.9-1.3-2.2-2.2-3.7-2.7c-1.4-0.5-3-0.7-4.5-0.7c-2.9,0-5.7,1.1-7.7,3.2c-1,1-1.8,2.2-2.3,3.5c-0.6,1.4-0.8,2.9-0.8,4.4
		c0,1.5,0.2,3,0.7,4.4c0.5,1.3,1.2,2.5,2.2,3.6c1,1,2.1,1.8,3.4,2.4c1.4,0.6,3,0.9,4.5,0.9c0.9,0,1.8-0.1,2.7-0.3
		c0.7-0.2,1.5-0.4,2.1-0.7c0.6-0.3,1.1-0.6,1.6-0.9c0.4-0.3,0.8-0.6,1.1-1c0.8-0.8,1.3-1.9,1.3-3c0-0.9-0.4-1.8-1.1-2.4
		c-0.6-0.5-1.3-0.7-2.1-0.7c-0.3,0-0.7,0.1-1,0.2c-0.5,0.2-0.9,0.4-1.3,0.7c-0.5,0.4-1.1,0.8-1.7,1.1c-0.5,0.2-1.1,0.4-1.6,0.4
		c-0.5,0-1.1-0.1-1.5-0.4c-0.4-0.3-0.8-0.6-1.1-1c-0.3-0.5-0.5-0.9-0.7-1.5c-0.2-0.6-0.2-1.1-0.2-1.7s0.1-1.2,0.2-1.8
		C133,14.8,133.2,14.3,133.5,13.8z M131.8,19.1c0.2,0.6,0.4,1.2,0.8,1.8c0.4,0.5,0.8,1,1.4,1.3c0.6,0.4,1.4,0.6,2.1,0.5
		c0.7,0,1.5-0.2,2.1-0.5c0.7-0.3,1.3-0.8,1.9-1.2c0.3-0.2,0.6-0.4,0.9-0.5c0.2-0.1,0.5-0.1,0.7-0.1s0.5,0.1,0.7,0.1
		c0.3,0.1,0.5,0.2,0.7,0.4c0.2,0.2,0.4,0.4,0.5,0.6c0.1,0.3,0.2,0.6,0.2,0.9c0,0.8-0.3,1.7-0.9,2.2c-0.3,0.3-0.7,0.6-1,0.9
		c-0.4,0.3-0.9,0.6-1.4,0.8c-0.6,0.3-1.3,0.5-1.9,0.6c-0.8,0.2-1.7,0.3-2.5,0.2c-1.4,0-2.8-0.2-4.1-0.8c-1.2-0.5-2.2-1.2-3.1-2.1
		c-0.9-0.9-1.5-2-1.9-3.2c-0.5-1.3-0.7-2.7-0.7-4c0-1.4,0.2-2.7,0.8-4c0.5-1.2,1.2-2.3,2.1-3.2C131,8,133.5,7,136.1,7
		c1.4,0,2.8,0.2,4.1,0.7c1.3,0.5,2.4,1.3,3.2,2.3c0.2,0.3,0.4,0.6,0.6,1c0.1,0.3,0.1,0.6,0.1,0.9c0,0.3-0.1,0.7-0.2,1
		c-0.1,0.2-0.3,0.5-0.5,0.6c-0.2,0.2-0.5,0.3-0.7,0.4c-0.6,0.2-1.2,0.2-1.8-0.1c-0.3-0.1-0.5-0.3-0.8-0.5c-0.2-0.1-0.3-0.3-0.5-0.5
		c-0.3-0.3-0.5-0.5-0.9-0.6c-0.4-0.2-0.7-0.4-1.1-0.5c-0.5-0.2-1-0.2-1.6-0.2c-0.7,0-1.5,0.2-2.1,0.5c-0.6,0.3-1.1,0.8-1.4,1.3
		c-0.4,0.6-0.6,1.2-0.8,1.8c-0.2,0.7-0.3,1.3-0.3,2C131.5,17.8,131.6,18.4,131.8,19.1z"/>
	<path d="M162.5,6.4c-1,0-1.9,0.3-2.6,1c-0.7,0.7-1.1,1.6-1.1,2.5v8.6c0.1,0.9-0.2,1.8-0.6,2.5
		c-0.4,0.6-1.2,0.9-1.9,0.8c-0.7,0.1-1.4-0.2-1.9-0.8c-0.5-0.7-0.7-1.6-0.7-2.5V9.8c0-0.9-0.4-1.9-1.1-2.5c-1.5-1.3-3.7-1.3-5.1,0
		c-0.7,0.7-1.1,1.6-1.1,2.5v8.4c0,1.4,0.2,2.7,0.7,4c0.4,1.2,1.1,2.3,2,3.2c0.9,0.9,1.9,1.6,3.1,2.1c2.6,1,5.5,1,8.1,0
		c1.2-0.5,2.2-1.2,3.1-2.1c0.9-0.9,1.6-2,2-3.2c0.5-1.3,0.7-2.7,0.7-4V9.8c0-0.9-0.4-1.9-1.1-2.5C164.3,6.7,163.4,6.4,162.5,6.4z
		 M165,18.2c0,1.3-0.2,2.5-0.6,3.7c-0.4,1-1,2-1.7,2.8c-0.8,0.8-1.7,1.4-2.7,1.8c-1.1,0.5-2.4,0.7-3.6,0.7s-2.5-0.2-3.6-0.7
		c-1-0.4-2-1-2.7-1.8c-0.8-0.8-1.4-1.8-1.7-2.8c-0.4-1.2-0.6-2.4-0.6-3.7V9.8c0-0.6,0.2-1.3,0.7-1.7c1-0.9,2.6-0.9,3.6,0
		c0.5,0.4,0.7,1.1,0.7,1.7v8.6c-0.1,1.1,0.2,2.2,0.9,3.1c0.7,0.9,1.7,1.3,2.8,1.3c1.1,0.1,2.1-0.4,2.8-1.3c0.6-0.9,0.9-2,0.9-3.1
		V9.8c0-0.6,0.2-1.3,0.7-1.7c1-0.9,2.6-0.9,3.6,0c0.5,0.4,0.7,1.1,0.7,1.7L165,18.2z"/>
	<path d="M198.8,9.9c0.1-1-0.4-2-1.1-2.7c-0.8-0.6-1.8-0.9-2.8-0.9c-0.7,0-1.4,0.2-1.9,0.7c-0.4,0.4-0.8,0.9-1,1.5
		l-3.7,8.7l-3.7-8.7c-0.5-1.1-1.6-2.6-5.2-2.6c-1.3,0-2.6,0.4-3.6,1.2c-0.6,0.4-1.1,0.8-1.6,1.4c-0.4-1.4-1.5-2.2-3.3-2.2
		c-1.8-0.1-3.3,1.2-3.4,2.9c0,0.1,0,0.2,0,0.3v14.8c0,1,0.4,1.9,1.1,2.6c1.5,1.3,3.6,1.3,5.1,0c0.7-0.7,1.1-1.6,1.1-2.6v-6.7
		c0-0.8,0.1-1.6,0.4-2.4c0.3-0.6,0.6-1.1,1.1-1.6c0.5-0.4,1-0.7,1.6-0.9c0.2-0.1,0.4-0.1,0.6-0.2l6,12.6c0.3,0.7,0.8,1.3,1.3,1.8
		c0.6,0.5,1.4,0.7,2.2,0.7s1.6-0.2,2.2-0.6c0.6-0.5,1.1-1.1,1.4-1.7l6.8-13.9C198.6,11,198.7,10.4,198.8,9.9z M197.4,11L190.6,25
		c-0.2,0.5-0.6,1-1.1,1.4c-0.5,0.3-1,0.4-1.5,0.4c-0.5,0-1.1-0.1-1.5-0.4c-0.4-0.4-0.8-0.9-1-1.4l-6.3-13.4l-0.4,0.1
		c-0.4,0.1-0.8,0.2-1.2,0.3c-0.7,0.2-1.4,0.6-1.9,1.1c-0.6,0.5-1.1,1.2-1.4,1.9c-0.4,0.9-0.6,1.9-0.5,2.8v6.7c0,0.7-0.2,1.3-0.7,1.7
		c-1,0.9-2.6,0.9-3.6,0c-0.5-0.5-0.7-1.1-0.7-1.7V9.5c0-1.1,0.9-2.1,2-2.1c0.1,0,0.2,0,0.3,0c1.6,0,2.3,0.7,2.3,2.2v0.6l1.1,0.2
		c0.5-0.9,1.2-1.8,2.1-2.4c0.9-0.6,1.9-1,3-1c2.9,0,3.7,1,4.1,2l4.6,11.1L193,9c0.2-0.4,0.5-0.8,0.8-1.1c0.3-0.3,0.7-0.4,1.2-0.4
		c0.8,0,1.5,0.2,2.1,0.7c0.5,0.5,0.8,1.1,0.8,1.8C197.6,10.3,197.5,10.7,197.4,11z"/>
	<path d="M218.5,18c0.4-0.8,0.6-1.7,0.5-2.6c0-2.5-1-4.8-2.7-6.6c-0.9-0.9-2-1.6-3.2-2.1c-2.7-1.1-5.8-1.1-8.5,0.1
		c-1.3,0.6-2.5,1.4-3.5,2.4s-1.8,2.3-2.3,3.6c-0.5,1.4-0.8,2.9-0.8,4.4s0.3,3,0.8,4.4c0.5,1.3,1.3,2.5,2.3,3.5s2.2,1.8,3.5,2.3
		c1.4,0.6,2.9,0.8,4.4,0.8c1.5,0,3.1-0.2,4.5-0.7c1.1-0.4,2.2-0.9,3.1-1.6c0.4-0.3,0.8-0.7,1-1.1c0.3-0.5,0.5-1.1,0.5-1.7
		c0-0.8-0.3-1.6-0.9-2.2c-0.6-0.7-1.4-1-2.3-1c-0.5,0-1.1,0.2-1.5,0.4c-0.1,0.1-0.3,0.2-0.6,0.3c-0.3,0.2-0.6,0.3-0.9,0.4
		c-0.4,0.2-0.7,0.3-1.1,0.4s-0.9,0.2-1.3,0.2c-0.9,0-1.8-0.2-2.6-0.8c-0.6-0.4-1-1-1.2-1.7H216C216.9,19.4,217.9,18.9,218.5,18z
		 M204.4,18.9c0.2,1.2,0.9,2.2,1.9,3c0.9,0.6,2.1,1,3.2,1c0.5,0,1.1-0.1,1.6-0.2c0.4-0.1,0.9-0.3,1.3-0.4c0.3-0.1,0.7-0.3,1-0.5
		c0.2-0.1,0.4-0.2,0.5-0.3c0.3-0.2,0.7-0.3,1.1-0.3c0.6,0,1.1,0.2,1.5,0.7c0.4,0.4,0.6,0.9,0.6,1.5c0,0.4-0.1,0.8-0.3,1.1
		s-0.5,0.6-0.8,0.8c-0.9,0.6-1.8,1.1-2.8,1.4c-1.3,0.4-2.7,0.6-4.1,0.6s-2.7-0.2-4-0.7c-1.2-0.5-2.2-1.2-3.1-2.1
		c-0.9-0.9-1.6-2-2-3.2c-0.5-1.3-0.7-2.7-0.7-4c0-1.4,0.2-2.7,0.8-4c0.5-1.2,1.2-2.3,2.1-3.2c0.9-0.9,1.9-1.7,3.1-2.2
		c2.4-1,5.1-1.1,7.6-0.1c1.1,0.4,2,1.1,2.8,1.9c0.8,0.8,1.4,1.7,1.8,2.7s0.6,2.1,0.6,3.1c0,0.7-0.1,1.5-0.4,2.1
		c-0.1,0.2-0.3,0.6-1.5,0.6h-11.8L204.4,18.9z"/>
	<path d="M225,5.6c0-2.2-1.7-3.9-3.9-3.9c-2.2,0-3.9,1.7-3.9,3.9s1.7,3.9,3.9,3.9C223.3,9.3,225,7.7,225,5.6z
		 M224.5,5.6c0,1.9-1.5,3.4-3.4,3.4s-3.4-1.5-3.4-3.4s1.5-3.4,3.4-3.4C223,2.2,224.5,3.7,224.5,5.6z M222.1,7.8h0.8l-1.2-1.9
		c0.4-0.1,1-0.4,1-1.2c0-1-0.7-1.3-1.6-1.3h-1.3v4.5h0.6v-2h0.6L222.1,7.8z M221,5.4h-0.6V3.9h0.6c0.5,0,1,0.1,1,0.8
		S221.5,5.4,221,5.4z"/>
	<path d="M212.1,12.6c-0.4-0.4-0.8-0.7-1.3-0.9c-0.6-0.2-1.2-0.4-1.8-0.3c-1.1,0-2.2,0.3-3,1c-0.8,0.7-1.4,1.7-1.6,2.8
		l-0.2,0.7h8.8v-0.5c0-0.5-0.1-0.9-0.3-1.4C212.6,13.4,212.4,13,212.1,12.6z M205.7,14.7c0.2-0.6,0.5-1.1,1-1.5
		c0.6-0.5,1.5-0.8,2.3-0.7c0.5,0,0.9,0.1,1.3,0.3c0.3,0.1,0.7,0.4,0.9,0.6c0.2,0.3,0.4,0.6,0.5,0.9c0.1,0.1,0.1,0.3,0.1,0.5
		L205.7,14.7z"/>
</g>
</svg>
