<?xml version="1.0" encoding="utf-8"?>
<svg version="1.1" id="Layer_1" focusable="false" xmlns="http://www.w3.org/2000/svg" xmlns:xlink="http://www.w3.org/1999/xlink"
	 x="0px" y="0px" viewBox="0 0 448 512" style="enable-background:new 0 0 448 512;" xml:space="preserve">
<path fill="currentColor" d="M192,80v352c0,26.5-21.5,48-48,48H48c-26.5,0-48-21.5-48-48V80c0-26.5,21.5-48,48-48h96C170.5,32,192,53.5,192,80z M144,426
	V86c0-3.3-2.7-6-6-6H54c-3.3,0-6,2.7-6,6v340c0,3.3,2.7,6,6,6h84C141.3,432,144,429.3,144,426z M448,80v352c0,26.5-21.5,48-48,48
	h-96c-26.5,0-48-21.5-48-48V80c0-26.5,21.5-48,48-48h96C426.5,32,448,53.5,448,80z M400,426V86c0-3.3-2.7-6-6-6h-84
	c-3.3,0-6,2.7-6,6v340c0,3.3,2.7,6,6,6h84C397.3,432,400,429.3,400,426z"/>
</svg>
