<?xml version="1.0" encoding="utf-8"?>
<!-- Generator: Adobe Illustrator 23.1.1, SVG Export Plug-In . SVG Version: 6.00 Build 0)  -->
<svg version="1.1" id="Layer_1" xmlns="http://www.w3.org/2000/svg" xmlns:xlink="http://www.w3.org/1999/xlink" x="0px" y="0px"
	 viewBox="0 0 125 130" style="enable-background:new 0 0 125 130;" xml:space="preserve">
<g>
		<path fill="#F1F1F2" d="M28.9,50v13.8h-4V50h-4.4v-3h12.9v3H28.9z"/>
		<path fill="#F1F1F2" d="M45.8,63.8l-3.6-6.5h-1.3v6.5h-4V47h6.2c3.3,0,6.4,1.4,6.4,5c0,3.2-2,4.5-3.3,4.8l4.4,7H45.8z M42.5,49.8
			h-1.6v4.3h1.6c1.5,0,2.9-0.4,2.9-2.2C45.4,50.4,44,49.8,42.5,49.8z"/>
		<path fill="#F1F1F2" d="M64.9,63.8l-1.3-3.4h-6.2l-1.1,3.4h-4.2L58.7,47h4.2l6.5,16.9H64.9z M60.7,51.1l-2.2,6.1h4.2L60.7,51.1z"/>
		<path fill="#F1F1F2" d="M78.5,63.8h-5.8V47h5.8c5.5,0,9.4,2.9,9.4,8.4C87.9,61,83.9,63.8,78.5,63.8z M78.9,50.2h-2v10.2h2
			c3.1,0,5.1-2,5.1-5C83.9,52.2,82.1,50.2,78.9,50.2z"/>
		<path fill="#F1F1F2" d="M92.1,63.8V47h11.1v3.2h-7.1v3.4h6.7v3.2h-6.7v3.9h7.3V64H92.1V63.8z"/>
		<path fill="#F1F1F2" d="M37.2,85.4l-3.8-6.1h-1.6v6.1h-2V71H34c2.5,0,4.9,1.3,4.9,3.9c0,2.5-1.8,3.6-3.3,3.9l4.2,6.3h-2.5V85.4z
			 M36,73.2c-0.7-0.5-1.5-0.5-2.4-0.5h-1.5v4.8h1.5c1.1,0,1.8,0,2.4-0.5c0.7-0.5,0.9-1.1,0.9-2C36.9,74.2,36.5,73.5,36,73.2z"/>
		<path fill="#F1F1F2" d="M54.1,85.4l-1.5-3.8h-6.2l-1.5,3.8h-2.2L48.7,71h1.8l6,14.3H54.1z M49.4,73.5L46.9,80H52L49.4,73.5z"/>
		<path fill="#F1F1F2" d="M64,72.6v12.6h-2V72.6h-4.2V71H68v1.6H64z"/>
		<path fill="#F1F1F2" d="M72.7,85.4V71h8.5v1.6h-6.4v4.3h6v1.6h-6v5h6.5v1.6h-8.7V85.4z"/>
		<path fill="#F1F1F2" d="M90.7,85.5c-2.5,0-4-1.6-4.7-2.3l1.3-1.4c0.7,0.9,2.2,2,3.6,2s2.9-0.9,2.9-2.3s-1.6-2.2-2.4-2.3
			c-0.7-0.4-1.8-0.7-2.4-0.9c-1.5-0.7-2.4-1.8-2.4-3.6c0-2.5,2.4-3.8,4.7-3.8s3.8,1.4,4.2,1.8l-1.1,1.4c-0.7-0.7-1.8-1.6-3.3-1.6
			s-2.5,0.7-2.5,2c0,1.3,0.9,1.8,1.8,2.2l2.7,1.1c1.5,0.7,2.5,1.8,2.5,3.6C95.6,84.1,93.2,85.5,90.7,85.5z"/>
		<path fill="#D97924" d="M10.7,40.2c-0.5,1.1-1.5,1.6-2.2,2l-0.7-1.3c0.5-0.4,1.3-0.9,1.6-1.4c0.2-0.5,0.2-1.1-0.4-1.3
			C8.5,38,8.2,38.4,8,38.6c-0.2,0.2-0.7,0.7-0.9,0.9c-0.2,0.2-0.4,0.4-0.9,0.5c-0.4,0.2-0.9,0.2-1.6,0c-0.7-0.4-1.1-0.9-1.1-1.4
			c-0.2-0.5,0-1.3,0.4-2c0.4-0.7,1.3-1.4,1.8-1.8L6.4,36c-0.5,0.2-1.3,0.7-1.5,1.3c-0.2,0.5-0.2,0.9,0.2,1.3
			c0.4,0.2,0.7-0.2,1.1-0.4c0.2-0.2,0.7-0.7,0.9-0.9c0.7-0.7,1.6-1.1,2.5-0.5C11.3,37.3,11.3,38.9,10.7,40.2z"/>
		<path fill="#D97924" d="M11.1,27.3l5.1,3.6l-1.1,1.4L10,28.7l-1.1,1.6l-1.1-0.9l3.3-4.7l1.1,0.9L11.1,27.3z"/>
		<path fill="#D97924" d="M23.3,22.8L20,21.9l-0.4,0.4l2,2l-1.3,1.3l-5.3-5.4l2-2c1.1-1.1,2.5-1.6,3.6-0.4c1.1,1.1,0.7,2.2,0.5,2.5
			l3.6,0.9L23.3,22.8z M17.8,19.4l-0.5,0.5l1.5,1.4l0.5-0.5c0.5-0.5,0.7-1.1,0.2-1.6C18.9,18.6,18.4,19,17.8,19.4z"/>
		<path fill="#D97924" d="M32.5,15.8l-1.3-0.9l-2.2,1.4l0.4,1.6L27.8,19L26,11.1l1.6-1.1l6.5,4.8L32.5,15.8z M28,12.2l0.7,2.9l1.6-1.1
			L28,12.2z"/>
		<path fill="#D97924" d="M38.5,12.7l-3.1-7L37.1,5l3.1,7L38.5,12.7z"/>
		<path fill="#D97924" d="M48.9,9.3c-2,0.5-4.2-0.4-4.7-2.9c-0.5-2.5,0.9-4.1,2.9-4.7c2-0.5,3.1,0.4,3.5,0.5l-1.1,1.3
			c-0.4-0.2-1.1-0.5-2.2-0.4c-1.3,0.4-1.8,1.4-1.5,2.9c0.4,1.4,1.5,2.2,2.7,1.8C49.8,7.5,50,7,50,7l-0.2-1.1l-1.6,0.4L47.8,5
			l3.3-0.7l0.7,2.9C51.6,7.7,50.9,8.8,48.9,9.3z"/>
		<path fill="#D97924" d="M62.1,7.5L62,4.3l-3.1,0.2L59,7.7h-1.8L57,0.2h1.8V3L62,2.9V0h1.8L64,7.5H62.1z"/>
		<path fill="#D97924" d="M73.4,2.3l-0.9,6.1l-1.8-0.4L71.6,2l-1.8-0.2l0.2-1.4l5.6,0.9l-0.2,1.4L73.4,2.3z"/>
		<path fill="#D97924" d="M82.1,11.1c-2.2-0.7-3.3-2.7-2.5-5c0.9-2.3,2.9-3,5.1-2.3c1.5,0.5,2,1.4,2.2,1.6l-1.1,1.3
			c0-0.2-0.7-1.1-1.6-1.4c-1.3-0.4-2.4,0-2.9,1.4c-0.5,1.4,0.2,2.5,1.5,2.9c0.9,0.4,1.6,0.2,2.2,0l0.2,1.4
			C84.5,11.3,83.6,11.7,82.1,11.1z"/>
		<path fill="#D97924" d="M94.3,16.1c-0.7,0.2-1.6,0-2.5-0.5c-0.9-0.5-1.5-1.3-1.6-2c-0.2-0.7,0-1.4,0.5-2.3L93,7.5l1.5,0.9l-2.4,3.8
			c-0.4,0.5-0.5,0.9-0.4,1.3c0,0.4,0.2,0.7,0.7,0.9c0.4,0.2,0.9,0.4,1.3,0.2c0.4-0.2,0.5-0.5,0.9-0.9L97,9.9l1.5,0.9l-2.4,3.8
			C95.6,15.4,95,16,94.3,16.1z"/>
		<path fill="#D97924" d="M101.7,23.1l0.7-3.2l-0.4-0.4l-2,2.2l-1.3-1.3l5.1-5.6l2,1.8c1.1,0.9,1.6,2.3,0.5,3.6c-0.9,1.1-2,0.9-2.5,0.5
			l-0.7,3.6L101.7,23.1z M105,17.6l-0.5-0.5l-1.3,1.4l0.5,0.5c0.5,0.4,1.1,0.7,1.6,0.2C105.7,18.5,105.4,17.9,105,17.6z"/>
		<path fill="#D97924" d="M108.6,30.8l-1.1-1.4l4.4-6.8L113,24l-2.9,4.7l5.3-1.8l1.1,1.4L108.6,30.8z"/>
		<path fill="#D97924" d="M112.6,37.1l6.9-3.4l2.2,4.3l-1.3,0.5l-1.5-2.7l-1.5,0.7l1.3,2.7l-1.3,0.5l-1.3-2.7l-1.6,0.7l1.5,2.9
			l-1.3,0.7L112.6,37.1z"/>
		<path fill="#D97924" d="M5.8,93.1l-0.4-0.7l-2.5,1.3L2,92l6.7-3.4l1.3,2.3c0.7,1.4,0.7,2.7-0.9,3.6C7.4,95.4,6.5,94.5,5.8,93.1z
			 M8.7,91.3l-0.4-0.5l-1.8,0.9l0.4,0.5c0.4,0.7,0.7,1.1,1.5,0.7C9.1,92.5,9.1,92,8.7,91.3z"/>
		<path fill="#D97924" d="M11.8,106.9l1.3-3l-0.4-0.4l-2.2,1.8L9.3,104l5.8-4.8l1.8,2.2c0.9,1.1,1.3,2.5,0,3.6
			c-1.1,0.9-2.2,0.5-2.7,0.2l-1.3,3.4L11.8,106.9z M15.8,101.8l-0.4-0.5l-1.5,1.3l0.4,0.5c0.4,0.5,0.9,0.9,1.6,0.4
			C16.5,102.9,16.2,102.4,15.8,101.8z"/>
		<path fill="#D97924" d="M22.2,116.6c-1.8-1.4-2.4-3.6-0.9-5.6c1.5-2,3.8-2,5.6-0.7c1.8,1.3,2.4,3.6,0.9,5.6
			C26.3,117.8,24,118,22.2,116.6z M26,111.5c-1.1-0.7-2.4-0.5-3.3,0.5c-0.9,1.1-0.7,2.5,0.4,3.2c1.1,0.7,2.4,0.5,3.3-0.5
			C27.3,113.7,27.1,112.4,26,111.5z"/>
		<path fill="#D97924" d="M46.7,128l-0.2-1.6l-2.5-0.7l-0.9,1.3l-1.8-0.5l4.7-6.6l1.8,0.5l0.7,8.1L46.7,128z M46.3,122.1l-1.6,2.3
			l1.8,0.5L46.3,122.1z"/>
		<path fill="#D97924" d="M60.5,130c-2.2,0-4-1.6-3.8-4.1c0.2-2.5,2-3.8,4.2-3.8c1.6,0,2.4,0.7,2.5,0.9l-0.5,1.4c-0.2,0-1.1-0.7-2-0.7
			c-1.3,0-2.4,0.7-2.4,2.2c0,1.4,0.9,2.3,2.2,2.3c0.9,0,1.6-0.4,2-0.7l0.5,1.4C62.9,129.5,62,130,60.5,130z"/>
		<path fill="#D97924" d="M75,128.7c-2.2,0.4-4.2-0.7-4.7-3c-0.4-2.3,1.1-4.1,3.3-4.5c1.6-0.4,2.5,0.2,2.7,0.4l-0.4,1.6
			c-0.2-0.2-1.1-0.5-2-0.4c-1.3,0.2-2.2,1.3-1.8,2.7c0.2,1.4,1.5,2.2,2.7,1.8c0.9-0.2,1.6-0.7,1.8-1.1l0.9,1.3
			C77.2,127.7,76.5,128.6,75,128.7z"/>
		<path fill="#D97924" d="M89.2,124.4c-2,0.9-4.4,0.4-5.3-2c-0.9-2.2,0-4.3,2.2-5.2c2-0.9,4.4-0.2,5.3,2
			C92.3,121.6,91.2,123.5,89.2,124.4z M86.7,118.7c-1.1,0.5-1.6,1.8-1.1,3c0.5,1.3,1.8,1.8,3.1,1.3c1.1-0.5,1.6-1.8,1.1-3
			C89,118.7,87.8,118.2,86.7,118.7z"/>
		<path fill="#D97924" d="M104.5,114c0,0.7-0.5,1.6-1.5,2.2c-0.9,0.7-1.8,0.9-2.5,0.7c-0.7-0.2-1.5-0.5-2-1.4l-2.7-3.4l1.5-1.1l2.7,3.4
			c0.4,0.4,0.5,0.7,1.1,0.9c0.4,0,0.7,0,1.1-0.4c0.4-0.4,0.5-0.7,0.5-1.1c0-0.4-0.2-0.7-0.5-1.3l-2.7-3.2l1.5-1.1l2.7,3.4
			C104.3,112.6,104.5,113.3,104.5,114z"/>
		<path fill="#D97924" d="M115.4,104l-6.2-0.7c0,0,0.7,0.5,1.5,1.1l2.7,2.2l-1.1,1.4l-6-4.7l1.3-1.4l6,0.7c0,0-0.7-0.5-1.3-1.1
			l-2.7-2.2l1.1-1.3l6,4.7L115.4,104z"/>
		<path fill="#D97924" d="M117,89.5l5.6,2.7l-0.7,1.6l-5.6-2.7l-0.9,1.8l-1.3-0.5l2.5-5l1.3,0.5L117,89.5z"/>
		<path fill="#D97924" d="M123.5,65.4c0.8,0,1.5-0.6,1.5-1.4c0-0.8-0.7-1.4-1.5-1.4c-0.8,0-1.5,0.6-1.5,1.4
			C122.1,64.8,122.7,65.4,123.5,65.4z"/>
		<path fill="#D97924" d="M1.5,65.4c0.8,0,1.5-0.6,1.5-1.4c0-0.8-0.7-1.4-1.5-1.4C0.7,62.6,0,63.2,0,64C0,64.8,0.7,65.4,1.5,65.4z"/>
</g>
</svg>
