<?xml version="1.0" encoding="utf-8"?>
<!-- Generator: Adobe Illustrator 24.3.0, SVG Export Plug-In . SVG Version: 6.00 Build 0)  -->
<svg version="1.1" id="Layer_1" xmlns="http://www.w3.org/2000/svg" xmlns:xlink="http://www.w3.org/1999/xlink" x="0px" y="0px"
	 viewBox="0 0 70 72" style="enable-background:new 0 0 70 72;" xml:space="preserve">
<g fill="currentColor">
	<g id="Layer_1_1_">
		<g>
			<path class="st0" d="M68.1,36.5v-1.3h1.2v1.3H68.1z"/>
			<path class="st0" d="M0.7,36.5v-1.3h1.2v1.3H0.7z"/>
			<path class="st0" d="M30,38.9l0.2-0.1h0.1l0.1,0.1V39v-0.1h0.1v-0.1l0.2-0.1v-0.1l0.1-0.1l0.1-0.1l0.1-0.1v-0.2L31,38v-0.1v-0.1
				h-0.1v-0.1v-0.1l0.1-0.2v-0.1h-0.1h-0.1h-0.1h-0.1l-0.2,0.1l-0.1,0.1l-0.1,0.2l0.3,0.1v0.1L30.5,38l-0.1,0.1l-0.1,0.1h-0.1v0.1
				v0.1v0.1v0.2v0.1L30,38.9L30,38.9z M25.8,20.3L25.8,20.3L25.8,20.3l0.2,0.1h0.1h0.1v-0.1v-0.1V20v-0.2l0.1-0.2v-0.1v0.1h-0.1v0.1
				h-0.1H26v0.1v0.4L25.8,20.3z M25.5,18.7L25.5,18.7l-0.2-0.2l-0.1-0.1l-0.1-0.1v-0.1v0.1v0.1L25,18.5v0.1v0.1v0.1v0.1V19l0.1,0.1
				l0.1,0.1v0.1v0.1L25,19.1v0.1l-0.4,0.2l0.1-0.2h-0.1v-0.1V19l-0.2-0.1v-0.1h-0.1v-0.1h-0.1v0.1v0.1V19v0.1h0.1l0.1,0.1l0.1,0.1
				v0.1h-0.1h-0.1l0.1,0.1v0.1h-0.1v-0.1l-0.2-0.3v0.1v0.1v0.1v0.1v0.1h-0.2v0.1l0.1,0.1v0.2v0.1l0.1,0.1l0.1,0.1l0.3,0.1h0.1v-0.1
				v-0.1v-0.1v-0.1v0.1v0.1v0.1l0.1-0.1v0.1h0.1h0.1v0.1l0.2,0.2v0.1H25l-0.1-0.1l-0.1-0.1l-0.1-0.1h-0.1h-0.1l-0.1,0.1v0.1l0.2,0.2
				h0.1h0.1V21l0.1,0.1H25h0.1h0.1h0.1l-0.1,0.1l0.5-0.1h0.1v0.1v0.1v0.1v-0.1v-0.1v-0.1V21v-0.1V21l0.1,0.1h0.3h0.1h0.1l-0.3,0.2
				L26,21.4v0.1v0.1l-0.1,0.1v0.1v0.1h0.2h0.1l0.1-0.1l0.2-0.3h0.1l0.1-0.1v-0.1v-0.1h0.1l0.1-0.1L27,21v-0.1v-0.1l0.1-0.1h-0.2
				l-0.1-0.1h-0.1h-0.1v0.2h-0.1v-0.1v-0.1h-0.1l-0.1-0.1h-0.1h-0.1H26h0.1v-0.1H26h-0.3l0.1-0.1v-0.1v-0.1V20v-0.1v-0.1h-0.1h-0.1
				v-0.1l0.1-0.1v-0.1v-0.1v-0.1v-0.1V19L25.5,18.7z M26.1,19.2v-0.3V19V19.2z M26,20.4L26,20.4v0.2h0.1h0.1v-0.1L26,20.4L26,20.4z
				 M25.8,24.4L25.8,24.4l-0.2-0.1h-0.1l-0.1,0.1v0.1h-0.1h-0.1h-0.1v0.1l0.1,0.1v0.1L25,24.9h0.1h0.1l0.3,0.1h0.1v0.1l0.1,0.1h0.1
				l0.2-0.1v0.1v0.1l-0.2,0.1h-0.1v0.1v0.1v0.1l0.1,0.1h0.1h0.2l0.2-0.1h0.1l-0.1,0.1l-0.1,0.1H26L25.9,26h-0.1h-0.1h-0.1h-0.1v-0.1
				v-0.1l-0.1-0.1h-0.1h-0.1h-0.1v0.1v0.1V26l0.1,0.1l0.1,0.1h0.1h0.3l0.1-0.1l0.1-0.1l0.3-0.1h0.1h0.1V26l0.1,0.1h0.1l0.3-0.2
				l0.1-0.1v-0.1h-0.1h-0.1h-0.1h-0.1l0.1-0.1v-0.1v-0.1v0.1h0.1v-0.1v-0.1h0.1v-0.1v-0.1V25v-0.1h-0.1l-0.1-0.1h-0.1h-0.3l-0.1-0.3
				L25.8,24.4z M24.2,22L24.2,22h0.2H24.2L24.2,22L24.2,22L24,22.1L24.2,22L24.2,22z M23.8,24.7L23.8,24.7L23.8,24.7L23.8,24.7
				l0.2,0.1l0.2-0.1l0.1-0.2v-0.1v-0.1v-0.1h-0.1h-0.1L24,24.3h-0.1l-0.1,0.1V24.7z M25.6,30.2l0.2-0.1l0.1-0.1v-0.1v-0.1v-0.1h-0.1
				v-0.1v-0.1v-0.1v-0.2v-0.3v-0.2l-0.1,0.1h-0.6L25,28.9L24.9,29v0.1V29v-0.2l-0.2,0.1L24.6,29v0.1v0.1v0.1l0.1,0.1l-0.1,0.2v0.1
				v0.1v0.1V30h0.1l-0.1-0.2l0.1-0.1v-0.1l0.1-0.2l0.1-0.1H25h0.1h0.1l-0.1,0.1L25,29.5v0.1l0.1,0.1l0.1,0.2L25,30l-0.1,0.1v0.1v0.1
				H25h0.1l0.1-0.1v-0.1L25.6,30.2z M34.3,11l0.2,0.1v0.1l0.1,0.2h0.3h0.2l0.1-0.1h-0.1l-0.2,0.1h-0.1v-0.1l0.1-0.1H35h0.1v-0.1
				l-0.2-0.3h-0.1h-0.1l-0.1-0.1l-0.1,0.1L34.3,11L34.3,11z M25.4,27.5L25.4,27.5l-0.1,0.2v0.1v0.1h-0.1h0.1h0.1h0.1h0.1v-0.1v-0.1
				l0.1-0.2v-0.1h-0.1L25.4,27.5z M27.3,26.3L27.3,26.3L27.3,26.3l-0.1,0.2h0.1h0.1L27.3,26.3z M25.4,32.2l0.1-0.2h-0.2h0.1h0.1h0.1
				L25.4,32.2z M27.1,26.8l0.1,0.2L27.1,26.8L27.1,26.8l0.1-0.2v-0.1L27.1,26.8z M25.2,22.2L25,22h-0.1l-0.1,0.1l-0.2,0.2h0.1
				l0.1,0.1l0.1,0.1H25h0.1l0.1-0.1L25.2,22.2L25.2,22.2z M36.7,9L36.7,9L36.7,9l0.2-0.2L37,8.6h0.1v0.1l0.1-0.2h0.1v0.1l0.1-0.1
				V8.4h0.1h0.2V8.3V8.2v0.1h-0.2h-0.1l-0.1,0.1h-0.1l0.1-0.1h-0.1l-0.1,0.1H37v0.1v0.1l-0.1,0.1L36.7,9z M36.2,9.1L36.2,9.1
				l0.1,0.2h0.1h0.1h-0.1V9.2V9.1V9l0.1-0.1V8.8V8.7h-0.1v0.1v0.1V9L36.2,9.1L36.2,9.1L36.2,9.1z M36.9,9.5L37,9.7h0.1h0.1l0.1-0.1
				l-0.1-0.1V9.4h-0.1V9.3V9.2H37h-0.1L37,9.3L36.9,9.5l-0.2,0.1L36.9,9.5z M35.9,11.4L35.9,11.4L35.9,11.4L35.9,11.4l-0.2-0.1h-0.2
				h0.2L35.9,11.4l-0.1,0.2l0.2,0.2h0.1v-0.1v-0.1v-0.1L35.9,11.4z M35.4,8.1L35.4,8.1l0.1,0.2L35.4,8.1L35.4,8.1h0.2l0.1,0.1
				l0.2,0.2v0.1L36,8.4h0.1L36,8.2l-0.3-0.1h0.1V8h-0.1l-0.1,0.1H35.4z M26.1,29.2l0.1-0.3h0.1l0.1-0.1l0.1-0.2l0.3-0.5l0.1-0.3
				l0.1-0.1v-0.1l0.1-0.1v-0.1v-0.1v-0.1H27l-0.1,0.1l-0.2,0.2l-0.2,0.2h-0.1l-0.2,0.1l-0.1,0.1L26,28v0.1v0.1h0.1h0.1h0.1l-0.1,0.1
				h-0.3l-0.1,0.1l-0.1,0.1h-0.1v0.1v0.1V29l0.1,0.1l0.1,0.1L26.1,29.2z M34.6,10.4l0.2-0.1v-0.1v-0.1l-0.1,0.1L34.6,10.4L34.6,10.4
				L34.6,10.4l0.2,0.2H35h0.1v-0.1h0.1v-0.1h0.1l0.1-0.1v-0.1l0.1,0.3v0.1l0.2,0.1h0.1h0.1l0.1-0.1h0.1h0.1v-0.1v-0.1h-0.1L36,10.5
				h-0.1v0.1h-0.1h-0.1v-0.1v-0.1v-0.1l0.1-0.1v-0.1h-0.1h-0.1h-0.1h-0.1h-0.1V10h-0.1V9.9h-0.1L35,9.8h-0.1l0.6,0.4h-0.1h-0.1h0.1
				l0.1-0.1l0.1-0.1V9.9l0.2-0.1l-0.3-0.2l-0.1-0.1l-0.1-0.1l-0.1-0.1h-0.1h-0.2h-0.2l-0.1,0.1l-0.1,0.2v0.3v0.2L34.6,10.4
				L34.6,10.4z M35.4,9.3l0.2,0.1h0.1h0.1V9.3V9.2l0.1-0.1h-0.1h-0.1h-0.1L35.4,9.3L35.4,9.3z M28.1,29.9L28.1,29.9L28,30.1v0.2v0.1
				l0.1,0.1l0.1,0.1v0.2l0.1,0.1l0.1,0.1l0.1,0.1h0.2h0.1h0.1V31v-0.1v-0.1v-0.1l0.1-0.1l-0.1-0.1v-0.1v-0.1l-0.1-0.1v-0.1l-0.1-0.3
				v-0.1l-0.1-0.1v0.2l-0.2-0.1h-0.1h-0.1L28.1,29.9z M27,27L27,27l-0.2,0.1v0.1h0.1H27C27,27.2,27,27,27,27z M48.2,53l-0.4-0.2v0.1
				V53v0.1l0.1,0.1H48h0.4h0.1v-0.1V53L48.2,53z M50.9,47.2V47v-0.1v-0.1v-0.1v-0.2l-0.1-0.2L50.7,46l-0.1-0.1l-0.1-0.1l-0.8-0.6
				L49.3,45l-1-0.2l-0.1,0.1h-0.2L48,44.8h-0.1h-0.3h-0.1h-0.1h-0.1h-0.1H47h-0.2l-0.2,0.1L46.5,45v0.1l-0.1,0.1v0.1v0.1v0.1
				l-0.1,0.1l-0.1,0.1v0.1h0.2h-0.1h-0.1h-0.1H46l-0.1-0.1l-0.2-0.3l-0.1-0.1l-0.1-0.1h-0.2h-0.1v-0.1V45h0.1h0.1l0.1-0.1l0.3-0.4
				h0.1l0.3-0.3h0.1h0.1l0.1-0.3v-0.2v-0.2l-0.3-0.7v-0.1v-0.1l-0.1-0.1H46l-0.1-0.1v-0.1l-0.1-0.1h-0.1h-0.1h-0.1l-0.3-0.3v-0.3
				h-0.1H45l-0.1-0.1l-0.1-0.1L44.6,41l-0.2-0.2h-0.1l-0.6,0.1L43.6,41h-0.1l-0.1-0.2h-0.1h-0.1h-0.1v0.1l0.2-0.1h0.1h0.2l0.1,0.1
				h0.1h0.3l0.4-0.1h0.1l0.1,0.1l0.3,0.4h0.1h0.1h0.1h0.1h0.1l0.1-0.1h0.1h0.1l0.1,0.1H46h0.1v0.1l-0.4,0.2l0.1-0.1v-0.2l-0.1-0.2
				l-0.6-0.9l-0.3-0.5v-0.1l-0.1-0.4l-0.1-0.2l0.1-0.2l0.1-0.1l0.3-0.2L45,38.5l-0.4-0.2l-0.1-0.1v-0.1V38h-0.1h-0.1l-0.1-0.1v-0.1
				v-0.1v-0.1l-0.1-0.1v-0.1L44,37.3v-0.1v-0.1l-0.5-0.4l-0.7-0.5L42.1,36l-0.2-0.1h-0.1h-0.1h-0.1v-0.2v0.2h0.1h0.1l-0.2-0.1
				l-0.1-0.2l-0.1-0.2l-0.2-0.7v-0.1v-0.1v-0.1v-0.1l-0.1-0.1v-0.1V34v-0.1v-0.1L41,33.7v-0.1v-0.1l-0.6-0.7v-0.1v-0.1v-0.1v-0.1
				l-0.1-0.1v-0.1v-0.1V32l-0.1-0.3v-0.1v-0.1v-0.1v-0.1V31v-0.1L40,30.8l-0.2-0.2h-0.1h-0.1h0.1v-0.1h-0.1v-0.1v-0.1l-0.4-0.6v-0.1
				l-0.2-0.4l-0.5-0.4h-0.1v-0.1L38,28.6l-0.1-0.1l-0.2-0.2h-0.1l-0.1-0.1v-0.1h-0.1V28h-0.1l-0.4-0.2h-0.1h-0.5h-0.1l-0.1,0.1
				L36,28v0.1h-0.1l-0.1,0.1l-0.1,0.1l-0.1,0.1l-0.2,0.1h-0.2l-0.1-0.1h-0.6h-0.1h-0.1h-0.2l-0.6-0.2h-0.1h-0.2h-0.1L33,28l-0.2-0.1
				h0.1L33,28l0.1,0.1l0.1,0.1h0.1h0.3l0.5,0.2h0.1h0.1l0.1-0.1l0.1-0.1h0.1h0.2v-0.1v-0.2v-0.1h0.1H35l0.2-0.2l0.2-0.1v-0.1h0.1
				h0.2l0.2,0.1H36h0.1l0.2-0.1h0.2h0.1l0.1-0.1l0.2-0.2L36.8,27l-0.1-0.1h-0.1h-0.3v-0.1h-0.1l0.1-0.1v-0.1v-0.1v-0.1v-0.1h-0.1
				l-0.1-0.1H36h-0.1h-0.1v0.1l-0.6,0.3h-0.1L35,26.7h-0.1h-0.1h-0.1v-0.1h0.1l0.1-0.1l0.3-0.3l0.1-0.1l0.1-0.1l1-0.1l0.1-0.2
				l0.1-0.1h0.1l0.1-0.1l0.3-0.2l0.1-0.1v-0.1l0.1-0.1v-0.1v-0.1v-0.1v-0.1v-0.3v-0.1l0.1-0.1h0.1l0.2-0.1l0.1-0.1l0.1-0.1l0.1-0.1
				l0.1-0.1v-0.1v-0.1l0.1-0.1v-0.1v-0.1v-0.2l0.1-0.2l0.3-0.5l0.1-0.1v-0.1h-0.1V22v-0.1l0.1-0.3l0.2-0.6l0.1-0.1l0.3-0.3v-0.1
				l0.1-0.1l0.1-0.2l0.1-0.1V20l-0.1-0.1v-0.1v-0.1V19v-0.1v-0.1v-0.1l-0.3-0.3v-0.1h-0.1v-0.1v-0.1h-0.4h-0.1l-0.2,0.1h-0.1h-0.1
				l-0.1-0.1H38h-0.1l-0.1,0.1l-0.2-0.1h-0.1L37.4,18h-0.1L37,17.9L36.9,18v-0.1h-0.5h-0.1L36.1,18H36h-0.1l-0.4-0.1l-0.2-0.2h-0.4
				l-0.1,0.1v0.1V18v0.1l-0.1,0.1h-0.1h-0.1h-0.1l0.1,0.2v-0.1h-0.2l-0.5,0.4h-0.1h-0.3h-0.3H33l0.1,0.1v0.1H33h-0.1L32.8,19h-0.1
				l-0.1,0.1h-0.1h-0.1h-0.1V19l0.1-0.1h-0.1h0.2h0.1v-0.1l0.1-0.1h0.1H33l0.1-0.2l0.1-0.1l0.1-0.1l0.1-0.1v-0.1l-0.1,0.1h-0.1h-0.1
				h-0.2v-0.1l-0.1,0.1l-1.3,0.3l-0.1,0.1v0.1v0.1v0.1h-0.1v-0.1v-0.1l0.2-0.2v-0.1v-0.1h0.1h0.1l0.2-0.1H32l0.3-0.2h0.1l0.1,0.1
				v0.1v0.1h0.1h0.1l0.1-0.1l0.1-0.1l0.4-0.6v-0.1v-0.1v-0.1v0.1l-0.1,0.1l-0.1,0.1L33,17.6h-0.1v-0.1l-0.1-0.1h-0.1l-0.2,0.1h-0.1
				l-0.2-0.1v0.1h-0.1L32,17.4l-0.1-0.1l-0.1-0.1h-0.1h-0.2h-0.1l-0.1-0.1l-0.2-0.3h0.1l0.1,0.1l0.1,0.1l0.1,0.1l0.3-0.1h0.1
				l0.2,0.1h0.1l0.1-0.1h0.1h0.1v-0.1v-0.1l0.1-0.1l-0.1-0.1h-0.1v-0.1l0.1,0.1h0.1h0.1v-0.1v-0.1l0.2-0.1H33h0.1v-0.1v-0.1l0.1-0.1
				l0.2-0.1l0.7-0.6l0.1-0.2l0.1-0.1v-0.1v-0.1l0.2-0.2l0.1-0.1l0.3-0.1l0.1-0.1l0.1-0.1l0.2-0.3l0.1-0.3v-0.2v-0.1v-0.1h-0.1v-0.1
				v-0.1V13l0.1-0.1v-0.1v-0.1v-0.1v-0.1l0.1-0.1v-0.1h-0.1h-0.2h-0.1l-0.2-0.1h-0.1l-0.2,0.1h-0.1v-0.1v-0.1h-0.1l-0.1,0.1v0.1
				l0.1,0.1h0.1h0.1v0.1h-0.1l-0.2-0.1l-0.2,0.1H34l-0.1-0.1h-0.1h-0.1h-0.2l-0.1,0.1l-0.2,0.2l-0.1,0.1h-0.3h-0.3h-0.1l-0.1-0.1
				v0.1h-0.1h-0.1v0.1H32h-0.1L31.5,13h-0.1h-0.1l-0.1,0.1l-0.1,0.1L31,13.3l-0.1,0.1h-0.1l0.1-0.1v-0.1v-0.1L31,13v-0.1l-0.2-0.1
				l-0.1-0.1h-0.1h-0.1v0.1v0.1V13l-0.1,0.1h-0.1h-0.1v0.1l-0.2,0.2H30v-0.1l0.1-0.1l0.1-0.2l0.1-0.1v-0.1v-0.1v-0.1l-0.1-0.1h-0.1
				L30,12.4h-0.1v0.1v0.1v0.1v0.1v0.1h-0.1v-0.1v-0.1v-0.1v-0.1l-0.1-0.1l-0.1-0.1l-0.4-0.1l-0.1,0.1v0.1v0.1v0.1v0.1v0.1l-0.2,0.1
				V13v0.1l0.4,0.3l-0.1-0.1h-0.1l-0.2,0.1v0.1l0.1,0.1h-0.1l-0.2-0.1v0.1v0.1v0.1v0.1h-0.1v0.1l0.1,0.1l0.1,0.1l0.1,0.1v-0.1H29
				h0.2h-0.1l0.1,0.1v0.1L29,14.1h-0.2L28.7,14h-0.1v0.7h-0.1h-0.1l-0.1,0.1h-0.1h-0.1L28,14.7h-0.1h-0.1v0.1L28,15v0.1h0.1h0.1
				h-0.1h0.1v0.1v0.1v0.1l0.1,0.5h-0.1h-0.1L28,15.7h-0.1l-0.1,0.1l0.1,0.2H28h0.1v0.1h0.1l0.1,0.2h0.1h0.1v0.1v0.1h-0.1h0.1
				l0.3,0.3v0.1V17h-0.1l-0.1-0.2l-0.1-0.1l0.1,0.2l-0.1-0.1h-0.1h-0.1l-0.1-0.1h-0.1v0.1l0.2,0.1l0.1,0.1h0.1v0.1L28.3,17l-0.1-0.1
				l-0.1-0.1l-0.2,0.1V17v0.2v0.1h-0.1l-0.1-0.1l-0.1-0.1v-0.2h-0.1v-0.1l-0.3,0.1V17v0.1v0.1l0.1,0.1v0.1v0.1v0.1v0.1h-0.1v0.1
				h-0.1H27v-0.1v-0.1v-0.1v-0.1v-0.1l-0.1-0.1h-0.1h-0.1h-0.1v0.1v0.1v0.1v0.1v0.1v0.1V18v0.1l0.3,0.1v0.1l-0.1-0.1h-0.1l-0.1,0.1
				v0.1v-0.1v0.1v0.1h0.1l0.1,0.1v0.1l0.1,0.1H27v0.1l0.1,0.1l0.1-0.1h0.1h0.1l0.1,0.1h-0.1h-0.1h-0.2L27,18.9l-0.1-0.1h-0.1
				l-0.1,0.1h-0.1h-0.1h-0.1V19h-0.1v0.1v0.1v0.1v0.1v0.1v0.1h0.1v0.1l0.1,0.2h0.1h0.2h0.1l0.2-0.3h0.1v0.1v0.1l-0.1,0.1h0.1h0.1
				h0.1l0.1-0.1l0.1-0.2l0.1-0.1h0.1v0.2l-0.2,0.4l-0.4,0.2h-0.1H27l-0.1,0.2v0.1H27h0.1h0.1l0.1,0.1h0.1h0.1l0.1-0.1h0.1v-0.1h0.1
				h0.1h-0.1l-0.1,0.1v0.1v0.1h0.1h-0.1v0.1l-0.1-0.1l-0.1-0.1h-0.1l-0.1,0.1l-0.1,0.1l0.1,0.1v0.1l-0.1,0.2v0.1v0.1l0.3,0.1
				l0.1,0.1h0.1H28h0.1H28h-0.1h-0.3h-0.1l-0.1-0.1h-0.1h-0.1h-0.1v0.1l-0.4,0.2V22l0.1,0.1h0.1l0.1,0.1v0.1v0.1h0.1h0.1h0.1
				l0.1-0.1h0.1h0.1l-0.2,0.1h-0.2h-0.1H27l-0.1-0.1h-0.1h-0.1h-0.1l-0.1,0.1v0.1v0.1v0.1l-0.1,0.1l0.1,0.1h-0.1h-0.1h0.2l0.3-0.1
				h0.1l-0.1,0.1v0.1h0.1H27l0.1-0.1h0.1h0.1l-0.1,0.1L27.1,23h-0.3v0.1l0.1,0.1l0.2,0.1H27h-0.1h-0.1v0.1h0.1v0.1v0.1l-0.2-0.1
				h-0.1l-0.1,0.1L26,23.7l-0.7,0.1v0.1h0.1h0.1h0.1l0.1-0.1h0.1l0.2,0.1h0.2l0.1,0.1h0.1l0.4-0.2h0.1l0.2,0.1h0.1h0.3h-0.1h-0.1
				h-0.2H27l-0.2-0.1h-0.1L26.4,24v0.1l0.1,0.1l-0.1-0.1L26.3,24h-0.1H26v0.1l0.5,0.4h0.2l0.1-0.2v0.1v0.1h0.1H27h0.1v0.1l0.2-0.2
				l0.2-0.3l0.1-0.2v-0.1h0.1h0.1l0.1-0.1v-0.1H28v-0.1h0.1v-0.1v-0.1v-0.1l0.2-0.2l-0.1,0.1l-0.1,0.1l0.4,0.6v0.1l0.3,0.1l0.5-0.1
				h-0.1L28.9,24l-0.1,0.1h-0.1h-0.1h-0.1l-0.1,0.1h-0.1l-0.1,0.1h0.1v0.1l-0.1,0.1l-0.1,0.2l0.1,0.1l0.1-0.1h0.1h0.1l0.1-0.1v0.1
				h-0.1l-0.2,0.1h-0.1h-0.1H28l-0.1-0.1v0.1l-0.1,0.3l0.1-0.1v-0.1l0.1,0.2h0.1l0.1-0.1l0.3,0.1h0.1l0.1-0.1l0.1-0.1v-0.1v-0.1
				v-0.1h0.1l-0.1,0.1l-0.1,0.2l-0.2,0.3l0.1,0.3h-0.1l-0.3-0.1h-0.3l-0.1,0.1l-0.1,0.1l-0.1,0.2h0.1h0.1h0.1l-0.3,0.3h-0.1h-0.1
				l-0.1,0.1v0.1v0.2v0.1v0.1v0.1h0.1h-0.1h-0.1v0.1V27l-0.1,0.1L27,27.2v0.1v0.1l0.1-0.1l0.1-0.1l0.1-0.1h0.1v0.1v0.1l-0.1,0.2v0.1
				L27.1,28L27,28.2v0.2l0.1-0.1v-0.1l0.1-0.2v-0.1h0.1V28l-0.4,0.6v0.1v0.1l0.1-0.1h0.1l0.1-0.1h0.1v0.1l-0.1,0.1v0.1V29l-0.1,0.2
				v0.2v0.1v0.1h0.1v0.1l0.1-0.1l0.3-0.4l-0.1,0.2l0.1-0.1l-0.1,0.1h-0.1l-0.1,0.1v0.1v0.1v0.1L27.1,30v0.1v0.1L27,30.4l-0.1,0.2
				v0.1v0.2V31v0.1v0.1v0.1l-0.1,0.1l-0.1,0.1v0.1v0.1v0.2v0.1h0.1h0.1l0.1-0.1h0.1h0.1h0.1l0.1-0.1l0.1-0.1l0.1-0.2v-0.1l-0.1-0.1
				h0.1l0.1-0.1l0.1-0.2v-0.1v-0.1l0.1-0.1v-0.1H28v-0.1v-0.1v-0.1l0.1-0.1v-0.1V30v-0.1v-0.1l0.1-0.2h0.1v-0.1v-0.1l-0.1-0.1
				L28,29.1V29v-0.1v-0.1v-0.3v0.1h0.1h0.1h0.1v-0.1v-0.1v-0.1h0.1l0.3-0.4l0.4-0.3l0.1-0.2v-0.1h0.1h0.1h0.1l0.1-0.1h0.1l-0.1,0.2
				l-0.1,0.1l-0.3-0.7l-0.1,0.1L29,27l-0.1,0.3l-0.1,0.1h-0.2L28.2,28l-0.1,0.1v0.2v0.1v0.1v0.1v0.1h0.1l0.1,0.1h0.3v-0.1v-0.1
				l-0.1-0.2l0.1-0.1v-0.1v-0.1V28v0.1v0.1l0.2,0.2h0.1v-0.1v-0.1l-0.1-0.3l-0.1-0.1h0.1v0.1l0.1,0.2v0.1v0.2v0.1l0.1,0.1h0.1v-0.1
				v-0.1v-0.1v-0.1v-0.1V28v-0.1v-0.1v-0.1h0.1h0.1v-0.1v-0.1v-0.1v-0.1v-0.1V27v-0.2v-0.1v-0.1v0.1v0.1V27h0.1v-0.1l0.2-0.4v-0.1
				v0.1l-0.2,0.4l-0.1,0.3v0.2v0.1v0.1h0.1h0.1h0.1v-0.1l0.2,0.3v-0.1v-0.1v0.2v0.1l0.1,0.1l0.1,0.1l0.1,0.1l0.2,0.2l0.1,0.1
				l0.5,0.1l-0.1,0.1l-0.5-0.1h-0.1h-0.1l-0.2-0.1h-0.1h-0.1l-0.1,0.1v0.1v0.2v0.4v0.1v0.1v0.2v0.1h-0.1l0.1,0.1l0.1,0.1l0.2,0.1
				v0.1H30l0.2,0.1l0.1,0.1l0.1,0.1v0.1l-0.1,0.1h0.1l0.1,0.1v0.1v0.2l-0.1,0.1l-0.2,0.1l-0.1,0.1v0.1v0.1v0.1l-0.2,0.1l-0.1,0.1
				v0.1V32v0.1v0.1l-0.1,0.2v0.1l-0.2,0.3l-0.1,0.1L29.3,33v0.1v0.1v0.1l-0.1,0.1v0.1v0.1v0.1v0.1v0.1l0.1,0.2l-0.1,0.1h-0.1
				L29,34.1V34v-0.1v-0.1v-0.1v-0.1v-0.1v-0.1v-0.1v0.1h-0.1v0.1v0.2v0.2l0.1,0.2l0.1,0.2l0.3,0.4h0.1v0.1v0.1V35h0.1v0.1v0.1v0.1
				h0.1l0.1,0.1h0.1v-0.1v-0.1v-0.1l-0.3,0.3l-0.1-0.1v-0.1v-0.1V35v-0.1v-0.1l0.1-0.1l0.1-0.1h0.1h0.1H30l0.1,0.2h0.1h0.1l0.4,0.2
				l0.1,0.1l0.2,0.3H31l0.1,0.1h0.1h0.1v-0.1v-0.1v-0.1v-0.1V35v-0.1v-0.1v-0.1h-0.1v-0.1v-0.1v-0.1v-0.1v-0.1h0.1v0.1v0.1l0.2,0.1
				h0.1l0.1-0.1v0.2l0.1,0.2l0.2,0.1h0.1v-0.1v-0.1v-0.1v0.1v0.1v0.1h0.1h0.2l0.3-0.2l0.2-0.1l-0.1-0.1v-0.1h0.1v-0.1v0.1h0.2
				l0.1-0.1h0.1h0.3h0.1v-0.1v-0.1V34v-0.1v-0.1v-0.2l0.1,0.1h0.1H34h0.1h0.1l1,0.1l0.3-0.1h0.1h-0.1h-0.1h-0.1h0.2h-0.1l-0.3,0.1
				H35h-0.1l-0.2,0.1L34.6,34l0.2,0.1l-0.1,0.1h-0.1h-0.1l-0.1,0.1l-0.1,0.2l-0.1,0.3v0.1V35l-0.1,0.1v0.1H34v0.1l-0.1,0.3L33.8,36
				l-0.1,0.2v0.1h0.1l0.3,0.4l0.1,0.1l0.1,0.2h0.1v0.1v0.1v0.1v0.1l0.1,0.1l0.1,0.2l0.1,0.1h0.1h0.1H35v-0.1v-0.1v-0.1h0.1v0.1v0.2
				V38H35v0.1v0.1v0.1h0.1l0.1,0.2v-0.1v-0.1v-0.1h0.1v-0.1l0.1-0.1l0.1-0.1v-0.1v-0.1v-0.1v-0.1v0.1v0.1v0.1v0.1V38h0.1h0.1v-0.1
				v-0.1h0.1l0.1-0.1l0.1-0.1v-0.1v-0.1v0.1l-0.1,0.1l-0.1,0.1h-0.1v0.1l0.1,0.2l0.1,0.1l-0.1,0.1v0.1h-0.1v0.1l-0.1,0.1l0.1,0.1
				h0.1h0.1H36v0.1l-0.1,0.1v0.1h-0.1l-0.2,0.8h-0.1v0.1V40v0.4v0.2l0.1,0.1l0.1,0.1H36v0.1l-0.1,0.1V41l-0.2,0.2l-0.2,0.4v0.1v0.1
				v0.1l0.4,0.8l0.1,0.1l0.1,0.1l0.1,0.1l0.1,0.1h0.1h0.1V43h0.2v0.1l-0.1,0.1h-0.1h-0.1h-0.1l-0.1-0.1L36.1,43l-0.2-0.5l-0.4-0.2
				h-0.1l-0.1,0.1h-0.1h-0.1H35v0.1v0.1v0.1l0.1,0.2l0.1,0.2l0.1,0.1v0.2v-0.1v-0.1l-0.4-0.3v-0.1l-0.1-0.1l-0.1-0.1h-0.1L34,42.9
				h-0.1h-0.4h-0.1l-0.1-0.1l-0.1-0.1h-0.1H33v-0.1h-0.1h-0.1h-0.1v0.1l0.1,0.1v0.1h-0.1l-0.2,0.4l-0.1,0.1h-0.1h-0.1h-0.1H32
				l-0.1,0.1l-0.1,0.1l-0.1,0.1v0.1h-0.1L31.5,44v0.1v0.1v0.2v0.1v0.1l-0.2,0.1l-0.1,0.1L30.9,45h-0.1h-0.1h-0.1l-0.6,0.6v0.1v-0.1
				h0.2h0.1l0.1,0.1h0.1v0.1v-0.1v-0.1v-0.1h0.1l0.1-0.1l0.1-0.1h0.1h0.2h0.1h0.1l0.2-0.1h0.2h0.1l0.1-0.1v0.1l-0.2,0.1v0.1v0.1v0.1
				h-0.1l0.1,0.1l0.2,0.3H32h0.1h0.1v0.1l-0.1,0.1v0.1H32l-0.1,0.1l-0.1,0.1v0.1v0.1l0.1,0.2H32h0.1l0.2-0.1h0.1l-0.2,0.1h-0.1H32
				V47v0.1v0.1v0.1v0.1v0.2v0.1l-0.1,0.2l-0.2,0.3l-0.4,0.3h-0.1h-0.1H31l-0.1,0.1l-0.1,0.1h-0.1h-0.1h-0.4l-0.1,0.1V49l-0.1-0.1
				L30,49v0.6v0.1h-0.1h-0.1v0.1v0.1h-0.1h-0.1h-0.1v0.1h-0.1h-0.1l-0.2-0.1H29h-0.1v0.1L28.8,50l-0.1,0.1h-0.1l-0.1,0.1h-0.1h-0.1
				v0.1h0.1h0.2h0.1h0.1l0.1,0.1v0.1v0.1v0.1v0.1v0.1L28.8,51h-0.1h-0.1v0.1h-0.1h0.1l0.2,0.1v0.1v-0.1h0.1l0.5,0.1h0.1l0.3-0.1
				v-0.1V51v-0.1h-0.1h0.2H30h-0.1l-0.3,0.3v0.1l0.1,0.1l-0.1,0.1h-0.2h-0.1h-0.1H29l0.1,0.1h0.2v0.1v0.1l0.1,0.1l0.2,0.1v-0.1h0.1
				h0.1h0.3l0.1-0.1l0.1-0.1v-0.1l0.1-0.1h0.1h0.1h0.2h0.1l0.1-0.1v-0.1H31v-0.1v0.1h0.1h0.1h0.1h-0.1h-0.1v0.1l0.1,0.1l0.1,0.1h0.1
				h0.3l0.2,0.1H32l-0.1,0.1h-0.2h-0.2h-0.1v0.1h-0.1V52v0.1v0.1h-0.1h0.1l0.2,0.1v-0.1v-0.1h0.1h0.9V52h0.4l0.1,0.1h0.1v0.1v0.1
				v0.1v0.1v0.1l0.1,0.1h0.1h0.1l0.2,0.2l0.2,0.2h0.1l0.8,0.1l0.2-0.1H35l0.1-0.1v-0.1v-0.1v-0.1l0.1-0.1h0.1l0.2-0.1l0.1-0.1h0.3
				H36l0.2-0.1h0.2h0.1l0.1-0.1l0.2-0.3v-0.1l0.2-0.1v-0.1v-0.1v-0.1h0.1h0.1h0.1l0.1-0.1v-0.1v0.1v0.1h-0.1h-0.1h-0.1l0.2,0.1
				l-0.2,0.2l-0.5,0.8h-0.1h-0.1h-0.1h-0.1h-0.1l-0.2,0.3l-0.1,0.1h-0.1L35.6,53v0.1v0.1h-0.1v0.1v0.1v0.2v0.1l-0.1,0.1v-0.1
				l0.1,0.3h-0.1h-0.2h-0.1l-0.2,0.1h-0.4h-0.1L34.3,54l-0.4-0.1h-0.3l-0.4-0.1h-0.1L33,53.9h-0.1h-0.2h-0.1h-0.1L31.9,54l-0.2,0.1
				v0.1v0.1h-0.1l0.1,0.1v0.1l-0.2,0.2h-0.1h-0.2l-0.1-0.1h-0.3v0.1v0.1v0.1v0.2v0.5l-0.3,0.7l-0.1,0.1l-0.1,0.1v0.1v0.1l-0.2,0.2
				V57v0.1l-0.1,0.1v0.1L30,57.4h-0.1h-0.2h-0.1v0.1h0.1h0.1v0.1h-0.1h-0.1h-0.1v-0.1v-0.1v-0.1h-0.1l-0.2,0.2v0.1v0.1v0.1V58v0.1
				L29,58.2v0.1v0.1v0.1h-0.4l-0.4,0.4l-0.1,0.1H28V59v0.1h-0.1h-0.1L27.7,59h-0.1l-0.1,0.1h-0.1l-0.2,0.1h-0.1L27,59.4v0.1v0.1v0.2
				h0.1h0.2h0.1h0.1v-0.1v-0.1v-0.1l0.1-0.1h0.1h0.1h0.1l0.1,0.1h0.1l0.2,0.1h0.1l0.1,0.1l0.1,0.2V60l0.1,0.1V60l0.1-0.1h0.1
				l0.1-0.1v-0.1v-0.1h0.1v-0.1v-0.1v-0.1h0.1v0.2v0.1l0.1-0.2h0.1h0.1l0.1-0.1h0.1h0.2v-0.1v-0.1H30h0.1v0.1h0.5h0.1l0.2-0.1h0.1
				l0.3,0.1h0.1v0.1v0.1h0.1h-0.1h-0.1h0.1l-0.1-0.1H31l0.5-1.2h0.2v-0.1V58v-0.1h0.1V58v0.1v0.1v0.1v0.1h0.1v0.1v0.1l0.1,0.1h0.1
				h0.1h0.1l0.2,0.2l0.2,0.2l0.1,0.1V59h0.1H33h0.1h0.1h0.1v-0.1v-0.1v-0.1v-0.1h0.1h0.1v-0.1h0.1h0.1v-0.1v-0.1h-0.1h-0.1v-0.1
				v-0.1h0.1h0.1h0.1L33.7,58v-0.1v-0.1v-0.1v-0.1l0.1-0.1l0.1-0.1v-0.1v-0.2v0.1v0.1H34h0.1l0.2-0.1v-0.1V57v-0.1h0.1h0.1h0.1h0.1
				h0.1l0.1-0.1H35h0.1l0.1-0.1l0.2-0.1h0.1l0.6,0.2l0.7,0.5l0.1,0.1v0.2v-0.1v-0.1v-0.1h-0.1v-0.1v-0.1V57h0.1H37l0.1,0.1l0.6,0.1
				l0.2,0.1H38h0.3h0.1v-0.1l0.1-0.1V57h-0.1h-0.1l-0.1-0.1l0.1-0.2v0.1h0.1h0.1v0.1v-0.1h0.1h0.1h0.1h0.1h0.2h0.1l0.1-0.1h0.1h0.1
				h0.2h0.1h0.1l0.1-0.2H40h0.1h0.1h0.2h0.1v-0.1v-0.1L40.2,56l-0.1-0.1H40l0.4,0.2l0.1,0.1h0.1l0.1,0.1l0.1,0.1h0.1H41v-0.1v-0.1
				l-0.1-0.1h0.2h0.1v0.1l-0.1,0.1v0.1l0.1,0.1h0.1v-0.1v-0.1v-0.1h0.1h0.1h0.1h0.1v0.1l0.1,0.1h-0.1v0.1l0.3,0.2h0.1h0.1v-0.1v-0.1
				l0.5-0.2h0.6l0.4-0.1h0.1h0.1H44l0.7,0.2h0.1h0.1l0.1,0.1h0.1l0.1,0.1h0.1h0.1l0.1-0.2l0.1-0.1v-0.1l0.1-0.1l0.7-0.2l0.1-0.1
				l0.3-0.3h0.1l0.5,0.2h0.1v-0.2v-0.1v-0.1l0.2-0.2l0.1-0.1h0.1H48h0.2h0.1h0.1l0.1-0.1l0.2-0.1l0.1-0.1l0.1-0.2v-0.2v-0.2L48.7,54
				v-0.1v-0.1h0.1v-0.2h-0.1l-1,0.1l-0.4,0.1l-0.7-0.1v-0.1v-0.1v-0.1h-0.1v0.1v0.1h-0.1h-0.3h0.1h0.1l0.1-0.1h0.1h0.1h0.1v-0.1
				v-0.1l-0.5-0.1l-0.2,0.1h-0.2v-0.1v-0.1V53l0.2-0.1h0.1l0.1,0.1l0.1-0.1h0.1h0.3h0.1l0.2-0.1l0.2-0.2l0.1-0.1h-0.1v-0.1v-0.1
				v-0.1l-0.1-0.1h-0.1L47,52.2h-0.1h-0.2l1.1-0.7v-0.1h-0.1h-0.1h-0.1h0.1l0.2-0.1h0.1H48h0.1v-0.1v-0.1l0.1-0.1l0.1-0.1v-0.1v-0.1
				v0.1l0.1,0.1l0.1,0.1h0.1h0.2h0.1l0.2-0.1l0.2-0.2v-0.1v-0.1v0.1h-0.1H49l0.3-0.3v-0.1h-0.1h-0.5h-0.1h0.1l0.2-0.1H49l0.1,0.1
				h0.1h0.1v-0.1h-0.1h-0.1L49,50h0.1l0.2,0.1h0.1l0.2,0.3v-0.1l0.2-0.3l0.1-0.1v-0.1l0.1-0.1l0.3-0.1v-0.1v-0.1v-0.1l0.1-0.2v-0.1
				v-0.2v-0.1v-0.1l0.1-0.2l0.1-0.4V48l0.1-0.3v-0.1L50.9,47.2z M41.8,56.6l-0.2-0.1l-0.5-0.2H41l-0.1,0.1l-0.1,0.1h-0.1l-0.3,0.1
				l-0.1,0.1l-0.1,0.1h0.1h0.1h0.1l0.1,0.1l0.4,0.3h0.1l0.4-0.1V57v-0.1l0.1-0.1h0.1h0.1C41.8,56.8,41.8,56.6,41.8,56.6z M27.1,38
				L27.1,38l0.2-0.2l0.1-0.1v-0.2v-0.2l-0.1-0.1h-0.1L27,37.3h-0.1v-0.1l0.1-0.1V37l0.1-0.3v-0.1v-0.1L27,36.4h0.1h0.1h-0.1v-0.1
				v-0.1h0.1l0.1,0.1l0.2,0.2l0.1,0.1v0.1v0.2V37l-0.1,0.1v0.1v0.1v0.1v0.1v0.1v-0.1v-0.1v-0.1v-0.1v-0.1l0.1-0.1v-0.1l-0.1-0.2
				v-0.1v-0.2h-0.1v-0.1l-0.1-0.2V36v-0.1L26.9,36h-0.1h-0.1h-0.1h-0.1l0.1-0.3h-0.1l-0.1,0.1v-0.1l0.1-0.2l0.1-0.1l0.1-0.1h0.1
				l0.2-0.1h0.1l0.1-0.1V35v-0.2v-0.2l-0.1-0.1L27,34.4h-0.1l-0.1,0.1l0.2,0.2l0.1,0.1L27,34.7h-0.1l-0.3,0.1v-0.2v-0.1v-0.1v-0.1
				h-0.1v-0.1l-0.1-0.1L26.3,34h-0.1h-0.1l0.1-0.2v-0.1v-0.1h-0.1H26v-0.1v-0.1v-0.3V33l-0.1-0.1h-0.1h-0.1h-0.1L25.5,33h-0.1h-0.1
				L25,32.8h-0.1l-0.3-0.4h-0.1l-0.1-0.1h-0.1h-0.1l-0.1,0.1v0.1H24h-0.2l-0.3,0.2h-0.4H23l-0.1-0.1h-0.1v0.1V33v0.1v0.1v0.1v0.1
				l-0.2,0.1h-0.1h-0.1l-0.1-0.1h-0.1h-0.1H22v-0.1h-0.2l-0.4,0.4v0.1v0.1h-0.1V34v0.1v0.1v0.1l-0.1,0.1l-0.2,0.3v0.1v0.1H21h-0.1
				h-0.1h-0.1L20.6,35l-0.1,0.1h-0.1L20.3,35l-0.1-0.1L20.1,35l-0.2,0.1H20v0.1v0.1h0.1h0.1v0.1h0.1l0.1,0.1h0.1h0.1h0.1v0.1h-0.1
				l-0.3,0.3h-0.1h-0.1l-0.2-0.1l-0.1,0.1L19.7,36v0.1h-0.1l-0.5,0.6H19l0.1,0.1l0.1,0.2l0.1,0.1h0.1h0.1l0.1,0.2v0.1l0.1,0.1h0.1
				h0.1v0.1v0.2v0.1H20h0.2h0.2h0.1l0.2,0.2l0.3,0.1h0.1l0.1-0.1h0.1l0.2,0.1h0.1L21.5,38l0.1-0.1V38v0.1V38v-0.1h0.1v-0.1h0.2h0.1
				v-0.1v-0.1l-0.1-0.1v-0.1l0.3,0.3v-0.1v-0.1h0.1l0.1-0.1l0.2-0.3l0.1-0.1h0.1l0.1,0.1l0.2,0.2v0.1l0.1,0.2v0.1v0.1H23l0.1,0.1V38
				v0.1l0.1,0.1l0.1,0.1l0.1,0.1h0.1l0.1,0.1l0.1,0.1v0.1v0.1l0.1-0.1v0.1v0.1L23.7,39l0.1,0.1V39l0.3-0.1h0.1h0.1h0.1v-0.1h0.1h0.1
				h0.1v0.1l0.2,0.1h-0.1h0.1H25h0.1l0.1-0.1l0.1-0.1l0.1-0.1l0.1-0.1v-0.1v-0.1v-0.1v-0.1V38v-0.1h0.1h0.1l0.1-0.1h0.1L27.1,38z
				 M42.2,56.2H42H42.2z M30.6,43.2V43h-0.1l-0.1,0.1L30.6,43.2l0.2,0.2v-0.1L30.6,43.2z M27.5,25.8l0.1-0.2h-0.1V25.8L27.5,25.8
				L27.5,25.8z M31.5,42.6l-0.1-0.2h-0.1h-0.2l-0.4,0.1l-0.2,0.1v0.1v0.1V43v0.1v0.1v0.1l0.1,0.1l0.1,0.2l0.1,0.1l0.1,0.1l0.1-0.1
				v0.1v0.1h0.1l0.2-0.1l0.1-0.1l0.1-0.1l0.1-0.1l0.1-0.1h0.1h0.1H32l0.1-0.2l0.1-0.1h-0.1v0.1H32v-0.1L31.9,43L31.5,42.6z
				 M29.2,29.5v-0.2v-0.1v-0.1V29v-0.1l-0.1-0.1L29,28.7l-0.4-0.1v0.1v0.1v0.1l0.1,0.1v0.1v0.2v0.1l0.2,0.2v0.1L29.2,29.5z
				 M22.4,15.6L22.4,15.6l0.1,0.3l0.1-0.1h0.1v0.1h0.1l0.3-0.1l-0.2,0.1h-0.1h-0.1h-0.1V16h-0.1l0.2,0.1v0.1h0.1H23l0.1,0.1h0.2
				h-0.1h-0.1H23l-0.1,0.6l0.2,0.1h-0.2h-0.1v0.1l-0.3,0.3v-0.1v-0.1h-0.1l0.2,0.2l0.2,0.2l0.1-0.1l0.2-0.1l0.1-0.1l0.1-0.1v-0.1
				l0.2,0.1h0.1h0.1h0.1l-0.1-0.1h-0.1l0.1,0.1l0.3,0.1v-0.1v-0.1l-0.4-0.8v-0.1h0.1l0.1-0.1l0.1-0.1v-0.1h0.3h-0.1H24L23.9,16v0.2
				v0.1v0.1l0.1,0.2v0.1l0.1,0.1v-0.1v-0.1v0.1v0.1h0.1h0.1h0.1h0.1h0.1l0.1-0.1v-0.1h-0.1l-0.1-0.1h-0.1h0.1l0.3,0.1h0.1l0.1-0.1
				v-0.1l0.1-0.1v-0.1v-0.1V16L25,16.1l-0.4,0.1h-0.1h0.1h0.2l0.1-0.1L25,16h0.2h0.1v-0.1l-0.1-0.2h0.1l0.1,0.1h0.1h0.1h0.1l0.1,0.1
				h0.1v-0.1H26v-0.1h-0.1l-0.7-0.8h-0.1H25h-0.1l-0.1-0.1h0.1v-0.1H25v-0.1v-0.1l0.1-0.1l0.1-0.1h0.1l0.1-0.3h0.1v-0.1l-0.1-0.1
				v-0.1v-0.1l-0.1-0.1l-0.1-0.1h-0.1L25,13.6l-0.2,0.2l-0.5,0.2L24.2,14L24,14.1h-0.1h-0.1l-0.2,0.2l-0.3,0.2v0.1v0.1v0.1l0.1,0.1
				l0.2,0.4v-0.1l-0.1-0.1h-0.1h-0.1h-0.1v0.1v0.1v0.1v0.1v-0.1v-0.1v-0.1v-0.1L23.1,15v-0.1h0.1h-0.3l-0.1-0.1l-0.2,0.1V15v0.1h0.1
				h-0.1h-0.2v0.1v0.1V15.6z M22.5,17L22.5,17l0.1-0.2l0.1,0.1v-0.1h-0.1h-0.1V17z M21.3,18.9L21.3,18.9h0.2l0.2,0.1h0.1h-0.1v0.1
				h0.1h0.1h0.1H22h0.1h0.1l0.1-0.1h-0.1h-0.1l-0.2,0.1h-0.2l0.1-0.1v0.1H22l0.1-0.1l0.1-0.1h-0.1H22v-0.1v-0.1h-0.1H22l0.1,0.1
				l0.1-0.1v-0.1h-0.1H22l-0.1,0.1h-0.1h0.1v-0.1v-0.1v-0.1h-0.1l-0.2,0.1h-0.1h-0.1l-0.2-0.1v-0.1l-0.1,0.1h0.5l-0.1,0.1l-0.1-0.1
				h0.1h-0.2h-0.1l-0.1,0.1v0.1l-0.1,0.1L21,18.8L21.3,18.9z M22.2,18L22.2,18L22.2,18L22,18.1L22.2,18z M25.3,25.4h0.2v-0.1
				l-0.1-0.1v-0.1v0.1L25.3,25.4z M23.2,25.3L23.2,25.3l0.1-0.2h0.2V25v-0.1h-0.1L23.2,25h-0.1L23,25.1h-0.1h-0.2h-0.1v0.1v0.1v0.1
				l0.2,0.1h0.1v-0.1L23.2,25.3z M23.2,14.9L23.2,14.9l0.3,0.1v-0.1l-0.1-0.1L23.2,14.9L23.2,14.9z M21.3,22.7L21.3,22.7L21.3,22.7
				l0.2-0.1l-0.1-0.1v-0.1L21.3,22.7L21.3,22.7L21.3,22.7l-0.2,0.1v0.1v0.1H21V23v0.1h0.1L21.3,22.7z M21.8,20.9l0.1-0.2v-0.1v-0.1
				h-0.1h-0.1h-0.1v-0.1h-0.1v-0.1h0.1l0.1,0.1l0.1,0.1l0.1,0.1l0.1,0.1h0.1h0.1h-0.1L22,20.6h-0.1H22l-0.4-0.7L21.6,20h-0.1
				l0.1,0.3v0.2v0.1v0.1v0.1v0.1l0.1,0.1v0.1v0.1l0.1,0.3v0.1l0.1,0.1l0.1-0.1l0.3,0.1l0.1-0.1h-0.1v-0.1v-0.1h-0.1H22h-0.1H22h0.1
				h0.1v-0.1v-0.1v-0.1L21.8,20.9h-0.2H21.8z M21.9,19.5L21.9,19.5l-0.2-0.1l-0.1,0.1v0.1v0.1v0.1l0.3,0.2H22l0.3-0.1h-0.1v-0.1h0.1
				l0.1-0.1l-0.1-0.1L21.9,19.5z"/>
		</g>
	</g>
	<g id="Layer_2_1_">
		<g>
			<path class="st0" d="M4,52.4c-0.4-0.1-0.8-0.4-1-0.9c-0.2-0.5-0.3-1-0.1-1.4c0.2-0.4,0.5-0.6,1-0.9l2.2-1.1l0.3,0.5l-2.2,1.2
				c-0.3,0.2-0.6,0.3-0.8,0.6c-0.1,0.3-0.1,0.6,0,0.9c0.2,0.3,0.4,0.5,0.7,0.5c0.3,0.1,0.6-0.1,0.9-0.2l2.2-1.1L7.5,51l-2.2,1.1
				C4.8,52.4,4.4,52.5,4,52.4z"/>
			<path class="st0" d="M7.7,58.6l0.8-2.4l-0.6-0.1l-1.3,1l-0.4-0.4l3.3-2.6l0.4,0.5l-1.4,1.1L11,56l0.4,0.6l-2.3-0.2l-1,2.9
				L7.7,58.6z"/>
			<path class="st0" d="M17.7,67.1l-0.5-0.3l0.9-3.4l-2.6,2.3L15,65.4l1.2-4.2l0.5,0.3l-1,3.3l2.6-2.3l0.5,0.3l-0.9,3.3l2.5-2.4
				l0.5,0.3L17.7,67.1z"/>
			<path class="st0" d="M25.3,70.2L25.2,69l-1.7-0.6l-0.8,0.9l-0.6-0.2l2.9-3.5l0.5,0.2l0.3,4.5L25.3,70.2z M25.1,66.5L23.8,68
				l1.4,0.5L25.1,66.5z"/>
			<path class="st0" d="M32.1,71.4l-0.9-1.9h-0.5l-0.2,1.7L30,71.1l0.5-4.2l1.2,0.1c0.7,0.1,1.4,0.5,1.3,1.3c-0.1,0.7-0.6,1-1.1,1
				l1,2L32.1,71.4z M32,67.8c-0.2-0.2-0.4-0.2-0.7-0.2h-0.4L30.7,69h0.4c0.3,0,0.5,0,0.7-0.1c0.2-0.1,0.3-0.3,0.3-0.5
				C32.3,68.1,32.2,67.9,32,67.8z"/>
			<path class="st0" d="M36.8,71.5l-0.3-4.2l2.5-0.2v0.5l-1.9,0.1l0.1,1.3l1.8-0.1v0.5l-1.8,0.1l0.1,1.5l1.9-0.2v0.5L36.8,71.5z"/>
			<path class="st0" d="M46.3,69.7l-0.6-1.9l-2.2,0.6l0.6,1.9l-0.6,0.2l-1.2-4l0.6-0.2l0.5,1.7l2.2-0.6l-0.5-1.8l0.6-0.2l1.2,4
				L46.3,69.7z"/>
			<path class="st0" d="M53,66.7c-1,0.6-2.3,0.4-3-0.8c-0.7-1.2-0.2-2.4,0.8-3c1-0.6,2.3-0.4,3,0.8C54.4,64.9,54,66.1,53,66.7z
				 M51,63.4c-0.7,0.4-1,1.3-0.5,2.2c0.5,0.9,1.5,1.1,2.2,0.6c0.7-0.4,1-1.3,0.5-2.2C52.7,63.1,51.8,63,51,63.4z"/>
			<path class="st0" d="M60.1,60.5c0,0.4-0.2,0.9-0.6,1.2c-0.4,0.4-0.8,0.5-1.3,0.5c-0.4,0-0.8-0.3-1.1-0.7l-1.7-1.8l0.4-0.4
				l1.7,1.8c0.2,0.3,0.5,0.5,0.8,0.6c0.3,0,0.6,0,0.8-0.3c0.3-0.3,0.4-0.5,0.3-0.8c0-0.3-0.3-0.6-0.5-0.8l-1.7-1.8l0.4-0.4l1.7,1.8
				C59.8,59.7,60,60,60.1,60.5z"/>
			<path class="st0" d="M64.2,56.3c-0.4,0.6-1.1,0.7-1.4,0.7l-0.1-0.5c0.4,0,0.8-0.2,1.1-0.5c0.3-0.4,0.3-0.8-0.1-1.1
				c-0.4-0.3-0.8,0-1,0.2c-0.2,0.1-0.5,0.3-0.6,0.4c-0.4,0.2-0.8,0.3-1.2,0c-0.6-0.4-0.5-1.2-0.2-1.8c0.4-0.6,1-0.7,1.1-0.7l0.2,0.5
				c-0.3,0-0.7,0.2-0.9,0.5c-0.2,0.3-0.3,0.7,0.1,0.9c0.4,0.2,0.6,0.1,0.8-0.1l0.7-0.5c0.4-0.2,0.9-0.3,1.3,0
				C64.7,54.9,64.7,55.7,64.2,56.3z"/>
			<path class="st0" d="M67,51.3l-3.9-1.7l1-2.3l0.5,0.2l-0.8,1.7l1.2,0.5l0.7-1.6l0.5,0.2l-0.7,1.6l1.3,0.6l0.8-1.8l0.5,0.2
				L67,51.3z"/>
		</g>
		<g>
			<path class="st0" d="M7.5,20.1c0.2,0.4,0.1,0.9-0.1,1.4c-0.3,0.5-0.6,0.8-1,0.9c-0.4,0.1-0.8-0.1-1.3-0.3l-2.3-1.3l0.3-0.5
				l2.2,1.1c0.3,0.2,0.6,0.3,0.9,0.3c0.3,0,0.5-0.2,0.7-0.5c0.2-0.3,0.2-0.6,0.1-0.9c-0.1-0.3-0.4-0.5-0.7-0.6l-2.2-1.1l0.3-0.5
				l2.1,1.1C7,19.4,7.4,19.6,7.5,20.1z"/>
			<path class="st0" d="M11.6,15.2l-2.5-0.3l0.1,0.6l1.3,1.1l-0.4,0.5l-3.3-2.7l0.4-0.5L8.6,15l-0.3-2.5L8.8,12l0.3,2.3l3.1,0.3
				L11.6,15.2z"/>
			<path class="st0" d="M20.5,8.2L20,8.5l-2.6-2.4l0.9,3.5l-0.5,0.3l-3.2-3l0.5-0.3L17.6,9l-0.9-3.5l0.5-0.3l2.5,2.4l-0.9-3.3
				l0.5-0.3L20.5,8.2z"/>
			<path class="st0" d="M26.8,5.7l-0.7-0.9l-1.7,0.6l-0.1,1.2l-0.7,0.1l0.3-4.5L24.4,2l2.9,3.5L26.8,5.7z M24.4,2.9l-0.1,2l1.4-0.5
				L24.4,2.9z"/>
			<path class="st0" d="M32.4,4.8l-1.3-1.7l-0.5,0.1l0.2,1.8L30.3,5l-0.5-4.2l1.2-0.1c0.7-0.1,1.5,0.2,1.6,1
				c0.1,0.7-0.4,1.1-0.8,1.3l1.4,1.7L32.4,4.8z M31.6,1.3c-0.2-0.1-0.4-0.1-0.7-0.1h-0.4l0.2,1.4h0.4c0.3,0,0.5-0.1,0.7-0.2
				C32,2.2,32,2.1,32,1.8C31.9,1.6,31.8,1.4,31.6,1.3z"/>
			<path class="st0" d="M36.2,4.7l0.3-4.2L39,0.7v0.5l-1.9-0.1L37,2.4l1.8,0.1V3L37,2.9l-0.1,1.5h1.8v0.5L36.2,4.7z"/>
			<path class="st0" d="M44.6,6.1l0.5-1.9l-2.2-0.6l-0.5,1.9l-0.6-0.2l1.2-4l0.6,0.2l-0.5,1.7l2.2,0.6l0.5-1.7l0.6,0.2l-1.3,4
				L44.6,6.1z"/>
			<path class="st0" d="M49.9,8.5c-1-0.6-1.5-1.8-0.9-3c0.6-1.2,1.9-1.4,3-0.9s1.5,1.8,0.9,3C52.3,8.8,50.9,9.1,49.9,8.5z M51.7,5.1
				c-0.8-0.4-1.7-0.2-2.2,0.7C49,6.7,49.3,7.6,50.1,8c0.8,0.4,1.7,0.2,2.2-0.7C52.8,6.4,52.5,5.6,51.7,5.1z"/>
			<path class="st0" d="M56.8,12.9c-0.4,0.1-0.9-0.1-1.3-0.4c-0.4-0.4-0.6-0.8-0.6-1.2c0-0.5,0.2-0.8,0.6-1.2l1.6-1.9l0.5,0.4
				L56,10.4c-0.2,0.3-0.5,0.5-0.5,0.8c0,0.3,0.1,0.6,0.4,0.8c0.3,0.2,0.6,0.3,0.9,0.3c0.3-0.1,0.5-0.3,0.8-0.6l1.6-1.8l0.4,0.4
				l-1.6,1.9C57.5,12.5,57.2,12.8,56.8,12.9z"/>
			<path class="st0" d="M59.6,16.8c-0.5-0.6-0.3-1.2-0.3-1.5h0.5c-0.1,0.3-0.1,0.9,0.2,1.2c0.3,0.3,0.7,0.5,1.1,0.2
				c0.3-0.3,0.2-0.7,0.1-1C61.1,15.5,61,15.2,61,15c-0.1-0.5,0-0.9,0.4-1.2c0.6-0.5,1.3-0.1,1.7,0.4c0.4,0.5,0.3,1.1,0.3,1.3h-0.5
				c0-0.3,0-0.7-0.2-1c-0.3-0.3-0.6-0.5-0.9-0.2s-0.2,0.6-0.2,0.8l0.2,0.8c0.1,0.5,0,0.9-0.4,1.2C60.9,17.7,60.1,17.4,59.6,16.8z"/>
			<path class="st0" d="M62.3,20.7l3.8-1.9l1.1,2.2l-0.4,0.2l-0.9-1.7l-1.1,0.6l0.8,1.6l-0.4,0.2l-0.8-1.6L63.1,21l0.9,1.7l-0.4,0.2
				L62.3,20.7z"/>
		</g>
	</g>
</g>
</svg>
