<svg width="11" height="7" viewBox="0 0 11 7" fill="none" xmlns="http://www.w3.org/2000/svg">
<path d="M6.91406 0.21875L6.44531 0.6875C6.35156 0.804688 6.35156 0.96875 6.46875 1.08594L8.34375 2.89062H0.28125C0.117188 2.89062 0 3.03125 0 3.17188V3.82812C0 3.99219 0.117188 4.10938 0.28125 4.10938H8.34375L6.46875 5.9375C6.35156 6.05469 6.35156 6.21875 6.44531 6.33594L6.91406 6.80469C7.03125 6.89844 7.19531 6.89844 7.3125 6.80469L10.4062 3.71094C10.5 3.59375 10.5 3.42969 10.4062 3.3125L7.3125 0.21875C7.19531 0.125 7.03125 0.125 6.91406 0.21875Z" fill="white"/>
</svg>
